<?xml version="1.0" encoding="utf-8"?>
<!-- Generator: Adobe Illustrator 27.5.0, SVG Export Plug-In . SVG Version: 6.00 Build 0)  -->
<svg version="1.1" id="Layer_1" xmlns="http://www.w3.org/2000/svg" xmlns:xlink="http://www.w3.org/1999/xlink" x="0px" y="0px"
	 viewBox="0 0 1000 1800" style="enable-background:new 0 0 1000 1800;" xml:space="preserve">
<style type="text/css">
	.st0{fill:#746459;}
</style>
<path class="st0" d="M891.8,1701.4C891.8,1701.4,891.8,1701.4,891.8,1701.4L891.8,1701.4c-15.4-3-30.4,7.1-33.4,22.5c0,0,0,0,0,0
	c-4.8,24.5,19.5,48.9,19.5,48.9s31.7-13.5,36.4-38C917.3,1719.4,907.2,1704.4,891.8,1701.4z M903.3,1732.6
	c-1.8,9.4-10.9,15.5-20.3,13.7c-9.4-1.8-15.5-10.9-13.7-20.3c1.8-9.4,10.9-15.5,20.3-13.7c0,0,0,0,0,0
	C899,1714.2,905.1,1723.3,903.3,1732.6z M216.8,618.7c23.8-16.6,29.6-49.3,13.1-73.1c0,0,0,0,0,0l0,0c-16.6-23.8-49.3-29.6-73.1-13
	c-37.7,26.3-36.9,89.8-36.9,89.8S179.1,645,216.8,618.7z M160.6,593.9L160.6,593.9c-10.1-14.4-6.5-34.3,7.9-44.4
	c14.5-10.1,34.3-6.5,44.4,7.9c10.1,14.5,6.5,34.3-7.9,44.4C190.5,611.9,170.7,608.3,160.6,593.9z M123.8,701.5l-2.9-0.3l-0.4,4
	l2.9,0.3l3.3,0.3l0.6,0.1l0.3-3l0.7-6.9l-4-0.4L123.8,701.5z M173.9,434L173.9,434c-7.3,9.3-5.6,22.8,3.7,30.1
	c14.8,11.5,39.5,3.6,39.5,3.6s1.7-25.9-13.1-37.4C194.7,423,181.2,424.6,173.9,434z M180.5,439.1
	C180.5,439.1,180.5,439.1,180.5,439.1c4.4-5.7,12.6-6.7,18.3-2.3c5.7,4.4,6.7,12.6,2.3,18.3c0,0,0,0,0,0c-4.4,5.7-12.6,6.7-18.3,2.3
	C177.1,453,176.1,444.8,180.5,439.1z M112.1,687L112.1,687c-9.2,7.5-10.6,21-3.1,30.2c11.8,14.6,37.7,12.4,37.7,12.4
	s7.5-24.8-4.3-39.4C134.8,681,121.3,679.6,112.1,687z M133.8,713.8C133.8,713.8,133.8,713.8,133.8,713.8c-5.6,4.5-13.8,3.7-18.3-1.9
	c-4.5-5.6-3.7-13.8,1.9-18.3c0,0,0,0,0,0c5.6-4.5,13.8-3.7,18.3,1.9C140.3,701.1,139.4,709.3,133.8,713.8z M899.5,1490.3l-4,0.4
	l0.5,5.9l-2.9,0.3l0.4,4l2.9-0.3l3.3-0.3l0.6-0.1l-0.3-3L899.5,1490.3z M160.1,249.7l-4.4,3l2.1,3.2l2.5,3.7l0.5,0.7l3.3-2.2
	l7.7-5.2l-3-4.4l-6.6,4.4L160.1,249.7z M133.6,251.1C133.6,251.1,133.6,251.1,133.6,251.1c-4.8,24.5,19.5,48.9,19.5,48.9
	s31.7-13.5,36.4-38c3-15.4-7-30.4-22.5-33.4c0,0,0,0,0,0h0C151.6,225.6,136.6,235.7,133.6,251.1z M178.6,259.9
	c-1.8,9.4-10.9,15.5-20.3,13.7c-9.4-1.8-15.5-10.9-13.7-20.3c1.8-9.4,10.9-15.5,20.3-13.7c0,0,0,0,0,0
	C174.3,241.5,180.4,250.5,178.6,259.9z M186.2,449.7l2.9-0.4l3.3-0.4l0.6-0.1l-0.4-3l-0.9-6.9l-4,0.5l0.7,5.9l-2.9,0.4L186.2,449.7z
	 M150.2,1127.3l-4,0.5l0.7,5.9l-2.9,0.4l0.5,4l2.9-0.4l3.3-0.4l0.6-0.1l-0.4-3L150.2,1127.3z M273.1,1338.4
	c32.2-25.9,37.3-73,11.4-105.3c0,0,0,0,0,0c-25.9-32.2-73-37.3-105.3-11.4c-51.1,41.1-43.8,131.3-43.8,131.3
	S222.1,1379.5,273.1,1338.4z M197.7,1244.6c19.6-15.7,48.2-12.6,63.9,6.9c15.7,19.6,12.6,48.2-6.9,63.9c0,0,0,0,0,0
	c-19.6,15.7-48.2,12.6-63.9-6.9c0,0,0,0,0,0C175,1289,178.2,1260.4,197.7,1244.6z M253.1,1290l1.5-13.8l-20.7-2.2l1.1-10l-13.8-1.5
	l-1.1,10.1l-1.3,11.6l-0.2,2.2l10.4,1.1L253.1,1290z M330.6,606.1c8.2-8.5,8-22.1-0.5-30.3l0,0c-8.5-8.2-22.1-8-30.3,0.5
	c-13,13.5-7.7,38.9-7.7,38.9S317.6,619.6,330.6,606.1z M305.8,582.2c5-5.2,13.2-5.3,18.4-0.3c0,0,0,0,0,0c5.2,5,5.3,13.2,0.3,18.4
	c-5,5.2-13.2,5.3-18.4,0.3c0,0,0,0,0,0C300.9,595.6,300.8,587.3,305.8,582.2z M754.4,1580.9l-8-11.5l-15.9,11l8,11.5l9.3,13.3
	l1.8,2.6l11.9-8.3l27.7-19.3l-11.1-15.9L754.4,1580.9z M175.5,1156c0,0,1.7-25.9-13.1-37.4c-9.3-7.3-22.8-5.6-30.1,3.7l0,0
	c-7.3,9.3-5.6,22.8,3.7,30.1C150.8,1163.9,175.5,1156,175.5,1156z M141.2,1145.7c-5.7-4.4-6.7-12.6-2.3-18.3c0,0,0,0,0,0
	c4.4-5.7,12.6-6.7,18.3-2.3c5.7,4.4,6.7,12.6,2.3,18.3c0,0,0,0,0,0C155,1149.2,146.8,1150.2,141.2,1145.7z M770.3,1492
	C770.3,1492,770.3,1492,770.3,1492c-56.6-10.1-110.6,27.5-120.8,84c-16.1,89.6,73.8,177.5,73.8,177.5s114.9-51.2,130.9-140.8
	C864.5,1556.2,826.9,1502.2,770.3,1492z M814.1,1605.6C814.1,1605.6,814.1,1605.6,814.1,1605.6c-6.2,34.3-39,57.2-73.3,51
	c0,0,0,0,0,0l0,0c-34.3-6.2-57.2-39-51-73.3c6.2-34.3,39-57.2,73.3-51C797.4,1538.4,820.3,1571.2,814.1,1605.6z M326.2,856.8l-4.4,3
	l2.1,3.2l2.5,3.7l0.5,0.7l3.3-2.2l7.7-5.2l-3-4.4l-6.6,4.4L326.2,856.8z M263.3,706.7l-10.4,7.6l5.5,7.5l6.3,8.7l1.2,1.7l7.8-5.7
	l18.2-13.2l-7.6-10.4l-15.6,11.3L263.3,706.7z M242,987.7l-12.2,9.5l14.2,18.2l-8.8,6.9l9.5,12.2l8.8-6.9l10.2-8l2-1.5l-7.1-9.1
	L242,987.7z M887,1725.6l-2.1-3.2l-4.4,3l2.1,3.2l2.5,3.7l0.5,0.7l3.3-2.2l7.7-5.2l-3-4.4L887,1725.6z M313.2,592.6l0,0.6l3-0.1
	l7-0.1l-0.1-4l-6,0.1l0-2.9l-4,0.1l0,2.9L313.2,592.6z M278.1,654.9L278.1,654.9c-37.7-5.9-73.1,19.8-79.1,57.5
	c-9.4,59.8,51.6,116.9,51.6,116.9s75.6-35.6,85-95.4C341.6,696.3,315.8,660.9,278.1,654.9C278.1,654.9,278.1,654.9,278.1,654.9z
	 M308.8,729.7c-3.6,22.9-25.1,38.6-48,34.9l0,0c-22.9-3.6-38.6-25.1-34.9-48c3.6-22.9,25.1-38.5,48-34.9
	C296.8,685.3,312.4,706.8,308.8,729.7z M299.7,858.2C299.7,858.2,299.7,858.2,299.7,858.2c-4.8,24.5,19.5,48.9,19.5,48.9
	s31.7-13.5,36.4-38c3-15.4-7-30.4-22.5-33.4c0,0,0,0,0,0h0C317.7,832.7,302.7,842.7,299.7,858.2z M344.6,867
	c-1.8,9.4-10.9,15.5-20.3,13.7c-9.4-1.8-15.5-10.9-13.7-20.3c1.8-9.4,10.9-15.5,20.3-13.7c0,0,0,0,0,0
	C340.3,848.5,346.4,857.6,344.6,867z M788,1275.8c10.3-15.9,5.7-37-10.1-47.3v0c-15.9-10.3-37-5.7-47.3,10.1
	c-16.2,25.1-0.1,63.2-0.1,63.2S771.8,1300.9,788,1275.8z M741.8,1245.9C741.8,1245.9,741.8,1245.9,741.8,1245.9
	c6.2-9.6,19.1-12.4,28.7-6.2c9.6,6.2,12.4,19.1,6.2,28.7c0,0,0,0,0,0c-6.2,9.6-19.1,12.4-28.7,6.2c0,0,0,0,0,0v0
	C738.4,1268.4,735.6,1255.5,741.8,1245.9z M915,78.9l-4.3-6.7l-9.3,6l4.3,6.7l5,7.8l1,1.5l6.9-4.5l16.2-10.5l-6-9.3L915,78.9z
	 M756.6,1260l0.2,1l4.7-1l10.9-2.3l-1.3-6.2l-9.3,2l-1-4.5l-6.2,1.3l1,4.5L756.6,1260z M660.1,997.9l-7.8,11.5l17.2,11.7l-5.7,8.4
	l11.5,7.8l5.7-8.4l6.6-9.7l1.3-1.9l-8.6-5.9L660.1,997.9z M738.8,1156.6c0,0,7.5-24.8-4.3-39.4c-7.5-9.2-21-10.6-30.2-3.1l0,0
	c-9.2,7.5-10.6,21-3.1,30.2C713,1158.8,738.8,1156.6,738.8,1156.6z M726,1140.8C726,1140.8,726,1140.8,726,1140.8
	c-5.6,4.5-13.8,3.7-18.3-1.9c-4.5-5.6-3.7-13.8,1.9-18.3c0,0,0,0,0,0c5.6-4.5,13.8-3.7,18.3,1.9
	C732.5,1128.1,731.6,1136.3,726,1140.8z M931.6,808.7L931.6,808.7c-9.2,7.5-10.6,21-3.1,30.2c11.8,14.6,37.7,12.4,37.7,12.4
	s7.5-24.8-4.3-39.4C954.3,802.6,940.8,801.2,931.6,808.7z M953.3,835.4C953.3,835.4,953.3,835.4,953.3,835.4
	c-5.6,4.5-13.8,3.7-18.3-1.9c-4.5-5.6-3.7-13.8,1.9-18.3c0,0,0,0,0,0c5.6-4.5,13.8-3.7,18.3,1.9
	C959.8,822.7,958.9,830.9,953.3,835.4z M716.1,1128.5l-2.9-0.3l-0.4,4l2.9,0.3l3.3,0.3l0.6,0.1l0.3-3l0.7-6.9l-4-0.4L716.1,1128.5z
	 M868.9,1218.5L868.9,1218.5c-7.6,9.1-6.4,22.6,2.7,30.2c14.4,12.1,39.3,5,39.3,5s2.6-25.8-11.8-37.8
	C890,1208.2,876.5,1209.4,868.9,1218.5z M895.3,1240.6C895.3,1240.6,895.3,1240.6,895.3,1240.6c-4.6,5.5-12.8,6.2-18.3,1.6
	c-5.5-4.6-6.2-12.8-1.6-18.3c0,0,0,0,0,0c4.6-5.5,12.8-6.2,18.3-1.6C899.2,1226.9,899.9,1235.1,895.3,1240.6z M851,401.4
	c0,0,75.6-35.6,85-95.4c5.9-37.7-19.8-73.1-57.5-79.1c0,0,0,0,0,0l0,0c-37.7-5.9-73.1,19.8-79.1,57.5C790,344.2,851,401.4,851,401.4
	z M826.3,288.7c3.6-22.9,25.1-38.5,48-34.9c22.9,3.6,38.5,25.1,34.9,48c-3.6,22.9-25.1,38.6-48,34.9l0,0
	C838.3,333.1,822.7,311.6,826.3,288.7z M883.9,1058l-2.1-3.2l-4.4,3l2.1,3.2l2.5,3.7l0.5,0.7l3.3-2.2l7.7-5.2l-3-4.4L883.9,1058z
	 M886.6,1224.1l-4,0.4l0.5,5.9l-2.9,0.3l0.4,4l2.9-0.3l3.3-0.3l0.6-0.1l-0.3-3L886.6,1224.1z M866.4,304.2l7.8-5.7l18.2-13.2
	l-7.6-10.4l-15.6,11.3l-5.5-7.5l-10.4,7.6l5.5,7.5l6.3,8.7L866.4,304.2z M925.8,28.6L925.8,28.6c-32-6.9-63.5,13.5-70.4,45.5
	C844.5,124.8,894,176.6,894,176.6s66.4-26.9,77.3-77.6C978.2,67,957.8,35.4,925.8,28.6z M948.5,94.1
	C948.5,94.1,948.5,94.1,948.5,94.1c-4.2,19.4-23.3,31.8-42.8,27.6c0,0,0,0,0,0l0,0c-19.4-4.2-31.8-23.3-27.6-42.8c0,0,0,0,0,0
	c4.2-19.4,23.3-31.8,42.8-27.6C940.3,55.5,952.7,74.6,948.5,94.1z M888.6,1033.7C888.6,1033.7,888.6,1033.7,888.6,1033.7
	L888.6,1033.7c-15.4-3-30.4,7.1-33.4,22.5c0,0,0,0,0,0c-4.8,24.5,19.5,48.9,19.5,48.9s31.7-13.5,36.4-38
	C914.1,1051.7,904.1,1036.7,888.6,1033.7z M900.1,1065c-1.8,9.4-10.9,15.5-20.3,13.7c-9.4-1.8-15.5-10.9-13.7-20.3
	c1.8-9.4,10.9-15.5,20.3-13.7c0,0,0,0,0,0C895.9,1046.5,902,1055.6,900.1,1065z M205.1,583.9l1.7-9.6l-14.4-2.6l1.2-7L184,563
	l-1.2,7l-1.4,8.1l-0.3,1.6l7.2,1.3L205.1,583.9z M877.3,1333l-4.3-6.7l-9.3,6l4.3,6.7l5,7.8l1,1.5l6.9-4.5l16.2-10.5l-6-9.3
	L877.3,1333z M665.1,945.8c-40.6,7.8-67.3,47-59.5,87.6c0,0,0,0,0,0c7.8,40.6,47,67.3,87.6,59.5c64.4-12.3,100.2-95.4,100.2-95.4
	S729.5,933.4,665.1,945.8z M687.7,1064c-24.7,4.7-48.5-11.5-53.2-36.1c-4.7-24.7,11.5-48.5,36.1-53.2c0,0,0,0,0,0
	c24.7-4.7,48.5,11.5,53.2,36.1c0,0,0,0,0,0C728.6,1035.4,712.4,1059.3,687.7,1064z M563.7,960.1l1.7-9.6l-14.4-2.6l1.2-7l-9.6-1.7
	l-1.2,7l-1.4,8.1l-0.3,1.6l7.2,1.3L563.7,960.1z M575.4,994.9c23.8-16.6,29.6-49.3,13.1-73.1c0,0,0,0,0,0l0,0
	c-16.6-23.8-49.3-29.6-73.1-13c-37.7,26.3-36.9,89.8-36.9,89.8S537.7,1021.2,575.4,994.9z M519.2,970.1L519.2,970.1
	c-10.1-14.4-6.5-34.3,7.9-44.4c14.5-10.1,34.3-6.5,44.4,7.9c10.1,14.5,6.5,34.3-7.9,44.4C549.2,988.1,529.3,984.5,519.2,970.1z
	 M578.2,678C578.2,678,578.2,678,578.2,678c-39.1-42.1-104.9-44.6-147-5.6c-66.7,61.9-47.8,186.2-47.8,186.2s122.5,28.2,189.3-33.6
	C614.7,785.9,617.2,720.1,578.2,678z M544.8,795C544.8,795,544.8,795,544.8,795c-25.6,23.7-65.6,22.2-89.3-3.4c0,0,0,0,0,0l0,0
	c-23.7-25.6-22.2-65.6,3.4-89.3c25.6-23.7,65.6-22.2,89.3,3.4C571.9,731.4,570.4,771.3,544.8,795z M912,1482
	c-9.1-7.6-22.6-6.4-30.2,2.7l0,0c-7.6,9.1-6.4,22.6,2.7,30.2c14.4,12.1,39.3,5,39.3,5S926.4,1494,912,1482z M908.2,1506.8
	C908.2,1506.8,908.2,1506.8,908.2,1506.8c-4.6,5.5-12.8,6.2-18.3,1.6c-5.5-4.6-6.2-12.8-1.6-18.3c0,0,0,0,0,0
	c4.6-5.5,12.8-6.2,18.3-1.6C912.1,1493,912.8,1501.3,908.2,1506.8z M512.4,725.4l-19.3-0.7l-0.5,14l-0.6,16.2l-0.1,3.1l14.5,0.5
	l33.8,1.3l0.7-19.3l-28.9-1.1L512.4,725.4z M943.3,823.1l-2.9-0.3l-0.4,4l2.9,0.3l3.3,0.3l0.6,0.1l0.3-3l0.7-6.9l-4-0.4L943.3,823.1
	z M442.1,944.1L442.1,944.1c-8.1-8.7-21.7-9.1-30.3-1c-13.7,12.8-9.7,38.4-9.7,38.4s25.3,5.7,39-7.1
	C449.8,966.3,450.2,952.7,442.1,944.1z M435.4,968.2c-5.3,4.9-13.5,4.6-18.4-0.6c0,0,0,0,0,0c-4.9-5.3-4.6-13.5,0.6-18.4
	c5.3-4.9,13.5-4.6,18.4,0.6c0,0,0,0,0,0C440.9,955.1,440.6,963.3,435.4,968.2z M457.9,1096.2c27.4,17.1,68.3-0.9,68.3-0.9
	s-1.7-44.6-29.2-61.8c-17.3-10.8-40.1-5.5-50.9,11.8c0,0,0,0,0,0l0,0C435.3,1062.6,440.6,1085.4,457.9,1096.2z M458.5,1053
	c6.6-10.5,20.4-13.7,30.9-7.2c10.5,6.6,13.7,20.4,7.2,30.9l0,0c-6.6,10.5-20.4,13.7-30.9,7.2C455.1,1077.3,451.9,1063.5,458.5,1053z
	 M470.1,1070.1l4.9-1.1l5.6-1.3l1.1-0.2l-1.2-5l-2.7-11.7l-6.7,1.6l2.3,10l-4.9,1.1L470.1,1070.1z M888.1,1282.7L888.1,1282.7
	c-32-6.9-63.5,13.5-70.4,45.5c-10.9,50.7,38.6,102.5,38.6,102.5s66.4-26.9,77.3-77.6C940.5,1321.1,920.1,1289.6,888.1,1282.7z
	 M910.9,1348.2C910.9,1348.2,910.9,1348.2,910.9,1348.2c-4.2,19.4-23.3,31.8-42.8,27.6c0,0,0,0,0,0l0,0
	c-19.4-4.2-31.8-23.3-27.6-42.8c0,0,0,0,0,0c4.2-19.4,23.3-31.8,42.8-27.6C902.7,1309.6,915,1328.8,910.9,1348.2z M428.6,953.9
	l-4-0.1l-0.1,2.9l-0.1,3.3l0,0.6l3,0.1l7,0.2l0.1-4l-6-0.2L428.6,953.9z M579.8,1245.1l-24.7-3.5l-2.6,18l-3,20.7l-0.6,4l18.5,2.6
	l43.2,6.2l3.5-24.7l-37-5.3L579.8,1245.1z M670.5,1193.1C670.5,1193.1,670.5,1193.1,670.5,1193.1L670.5,1193.1
	c-44.5-59.3-128.7-71.3-188-26.8c-94,70.5-86.3,232.7-86.3,232.7s153.5,52.7,247.5-17.8C703,1336.5,715,1252.4,670.5,1193.1z
	 M612.1,1338.9C612.1,1338.9,612.1,1338.9,612.1,1338.9c-36,27-87.1,19.7-114.2-16.3c0,0,0,0,0,0h0c-27-36-19.7-87.1,16.3-114.2
	c0,0,0,0,0,0c36-27,87.1-19.7,114.2,16.3C655.4,1260.7,648.1,1311.8,612.1,1338.9z M441.4,91.5l1.7-9.6l-14.4-2.6l1.2-7l-9.6-1.7
	l-1.2,7l-1.4,8.1l-0.3,1.6l7.2,1.3L441.4,91.5z M394.7,1621.5l-3.2-6.3l-8.7,4.4l3.2,6.3l3.7,7.3l0.7,1.4l6.5-3.3l15.2-7.7l-4.4-8.7
	L394.7,1621.5z M309.1,64.6c8.7-8.1,9.1-21.7,1-30.3l0,0c-8.1-8.7-21.7-9.1-30.3-1c-13.7,12.8-9.7,38.4-9.7,38.4
	S295.4,77.4,309.1,64.6z M285.6,39.4c5.3-4.9,13.5-4.6,18.4,0.6c0,0,0,0,0,0c4.9,5.3,4.6,13.5-0.6,18.4c-5.3,4.9-13.5,4.6-18.4-0.6
	c0,0,0,0,0,0C280,52.6,280.3,44.3,285.6,39.4z M302.4,51.2l0.1-4l-6-0.2l0.1-2.9l-4-0.1l-0.1,2.9l-0.1,3.3l0,0.6l3,0.1L302.4,51.2z
	 M323.1,1414.4c-22.5-8.7-47.9,2.5-56.6,25h0c-8.7,22.5,2.5,47.9,25,56.6c35.7,13.8,79.2-16.3,79.2-16.3S358.8,1428.2,323.1,1414.4z
	 M332.1,1464.8C332.1,1464.8,332.1,1464.8,332.1,1464.8c-5.3,13.7-20.7,20.5-34.4,15.2c-13.7-5.3-20.5-20.7-15.2-34.4
	c5.3-13.7,20.7-20.5,34.4-15.2C330.6,1435.7,337.4,1451.1,332.1,1464.8z M535.2,208.6l11.5,7.8l5.7-8.4l6.6-9.7l1.3-1.9l-8.6-5.9
	L531.4,177l-7.8,11.5l17.2,11.7L535.2,208.6z M453.1,126.3c23.8-16.6,29.6-49.3,13.1-73.1c0,0,0,0,0,0l0,0
	c-16.6-23.8-49.3-29.6-73.1-13c-37.7,26.3-36.9,89.8-36.9,89.8S415.4,152.6,453.1,126.3z M404.8,57.1c14.5-10.1,34.3-6.5,44.4,7.9
	c10.1,14.5,6.5,34.3-7.9,44.4c-14.5,10.1-34.3,6.5-44.4-7.9v0C386.8,87,390.4,67.2,404.8,57.1z M696.5,120.1
	c35.7,13.8,79.2-16.3,79.2-16.3S763.7,52.3,728,38.5c-22.5-8.7-47.9,2.5-56.6,25h0C662.8,86.1,674,111.4,696.5,120.1z M687.5,69.8
	c5.3-13.7,20.7-20.5,34.4-15.2c13.7,5.3,20.5,20.7,15.2,34.4c0,0,0,0,0,0c-5.3,13.7-20.7,20.5-34.4,15.2
	C689,98.8,682.2,83.4,687.5,69.8z M751.9,217l-2.1-3.2l-4.4,3l2.1,3.2l2.5,3.7l0.5,0.7l3.3-2.2l7.7-5.2l-3-4.4L751.9,217z
	 M778.9,412.7c0,0,2.6-25.8-11.8-37.8c-9.1-7.6-22.6-6.4-30.2,2.7l0,0c-7.6,9.1-6.4,22.6,2.7,30.2
	C753.9,419.7,778.9,412.7,778.9,412.7z M743.3,382.9C743.4,382.9,743.4,382.9,743.3,382.9c4.6-5.5,12.8-6.2,18.3-1.6
	c5.5,4.6,6.2,12.8,1.6,18.3c0,0,0,0,0,0c-4.6,5.5-12.8,6.2-18.3,1.6C739.5,396.6,738.7,388.4,743.3,382.9z M408.8,1578.1
	C408.8,1578.1,408.8,1578.1,408.8,1578.1L408.8,1578.1c-27.6-9-57.3,6-66.3,33.6c-14.3,43.7,24.5,94,24.5,94s61-17.6,75.3-61.3
	C451.5,1616.8,436.4,1587.1,408.8,1578.1z M422.8,1638c-5.5,16.7-23.5,25.9-40.3,20.4l0,0c-16.7-5.5-25.9-23.5-20.4-40.3
	c5.5-16.7,23.5-25.9,40.3-20.4C419.2,1603.2,428.3,1621.2,422.8,1638z M756.6,192.7C756.6,192.7,756.6,192.7,756.6,192.7
	L756.6,192.7c-15.4-3-30.4,7.1-33.4,22.5c0,0,0,0,0,0c-4.8,24.5,19.5,48.9,19.5,48.9s31.7-13.5,36.4-38
	C782.1,210.7,772.1,195.7,756.6,192.7z M768.1,224c-1.8,9.4-10.9,15.5-20.3,13.7c-9.4-1.8-15.5-10.9-13.7-20.3
	c1.8-9.4,10.9-15.5,20.3-13.7c0,0,0,0,0,0C763.9,205.5,770,214.6,768.1,224z M704.8,87.1l5.4-2.4l6.2-2.8l1.2-0.5l-2.5-5.6l-5.8-13
	l-7.4,3.3l4.9,11.1l-5.4,2.4L704.8,87.1z M283.7,214.3c27.4,17.1,68.3-0.9,68.3-0.9s-1.7-44.6-29.2-61.8
	c-17.3-10.8-40.1-5.5-50.9,11.8c0,0,0,0,0,0l0,0C261.1,180.7,266.4,203.5,283.7,214.3z M284.2,171c6.6-10.5,20.4-13.7,30.9-7.2
	c10.5,6.6,13.7,20.4,7.2,30.9l0,0c-6.6,10.5-20.4,13.7-30.9,7.2C280.9,195.4,277.7,181.6,284.2,171z M104.2,1437.2
	c0,0,4.7-34.1-13.8-50.8c-11.7-10.5-29.7-9.6-40.2,2.1c0,0,0,0,0,0l0,0c-10.5,11.7-9.6,29.7,2.1,40.2c0,0,0,0,0,0
	C70.8,1445.4,104.2,1437.2,104.2,1437.2z M59.8,1420.4c-7.1-6.4-7.7-17.3-1.3-24.4c0,0,0,0,0,0c6.4-7.1,17.3-7.7,24.4-1.3
	c7.1,6.4,7.7,17.3,1.3,24.4C77.8,1426.3,66.9,1426.8,59.8,1420.4z M214.9,1617.7l-14,0.2l-16.2,0.2l-3.1,0l0.2,14.5l0.5,33.8
	l19.3-0.3l-0.4-28.9l14-0.2L214.9,1617.7z M107.6,186.5c72.1,8.9,138.3-66.5,138.3-66.5S200.1,30.6,128,21.7
	C82.5,16,41,48.3,35.4,93.8v0C29.7,139.4,62,180.8,107.6,186.5z M67.7,97.9C71.2,70.2,96.4,50.6,124,54
	c27.6,3.4,47.3,28.6,43.8,56.2v0c-3.4,27.6-28.6,47.3-56.2,43.8C83.9,150.7,64.3,125.5,67.7,97.9z M92.7,484l2.5-7.7l-11.6-3.8
	l1.8-5.6l-7.7-2.5l-1.8,5.6l-2.1,6.5l-0.4,1.2l5.8,1.9L92.7,484z M91.4,927.7c31.3,9.6,64.5-7.9,74.1-39.2l0,0
	c9.6-31.3-7.9-64.5-39.2-74.1c-49.6-15.3-105.5,29.5-105.5,29.5S41.8,912.4,91.4,927.7z M74.4,860.4
	C74.4,860.4,74.4,860.4,74.4,860.4L74.4,860.4c5.9-19,26-29.7,45-23.8c0,0,0,0,0,0c19,5.9,29.7,26,23.8,45c-5.9,19-26,29.7-45,23.8
	c0,0,0,0,0,0C79.2,899.6,68.6,879.4,74.4,860.4z M114.2,893.1l9.8-5.2l-7.7-14.6l7.1-3.7l-5.2-9.8l-7.1,3.7l-8.2,4.3l-1.6,0.8
	l3.9,7.3L114.2,893.1z M98.3,514.1c21.5-10.9,30.2-37.2,19.2-58.8l0,0c-10.9-21.5-37.2-30.2-58.8-19.3
	c-34.1,17.3-40.9,69.7-40.9,69.7S64.1,531.4,98.3,514.1z M54.8,487.1C54.8,487.1,54.8,487.1,54.8,487.1
	c-6.6-13.1-1.4-29.1,11.7-35.7c13.1-6.6,29.1-1.4,35.7,11.7c6.6,13.1,1.4,29.1-11.7,35.7C77.4,505.5,61.4,500.2,54.8,487.1z
	 M98.1,109.6l9.5,12.2l8.8-6.9l10.2-8l2-1.5l-7.1-9.1L104.9,75l-12.2,9.5l14.2,18.2L98.1,109.6z M295.9,188.2l4.9-1.1l5.6-1.3
	l1.1-0.2l-1.2-5l-2.7-11.7l-6.7,1.6l2.3,10l-4.9,1.1L295.9,188.2z M389.3,398l3.7,1.6l7.3-17.2l17.1-40.1l-23-9.8l-14.7,34.3
	l-16.7-7.1l-9.8,23l16.7,7.1L389.3,398z M304.5,1438.7l-7.4,3.3l4.9,11.1l-5.4,2.4l3.3,7.4l5.4-2.4l6.2-2.8l1.2-0.5l-2.5-5.6
	L304.5,1438.7z M527.5,1685l-8.9-2.7l-3.8,12.3l8.9,2.7l10.3,3.2l2,0.6l2.8-9.2l6.6-21.5l-12.3-3.8L527.5,1685z M263.8,1553.1
	c-65.3-63.4-188.5-38-188.5-38s-21.8,123.9,43.6,187.3c41.2,40,107.1,39,147.1-2.2c0,0,0,0,0,0C306,1658.9,305,1593.1,263.8,1553.1z
	 M236.6,1671.7c-24.3,25-64.3,25.6-89.3,1.3c0,0,0,0,0,0c-25-24.3-25.6-64.3-1.3-89.3c0,0,0,0,0,0l0,0c24.3-25,64.3-25.6,89.3-1.3
	C260.3,1606.7,260.9,1646.7,236.6,1671.7z M464.2,576.9c0,0,90.6-134.6,46.9-243.7c-27.6-68.8-105.8-102.2-174.6-74.6c0,0,0,0,0,0
	l0,0c-68.8,27.6-102.2,105.8-74.6,174.6C305.6,542.3,464.2,576.9,464.2,576.9z M356.1,307.5c41.8-16.8,89.3,3.5,106,45.3
	c0,0,0,0,0,0c16.8,41.8-3.5,89.3-45.3,106c0,0,0,0,0,0v0c-41.8,16.8-89.3-3.5-106-45.3c0,0,0,0,0,0
	C294,371.8,314.3,324.3,356.1,307.5z M477,212.4c7.8,40.6,47,67.3,87.6,59.5c64.4-12.3,100.2-95.4,100.2-95.4s-64-64-128.4-51.7
	C495.8,132.6,469.2,171.8,477,212.4C477,212.4,477,212.4,477,212.4z M542,153.7C542,153.7,542,153.7,542,153.7
	c24.7-4.7,48.5,11.5,53.2,36.1c0,0,0,0,0,0c4.7,24.7-11.5,48.5-36.1,53.2c-24.7,4.7-48.5-11.5-53.2-36.1
	C501.1,182.2,517.3,158.4,542,153.7z M670.1,675.2l2.9-0.3l3.3-0.3l0.6-0.1l-0.3-3l-0.6-6.9l-4,0.4l0.5,5.9l-2.9,0.3L670.1,675.2z
	 M611.7,1464.1L611.7,1464.1c-22.4-9.1-47.9,1.7-57,24.1c-14.4,35.5,14.9,79.5,14.9,79.5s51.7-11.1,66.1-46.5
	C644.8,1498.7,634.1,1473.2,611.7,1464.1z M619.8,1514.6c-5.5,13.6-21,20.1-34.6,14.6c0,0,0,0,0,0c-13.6-5.5-20.1-21-14.6-34.6
	c5.5-13.6,21-20.1,34.6-14.6C618.8,1485.5,625.3,1501,619.8,1514.6z M604.8,307.7l-2.9-0.3l-0.4,4l2.9,0.3l3.3,0.3l0.6,0.1l0.3-3
	l0.7-6.9l-4-0.4L604.8,307.7z M543.7,567.8L543.7,567.8c-8.7,22.5,2.5,47.9,25,56.6c35.7,13.8,79.2-16.3,79.2-16.3
	s-11.9-51.5-47.6-65.3C577.7,534,552.4,545.2,543.7,567.8z M559.7,574c5.3-13.7,20.7-20.5,34.4-15.2c13.7,5.3,20.5,20.7,15.2,34.4
	c0,0,0,0,0,0c-5.3,13.7-20.7,20.5-34.4,15.2C561.3,603,554.4,587.7,559.7,574z M597.4,1499.3l-2.3-5.4l-7.5,3.2l2.3,5.4l2.7,6.3
	l0.5,1.2l5.6-2.4l13.1-5.5l-3.2-7.5L597.4,1499.3z M577,591.3l5.4-2.4l6.2-2.8l1.2-0.5l-2.5-5.6l-5.8-13l-7.4,3.3l4.9,11.1l-5.4,2.4
	L577,591.3z M593.1,293.2L593.1,293.2c-9.2,7.5-10.6,21-3.1,30.2c11.8,14.6,37.7,12.4,37.7,12.4s7.5-24.8-4.3-39.4
	C615.8,287.1,602.3,285.7,593.1,293.2z M614.8,320C614.8,320,614.8,320,614.8,320c-5.6,4.5-13.8,3.7-18.3-1.9
	c-4.5-5.6-3.7-13.8,1.9-18.3c0,0,0,0,0,0c5.6-4.5,13.8-3.7,18.3,1.9C621.2,307.2,620.4,315.4,614.8,320z M658.4,659
	c-7.6,9.1-6.4,22.6,2.7,30.2c14.4,12.1,39.3,5,39.3,5s2.6-25.8-11.8-37.8C679.5,648.7,666,649.9,658.4,659L658.4,659z M664.9,664.4
	C664.9,664.4,664.9,664.4,664.9,664.4c4.6-5.5,12.8-6.2,18.3-1.6c5.5,4.6,6.2,12.8,1.6,18.3c0,0,0,0,0,0c-4.6,5.5-12.8,6.2-18.3,1.6
	C661,678.1,660.2,669.9,664.9,664.4z M370.1,1166.7l3.3-2.2l7.7-5.2l-3-4.4l-6.6,4.4l-2.1-3.2l-4.4,3l2.1,3.2l2.5,3.7L370.1,1166.7z
	 M645.9,387.5L645.9,387.5c-15.9-10.3-37-5.7-47.3,10.1c-16.2,25.1-0.1,63.2-0.1,63.2s41.3-0.9,57.6-26.1
	C666.3,418.9,661.7,397.7,645.9,387.5z M644.7,427.5C644.7,427.5,644.7,427.5,644.7,427.5c-6.2,9.6-19.1,12.4-28.7,6.2c0,0,0,0,0,0
	v0c-9.6-6.2-12.4-19.1-6.2-28.7c0,0,0,0,0,0c6.2-9.6,19.1-12.4,28.7-6.2C648.2,405,650.9,417.8,644.7,427.5z M382.9,1032.6
	c0,0-45.7-89.3-117.8-98.3c-45.5-5.6-87,26.7-92.6,72.2v0c-5.6,45.5,26.7,87,72.2,92.6C316.7,1108.1,382.9,1032.6,382.9,1032.6z
	 M304.9,1022.9L304.9,1022.9c-3.4,27.6-28.6,47.3-56.2,43.8c-27.6-3.4-47.3-28.6-43.8-56.2c3.4-27.6,28.6-47.3,56.2-43.8
	C288.7,970.1,308.3,995.3,304.9,1022.9z M398.7,1168.5c3-15.4-7-30.4-22.5-33.4c0,0,0,0,0,0h0c-15.4-3-30.4,7.1-33.4,22.5
	c0,0,0,0,0,0c-4.8,24.5,19.5,48.9,19.5,48.9S393.9,1193,398.7,1168.5z M353.8,1159.7c1.8-9.4,10.9-15.5,20.3-13.7c0,0,0,0,0,0
	c9.4,1.8,15.5,10.9,13.7,20.3c-1.8,9.4-10.9,15.5-20.3,13.7C358.1,1178.2,352,1169.1,353.8,1159.7z M629.7,412.4l-1-4.5l-6.2,1.3
	l1,4.5l1.1,5.2l0.2,1l4.7-1l10.9-2.3l-1.3-6.2L629.7,412.4z M73.4,1396.9l-5.3,0.3l0.4,7.9l-3.8,0.2l0.3,5.3l3.8-0.2l4.4-0.2l0.9,0
	l-0.2-4L73.4,1396.9z M741.8,828.7L732,837l12.4,14.7l-7.1,6l8.3,9.8l7.1-6l8.3-6.9l1.6-1.3l-6.2-7.4L741.8,828.7z M499.3,1632
	C499.3,1632,499.3,1632,499.3,1632L499.3,1632c-33.7,18-46.5,59.9-28.5,93.6c28.4,53.4,111.6,62.4,111.6,62.4s39-74,10.5-127.4
	C574.9,1626.8,533,1614.1,499.3,1632z M551.6,1730.2L551.6,1730.2c-20.5,10.9-45.9,3.1-56.8-17.3c-10.9-20.5-3.1-45.9,17.3-56.8
	c20.5-10.9,45.9-3.1,56.8,17.3C579.8,1693.8,572,1719.2,551.6,1730.2z M949.1,564.6c1.8-11.7-6.1-22.7-17.8-24.5h0
	c-11.7-1.8-22.7,6.1-24.5,17.8c-2.9,18.5,16,36.3,16,36.3S946.2,583.1,949.1,564.6z M925.9,574.1
	C925.9,574.1,925.9,574.1,925.9,574.1c-7.1-1.1-12-7.8-10.8-14.9c1.1-7.1,7.8-12,14.9-10.8c0,0,0,0,0,0c7.1,1.1,12,7.8,10.8,14.9
	C939.7,570.4,933,575.2,925.9,574.1z M936.1,438.1c-17.3-10.8-40.1-5.5-50.9,11.8c0,0,0,0,0,0l0,0c-10.8,17.3-5.5,40.1,11.8,50.9
	c27.4,17.1,68.3-0.9,68.3-0.9S963.5,455.2,936.1,438.1z M935.5,481.4L935.5,481.4c-6.6,10.5-20.4,13.7-30.9,7.2
	c-10.5-6.6-13.7-20.4-7.2-30.9c6.6-10.5,20.4-13.7,30.9-7.2C938.9,457,942.1,470.8,935.5,481.4z M916.8,455.3l-6.7,1.6l2.3,10
	l-4.9,1.1l1.6,6.7l4.9-1.1l5.6-1.3l1.1-0.2l-1.2-5L916.8,455.3z M756.1,441.7c-32-6.9-63.5,13.5-70.4,45.5
	c-10.9,50.7,38.6,102.5,38.6,102.5s66.4-26.9,77.3-77.6C808.5,480.1,788.1,448.6,756.1,441.7L756.1,441.7z M778.9,507.2
	C778.9,507.2,778.9,507.2,778.9,507.2c-4.2,19.4-23.3,31.8-42.8,27.6c0,0,0,0,0,0l0,0c-19.4-4.2-31.8-23.3-27.6-42.8c0,0,0,0,0,0
	c4.2-19.4,23.3-31.8,42.8-27.6C770.7,468.6,783,487.8,778.9,507.2z M741,485.3l-9.3,6l4.3,6.7l5,7.8l1,1.5l6.9-4.5l16.2-10.5l-6-9.3
	l-13.8,8.9L741,485.3z M748.6,393.7l2.9-0.3l3.3-0.3l0.6-0.1l-0.3-3l-0.6-6.9l-4,0.4l0.5,5.9l-2.9,0.3L748.6,393.7z M860.6,861.8
	c0,0-40.8-73-101.2-78.2c-38.1-3.3-71.6,24.9-74.9,62.9c0,0,0,0,0,0l0,0c-3.3,38.1,24.9,71.6,63,74.9
	C807.8,926.6,860.6,861.8,860.6,861.8z M795.3,856.1c-2,23.1-22.4,40.2-45.5,38.2c-23.1-2-40.2-22.4-38.2-45.5
	c2-23.1,22.4-40.2,45.5-38.2C780.2,812.6,797.3,833,795.3,856.1L795.3,856.1z M803.5,664.9l-7.8,11.5l17.2,11.7l-5.7,8.4l11.5,7.8
	l5.7-8.4l6.6-9.7l1.3-1.9l-8.6-5.9L803.5,664.9z M486.1,1591.7c0,0,23.1-11.9,25.3-30.5c1.4-11.8-6.9-22.5-18.7-23.9h0
	c-11.8-1.4-22.5,6.9-23.9,18.7C466.6,1574.6,486.1,1591.7,486.1,1591.7z M477.2,1557c0.9-7.1,7.4-12.2,14.5-11.4c0,0,0,0,0,0
	c7.1,0.9,12.2,7.4,11.3,14.5c-0.9,7.1-7.4,12.2-14.5,11.4c0,0,0,0,0,0C481.4,1570.6,476.4,1564.1,477.2,1557z M928.3,558.5l-1.7-2.3
	l-3.2,2.3l1.7,2.3l2,2.7l0.4,0.5l2.4-1.8l5.6-4.1l-2.3-3.2L928.3,558.5z M489.8,1561.4l2.4-1.8l5.5-4.3l-2.5-3.1l-4.7,3.7l-1.8-2.3
	l-3.1,2.5l1.8,2.3l2.1,2.6L489.8,1561.4z M808.5,612.7c-40.6,7.8-67.3,47-59.5,87.6c0,0,0,0,0,0c7.8,40.6,47,67.3,87.6,59.5
	c64.4-12.3,100.2-95.4,100.2-95.4S872.9,600.4,808.5,612.7z M831.2,730.9c-24.7,4.7-48.5-11.5-53.2-36.1
	c-4.7-24.7,11.5-48.5,36.1-53.2c0,0,0,0,0,0c24.7-4.7,48.5,11.5,53.2,36.1c0,0,0,0,0,0C872,702.4,855.8,726.2,831.2,730.9z"/>
</svg>
