<?xml version="1.0" encoding="UTF-8" standalone="no"?>
<svg width="313px" height="230px" viewBox="0 0 313 230" version="1.1" xmlns="http://www.w3.org/2000/svg" xmlns:xlink="http://www.w3.org/1999/xlink">
    <!-- Generator: Sketch 47 (45396) - http://www.bohemiancoding.com/sketch -->
    <title>tablet-l</title>
    <desc>Created with Sketch.</desc>
    <defs></defs>
    <g id="Symbols" stroke="none" stroke-width="1" fill="none" fill-rule="evenodd">
        <g id="header" transform="translate(-15.000000, 10.000000)" fill="#FFFCF0">
            <g id="Page-1" transform="translate(15.000000, -49.000000)">
                <g id="tablet-l" transform="translate(0.000000, 39.121000)">
                    <path d="M96.04,155.9965 C89.296,161.9095 79.035,161.2355 73.122,154.4915 C67.209,147.7475 67.883,137.4875 74.626,131.5745 C81.371,125.6605 91.631,126.3345 97.544,133.0785 C103.457,139.8225 102.784,150.0835 96.04,155.9965 M67.703,123.6775 C56.597,133.4145 55.488,150.3105 65.225,161.4155 C80.652,179.0105 112.735,175.0375 112.735,175.0375 C112.735,175.0375 120.868,143.7485 105.441,126.1545 C95.704,115.0495 78.808,113.9395 67.703,123.6775" id="Fill-2"></path>
                    <path d="M12.8647,184.1791 C8.0577,180.8631 6.8487,174.2771 10.1657,169.4701 C13.4817,164.6631 20.0667,163.4541 24.8737,166.7701 C29.6807,170.0871 30.8897,176.6721 27.5737,181.4791 C24.2577,186.2861 17.6717,187.4951 12.8647,184.1791 M28.7567,161.1421 C20.8417,155.6811 9.9977,157.6711 4.5367,165.5871 C-4.1153,178.1281 3.5017,197.7511 3.5017,197.7511 C3.5017,197.7511 24.5507,197.9041 33.2027,185.3631 C38.6637,177.4471 36.6727,166.6021 28.7567,161.1421" id="Fill-6"></path>
                    <path d="M300.3337,52.6527 C296.0277,56.5977 289.3387,56.3037 285.3937,51.9977 C281.4487,47.6917 281.7417,41.0027 286.0477,37.0577 C290.3547,33.1127 297.0437,33.4057 300.9887,37.7127 C304.9327,42.0187 304.6397,48.7077 300.3337,52.6527 M281.4287,32.0157 C274.3377,38.5107 273.8547,49.5257 280.3507,56.6167 C290.6427,67.8517 311.4707,64.8107 311.4707,64.8107 C311.4707,64.8107 316.3227,44.3277 306.0307,33.0927 C299.5347,26.0017 288.5207,25.5197 281.4287,32.0157" id="Fill-14"></path>
                    <path d="M171.3848,191.4828 C158.0968,186.5368 151.3338,171.7548 156.2798,158.4668 C161.2258,145.1778 176.0068,138.4158 189.2958,143.3608 C202.5838,148.3068 209.3468,163.0888 204.4008,176.3778 C199.4548,189.6658 184.6728,196.4288 171.3848,191.4828 M195.0868,127.8018 C173.2048,119.6578 148.8638,130.7938 140.7198,152.6748 C127.8168,187.3428 157.4208,228.9998 157.4208,228.9998 C157.4208,228.9998 207.0578,216.8368 219.9608,182.1688 C228.1048,160.2868 216.9688,135.9458 195.0868,127.8018" id="Fill-23"></path>
                    <path d="M103.8071,33.5629 C115.6521,25.7699 131.5721,29.0539 139.3661,40.8979 C147.1601,52.7429 143.8761,68.6629 132.0311,76.4569 C120.1861,84.2509 104.2661,80.9669 96.4721,69.1219 C88.6791,57.2769 91.9621,41.3569 103.8071,33.5629 M141.1571,90.3259 C160.6611,77.4919 166.0691,51.2769 153.2351,31.7719 C132.9021,0.8709 81.8031,0.1219 81.8031,0.1219 C81.8031,0.1219 62.2701,47.3469 82.6031,78.2479 C95.4371,97.7529 121.6521,103.1599 141.1571,90.3259" id="Fill-32"></path>
                    <path d="M210.2195,78.7743 C203.4645,72.8743 202.7715,62.6143 208.6715,55.8593 C214.5715,49.1043 224.8305,48.4103 231.5865,54.3113 C238.3415,60.2113 239.0345,70.4703 233.1345,77.2263 C227.2345,83.9813 216.9745,84.6743 210.2195,78.7743 M238.4945,46.4003 C227.3705,36.6853 210.4765,37.8263 200.7615,48.9503 C185.3675,66.5743 193.5615,97.8473 193.5615,97.8473 C193.5615,97.8473 225.6515,101.7593 241.0445,84.1343 C250.7605,73.0103 249.6185,56.1163 238.4945,46.4003" id="Fill-42"></path>
                    <path d="M43.3545,60.3842 C50.5845,65.6922 52.1435,75.8562 46.8365,83.0862 C41.5295,90.3172 31.3655,91.8752 24.1345,86.5682 C16.9045,81.2602 15.3455,71.0972 20.6525,63.8662 C25.9595,56.6362 36.1245,55.0772 43.3545,60.3842 M17.9205,95.0342 C29.8265,103.7742 46.5635,101.2072 55.3025,89.3012 C69.1495,70.4372 58.3395,39.9702 58.3395,39.9702 C58.3395,39.9702 26.0325,38.7882 12.1865,57.6522 C3.4465,69.5582 6.0135,86.2952 17.9205,95.0342" id="Fill-59"></path>
                    <polygon id="Fill-4" points="25.5183 175.9013 24.9333 172.7153 20.1703 173.5893 19.7453 171.2773 16.5593 171.8613 16.9843 174.1743 17.4743 176.8463 17.5693 177.3603 19.9533 176.9223"></polygon>
                    <polygon id="Fill-12" points="295.0918 38.4696 291.8558 38.3276 291.6438 43.1666 289.2958 43.0636 289.1538 46.2996 291.5018 46.4026 294.2158 46.5216 294.7378 46.5446 294.8438 44.1216"></polygon>
                    <polygon id="Fill-21" points="196.2441 164.4701 192.9721 157.3191 182.2801 162.2101 179.9051 157.0201 172.7541 160.2921 175.1291 165.4821 177.8721 171.4801 178.4001 172.6341 183.7531 170.1851"></polygon>
                    <polygon id="Fill-30" points="110.8982 69.5824 118.6002 71.1704 120.9762 59.6554 126.5652 60.8084 128.1542 53.1064 122.5652 51.9534 116.1052 50.6204 114.8622 50.3644 113.6732 56.1284"></polygon>
                    <polygon id="Fill-40" points="230.9734 68.3554 230.6374 63.3924 223.2164 63.8934 222.9734 60.2914 218.0104 60.6264 218.2534 64.2294 218.5344 68.3914 218.5884 69.1924 222.3034 68.9414"></polygon>
                    <polygon id="Fill-57" points="23.5569 72.5224 24.3109 77.4394 31.6629 76.3124 32.2109 79.8804 37.1279 79.1264 36.5799 75.5584 35.9479 71.4334 35.8259 70.6404 32.1459 71.2054"></polygon>
                    <polygon id="Fill-1" points="88.4656 134.0439 83.5016 133.7179 83.0146 141.1399 79.4116 140.9039 79.0856 145.8679 82.6886 146.1049 86.8516 146.3779 87.6526 146.4299 87.8966 142.7149"></polygon>
                </g>
            </g>
        </g>
    </g>
</svg>