<?xml version="1.0" encoding="UTF-8" standalone="no"?>
<svg width="285px" height="255px" viewBox="0 0 285 255" version="1.1" xmlns="http://www.w3.org/2000/svg" xmlns:xlink="http://www.w3.org/1999/xlink">
    <!-- Generator: Sketch 47 (45396) - http://www.bohemiancoding.com/sketch -->
    <title>tablet-r</title>
    <desc>Created with Sketch.</desc>
    <defs></defs>
    <g id="Symbols" stroke="none" stroke-width="1" fill="none" fill-rule="evenodd">
        <g id="header" transform="translate(-831.000000, 48.000000)" fill="#FFFCF0">
            <g id="Page-1" transform="translate(15.000000, -49.000000)">
                <g id="tablet-r" transform="translate(816.000000, 0.121000)">
                    <path d="M86.8643,139.0429 C81.1813,137.6969 77.6663,131.9989 79.0123,126.3159 C80.3583,120.6329 86.0563,117.1169 91.7393,118.4629 C97.4213,119.8099 100.9373,125.5069 99.5913,131.1899 C98.2453,136.8729 92.5473,140.3889 86.8643,139.0429 M93.3143,111.8089 C83.9573,109.5929 74.5743,115.3819 72.3573,124.7399 C68.8463,139.5649 83.0643,155.0869 83.0643,155.0869 C83.0643,155.0869 102.7343,147.5919 106.2453,132.7659 C108.4623,123.4079 102.6723,114.0249 93.3143,111.8089" id="Fill-10"></path>
                    <path d="M252.4746,64.2826 C249.3036,69.1866 242.7566,70.5916 237.8526,67.4206 C232.9486,64.2496 231.5446,57.7026 234.7156,52.7986 C237.8866,47.8946 244.4326,46.4906 249.3366,49.6606 C254.2406,52.8326 255.6456,59.3786 252.4746,64.2826 M228.9726,49.0856 C223.7506,57.1606 226.0646,67.9406 234.1396,73.1626 C246.9336,81.4356 266.3206,73.2366 266.3206,73.2366 C266.3206,73.2366 265.8446,52.1926 253.0496,43.9186 C244.9746,38.6976 234.1946,41.0106 228.9726,49.0856" id="Fill-18"></path>
                    <path d="M252.8384,210.6322 C243.8834,221.6252 227.7114,223.2772 216.7184,214.3212 C205.7254,205.3662 204.0744,189.1952 213.0294,178.2022 C221.9844,167.2092 238.1554,165.5572 249.1484,174.5122 C260.1414,183.4672 261.7934,199.6392 252.8384,210.6322 M200.1574,167.7162 C185.4114,185.8182 188.1304,212.4472 206.2334,227.1942 C234.9124,250.5572 283.8754,235.9162 283.8754,235.9162 C283.8754,235.9162 288.3144,185.0042 259.6344,161.6402 C241.5324,146.8942 214.9034,149.6142 200.1574,167.7162" id="Fill-28"></path>
                    <path d="M148.0525,40.6064 C162.1235,42.3524 172.1145,55.1754 170.3685,69.2464 C168.6215,83.3174 155.7995,93.3084 141.7285,91.5624 C127.6575,89.8154 117.6665,76.9934 119.4125,62.9224 C121.1595,48.8514 133.9815,38.8594 148.0525,40.6064 M139.6835,108.0384 C162.8545,110.9134 183.9685,94.4614 186.8445,71.2914 C191.4005,34.5814 152.9825,0.8794 152.9825,0.8794 C152.9825,0.8794 107.4925,24.1684 102.9365,60.8774 C100.0605,84.0474 116.5135,105.1624 139.6835,108.0384" id="Fill-37"></path>
                    <path d="M157.5178,167.6005 C150.1598,172.7295 140.0368,170.9235 134.9078,163.5655 C129.7778,156.2085 131.5838,146.0855 138.9418,140.9555 C146.2998,135.8265 156.4228,137.6325 161.5518,144.9905 C166.6818,152.3485 164.8758,162.4715 157.5178,167.6005 M132.9358,132.3405 C120.8198,140.7875 117.8458,157.4565 126.2918,169.5725 C139.6748,188.7675 171.9998,188.3735 171.9998,188.3735 C171.9998,188.3735 183.5498,158.1795 170.1678,138.9835 C161.7208,126.8685 145.0518,123.8935 132.9358,132.3405" id="Fill-46"></path>
                    <path d="M19.5334,95.1005 C12.0534,90.1505 10.0034,80.0745 14.9534,72.5945 C19.9034,65.1145 29.9794,63.0635 37.4594,68.0145 C44.9384,72.9635 46.9894,83.0395 42.0394,90.5195 C37.0894,97.9995 27.0134,100.0505 19.5334,95.1005 M43.2544,59.2555 C30.9384,51.1045 14.3464,54.4815 6.1944,66.7985 C-6.7186,86.3125 5.5584,116.2185 5.5584,116.2185 C5.5584,116.2185 37.8834,115.8295 50.7974,96.3155 C58.9484,83.9995 55.5714,67.4065 43.2544,59.2555" id="Fill-50"></path>
                    <path d="M91.6006,212.7665 C100.4106,211.0815 108.9176,216.8565 110.6026,225.6665 C112.2886,234.4755 106.5126,242.9835 97.7036,244.6685 C88.8936,246.3545 80.3866,240.5785 78.7006,231.7695 C77.0156,222.9595 82.7906,214.4525 91.6006,212.7665 M99.6766,254.9845 C114.1836,252.2095 123.6936,238.1995 120.9186,223.6935 C116.5216,200.7095 86.8426,187.8945 86.8426,187.8945 C86.8426,187.8945 63.9886,210.7595 68.3856,233.7425 C71.1606,248.2485 85.1706,257.7595 99.6766,254.9845" id="Fill-54"></path>
                    <polygon id="Fill-26" points="235.251 178.4086 227.428 179.2076 228.622 190.9056 222.945 191.4846 223.744 199.3086 229.421 198.7286 235.983 198.0586 237.245 197.9296 236.647 192.0746"></polygon>
                    <polygon id="Fill-35" points="130.0969 72.6259 134.9309 78.8299 144.2059 71.6029 147.7129 76.1049 153.9169 71.2709 150.4089 66.7689 146.3549 61.5659 145.5759 60.5649 140.9319 64.1829"></polygon>
                    <polygon id="Fill-44" points="152.4221 144.9442 147.5251 144.0702 146.2181 151.3922 142.6641 150.7582 141.7901 155.6552 145.3441 156.2902 149.4521 157.0232 150.2421 157.1642 150.8961 153.4982"></polygon>
                    <polygon id="Fill-48" points="38.7183 82.015 37.7263 77.14 30.4373 78.624 29.7173 75.086 24.8433 76.078 25.5623 79.616 26.3953 83.704 26.5553 84.491 30.2033 83.748"></polygon>
                    <polygon id="Fill-52" points="87.0193 235.5326 91.1353 238.3266 95.3133 232.1726 98.3003 234.2006 101.0943 230.0846 98.1073 228.0566 94.6553 225.7136 93.9913 225.2626 91.9003 228.3436"></polygon>
                    <polygon id="Fill-8" points="95.6519 127.7377 93.9509 124.9817 89.8289 127.5247 88.5949 125.5237 85.8389 127.2247 87.0729 129.2247 88.4989 131.5367 88.7739 131.9817 90.8369 130.7087"></polygon>
                    <polygon id="Fill-16" points="243.8225 51.8822 240.6555 52.5622 241.6715 57.2972 239.3735 57.7902 240.0525 60.9572 242.3515 60.4642 245.0075 59.8942 245.5185 59.7842 245.0095 57.4142"></polygon>
                </g>
            </g>
        </g>
    </g>
</svg>