<?xml version="1.0" encoding="UTF-8" standalone="no"?>
<svg width="395px" height="395px" viewBox="0 0 395 395" version="1.1" xmlns="http://www.w3.org/2000/svg" xmlns:xlink="http://www.w3.org/1999/xlink">
    <!-- Generator: Sketch 47 (45396) - http://www.bohemiancoding.com/sketch -->
    <title>pattern/widescreen</title>
    <desc>Created with Sketch.</desc>
    <defs></defs>
    <g id="Symbols" stroke="none" stroke-width="1" fill="none" fill-rule="evenodd">
        <g id="pattern/widescreen" fill="#5B4E46">
            <path d="M220.9941,88.5736 C218.7431,106.7146 202.2121,119.5956 184.0711,117.3446 C165.9301,115.0926 153.0491,98.5616 155.3001,80.4206 C157.5521,62.2796 174.0831,49.3976 192.2241,51.6496 C210.3651,53.9016 223.2451,70.4326 220.9941,88.5736 L220.9941,88.5736 Z M198.5801,0.4316 C198.5801,0.4316 139.9321,30.4566 134.0581,77.7836 C130.3511,107.6566 151.5621,134.8786 181.4341,138.5856 C211.3071,142.2926 238.5281,121.0816 242.2361,91.2096 C248.1101,43.8816 198.5801,0.4316 198.5801,0.4316 L198.5801,0.4316 Z M189.0301,77.3816 L183.0441,82.0456 L169.0751,92.9306 L175.3061,100.9286 L187.2651,91.6116 L191.7861,97.4156 L199.7851,91.1846 L195.2621,85.3796 L190.0361,78.6716 L189.0301,77.3816 Z M202.5461,221.5336 L197.9641,220.7166 L196.8371,227.0296 L201.4191,227.8476 L206.7151,228.7926 L207.7341,228.9746 L208.5771,224.2486 L210.5451,213.2196 L204.2311,212.0936 L202.5461,221.5336 Z M217.1141,242.4296 C207.6281,249.0426 194.5771,246.7136 187.9641,237.2286 C181.3511,227.7426 183.6801,214.6916 193.1651,208.0786 C202.6511,201.4646 215.7021,203.7936 222.3151,213.2796 C228.9291,222.7656 226.6001,235.8166 217.1141,242.4296 L217.1141,242.4296 Z M185.4221,196.9706 C169.8021,207.8606 165.9671,229.3516 176.8571,244.9716 C194.1101,269.7196 235.7861,269.2106 235.7861,269.2106 C235.7861,269.2106 250.6761,230.2836 233.4231,205.5356 C222.5331,189.9156 201.0421,186.0806 185.4221,196.9706 L185.4221,196.9706 Z M295.4671,165.7226 L299.0691,160.4156 L295.2181,157.8016 L290.7671,154.7806 L289.9111,154.1986 L287.2161,158.1706 L280.9231,167.4396 L286.2301,171.0416 L291.6161,163.1076 L295.4671,165.7226 Z M354.6661,300.6236 C343.1211,314.7956 322.2721,316.9246 308.0991,305.3796 C293.9271,293.8346 291.7971,272.9856 303.3431,258.8136 C314.8881,244.6406 335.7371,242.5106 349.9091,254.0566 C364.0821,265.6026 366.2121,286.4506 354.6661,300.6236 L354.6661,300.6236 Z M363.4281,237.4606 C340.0901,218.4486 305.7591,221.9566 286.7471,245.2946 C267.7361,268.6326 271.2431,302.9636 294.5801,321.9746 C331.5551,352.0956 394.6801,333.2206 394.6801,333.2206 C394.6801,333.2206 400.4031,267.5816 363.4281,237.4606 L363.4281,237.4606 Z M134.8361,348.0976 C118.2371,355.7546 98.5731,348.5046 90.9161,331.9066 C83.2591,315.3066 90.5081,295.6436 107.1071,287.9866 C123.7061,280.3296 143.3691,287.5786 151.0271,304.1776 C158.6831,320.7766 151.4351,340.4406 134.8361,348.0976 L134.8361,348.0976 Z M98.1411,268.5506 C70.8081,281.1586 58.8711,313.5376 71.4801,340.8716 C91.4561,384.1776 156.4541,394.9626 156.4541,394.9626 C156.4541,394.9626 190.4401,338.5176 170.4631,295.2116 C157.8551,267.8776 125.4751,255.9416 98.1411,268.5506 L98.1411,268.5506 Z M270.1991,162.5876 C268.0261,151.2296 275.4721,140.2616 286.8301,138.0886 C298.1871,135.9156 309.1561,143.3626 311.3281,154.7196 C313.5011,166.0776 306.0561,177.0466 294.6981,179.2186 C283.3401,181.3906 272.3711,173.9446 270.1991,162.5876 L270.1991,162.5876 Z M297.2421,192.5176 C315.9441,188.9396 328.2051,170.8786 324.6281,152.1756 C318.9591,122.5446 280.6961,106.0226 280.6961,106.0226 C280.6961,106.0226 251.2321,135.5006 256.9001,165.1316 C260.4771,183.8346 278.5391,196.0946 297.2421,192.5176 L297.2421,192.5176 Z M331.9921,259.0786 L321.9051,260.1096 L323.4461,275.1896 L316.1261,275.9376 L317.1561,286.0246 L324.4761,285.2766 L332.9361,284.4126 L334.5631,284.2456 L333.7921,276.6976 L331.9921,259.0786 Z M302.4491,67.2216 C306.5371,60.8986 314.9771,59.0876 321.2991,63.1766 C327.6221,67.2646 329.4331,75.7056 325.3451,82.0276 C321.2561,88.3496 312.8161,90.1606 306.4941,86.0726 C300.1711,81.9846 298.3601,73.5436 302.4491,67.2216 L302.4491,67.2216 Z M301.7061,93.4756 C318.2021,104.1426 343.1951,93.5706 343.1951,93.5706 C343.1951,93.5706 342.5811,66.4396 326.0871,55.7736 C315.6751,49.0406 301.7781,52.0236 295.0451,62.4346 C288.3131,72.8456 291.2951,86.7436 301.7061,93.4756 L301.7061,93.4756 Z M113.9401,167.4456 L114.2941,168.0186 L116.9541,166.3776 L123.1621,162.5466 L120.9691,158.9926 L115.6551,162.2716 L114.0641,159.6926 L110.5101,161.8856 L112.1011,164.4646 L113.9401,167.4456 Z M309.3301,77.7406 L312.2931,77.1036 L315.7181,76.3696 L316.3761,76.2286 L315.7211,73.1726 L314.1901,66.0396 L310.1071,66.9166 L311.4171,73.0206 L308.4541,73.6566 L309.3301,77.7406 Z M101.7091,162.0026 C103.4441,154.6766 110.7901,150.1436 118.1171,151.8796 C125.4431,153.6146 129.9761,160.9606 128.2411,168.2876 C126.5051,175.6136 119.1591,180.1466 111.8321,178.4116 C104.5061,176.6756 99.9731,169.3296 101.7091,162.0026 L101.7091,162.0026 Z M136.8201,170.3186 C139.6771,158.2546 132.2131,146.1576 120.1491,143.3006 C108.0841,140.4426 95.9881,147.9066 93.1301,159.9706 C88.6021,179.0856 106.9331,199.0956 106.9331,199.0956 C106.9331,199.0956 132.2921,189.4336 136.8201,170.3186 L136.8201,170.3186 Z M117.9691,311.5326 L111.0651,308.9866 L107.5571,318.4996 L114.4611,321.0446 L122.4401,323.9866 L123.9741,324.5526 L126.5991,317.4326 L132.7251,300.8156 L123.2121,297.3086 L117.9691,311.5326 Z M54.0421,115.8536 C47.6611,125.4966 34.6701,128.1406 25.0271,121.7596 C15.3841,115.3776 12.7401,102.3866 19.1211,92.7436 C25.5031,83.0996 38.4941,80.4566 48.1371,86.8376 C57.7801,93.2196 60.4241,106.2096 54.0421,115.8536 L54.0421,115.8536 Z M55.6091,75.5456 C39.7301,65.0376 18.3391,69.3916 7.8301,85.2706 C-8.8189,110.4286 7.0091,148.9846 7.0091,148.9846 C7.0091,148.9846 48.6841,148.4836 65.3341,123.3266 C75.8431,107.4466 71.4891,86.0556 55.6091,75.5456 L55.6091,75.5456 Z M39.0851,100.5166 L38.1571,95.9556 L31.8711,97.2336 L32.8001,101.7956 L33.8721,107.0666 L34.0791,108.0806 L38.7831,107.1236 L49.7611,104.8886 L48.4811,98.6036 L39.0851,100.5166 Z" id="Fill-4"></path>
        </g>
    </g>
</svg>