<svg xmlns="http://www.w3.org/2000/svg" width="300" height="480" viewBox="0 0 300 480">
  <defs>
    <style>
      .cls-1 {
        fill: #fffbef;
      }
    </style>
  </defs>
  <title>PlaceCal</title>
  <g id="Layer_1" data-name="Layer 1">
    <g>
      <polygon class="cls-1" points="162.01 118.7 166.21 124.09 173.64 118.3 169.44 112.91 164.59 106.69 163.65 105.48 158.1 109.81 145.13 119.92 150.91 127.35 162.01 118.7"/>
      <path class="cls-1" d="M296,146.9a24.62,24.62,0,0,0,4,2.08v-9.27a12.62,12.62,0,0,1,0-20.64V109.9a20.71,20.71,0,0,0-10.2,8.18h0A20.84,20.84,0,0,0,296,146.9Z"/>
      <path class="cls-1" d="M156.6,162.31h0a50.6,50.6,0,0,0,56.45-44c5.45-43.94-40.53-84.28-40.53-84.28s-54.45,27.87-59.9,71.81A50.61,50.61,0,0,0,156.6,162.31Zm-24.26-54a30.73,30.73,0,1,1,26.71,34.28A30.73,30.73,0,0,1,132.34,108.31Z"/>
      <path class="cls-1" d="M254.39,213.42a32,32,0,0,0,37.45,25.42h0A31.75,31.75,0,0,0,300,236.1V220.68a19.44,19.44,0,1,1,0-26.55V173.86a98.38,98.38,0,0,0-23.52-15.31S249.13,185.91,254.39,213.42Z"/>
      <polygon class="cls-1" points="121.67 215.57 122 216.1 124.47 214.58 130.23 211.02 128.2 207.72 123.26 210.76 121.79 208.37 118.49 210.41 119.96 212.8 121.67 215.57"/>
      <path class="cls-1" d="M102.35,208.63h0C98.15,226.38,115.17,245,115.17,245s23.54-9,27.74-26.72a20.83,20.83,0,0,0-15.47-25.08h0A20.84,20.84,0,0,0,102.35,208.63Zm8,1.89h0A12.66,12.66,0,0,1,135,216.35h0a12.66,12.66,0,0,1-15.23,9.4h0A12.65,12.65,0,0,1,110.32,210.52Z"/>
      <polygon class="cls-1" points="285.04 203.27 282.54 206.96 276.69 215.56 281.62 218.91 286.62 211.54 290.19 213.97 293.54 209.04 289.96 206.62 285.83 203.81 285.04 203.27"/>
      <polygon class="cls-1" points="47.34 159.51 47.54 160.46 51.9 159.57 62.09 157.49 60.9 151.66 52.18 153.43 51.32 149.2 45.48 150.39 46.34 154.62 47.34 159.51"/>
      <path class="cls-1" d="M76.55,174.61a32,32,0,0,0-9-44.36h0a32,32,0,0,0-44.36,9h0c-15.45,23.35-.76,59.15-.76,59.15S61.09,198,76.55,174.61Zm-42.9-28.4a19.44,19.44,0,0,1,32.42,21.46h0a19.43,19.43,0,0,1-26.93,5.48h0A19.44,19.44,0,0,1,33.65,146.21Z"/>
      <path class="cls-1" d="M300,367.22a30.73,30.73,0,1,1,0-57V289.41a50.6,50.6,0,0,0-50.67,17.33h0a50.61,50.61,0,0,0,7.27,71.19c12.57,10.24,28.39,14.38,43.4,15.51Z"/>
      <polygon class="cls-1" points="277.56 344.56 284.36 343.86 292.21 343.06 293.72 342.91 293.01 335.9 291.33 319.54 281.97 320.5 283.4 334.5 276.6 335.19 277.56 344.56"/>
      <polygon class="cls-1" points="179.98 287.21 175.73 286.45 174.68 292.31 178.94 293.07 183.85 293.94 184.8 294.11 185.58 289.73 187.41 279.49 181.55 278.44 179.98 287.21"/>
      <path class="cls-1" d="M87.29,396.74c18.55,40.2,78.89,50.21,78.89,50.21s31.55-52.4,13-92.6a50.61,50.61,0,0,0-67.14-24.75h0A50.6,50.6,0,0,0,87.29,396.74Zm33.08-49.1a30.73,30.73,0,1,1,25.74,55.8h0a30.73,30.73,0,1,1-25.74-55.8Z"/>
      <path class="cls-1" d="M210.84,331.47s13.83-36.14-2.19-59.12a32,32,0,0,0-44.57-8h0a32,32,0,0,0-8,44.56C172.15,331.94,210.84,331.47,210.84,331.47Zm-17.33-24.86a19.44,19.44,0,0,1-22.24-31.89h0a19.44,19.44,0,0,1,22.24,31.9Z"/>
      <polygon class="cls-1" points="134.6 381.06 136.03 381.58 138.47 374.97 144.15 359.55 135.32 356.3 130.45 369.5 124.04 367.13 120.79 375.96 127.2 378.33 134.6 381.06"/>
    </g>
  </g>
</svg>
