<svg xmlns="http://www.w3.org/2000/svg" width="207.09" height="423.86" viewBox="0 0 207.09 423.86">
  <defs>
    <style>
      .cls-1 {
        fill: #afcf5a;
      }
    </style>
  </defs>
  <title>PlaceCal</title>
  <g id="Layer_1" data-name="Layer 1">
    <g>
      <path class="cls-1" d="M32.1,323.21A41.63,41.63,0,0,0,0,297.6v16.69a25.25,25.25,0,0,1,16.92,15h0a25.27,25.27,0,0,1-14,32.88h0a25.59,25.59,0,0,1-2.88,1v29.94a120.69,120.69,0,0,0,17.57,5.7S45.67,357,32.1,323.21Z"/>
      <polygon class="cls-1" points="0 207.63 0 216.21 8.37 217.71 9.23 212.88 2.02 211.6 2.64 208.1 0 207.63"/>
      <path class="cls-1" d="M0,187.25v10.37a15.94,15.94,0,0,1,12.29,6.81,16,16,0,0,1-4,22.27A15.88,15.88,0,0,1,0,229.53V240.8a35.3,35.3,0,0,0,14.24-5.61,26.34,26.34,0,0,0,6.54-36.67h0A26.31,26.31,0,0,0,0,187.25Z"/>
      <path class="cls-1" d="M152,338.46h0a17.14,17.14,0,0,0-23.71,5.08c-8.15,12.6-.07,31.7-.07,31.7s20.72-.47,28.87-13.07A17.15,17.15,0,0,0,152,338.46Zm-.57,20.05A10.42,10.42,0,0,1,137,361.6h0a10.41,10.41,0,1,1,14.4-3.09Z"/>
      <polygon class="cls-1" points="71.17 137.54 65.06 142.3 72.18 151.44 67.75 154.89 72.51 161 76.94 157.55 82.06 153.56 83.05 152.79 79.49 148.21 71.17 137.54"/>
      <polygon class="cls-1" points="0 324.71 0 333.27 3.09 326.03 0 324.71"/>
      <polygon class="cls-1" points="143.88 350.96 143.4 348.7 140.28 349.37 140.76 351.63 141.33 354.25 141.43 354.75 143.77 354.25 149.22 353.08 148.55 349.96 143.88 350.96"/>
      <path class="cls-1" d="M60.84,231.07a26.34,26.34,0,0,0-20.92,30.82h0a26.33,26.33,0,0,0,30.82,20.92C93.37,278.48,106,249.25,106,249.25S83.47,226.74,60.84,231.07ZM81.5,253.94a16,16,0,1,1-18.72-12.7A16,16,0,0,1,81.5,253.94Z"/>
      <path class="cls-1" d="M141.83,160.08s-22.93-44.8-59.09-49.29A41.64,41.64,0,0,0,36.29,147h0a41.64,41.64,0,0,0,36.2,46.44C108.64,197.92,141.83,160.08,141.83,160.08Zm-39.12-4.85A25.29,25.29,0,0,1,52.52,149h0a25.29,25.29,0,1,1,50.19,6.23Z"/>
      <polygon class="cls-1" points="56.33 253.48 62.39 257.59 60.39 260.53 64.44 263.29 66.44 260.34 68.75 256.94 69.19 256.29 66.16 254.23 59.08 249.43 56.33 253.48"/>
    </g>
  </g>
</svg>
