<svg id="Layer_1" data-name="Layer 1" xmlns="http://www.w3.org/2000/svg" width="70" height="60" viewBox="0 0 70 60">
  <defs>
    <style>
      .cls-1 {
        fill: #5b4e47;
      }

      .cls-2 {
        fill: #f19089;
      }
    </style>
  </defs>
  <title>PlaceCal</title>
  <g id="Group_1775" data-name="Group 1775">
    <path id="Rectangle_2306" data-name="Rectangle 2306" class="cls-1" d="M19.61,54.44H51.38A2.66,2.66,0,0,1,54,57.1h0a2.65,2.65,0,0,1-2.65,2.65H19.61A2.66,2.66,0,0,1,17,57.1h0A2.66,2.66,0,0,1,19.61,54.44Z"/>
    <path id="Path_1625" data-name="Path 1625" class="cls-2" d="M63.9,5.45h-4c.1-.87.19-1.75.24-2.64A2.25,2.25,0,0,0,58.05.45h-45a2.24,2.24,0,0,0-2.24,2.24v.12q.07,1.34.24,2.64H6.36a5.2,5.2,0,0,0-5.24,5.16,5.13,5.13,0,0,0,.26,1.65A21,21,0,0,0,18.91,26.33c4,5.91,8.81,10.14,12.79,11.93v10H28.2A6.18,6.18,0,0,0,22,54.45H49a6.2,6.2,0,0,0-6.2-6.19h-3.5v-10c4-1.8,8.85-6.08,12.87-12A21,21,0,0,0,68.88,12.26,5.2,5.2,0,0,0,65.55,5.7,5.12,5.12,0,0,0,63.9,5.45Zm-54.67,12A17.11,17.11,0,0,1,5.16,11a1.08,1.08,0,0,1,.16-1,1.27,1.27,0,0,1,1-.53h5.36a47.18,47.18,0,0,0,4.42,12.22A17.2,17.2,0,0,1,9.23,17.49ZM35.49,28.13a10.44,10.44,0,0,1-10.4-10.48h0A10.43,10.43,0,0,1,35.49,7.17h0a10.43,10.43,0,0,1,10.4,10.47h0A10.44,10.44,0,0,1,35.5,28.13ZM65.09,11A17,17,0,0,1,61,17.49a17.09,17.09,0,0,1-6,3.86,47.11,47.11,0,0,0,4.26-11.9H63.9a1.26,1.26,0,0,1,1,.53,1,1,0,0,1,.16,1Zm-29.6,4.42-1.63-1.65L31.61,16l1.63,1.65,1.89,1.9.36.36,1.69-1.7,3.93-4L38.86,12Z"/>
  </g>
</svg>
