<svg id="Layer_1" data-name="Layer 1" xmlns="http://www.w3.org/2000/svg" width="55" height="38" viewBox="0 0 55 38">
  <defs>
    <style>
      .cls-1 {
        fill: #afcf5a;
      }
    </style>
  </defs>
  <title>PlaceCal</title>
  <path class="cls-1" d="M21.14,19a8,8,0,0,0-4.42-1.37,9.65,9.65,0,0,0-5.8,1.86,3.55,3.55,0,0,1-.6-2.16c0-1.73.89-3.66,2.67-5.77A26,26,0,0,1,19.17,6.2L15.82.7,11.13,5.38C10,6.57,8.77,8,7.45,9.63a22.28,22.28,0,0,0-2.72,4A19.15,19.15,0,0,0,2.5,22.5a16.23,16.23,0,0,0,1.83,7.88,13.11,13.11,0,0,0,4.8,5.14,12,12,0,0,0,6.32,1.78,9.46,9.46,0,0,0,4.95-1.45A11.92,11.92,0,0,0,24.34,32a9.21,9.21,0,0,0,1.53-5,8.82,8.82,0,0,0-1.3-4.5A10.77,10.77,0,0,0,21.14,19ZM51.2,22.54A10.64,10.64,0,0,0,47.78,19a8,8,0,0,0-4.43-1.37,9.69,9.69,0,0,0-5.8,1.86,3.68,3.68,0,0,1-.6-2.16c0-1.73.9-3.66,2.68-5.77A26,26,0,0,1,45.81,6.2L42.46.7q-4.24,4.31-6,6.13a47.51,47.51,0,0,0-3.65,4.5A20.19,20.19,0,0,0,30,16.73a19.06,19.06,0,0,0-.82,5.76A16.24,16.24,0,0,0,31,30.38a13.11,13.11,0,0,0,4.8,5.14,12.14,12.14,0,0,0,6.32,1.78,9.55,9.55,0,0,0,5-1.45A11.43,11.43,0,0,0,51,32a9.23,9.23,0,0,0,1.49-5A8.59,8.59,0,0,0,51.2,22.54Z"/>
</svg>
