<svg id="Layer_1" data-name="Layer 1" xmlns="http://www.w3.org/2000/svg" width="190" height="60" viewBox="0 0 190 60">
  <defs>
    <style>
      .cls-1 {
        fill: #fffbef;
      }

      .cls-2 {
        fill: #f19089;
      }
    </style>
  </defs>
  <title>PlaceCal</title>
  <g>
    <g id="Group_334" data-name="Group 334">
      <path id="Path_753" data-name="Path 753" class="cls-1" d="M104.65,39.83a1.07,1.07,0,0,1-.45-.79,10.76,10.76,0,0,1-.13-2V31.91q0-3.94-1.73-5.75a6.66,6.66,0,0,0-5-1.81A15.39,15.39,0,0,0,90.53,26l.41,3.8a17.57,17.57,0,0,1,2.7-1.1,8.87,8.87,0,0,1,2.41-.33,3.61,3.61,0,0,1,2.52.71,3.42,3.42,0,0,1,.84,2.37,21,21,0,0,0-4.59.7,10.36,10.36,0,0,0-4.14,2.1,4.93,4.93,0,0,0-1.76,3.94,5.49,5.49,0,0,0,1.55,4.12,5.28,5.28,0,0,0,3.86,1.52,9.26,9.26,0,0,0,3.26-.58,6.11,6.11,0,0,0,2.45-1.6,4.1,4.1,0,0,0,1.6,1.6,5.25,5.25,0,0,0,2.58.58h1.68l.41-3.84h-.6A2.28,2.28,0,0,1,104.65,39.83Zm-5.21-.92a4.84,4.84,0,0,1-1.56,1,4.27,4.27,0,0,1-1.61.35,2.74,2.74,0,0,1-1.9-.54,2.21,2.21,0,0,1-.6-1.71,2.65,2.65,0,0,1,1.72-2.41,9.83,9.83,0,0,1,4-1Zm-13.82.21A8.93,8.93,0,0,1,85.45,37V15.25H80.82V38.91A5.21,5.21,0,0,0,82,42.46a4.48,4.48,0,0,0,3.58,1.38h1.68L87.69,40a5.67,5.67,0,0,1-1.48-.13,1,1,0,0,1-.6-.75Zm-16.11-22H60.22V43.47H65V34.32h4.63q4.47,0,6.83-2.14t2.35-6.55q0-8.5-9.3-8.5Zm3.23,12a5.25,5.25,0,0,1-3.68,1.13H65V21.16h4a5.5,5.5,0,0,1,3.77,1.11A4.39,4.39,0,0,1,74,25.71a4.52,4.52,0,0,1-1.22,3.46ZM179.65,39.84a1.1,1.1,0,0,1-.44-.79,10.86,10.86,0,0,1-.13-2V31.91q0-3.94-1.74-5.75a6.66,6.66,0,0,0-5-1.81A15.43,15.43,0,0,0,165.53,26l.41,3.8a17.68,17.68,0,0,1,2.71-1.1,8.85,8.85,0,0,1,2.4-.33,3.61,3.61,0,0,1,2.52.71,3.33,3.33,0,0,1,.84,2.37,21,21,0,0,0-4.59.7,10.43,10.43,0,0,0-4.14,2.1,4.89,4.89,0,0,0-1.75,3.94,5.49,5.49,0,0,0,1.55,4.12,5.28,5.28,0,0,0,3.86,1.52,9.3,9.3,0,0,0,3.26-.58,6.11,6.11,0,0,0,2.45-1.6,4,4,0,0,0,1.6,1.6,5.25,5.25,0,0,0,2.58.58h1.68l.41-3.84h-.6a2.3,2.3,0,0,1-1.07-.17Zm-5.2-.92a5.15,5.15,0,0,1-1.57,1,4.44,4.44,0,0,1-1.6.36,2.79,2.79,0,0,1-1.91-.55,2.2,2.2,0,0,1-.59-1.71,2.66,2.66,0,0,1,1.71-2.41,9.92,9.92,0,0,1,4-1Zm14.08,1a1,1,0,0,1-.59-.76,8.89,8.89,0,0,1-.17-2.12V15.25h-4.63V38.91a5.2,5.2,0,0,0,1.19,3.55,4.5,4.5,0,0,0,3.58,1.38h1.68L190,40a5.59,5.59,0,0,1-1.47-.13ZM155.77,21.23a12.73,12.73,0,0,1,3.19.4A21.36,21.36,0,0,1,162,22.74l.52-4.59a14.51,14.51,0,0,0-6.76-1.54,14.19,14.19,0,0,0-7,1.71A12.19,12.19,0,0,0,144,23.14a14.4,14.4,0,0,0-1.74,7.16,14.9,14.9,0,0,0,1.68,7.2,11.73,11.73,0,0,0,4.72,4.8,14.13,14.13,0,0,0,7,1.69,15.87,15.87,0,0,0,6.9-1.54L162,37.86A20.86,20.86,0,0,1,158.88,39a12.94,12.94,0,0,1-3.22.37,7.5,7.5,0,0,1-6.07-2.48,9.82,9.82,0,0,1-2.11-6.59,9.69,9.69,0,0,1,2.15-6.58,7.68,7.68,0,0,1,6.13-2.48ZM117.2,40a5.23,5.23,0,0,1-4.07-1.67,6.76,6.76,0,0,1,0-8.52,5.32,5.32,0,0,1,4.14-1.62,9,9,0,0,1,4.18,1l.37-3.76a9.91,9.91,0,0,0-5-1.2,10.68,10.68,0,0,0-5.45,1.29A8.32,8.32,0,0,0,108,29.11a11,11,0,0,0-1.12,5A10.79,10.79,0,0,0,108,39a8.46,8.46,0,0,0,3.34,3.52,10.4,10.4,0,0,0,5.32,1.29,13.59,13.59,0,0,0,2.85-.3,9.4,9.4,0,0,0,2.37-.83l-.41-4A8.32,8.32,0,0,1,117.2,40Zm19.42-14.56a8.41,8.41,0,0,0-4.42-1.09,8.84,8.84,0,0,0-4.88,1.3,8.51,8.51,0,0,0-3.14,3.48,10.71,10.71,0,0,0-1.08,4.81,10.93,10.93,0,0,0,1.14,5,8.61,8.61,0,0,0,3.43,3.57,10.82,10.82,0,0,0,5.54,1.34,14.33,14.33,0,0,0,3.45-.4,12.64,12.64,0,0,0,2.79-1l-.23-3.95A10.67,10.67,0,0,1,133.63,40a6,6,0,0,1-3.77-1.22,5.52,5.52,0,0,1-1.94-3.71h12a12.26,12.26,0,0,0,.3-2.56,9.26,9.26,0,0,0-.91-4.14,7.07,7.07,0,0,0-2.73-2.93ZM128,31.91a5.32,5.32,0,0,1,1.42-2.71,3.81,3.81,0,0,1,2.76-1,2.93,2.93,0,0,1,2.54,1.13,4.28,4.28,0,0,1,.82,2.6Z"/>
      <path id="Path_754" data-name="Path 754" class="cls-1" d="M28.84,19.36,26,16.48l-4.28,4.3-2.07-2.09-2.85,2.89,2.07,2.09,2.39,2.41.46.47,2.14-2.16Z"/>
    </g>
    <g id="Group_332" data-name="Group 332">
      <path id="Path_755" data-name="Path 755" class="cls-2" d="M21.71,37A13.3,13.3,0,1,1,34.9,23.56v.11A13.23,13.23,0,0,1,21.72,37h0m0-35.19A21.8,21.8,0,0,0,0,23.67c0,19.16,21.71,34,21.71,34s21.72-14.87,21.72-34A21.81,21.81,0,0,0,21.71,1.77"/>
    </g>
  </g>
</svg>
