<svg id="Layer_1" data-name="Layer 1" xmlns="http://www.w3.org/2000/svg" width="55" height="38" viewBox="0 0 55 38">
  <defs>
    <style>
      .cls-1 {
        fill: #afcf5a;
      }
    </style>
  </defs>
  <title>PlaceCal</title>
  <path class="cls-1" d="M19.12,2.53A12.11,12.11,0,0,0,12.81.75,9.45,9.45,0,0,0,7.88,2.2,11.56,11.56,0,0,0,4,6,9,9,0,0,0,2.5,10.91,8.59,8.59,0,0,0,3.8,15.4,10.56,10.56,0,0,0,7.21,19a8,8,0,0,0,4.41,1.38,10.12,10.12,0,0,0,5.79-1.78A3.38,3.38,0,0,1,18,20.63c0,1.74-.89,3.66-2.67,5.79a25.52,25.52,0,0,1-6.15,5.34l3.33,5.49q4.46-4.45,6-6.12c1-1.11,2.24-2.61,3.67-4.49A17.41,17.41,0,0,0,25,21.37a19.63,19.63,0,0,0,.77-5.86,16,16,0,0,0-1.85-7.86A13.47,13.47,0,0,0,19.12,2.53ZM50.68,7.65h0A13.08,13.08,0,0,0,45.9,2.53,12.11,12.11,0,0,0,39.59.75,9.45,9.45,0,0,0,34.66,2.2,11.56,11.56,0,0,0,30.76,6a9,9,0,0,0-1.48,4.93,8.59,8.59,0,0,0,1.3,4.49A10.56,10.56,0,0,0,34,19a8,8,0,0,0,4.41,1.38,9.69,9.69,0,0,0,5.71-1.78,3.27,3.27,0,0,1,.67,2.07c0,1.74-.89,3.66-2.67,5.79A25.38,25.38,0,0,1,36,31.76l3.34,5.49q4.16-4.16,5.83-6a55.38,55.38,0,0,0,3.74-4.64,17.35,17.35,0,0,0,2.86-5.3,20.42,20.42,0,0,0,.78-5.82A16.18,16.18,0,0,0,50.68,7.65Z"/>
</svg>
