<?xml version="1.0" encoding="utf-8"?>
<!-- Generator: Adobe Illustrator 24.0.3, SVG Export Plug-In . SVG Version: 6.00 Build 0)  -->
<svg version="1.1" id="Layer_1" xmlns="http://www.w3.org/2000/svg" xmlns:xlink="http://www.w3.org/1999/xlink" x="0px" y="0px"
	 viewBox="0 0 360 720" style="enable-background:new 0 0 360 720;" xml:space="preserve">
<style type="text/css">
	.st0{fill:#998576;}
	.st1{fill:#7B6A5E;}
</style>
<rect class="st0" width="360" height="720"/>
<g>
	<polygon class="st1" points="293,278 292.6,273.2 285.6,273.8 285.3,270.4 280.6,270.8 280.8,274.2 281.1,278.2 281.2,278.9 
		284.7,278.7 	"/>
	<g>
		<path class="st1" d="M273.3,288.2c-6.5-5.5-7.2-15.3-1.6-21.8c5.6-6.5,15.3-7.3,21.8-1.8c6.5,5.5,7.2,15.3,1.6,21.8
			C289.5,292.9,279.7,293.7,273.3,288.2 M300,257c-10.6-9.1-26.7-7.8-35.9,2.9c-14.5,17-6.6,46.7-6.6,46.7s30.6,3.3,45.1-13.7
			C311.8,282.1,310.6,266.1,300,257"/>
	</g>
</g>
<g>
	<polygon class="st1" points="76.4,178 72,176.4 69.6,183 66.3,181.9 64.7,186.3 68,187.5 71.7,188.9 72.4,189.1 73.6,185.8 	"/>
	<g>
		<path class="st1" d="M77.5,200.2c-7.7,3.6-16.9,0.2-20.5-7.6c-3.6-7.8-0.3-17,7.4-20.6c7.7-3.6,16.9-0.2,20.5,7.6
			C88.6,187.4,85.2,196.6,77.5,200.2 M60.2,162.9C47.5,168.8,42,184,48,196.8c9.5,20.3,39.8,25.3,39.8,25.3s15.7-26.5,6.2-46.7
			C88,162.6,72.9,157,60.2,162.9"/>
	</g>
</g>
<g>
	<polygon class="st1" points="194,54.1 194.9,58.7 201.9,57.3 202.5,60.7 207.2,59.7 206.5,56.3 205.8,52.5 205.6,51.7 202.1,52.4 	
		"/>
	<g>
		<path class="st1" d="M212.3,41.6c7.1,4.7,9,14.3,4.2,21.5c-4.8,7.1-14.3,9.1-21.4,4.4c-7.1-4.7-9-14.3-4.2-21.5
			C195.7,38.8,205.3,36.9,212.3,41.6 M189.6,75.8c11.7,7.8,27.5,4.5,35.3-7.2c12.4-18.6,0.9-47.1,0.9-47.1s-30.7,0.4-43.1,19
			C174.8,52.2,177.9,68,189.6,75.8"/>
	</g>
</g>
<g>
	<polygon class="st1" points="313.1,109.4 311.1,110.2 312.4,113.3 310.9,113.9 311.7,115.9 313.2,115.3 314.9,114.6 315.3,114.5 
		314.6,112.9 	"/>
	<g>
		<path class="st1" d="M320.5,116.7c-1.5,3.7-5.8,5.4-9.5,3.8c-3.7-1.5-5.5-5.8-3.9-9.4c1.5-3.7,5.8-5.4,9.5-3.8
			C320.3,108.8,322,113,320.5,116.7 M302.8,109.3c-2.5,6,0.4,13,6.5,15.5c9.6,4,21.7-3.8,21.7-3.8s-2.9-14-12.6-18.1
			C312.3,100.4,305.3,103.2,302.8,109.3"/>
	</g>
</g>
<g>
	<polygon class="st1" points="203,249.3 204.2,248.6 203.3,246.8 204.2,246.3 203.5,245.1 202.6,245.6 201.6,246.1 201.4,246.2 
		201.9,247.1 	"/>
	<g>
		<path class="st1" d="M198,245.2c0.7-2.4,3.3-3.7,5.7-2.9c2.4,0.7,3.7,3.3,3,5.6s-3.3,3.7-5.7,2.9
			C198.6,250.1,197.3,247.5,198,245.2 M209.4,248.7c1.2-3.9-1-8.1-4.9-9.3c-6.2-1.9-13.3,3.6-13.3,3.6s2.6,8.6,8.9,10.5
			C204.1,254.8,208.2,252.6,209.4,248.7"/>
	</g>
</g>
<g>
	<polygon class="st1" points="307.9,167.9 306.6,167.3 305.9,169.2 304.9,168.8 304.4,170.1 305.3,170.5 306.4,171 306.6,171.1 
		307,170.1 	"/>
	<g>
		<path class="st1" d="M307.9,174.3c-2.3,0.9-4.9-0.2-5.9-2.5c-0.9-2.3,0.2-5,2.5-5.9c2.3-0.9,4.9,0.2,5.9,2.5
			C311.3,170.8,310.2,173.4,307.9,174.3 M303.4,163.2c-3.8,1.5-5.6,5.9-4,9.7c2.5,6,11.2,8,11.2,8s4.9-7.5,2.5-13.5
			C311.5,163.6,307.2,161.7,303.4,163.2"/>
	</g>
</g>
<g>
	<polygon class="st1" points="157.8,130.7 157.1,129.5 155.3,130.5 154.8,129.7 153.6,130.4 154.1,131.2 154.7,132.2 154.8,132.4 
		155.7,131.9 	"/>
	<g>
		<path class="st1" d="M153.9,135.9c-2.4-0.6-3.8-3.1-3.2-5.5c0.6-2.4,3.1-3.9,5.5-3.3c2.4,0.6,3.8,3.1,3.2,5.5
			C158.8,135,156.3,136.5,153.9,135.9 M156.9,124.3c-4-1-8,1.4-9,5.4c-1.6,6.3,4.3,13.1,4.3,13.1s8.4-3.1,10-9.4
			C163.2,129.3,160.9,125.3,156.9,124.3"/>
	</g>
</g>
<g>
	<polygon class="st1" points="328.4,26.9 328.2,28.2 330.3,28.5 330.1,29.5 331.5,29.7 331.6,28.7 331.8,27.6 331.9,27.4 
		330.8,27.2 	"/>
	<g>
		<path class="st1" d="M334.7,25.3c1.5,2,1,4.8-1,6.3c-2,1.5-4.8,1-6.3-1c-1.5-2-1-4.8,1-6.3C330.4,22.8,333.2,23.3,334.7,25.3
			 M325,32.3c2.4,3.3,7.1,4,10.4,1.6c5.3-3.9,5-12.8,5-12.8s-8.5-3-13.7,0.9C323.4,24.4,322.6,29.1,325,32.3"/>
	</g>
</g>
<g>
	<polygon class="st1" points="260.2,139.9 260.6,142.1 263.8,141.4 264.1,143 266.3,142.6 266,141 265.6,139.2 265.6,138.8 
		264,139.2 	"/>
	<g>
		<path class="st1" d="M268.7,134.1c3.3,2.2,4.2,6.7,2,10c-2.2,3.3-6.7,4.2-10,2c-3.3-2.2-4.2-6.7-2-10
			C260.9,132.8,265.4,131.9,268.7,134.1 M258.1,150.1c5.4,3.6,12.8,2.1,16.5-3.4c5.8-8.7,0.4-22,0.4-22s-14.3,0.2-20.1,8.9
			C251.2,139.1,252.6,146.4,258.1,150.1"/>
	</g>
</g>
<g>
	<polygon class="st1" points="77.2,69 77.8,66.8 74.6,65.9 75,64.4 72.9,63.8 72.5,65.3 72,67.1 71.9,67.5 73.4,67.9 	"/>
	<g>
		<path class="st1" d="M66.9,70.2c-1.9-3.5-0.6-7.9,2.9-9.8c3.5-1.9,7.9-0.7,9.8,2.8c1.9,3.5,0.6,7.9-2.9,9.8
			C73.2,74.9,68.8,73.7,66.9,70.2 M83.7,60.9c-3.2-5.7-10.4-7.8-16.2-4.6C58.3,61.4,57,75.7,57,75.7s12.8,6.4,22,1.4
			C84.7,73.9,86.8,66.6,83.7,60.9"/>
	</g>
</g>
<g>
	<polygon class="st1" points="164.7,300.9 165.3,298.7 162.2,297.8 162.6,296.3 160.5,295.7 160,297.2 159.5,299 159.4,299.4 
		161,299.8 	"/>
	<g>
		<path class="st1" d="M154.5,302.1c-1.9-3.5-0.6-7.9,2.9-9.8c3.5-1.9,7.9-0.7,9.8,2.8s0.6,7.9-2.9,9.8
			C160.8,306.8,156.4,305.6,154.5,302.1 M171.2,292.8c-3.2-5.7-10.4-7.8-16.2-4.6c-9.1,5.1-10.5,19.4-10.5,19.4s12.8,6.4,22,1.4
			C172.3,305.8,174.4,298.5,171.2,292.8"/>
	</g>
</g>
<g>
	<polygon class="st1" points="293.9,653.1 289.2,652.5 288.3,659.5 284.9,659.1 284.4,663.8 287.8,664.2 291.7,664.7 292.5,664.8 
		292.9,661.3 	"/>
	<g>
		<path class="st1" d="M300,674.4c-6.7,5.2-16.4,4-21.7-2.7c-5.3-6.8-4.1-16.5,2.6-21.7c6.7-5.2,16.4-4,21.7,2.7
			C307.8,659.4,306.7,669.2,300,674.4 M274.6,642.1c-11,8.6-12.9,24.6-4.2,35.8c13.8,17.6,44.5,15.7,44.5,15.7s9.3-29.3-4.5-46.9
			C301.7,635.4,285.7,633.4,274.6,642.1"/>
	</g>
</g>
<g>
	<polygon class="st1" points="83.4,574.2 80.7,570.2 74.9,574.3 73,571.4 69.1,574.1 71,576.9 73.2,580.2 73.7,580.9 76.6,578.9 	
		"/>
	<g>
		<path class="st1" d="M71.4,592.8c-8.4-1.6-13.8-9.7-12.3-18.1c1.6-8.4,9.7-14,18-12.4S91,572,89.4,580.4
			C87.8,588.8,79.8,594.4,71.4,592.8 M79,552.4c-13.8-2.6-27,6.5-29.7,20.4c-4.2,22,17.5,43.8,17.5,43.8s28.1-12.4,32.3-34.3
			C101.8,568.4,92.8,555,79,552.4"/>
	</g>
</g>
<g>
	<polygon class="st1" points="159.9,399.3 164.6,399.8 165.3,392.7 168.7,393.1 169.1,388.4 165.7,388 161.8,387.6 161,387.5 
		160.7,391 	"/>
	<g>
		<path class="st1" d="M153.3,378.1c6.6-5.4,16.3-4.3,21.7,2.3c5.4,6.6,4.5,16.4-2.1,21.8c-6.6,5.4-16.3,4.3-21.7-2.3
			C145.8,393.2,146.7,383.4,153.3,378.1 M179.3,409.9c10.9-8.8,12.4-24.9,3.5-35.8c-14.1-17.3-44.8-14.8-44.8-14.8
			s-8.7,29.5,5.4,46.8C152.4,417.1,168.4,418.8,179.3,409.9"/>
	</g>
</g>
<g>
	<polygon class="st1" points="202.4,438 202.1,435.8 198.8,436.2 198.6,434.7 196.4,435 196.6,436.6 196.9,438.4 196.9,438.8 
		198.5,438.5 	"/>
	<g>
		<path class="st1" d="M193.5,443.3c-3.2-2.4-3.8-6.9-1.4-10.1c2.4-3.2,6.9-3.8,10.1-1.5c3.2,2.4,3.8,6.9,1.4,10.1
			C201.2,445,196.7,445.7,193.5,443.3 M205,428c-5.2-3.9-12.7-2.9-16.6,2.4c-6.3,8.3-1.7,21.9-1.7,21.9s14.3,0.7,20.6-7.7
			C211.3,439.4,210.3,431.9,205,428"/>
	</g>
</g>
<g>
	<polygon class="st1" points="33.5,628.7 33.3,627.3 31.3,627.5 31.2,626.5 29.8,626.7 29.9,627.7 30,628.8 30,629.1 31.1,629 	"/>
	<g>
		<path class="st1" d="M27.8,631.8c-1.9-1.6-2.2-4.4-0.6-6.3c1.6-1.9,4.4-2.2,6.3-0.6c1.9,1.6,2.2,4.4,0.6,6.3
			C32.5,633.1,29.7,633.4,27.8,631.8 M35.4,622.5c-3.2-2.6-7.8-2.1-10.4,1.1c-4.1,5-1.7,13.6-1.7,13.6s8.9,0.8,13.1-4.2
			C39,629.8,38.6,625.1,35.4,622.5"/>
	</g>
</g>
<g>
	<polygon class="st1" points="330.5,584.6 330,583.4 328.1,584.2 327.7,583.3 326.4,583.9 326.8,584.8 327.3,585.8 327.4,586.1 
		328.3,585.6 	"/>
	<g>
		<path class="st1" d="M326.1,589.4c-2.3-0.9-3.5-3.5-2.6-5.8c0.9-2.3,3.5-3.5,5.8-2.6s3.5,3.5,2.6,5.8
			C331,589.1,328.4,590.3,326.1,589.4 M330.4,578.2c-3.8-1.5-8.1,0.4-9.6,4.3c-2.4,6.1,2.7,13.5,2.7,13.5s8.7-2.1,11.1-8.1
			C336.1,584,334.2,579.7,330.4,578.2"/>
	</g>
</g>
<g>
	<polygon class="st1" points="157.8,490.7 157.1,489.5 155.3,490.5 154.8,489.7 153.6,490.4 154.1,491.2 154.7,492.2 154.8,492.4 
		155.7,491.9 	"/>
	<g>
		<path class="st1" d="M153.9,495.9c-2.4-0.6-3.8-3.1-3.2-5.5c0.6-2.4,3.1-3.9,5.5-3.3c2.4,0.6,3.8,3.1,3.2,5.5
			C158.8,495,156.3,496.5,153.9,495.9 M156.9,484.3c-4-1-8,1.4-9,5.4c-1.6,6.3,4.3,13.1,4.3,13.1s8.4-3.1,10-9.4
			C163.2,489.3,160.9,485.3,156.9,484.3"/>
	</g>
</g>
<g>
	<polygon class="st1" points="271.4,501.9 271.2,503.2 273.3,503.5 273.1,504.5 274.5,504.7 274.6,503.7 274.8,502.6 274.9,502.4 
		273.8,502.2 	"/>
	<g>
		<path class="st1" d="M277.7,500.3c1.5,2,1,4.8-1,6.3c-2,1.5-4.8,1-6.3-1c-1.5-2-1-4.8,1-6.3C273.4,497.8,276.2,498.3,277.7,500.3
			 M268,507.3c2.4,3.3,7.1,4,10.4,1.6c5.3-3.9,5-12.8,5-12.8s-8.5-3-13.7,0.9C266.4,499.4,265.6,504.1,268,507.3"/>
	</g>
</g>
<g>
	<polygon class="st1" points="299.1,418.1 301.1,418.9 302.4,415.9 303.9,416.5 304.7,414.5 303.2,413.8 301.5,413.1 301.2,413 
		300.6,414.5 	"/>
	<g>
		<path class="st1" d="M299,407.7c3.7-1.5,7.9,0.2,9.4,3.9c1.5,3.7-0.2,7.9-3.9,9.4c-3.7,1.5-7.9-0.3-9.4-3.9
			C293.6,413.5,295.4,409.3,299,407.7 M306.4,425.5c6-2.5,8.9-9.5,6.4-15.6c-4-9.7-18-12.6-18-12.6s-7.8,12-3.8,21.7
			C293.4,425.1,300.3,428,306.4,425.5"/>
	</g>
</g>
<g>
	<polygon class="st1" points="77.2,429 77.8,426.8 74.6,425.9 75,424.4 72.9,423.8 72.5,425.3 72,427.1 71.9,427.5 73.4,427.9 	"/>
	<g>
		<path class="st1" d="M66.9,430.2c-1.9-3.5-0.6-7.9,2.9-9.8c3.5-1.9,7.9-0.7,9.8,2.8c1.9,3.5,0.6,7.9-2.9,9.8
			C73.2,434.9,68.8,433.7,66.9,430.2 M83.7,420.9c-3.2-5.7-10.4-7.8-16.2-4.6c-9.1,5.1-10.5,19.4-10.5,19.4s12.8,6.4,22,1.4
			C84.7,433.9,86.8,426.6,83.7,420.9"/>
	</g>
</g>
<g>
	<polygon class="st1" points="198.2,608.5 196.2,607.7 195,610.7 193.5,610.1 192.7,612.2 194.2,612.8 195.9,613.5 196.2,613.6 
		196.8,612.1 	"/>
	<g>
		<path class="st1" d="M198.5,618.8c-3.6,1.6-7.9-0.1-9.5-3.8c-1.6-3.7,0.1-7.9,3.7-9.5s7.9,0.1,9.5,3.8
			C203.8,613,202.1,617.3,198.5,618.8 M190.9,601.2c-6,2.6-8.8,9.6-6.2,15.6c4.1,9.6,18.2,12.4,18.2,12.4s7.7-12.1,3.6-21.7
			C203.9,601.4,196.9,598.6,190.9,601.2"/>
	</g>
</g>
</svg>
