<?xml version="1.0" encoding="UTF-8" standalone="no"?>
<svg width="90px" height="273px" viewBox="0 0 90 273" version="1.1" xmlns="http://www.w3.org/2000/svg" xmlns:xlink="http://www.w3.org/1999/xlink">
    <!-- Generator: Sketch 47 (45396) - http://www.bohemiancoding.com/sketch -->
    <title>pattern-l</title>
    <desc>Created with Sketch.</desc>
    <defs></defs>
    <g id="Symbols" stroke="none" stroke-width="1" fill="none" fill-rule="evenodd">
        <g id="mobile-header" transform="translate(37.000000, -20.000000)" fill="#FFFCF0">
            <g id="pattern-l" transform="translate(-53.000000, 20.000000)">
                <path d="M79.0413463,167.648359 C67.1963463,175.441359 51.2763463,172.158359 43.4823463,160.313359 C35.6883463,148.468359 38.9723463,132.548359 50.8173463,124.754359 C62.6623463,116.960359 78.5823463,120.245359 86.3763463,132.089359 C94.1693463,143.934359 90.8863463,159.854359 79.0413463,167.648359 L79.0413463,167.648359 Z M100.245346,122.963359 C79.9123463,92.0623592 28.8123463,91.3133592 28.8123463,91.3133592 C28.8123463,91.3133592 9.27934625,138.537359 29.6133463,169.439359 C42.4473463,188.943359 68.6623463,194.351359 88.1673463,181.517359 C107.671346,168.684359 113.079346,142.468359 100.245346,122.963359 L100.245346,122.963359 Z M63.1143463,141.812359 L61.8723463,141.556359 L60.6833463,147.320359 L57.9083463,160.773359 L65.6103463,162.362359 L67.9863463,150.847359 L73.5753463,152.000359 L75.1643463,144.297359 L69.5743463,143.145359 L63.1143463,141.812359 Z" id="Fill-11" transform="translate(63.786549, 139.897451) rotate(60.000000) translate(-63.786549, -139.897451) "></path>
                <path d="M97.1695704,256.418539 C93.8535704,261.225539 87.2685704,262.434539 82.4615704,259.118539 C77.6535704,255.801539 76.4455704,249.216539 79.7615704,244.409539 C83.0775704,239.602539 89.6635704,238.393539 94.4705704,241.710539 C99.2775704,245.025539 100.48557,251.611539 97.1695704,256.418539 L97.1695704,256.418539 Z M98.3535704,236.081539 C90.4375704,230.620539 79.5935704,232.610539 74.1325704,240.525539 C65.4815704,253.067539 73.0985704,272.689539 73.0985704,272.689539 C73.0985704,272.689539 94.1475704,272.842539 102.79857,260.301539 C108.25957,252.385539 106.26957,241.542539 98.3535704,236.081539 L98.3535704,236.081539 Z M89.7665704,248.528539 L89.3415704,246.216539 L86.1555704,246.800539 L86.5805704,249.113539 L87.0705704,251.785539 L87.1655704,252.298539 L89.5495704,251.861539 L95.1145704,250.840539 L94.5295704,247.654539 L89.7665704,248.528539 Z" id="Fill-3"></path>
                <path d="M63.4240257,24.0979303 L59.8210257,23.8619303 L59.4960257,28.8259303 L63.0980257,29.0619303 L67.2610257,29.3349303 L68.0620257,29.3879303 L68.3060257,25.6729303 L68.8760257,17.0019303 L63.9110257,16.6759303 L63.4240257,24.0979303 Z M76.4500257,38.9539303 C69.7060257,44.8679303 59.4450257,44.1939303 53.5320257,37.4499303 C47.6190257,30.7049303 48.2920257,20.4449303 55.0360257,14.5319303 C61.7800257,8.61893027 72.0410257,9.29193027 77.9540257,16.0359303 C83.8670257,22.7809303 83.1940257,33.0409303 76.4500257,38.9539303 L76.4500257,38.9539303 Z M85.8510257,9.11293027 C76.1140257,-1.99306973 59.2180257,-3.10206973 48.1120257,6.63493027 C37.0070257,16.3719303 35.8980257,33.2679303 45.6350257,44.3739303 C61.0620257,61.9679303 93.1450257,57.9949303 93.1450257,57.9949303 C93.1450257,57.9949303 101.278026,26.7069303 85.8510257,9.11293027 L85.8510257,9.11293027 Z" id="Fill-1"></path>
            </g>
        </g>
    </g>
</svg>