<?xml version="1.0" encoding="UTF-8" standalone="no"?>
<svg width="103px" height="301px" viewBox="0 0 103 301" version="1.1" xmlns="http://www.w3.org/2000/svg" xmlns:xlink="http://www.w3.org/1999/xlink">
    <!-- Generator: Sketch 47 (45396) - http://www.bohemiancoding.com/sketch -->
    <title>pattern-r</title>
    <desc>Created with Sketch.</desc>
    <defs></defs>
    <g id="Symbols" stroke="none" stroke-width="1" fill="none" fill-rule="evenodd">
        <g id="mobile-header" transform="translate(-238.000000, -35.000000)" fill="#FFFCF0">
            <g id="pattern-r" transform="translate(230.000000, 20.000000)">
                <path d="M79.0413463,89.6483592 C67.1963463,97.4413592 51.2763463,94.1583592 43.4823463,82.3133592 C35.6883463,70.4683592 38.9723463,54.5483592 50.8173463,46.7543592 C62.6623463,38.9603592 78.5823463,42.2453592 86.3763463,54.0893592 C94.1693463,65.9343592 90.8863463,81.8543592 79.0413463,89.6483592 L79.0413463,89.6483592 Z M100.245346,44.9633592 C79.9123463,14.0623592 28.8123463,13.3133592 28.8123463,13.3133592 C28.8123463,13.3133592 9.27934625,60.5373592 29.6133463,91.4393592 C42.4473463,110.943359 68.6623463,116.351359 88.1673463,103.517359 C107.671346,90.6843592 113.079346,64.4683592 100.245346,44.9633592 L100.245346,44.9633592 Z M63.1143463,63.8123592 L61.8723463,63.5563592 L60.6833463,69.3203592 L57.9083463,82.7733592 L65.6103463,84.3623592 L67.9863463,72.8473592 L73.5753463,74.0003592 L75.1643463,66.2973592 L69.5743463,65.1453592 L63.1143463,63.8123592 Z" id="Fill-11-Copy" transform="translate(63.786549, 61.897451) rotate(-120.000000) translate(-63.786549, -61.897451) "></path>
                <path d="M35.0652069,281.54157 L31.4622069,281.30557 L31.1372069,286.26957 L34.7392069,286.50557 L38.9022069,286.77857 L39.7032069,286.83157 L39.9472069,283.11657 L40.5172069,274.44557 L35.5522069,274.11957 L35.0652069,281.54157 Z M48.0912069,296.39757 C41.3472069,302.31157 31.0862069,301.63757 25.1732069,294.89357 C19.2602069,288.14857 19.9332069,277.88857 26.6772069,271.97557 C33.4212069,266.06257 43.6822069,266.73557 49.5952069,273.47957 C55.5082069,280.22457 54.8352069,290.48457 48.0912069,296.39757 L48.0912069,296.39757 Z M57.4922069,266.55657 C47.7552069,255.45057 30.8592069,254.34157 19.7532069,264.07857 C8.64820687,273.81557 7.53920687,290.71157 17.2762069,301.81757 C32.7032069,319.41157 64.7862069,315.43857 64.7862069,315.43857 C64.7862069,315.43857 72.9192069,284.15057 57.4922069,266.55657 L57.4922069,266.55657 Z" id="Fill-1-Copy" transform="translate(38.784857, 286.633390) rotate(170.000000) translate(-38.784857, -286.633390) "></path>
                <path d="M63.5552819,170.210182 C59.2492819,174.154182 52.5602819,173.861182 48.6152819,169.555182 C44.6702819,165.249182 44.9632819,158.560182 49.2702819,154.615182 C53.5762819,150.670182 60.2652819,150.963182 64.2102819,155.270182 C68.1552819,159.576182 67.8622819,166.265182 63.5552819,170.210182 L63.5552819,170.210182 Z M69.2522819,150.650182 C62.7572819,143.560182 51.7422819,143.077182 44.6512819,149.572182 C37.5592819,156.068182 37.0772819,167.083182 43.5732819,174.174182 C53.8642819,185.409182 74.6932819,182.368182 74.6932819,182.368182 C74.6932819,182.368182 79.5442819,161.885182 69.2522819,150.650182 L69.2522819,150.650182 Z M54.8652819,160.724182 L52.5172819,160.621182 L52.3752819,163.856182 L54.7232819,163.960182 L57.4382819,164.079182 L57.9602819,164.102182 L58.0662819,161.680182 L58.3132819,156.027182 L55.0772819,155.885182 L54.8652819,160.724182 Z" id="Fill-5"></path>
            </g>
        </g>
    </g>
</svg>