<svg xmlns="http://www.w3.org/2000/svg" width="75" height="303" viewBox="0 0 75 303">
  <defs>
    <style>
      .cls-1 {
        fill: #fffbef;
      }
    </style>
  </defs>
  <title>PlaceCal</title>
  <g id="Layer_1" data-name="Layer 1">
    <g>
      <path class="cls-1" d="M46.7,282.62s6.81-20-2.41-32.26a17.5,17.5,0,0,0-24.51-3.44h0a17.51,17.51,0,0,0-3.43,24.51h0C25.57,283.67,46.7,282.62,46.7,282.62Zm-10-13.23h0A10.63,10.63,0,1,1,38.8,254.5,10.63,10.63,0,0,1,36.72,269.38Z"/>
      <polygon class="cls-1" points="28.93 259.06 26.59 258.73 26.14 261.96 28.48 262.28 31.18 262.66 31.7 262.74 32.04 260.32 32.83 254.69 29.61 254.24 28.93 259.06"/>
      <polygon class="cls-1" points="7.68 160.77 11.28 159.76 15.44 158.6 16.24 158.38 15.2 154.67 12.78 146.01 7.83 147.39 9.9 154.8 6.29 155.81 7.68 160.77"/>
      <path class="cls-1" d="M39.5,108.1c7.9-6.09,7.07-19.84,7.07-19.84s-13.09-4.3-21,1.79a11.4,11.4,0,0,0-2.06,16h0A11.4,11.4,0,0,0,39.5,108.1ZM28.31,93.59h0A6.91,6.91,0,0,1,38,94.84h0a6.91,6.91,0,0,1-1.25,9.71h0a6.92,6.92,0,0,1-8.46-11Z"/>
      <path class="cls-1" d="M26.65,132.48A27.63,27.63,0,0,0,0,132.21v13.84a16.81,16.81,0,0,1,21.31-4.11h0a16.8,16.8,0,0,1,6.4,22.88h0a16.81,16.81,0,0,1-22.88,6.4h0A16.82,16.82,0,0,1,0,167.14V181c21.07,11.37,50.54-3.26,50.54-3.26S47.74,144.36,26.65,132.48Z"/>
      <polygon class="cls-1" points="31.16 101.51 33.26 101.78 33.46 100.25 33.68 98.49 33.73 98.15 32.15 97.95 28.48 97.48 28.21 99.58 31.36 99.98 31.16 101.51"/>
    </g>
  </g>
</svg>
