<svg xmlns="http://www.w3.org/2000/svg" width="128" height="211" viewBox="0 0 128 211">
  <defs>
    <style>
      .cls-1 {
        fill: #fffbef;
      }
    </style>
  </defs>
  <title>PlaceCal</title>
  <g id="Layer_1" data-name="Layer 1">
    <g>
      <path class="cls-1" d="M87,19.28a11.39,11.39,0,0,0,13.85,8.23c9.67-2.46,14.35-15.42,14.35-15.42S104.89,3,95.22,5.42A11.4,11.4,0,0,0,87,19.28Zm9.33-9.52h0a6.92,6.92,0,0,1,8.42,5h0a6.92,6.92,0,0,1-5,8.41h0A6.92,6.92,0,1,1,96.33,9.76Z"/>
      <path class="cls-1" d="M72.69,211a27.48,27.48,0,0,0-1-16h0A27.66,27.66,0,0,0,36,178.81h0C21,184.46,12.41,200.73,8.39,211H30.17c-.05-.13-.11-.25-.16-.38A16.8,16.8,0,0,1,39.84,189h0a16.81,16.81,0,0,1,21.64,9.82h0A16.71,16.71,0,0,1,61.31,211Z"/>
      <polygon class="cls-1" points="95.8 18.16 97.62 19.24 98.41 17.92 99.32 16.39 99.49 16.1 98.13 15.29 94.94 13.39 93.86 15.22 96.58 16.84 95.8 18.16"/>
      <path class="cls-1" d="M105.68,147.49A17.5,17.5,0,0,0,128,171.7v-7.95a10.63,10.63,0,1,1-1.88-17.61,11.17,11.17,0,0,1,1.88,1.25V132.6C121.25,134.34,110.39,138.46,105.68,147.49Z"/>
      <polygon class="cls-1" points="56.16 206.63 49.15 203.44 50.7 200.04 46.01 197.91 44.47 201.31 42.68 205.24 42.33 206 45.84 207.59 53.33 211 54.17 211 56.16 206.63"/>
      <polygon class="cls-1" points="122.27 153.53 119.95 154.27 114.53 155.97 115.5 159.08 120.15 157.61 120.86 159.87 123.96 158.89 123.25 156.63 122.43 154.03 122.27 153.53"/>
      <polygon class="cls-1" points="124.85 83.47 124.4 82.78 121.18 84.9 113.68 89.86 116.51 94.15 122.94 89.91 124.99 93.03 128 91.04 128 88.23 127.23 87.07 124.85 83.47"/>
      <polygon class="cls-1" points="118.13 113.45 118.13 113.45 118.13 113.45 118.13 113.45"/>
      <path class="cls-1" d="M120.31,102.81h0A16.78,16.78,0,0,1,107.2,83h0A16.8,16.8,0,0,1,127,69.88c.33.07.65.16,1,.25V46.26c-8.64,4.5-27.72,16.32-31.44,34.55a27.66,27.66,0,0,0,21.57,32.64h0a27.38,27.38,0,0,0,9.87.22V102.56A16.59,16.59,0,0,1,120.31,102.81Z"/>
      <path class="cls-1" d="M16.44,141.69h0a11.39,11.39,0,0,0,12.39-10.3c.92-9.93-9.72-18.68-9.72-18.68s-12.06,6.66-13,16.59A11.41,11.41,0,0,0,16.44,141.69Zm-5.84-12a6.92,6.92,0,0,1,7.53-6.26h0A6.92,6.92,0,0,1,24.39,131h0a6.92,6.92,0,0,1-7.53,6.26h0A6.92,6.92,0,0,1,10.6,129.7Z"/>
      <polygon class="cls-1" points="62.81 117.18 59.57 116.81 59.3 119.16 58.99 121.87 58.93 122.39 61.35 122.67 67 123.32 67.37 120.08 62.54 119.53 62.81 117.18"/>
      <path class="cls-1" d="M49.86,107.24h0c-12,9.52-10.42,30.62-10.42,30.62s20.2,6.32,32.19-3.21a17.49,17.49,0,0,0,2.83-24.58h0A17.5,17.5,0,0,0,49.86,107.24Zm17.49,22a10.62,10.62,0,0,1-14.93-1.71h0a10.63,10.63,0,1,1,16.65-13.22h0A10.62,10.62,0,0,1,67.35,129.28Z"/>
      <polygon class="cls-1" points="17.36 131.83 18.34 133.01 19.97 131.66 18.99 130.47 17.85 129.1 17.63 128.84 16.41 129.86 13.56 132.22 14.92 133.85 17.36 131.83"/>
    </g>
  </g>
</svg>
