<svg xmlns="http://www.w3.org/2000/svg" width="81.78" height="363.52" viewBox="0 0 81.78 363.52">
  <defs>
    <style>
      .cls-1 {
        fill: #fffbef;
      }
    </style>
  </defs>
  <title>PlaceCal</title>
  <g id="Layer_1" data-name="Layer 1">
    <g>
      <path class="cls-1" d="M20.32,155.27h0A11.41,11.41,0,0,0,32.72,145C33.63,135,23,126.29,23,126.29S10.93,133,10,142.88A11.39,11.39,0,0,0,20.32,155.27Zm-5.85-12a6.92,6.92,0,1,1,6.26,7.53A6.92,6.92,0,0,1,14.47,143.28Z"/>
      <polygon class="cls-1" points="36.47 236.66 33.24 236.29 32.97 238.64 32.66 241.35 32.6 241.87 35.02 242.15 40.67 242.8 41.04 239.57 36.2 239.01 36.47 236.66"/>
      <polygon class="cls-1" points="21.22 145.41 22.21 146.59 23.84 145.24 22.85 144.06 21.72 142.69 21.5 142.43 20.28 143.44 17.43 145.81 18.79 147.44 21.22 145.41"/>
      <polygon class="cls-1" points="47.67 289.58 50.39 291.2 49.61 292.53 51.43 293.61 52.22 292.29 53.12 290.76 53.3 290.46 51.93 289.65 48.75 287.76 47.67 289.58"/>
      <path class="cls-1" d="M49,279.79a11.4,11.4,0,1,0,5.63,22.09C64.32,299.42,69,286.46,69,286.46S58.69,277.33,49,279.79Zm9.52,9.33h0a6.91,6.91,0,0,1-5,8.42h0a6.91,6.91,0,0,1-8.41-5h0a6.92,6.92,0,1,1,13.41-3.42Z"/>
      <path class="cls-1" d="M44.42,49.1A27.68,27.68,0,0,0,66,81.75h0a27.51,27.51,0,0,0,15.78-1.41V67.94A16.79,16.79,0,0,1,55.07,51.28h0A16.81,16.81,0,0,1,74.89,38.17h0a16.52,16.52,0,0,1,6.88,3.16v-27c-1-1.16-1.64-1.81-1.64-1.81S49.27,25.38,44.42,49.1Z"/>
      <polygon class="cls-1" points="67.33 176.59 65.78 179.99 64 183.92 63.65 184.68 67.16 186.27 75.34 189.99 77.47 185.31 70.47 182.12 72.02 178.72 67.33 176.59"/>
      <path class="cls-1" d="M23.52,226.72h0c-12,9.53-10.41,30.63-10.41,30.63s20.19,6.31,32.19-3.21a17.5,17.5,0,0,0,2.82-24.59h0A17.51,17.51,0,0,0,23.52,226.72ZM41,248.77h0a10.63,10.63,0,1,1,1.71-14.94A10.62,10.62,0,0,1,41,248.77Z"/>
      <polygon class="cls-1" points="78.09 122.41 75.85 123.17 73.27 124.05 72.77 124.22 73.55 126.52 75.38 131.91 78.46 130.86 76.9 126.25 79.14 125.49 78.09 122.41"/>
      <polygon class="cls-1" points="72.26 51.07 69.05 53.2 61.55 58.15 64.39 62.45 70.81 58.2 72.87 61.32 77.16 58.48 75.1 55.37 72.72 51.77 72.26 51.07"/>
      <path class="cls-1" d="M50.43,113.2s2.92,21,16.66,27.73a17.42,17.42,0,0,0,14.69.36v-8a10.65,10.65,0,0,1-11.65,1.49h0a10.64,10.64,0,0,1-4.84-14.24h0a10.62,10.62,0,0,1,14.23-4.83,10.3,10.3,0,0,1,2.25,1.51v-8C68.14,103.16,50.43,113.2,50.43,113.2Z"/>
      <path class="cls-1" d="M81.78,206.83V191.47a16.8,16.8,0,1,1,0-16.14V160a27.61,27.61,0,0,0-24.43-2.49h0c-22.67,8.5-30.56,41-30.56,41s27.31,19.31,50,10.81A27.79,27.79,0,0,0,81.78,206.83Z"/>
    </g>
  </g>
</svg>
