<svg xmlns="http://www.w3.org/2000/svg" width="112.85" height="348.41" viewBox="0 0 112.85 348.41">
  <defs>
    <style>
      .cls-1 {
        fill: #fffbef;
      }
    </style>
  </defs>
  <title>PlaceCal</title>
  <g id="Layer_1" data-name="Layer 1">
    <g>
      <path class="cls-1" d="M59.09,250s14.83-30,2.9-51a27.67,27.67,0,1,0-48.16,27.25h0C25.75,247.31,59.09,250,59.09,250ZM29.63,198h0a16.81,16.81,0,0,1,22.9,6.34h0a16.8,16.8,0,0,1-6.34,22.89h0a16.79,16.79,0,0,1-22.89-6.35h0A16.8,16.8,0,0,1,29.63,198Z"/>
      <polygon class="cls-1" points="38.9 215.56 39.7 215.78 40.73 212.06 43.13 203.4 38.17 202.03 36.11 209.44 32.51 208.44 31.14 213.4 34.74 214.4 38.9 215.56"/>
      <polygon class="cls-1" points="9.93 96.11 12.7 97.81 13.94 95.79 15.37 93.46 15.64 93.02 13.56 91.74 8.71 88.77 7.01 91.55 11.16 94.09 9.93 96.11"/>
      <path class="cls-1" d="M0,82.32V104.8a17.49,17.49,0,0,0,17.47,5.78h0C32.37,107,39.85,87.21,39.85,87.21S24.21,73,9.32,76.53A17.41,17.41,0,0,0,0,82.32Zm10.92.9h0A10.63,10.63,0,1,1,3.06,96,10.63,10.63,0,0,1,10.92,83.22Z"/>
      <path class="cls-1" d="M83,162.1a11.4,11.4,0,0,0-10,12.62h0a11.41,11.41,0,0,0,12.62,10c9.91-1.13,16.3-13.34,16.3-13.34S92.91,161,83,162.1Zm2.1,18.2h0a6.92,6.92,0,0,1-7.66-6.08h0a6.92,6.92,0,1,1,7.67,6.09Z"/>
      <polygon class="cls-1" points="81.64 169.96 80.33 171.62 82.81 173.6 81.85 174.8 83.51 176.12 84.47 174.91 85.57 173.52 85.79 173.25 84.54 172.27 81.64 169.96"/>
      <path class="cls-1" d="M44.25,309A17.5,17.5,0,0,0,25,293.43h0a17.5,17.5,0,0,0-15.6,19.22h0c1.58,15.24,20.22,25.25,20.22,25.25S45.83,324.26,44.25,309ZM27.93,321.41a10.63,10.63,0,0,1-11.67-9.48h0a10.62,10.62,0,0,1,9.47-11.67h0a10.63,10.63,0,0,1,11.66,9.47h0a10.62,10.62,0,0,1-9.47,11.67Z"/>
      <polygon class="cls-1" points="26.6 308.54 24.76 307.05 22.71 309.58 24.54 311.07 26.66 312.79 27.07 313.13 28.61 311.23 32.19 306.82 29.66 304.76 26.6 308.54"/>
      <path class="cls-1" d="M24.61,166.3s6.83-12,2.44-20.92a11.4,11.4,0,0,0-15.25-5.23h0A11.4,11.4,0,0,0,6.58,155.4C11,164.35,24.61,166.3,24.61,166.3ZM13.77,144.17a6.92,6.92,0,0,1,6.09,12.43h0a6.92,6.92,0,1,1-6.09-12.43Z"/>
      <polygon class="cls-1" points="17.16 151.62 17.48 151.73 17.99 150.23 19.19 146.73 17.19 146.04 16.16 149.04 14.71 148.54 14.02 150.55 15.47 151.05 17.16 151.62"/>
    </g>
  </g>
</svg>
