<svg xmlns="http://www.w3.org/2000/svg" width="273.853" height="441.786" viewBox="0 0 273.853 441.786">
  <g id="Group_4553" data-name="Group 4553" transform="translate(-235.116 -1651.999)">
    <line id="Line_467" data-name="Line 467" y1="85.643" transform="translate(331.796 1947.654)" fill="none" stroke="#fffcf0" stroke-linecap="round" stroke-linejoin="round" stroke-width="3.992"/>
    <path id="Path_1557" data-name="Path 1557" d="M5176.81-954.844a12.69,12.69,0,0,0,17.946-.074c7.884-7.884,5.068-22.94,5.068-22.94s-15.056-2.816-22.94,5.068a12.691,12.691,0,0,0-.074,17.946" transform="translate(-4847.481 2934.316)" fill="#fffcf0"/>
    <line id="Line_468" data-name="Line 468" y1="10.757" x2="10.757" transform="translate(333.318 1964.725)" fill="none" stroke="#afcf5a" stroke-linecap="round" stroke-linejoin="round" stroke-width="2.433"/>
    <path id="Path_1558" data-name="Path 1558" d="M5181.579-922.336a12.69,12.69,0,0,0-.074-17.946c-7.885-7.884-22.94-5.067-22.94-5.067s-2.817,15.055,5.067,22.939a12.692,12.692,0,0,0,17.947.074" transform="translate(-4847.481 2934.316)" fill="#fffcf0"/>
    <line id="Line_469" data-name="Line 469" x1="10.757" y1="10.757" transform="translate(319.35 1997.234)" fill="none" stroke="#afcf5a" stroke-linecap="round" stroke-linejoin="round" stroke-width="2.433"/>
    <path id="Path_1559" data-name="Path 1559" d="M5203.631-840.531H5154.24l-6.63-66.268h62.652Z" transform="translate(-4847.481 2934.316)" fill="#6b6059"/>
    <path id="Path_1560" data-name="Path 1560" d="M5149.729-885.614h58.413l2.12-21.185h-62.652Z" transform="translate(-4847.481 2934.316)" fill="#5b4e47"/>
    <path id="Path_1561" data-name="Path 1561" d="M5141.2-909.048l1.606,16.058h72.257l1.607-16.058Z" transform="translate(-4847.481 2934.316)" fill="#7c716c"/>
    <path id="Path_1562" data-name="Path 1562" d="M5181.763-1010.414a10.71,10.71,0,0,0,15.147-.062c6.654-6.654,4.277-19.361,4.277-19.361s-12.707-2.377-19.361,4.277a10.71,10.71,0,0,0-.063,15.146" transform="translate(-4847.481 2934.316)" fill="#cfe29c"/>
    <path id="Path_1563" data-name="Path 1563" d="M5176.792-1005.442a10.711,10.711,0,0,0-15.147.063c-6.654,6.654-4.277,19.36-4.277,19.36s12.707,2.378,19.361-4.276a10.711,10.711,0,0,0,.063-15.147" transform="translate(-4847.481 2934.316)" fill="#cfe29c"/>
    <path id="Path_1564" data-name="Path 1564" d="M5181.763-1005.442a10.711,10.711,0,0,0,.063,15.147c6.654,6.654,19.361,4.276,19.361,4.276s2.377-12.706-4.277-19.36a10.711,10.711,0,0,0-15.147-.063" transform="translate(-4847.481 2934.316)" fill="#cfe29c"/>
    <path id="Path_1565" data-name="Path 1565" d="M5176.792-1010.414a10.71,10.71,0,0,0-.063-15.146c-6.654-6.654-19.361-4.277-19.361-4.277s-2.377,12.707,4.277,19.361a10.71,10.71,0,0,0,15.147.062" transform="translate(-4847.481 2934.316)" fill="#cfe29c"/>
    <circle id="Ellipse_144" data-name="Ellipse 144" cx="7.611" cy="7.611" r="7.611" transform="translate(324.186 1918.778)" fill="#6b6059"/>
    <line id="Line_470" data-name="Line 470" y1="85.643" transform="translate(434.768 1984.696)" fill="none" stroke="#fffcf0" stroke-linecap="round" stroke-linejoin="round" stroke-width="3.992"/>
    <path id="Path_1566" data-name="Path 1566" d="M5291.046-973.574a9.3,9.3,0,0,0,13.152-.054c5.778-5.778,3.714-16.812,3.714-16.812s-11.034-2.064-16.812,3.714a9.3,9.3,0,0,0-.054,13.152" transform="translate(-4847.481 2934.316)" fill="#c7dd8b"/>
    <path id="Path_1567" data-name="Path 1567" d="M5282.249-977.218a9.3,9.3,0,0,0,9.262-9.338c0-8.171-9.262-14.514-9.262-14.514s-9.262,6.343-9.262,14.514a9.3,9.3,0,0,0,9.262,9.338" transform="translate(-4847.481 2934.316)" fill="#c7dd8b"/>
    <path id="Path_1568" data-name="Path 1568" d="M5282.249-952.335a9.3,9.3,0,0,0-9.262,9.338c0,8.172,9.262,14.514,9.262,14.514s9.262-6.342,9.262-14.514a9.3,9.3,0,0,0-9.262-9.338" transform="translate(-4847.481 2934.316)" fill="#c7dd8b"/>
    <path id="Path_1569" data-name="Path 1569" d="M5282.249-977.218a9.3,9.3,0,0,0,9.262-9.338c0-8.171-9.262-14.514-9.262-14.514s-9.262,6.343-9.262,14.514a9.3,9.3,0,0,0,9.262,9.338" transform="translate(-4847.481 2934.316)" fill="#c7dd8b"/>
    <path id="Path_1570" data-name="Path 1570" d="M5282.249-952.335a9.3,9.3,0,0,0-9.262,9.338c0,8.172,9.262,14.514,9.262,14.514s9.262-6.342,9.262-14.514a9.3,9.3,0,0,0-9.262-9.338" transform="translate(-4847.481 2934.316)" fill="#c7dd8b"/>
    <path id="Path_1571" data-name="Path 1571" d="M5294.69-964.776a9.3,9.3,0,0,0,9.338,9.261c8.172,0,14.514-9.261,14.514-9.261s-6.342-9.262-14.514-9.262a9.3,9.3,0,0,0-9.338,9.262" transform="translate(-4847.481 2934.316)" fill="#c7dd8b"/>
    <path id="Path_1572" data-name="Path 1572" d="M5269.808-964.776a9.3,9.3,0,0,0-9.339-9.262c-8.171,0-14.514,9.262-14.514,9.262s6.343,9.261,14.514,9.261a9.3,9.3,0,0,0,9.339-9.261" transform="translate(-4847.481 2934.316)" fill="#c7dd8b"/>
    <path id="Path_1573" data-name="Path 1573" d="M5294.69-964.776a9.3,9.3,0,0,0,9.338,9.261c8.172,0,14.514-9.261,14.514-9.261s-6.342-9.262-14.514-9.262a9.3,9.3,0,0,0-9.338,9.262" transform="translate(-4847.481 2934.316)" fill="#c7dd8b"/>
    <path id="Path_1574" data-name="Path 1574" d="M5269.808-964.776a9.3,9.3,0,0,0-9.339-9.262c-8.171,0-14.514,9.262-14.514,9.262s6.343,9.261,14.514,9.261a9.3,9.3,0,0,0,9.339-9.261" transform="translate(-4847.481 2934.316)" fill="#c7dd8b"/>
    <path id="Path_1575" data-name="Path 1575" d="M5291.046-973.574a9.3,9.3,0,0,0,13.152-.054c5.778-5.778,3.714-16.812,3.714-16.812s-11.034-2.064-16.812,3.714a9.3,9.3,0,0,0-.054,13.152" transform="translate(-4847.481 2934.316)" fill="#c7dd8b"/>
    <path id="Path_1576" data-name="Path 1576" d="M5273.452-955.979a9.3,9.3,0,0,0-13.153.054c-5.778,5.778-3.714,16.812-3.714,16.812s11.034,2.064,16.812-3.714a9.3,9.3,0,0,0,.055-13.152" transform="translate(-4847.481 2934.316)" fill="#c7dd8b"/>
    <path id="Path_1577" data-name="Path 1577" d="M5273.452-955.979a9.3,9.3,0,0,0-13.153.054c-5.778,5.778-3.714,16.812-3.714,16.812s11.034,2.064,16.812-3.714a9.3,9.3,0,0,0,.055-13.152" transform="translate(-4847.481 2934.316)" fill="#c7dd8b"/>
    <path id="Path_1578" data-name="Path 1578" d="M5291.046-955.979a9.3,9.3,0,0,0,.054,13.152c5.778,5.778,16.812,3.714,16.812,3.714s2.064-11.034-3.714-16.812a9.3,9.3,0,0,0-13.152-.054" transform="translate(-4847.481 2934.316)" fill="#c7dd8b"/>
    <path id="Path_1579" data-name="Path 1579" d="M5273.452-973.574a9.3,9.3,0,0,0-.055-13.152c-5.778-5.778-16.812-3.714-16.812-3.714s-2.064,11.034,3.714,16.812a9.3,9.3,0,0,0,13.153.054" transform="translate(-4847.481 2934.316)" fill="#c7dd8b"/>
    <path id="Path_1580" data-name="Path 1580" d="M5291.046-955.979a9.3,9.3,0,0,0,.054,13.152c5.778,5.778,16.812,3.714,16.812,3.714s2.064-11.034-3.714-16.812a9.3,9.3,0,0,0-13.152-.054" transform="translate(-4847.481 2934.316)" fill="#c7dd8b"/>
    <path id="Path_1581" data-name="Path 1581" d="M5273.452-973.574a9.3,9.3,0,0,0-.055-13.152c-5.778-5.778-16.812-3.714-16.812-3.714s-2.064,11.034,3.714,16.812a9.3,9.3,0,0,0,13.153.054" transform="translate(-4847.481 2934.316)" fill="#c7dd8b"/>
    <path id="Path_1582" data-name="Path 1582" d="M5286.71-975.546a8.713,8.713,0,0,0,11.365-4.763c2.93-7.073-2.813-15.884-2.813-15.884s-10.291,2.169-13.221,9.242a8.714,8.714,0,0,0,4.669,11.4" transform="translate(-4847.481 2934.316)" fill="#d7e7ac"/>
    <path id="Path_1583" data-name="Path 1583" d="M5277.788-954.007a8.715,8.715,0,0,0-11.366,4.763c-2.93,7.074,2.813,15.885,2.813,15.885s10.292-2.17,13.222-9.243a8.715,8.715,0,0,0-4.669-11.405" transform="translate(-4847.481 2934.316)" fill="#d7e7ac"/>
    <path id="Path_1584" data-name="Path 1584" d="M5286.71-975.546a8.713,8.713,0,0,0,11.365-4.763c2.93-7.073-2.813-15.884-2.813-15.884s-10.291,2.169-13.221,9.242a8.714,8.714,0,0,0,4.669,11.4" transform="translate(-4847.481 2934.316)" fill="#d7e7ac"/>
    <path id="Path_1585" data-name="Path 1585" d="M5277.788-954.007a8.715,8.715,0,0,0-11.366,4.763c-2.93,7.074,2.813,15.885,2.813,15.885s10.292-2.17,13.222-9.243a8.715,8.715,0,0,0-4.669-11.405" transform="translate(-4847.481 2934.316)" fill="#d7e7ac"/>
    <path id="Path_1586" data-name="Path 1586" d="M5293.018-960.315a8.714,8.714,0,0,0,4.763,11.365c7.074,2.93,15.885-2.813,15.885-2.813s-2.169-10.291-9.243-13.221a8.713,8.713,0,0,0-11.4,4.669" transform="translate(-4847.481 2934.316)" fill="#d7e7ac"/>
    <path id="Path_1587" data-name="Path 1587" d="M5271.479-969.237a8.714,8.714,0,0,0-4.763-11.366c-7.073-2.93-15.884,2.813-15.884,2.813s2.169,10.292,9.243,13.222a8.714,8.714,0,0,0,11.4-4.669" transform="translate(-4847.481 2934.316)" fill="#d7e7ac"/>
    <path id="Path_1588" data-name="Path 1588" d="M5293.018-960.315a8.714,8.714,0,0,0,4.763,11.365c7.074,2.93,15.885-2.813,15.885-2.813s-2.169-10.291-9.243-13.221a8.713,8.713,0,0,0-11.4,4.669" transform="translate(-4847.481 2934.316)" fill="#d7e7ac"/>
    <path id="Path_1589" data-name="Path 1589" d="M5271.479-969.237a8.714,8.714,0,0,0-4.763-11.366c-7.073-2.93-15.884,2.813-15.884,2.813s2.169,10.292,9.243,13.222a8.714,8.714,0,0,0,11.4-4.669" transform="translate(-4847.481 2934.316)" fill="#d7e7ac"/>
    <path id="Path_1590" data-name="Path 1590" d="M5293.018-969.237a8.715,8.715,0,0,0,11.4,4.669c7.074-2.93,9.243-13.222,9.243-13.222s-8.811-5.743-15.885-2.813a8.715,8.715,0,0,0-4.763,11.366" transform="translate(-4847.481 2934.316)" fill="#d7e7ac"/>
    <path id="Path_1591" data-name="Path 1591" d="M5271.479-960.315a8.713,8.713,0,0,0-11.4-4.669c-7.074,2.93-9.243,13.221-9.243,13.221s8.811,5.743,15.884,2.813a8.713,8.713,0,0,0,4.763-11.365" transform="translate(-4847.481 2934.316)" fill="#d7e7ac"/>
    <path id="Path_1592" data-name="Path 1592" d="M5293.018-969.237a8.715,8.715,0,0,0,11.4,4.669c7.074-2.93,9.243-13.222,9.243-13.222s-8.811-5.743-15.885-2.813a8.715,8.715,0,0,0-4.763,11.366" transform="translate(-4847.481 2934.316)" fill="#d7e7ac"/>
    <path id="Path_1593" data-name="Path 1593" d="M5271.479-960.315a8.713,8.713,0,0,0-11.4-4.669c-7.074,2.93-9.243,13.221-9.243,13.221s8.811,5.743,15.884,2.813a8.713,8.713,0,0,0,4.763-11.365" transform="translate(-4847.481 2934.316)" fill="#d7e7ac"/>
    <path id="Path_1594" data-name="Path 1594" d="M5286.71-954.007a8.715,8.715,0,0,0-4.669,11.405c2.93,7.073,13.221,9.243,13.221,9.243s5.743-8.811,2.813-15.885a8.714,8.714,0,0,0-11.365-4.763" transform="translate(-4847.481 2934.316)" fill="#d7e7ac"/>
    <path id="Path_1595" data-name="Path 1595" d="M5277.788-975.546a8.714,8.714,0,0,0,4.669-11.4c-2.93-7.073-13.222-9.242-13.222-9.242s-5.743,8.811-2.813,15.884a8.714,8.714,0,0,0,11.366,4.763" transform="translate(-4847.481 2934.316)" fill="#d7e7ac"/>
    <path id="Path_1596" data-name="Path 1596" d="M5286.71-954.007a8.715,8.715,0,0,0-4.669,11.405c2.93,7.073,13.221,9.243,13.221,9.243s5.743-8.811,2.813-15.885a8.714,8.714,0,0,0-11.365-4.763" transform="translate(-4847.481 2934.316)" fill="#d7e7ac"/>
    <path id="Path_1597" data-name="Path 1597" d="M5277.788-975.546a8.714,8.714,0,0,0,4.669-11.4c-2.93-7.073-13.222-9.242-13.222-9.242s-5.743,8.811-2.813,15.884a8.714,8.714,0,0,0,11.366,4.763" transform="translate(-4847.481 2934.316)" fill="#d7e7ac"/>
    <circle id="Ellipse_145" data-name="Ellipse 145" cx="14.528" cy="14.528" r="14.528" transform="translate(420.24 1955.012)" fill="#6b6059"/>
    <path id="Path_1598" data-name="Path 1598" d="M5287.08-893.78a12.69,12.69,0,0,0-.074-17.946c-7.884-7.885-22.94-5.068-22.94-5.068s-2.816,15.056,5.068,22.94a12.691,12.691,0,0,0,17.946.074" transform="translate(-4847.481 2934.316)" fill="#fffcf0"/>
    <line id="Line_471" data-name="Line 471" x1="10.757" y1="10.757" transform="translate(424.852 2025.789)" fill="none" stroke="#afcf5a" stroke-linecap="round" stroke-linejoin="round" stroke-width="2.433"/>
    <path id="Path_1599" data-name="Path 1599" d="M5298.259-840.531h-32.021l-4.3-42.963h40.619Z" transform="translate(-4847.481 2934.316)" fill="#6b6059"/>
    <path id="Path_1600" data-name="Path 1600" d="M5263.314-869.759h37.87l1.374-13.735h-40.619Z" transform="translate(-4847.481 2934.316)" fill="#5b4e47"/>
    <path id="Path_1601" data-name="Path 1601" d="M5257.785-884.952l1.042,10.41h46.845l1.042-10.41Z" transform="translate(-4847.481 2934.316)" fill="#7c716c"/>
    <path id="Path_1602" data-name="Path 1602" d="M5238.886-1204.776a21.275,21.275,0,0,1,21.275-21.275,21.275,21.275,0,0,1,21.275,21.275" transform="translate(-4847.481 2934.316)" fill="none" stroke="#ebe3d4" stroke-linecap="round" stroke-linejoin="round" stroke-width="2.517"/>
    <rect id="Rectangle_2278" data-name="Rectangle 2278" width="31.691" height="45.679" transform="translate(364.387 1692.012)" fill="#fffdf3"/>
    <rect id="Rectangle_2279" data-name="Rectangle 2279" width="47.317" height="6.497" rx="3.249" transform="translate(356.628 1685.514)" fill="#5b4e47"/>
    <rect id="Rectangle_2280" data-name="Rectangle 2280" width="47.317" height="6.497" rx="3.249" transform="translate(356.628 1737.691)" fill="#5b4e47"/>
    <g id="Group_1755" data-name="Group 1755" transform="translate(-4847.481 2934.316)">
      <line id="Line_472" data-name="Line 472" x2="31.691" transform="translate(5211.868 -1239.725)" fill="none" stroke="#ebe3d4" stroke-miterlimit="10" stroke-width="2.517"/>
      <line id="Line_473" data-name="Line 473" x2="31.691" transform="translate(5211.868 -1235.673)" fill="none" stroke="#ebe3d4" stroke-miterlimit="10" stroke-width="2.517"/>
      <line id="Line_474" data-name="Line 474" x2="31.691" transform="translate(5211.868 -1231.621)" fill="none" stroke="#ebe3d4" stroke-miterlimit="10" stroke-width="2.517"/>
      <line id="Line_475" data-name="Line 475" x2="31.691" transform="translate(5211.868 -1227.569)" fill="none" stroke="#ebe3d4" stroke-miterlimit="10" stroke-width="2.517"/>
      <line id="Line_476" data-name="Line 476" x2="31.691" transform="translate(5211.868 -1223.517)" fill="none" stroke="#ebe3d4" stroke-miterlimit="10" stroke-width="2.517"/>
      <line id="Line_477" data-name="Line 477" x2="31.691" transform="translate(5211.868 -1219.465)" fill="none" stroke="#ebe3d4" stroke-miterlimit="10" stroke-width="2.517"/>
      <line id="Line_478" data-name="Line 478" x2="31.691" transform="translate(5211.868 -1215.413)" fill="none" stroke="#ebe3d4" stroke-miterlimit="10" stroke-width="2.517"/>
      <line id="Line_479" data-name="Line 479" x2="31.691" transform="translate(5211.868 -1211.361)" fill="none" stroke="#ebe3d4" stroke-miterlimit="10" stroke-width="2.517"/>
      <line id="Line_480" data-name="Line 480" x2="31.691" transform="translate(5211.868 -1207.31)" fill="none" stroke="#ebe3d4" stroke-miterlimit="10" stroke-width="2.517"/>
      <line id="Line_481" data-name="Line 481" x2="31.691" transform="translate(5211.868 -1203.258)" fill="none" stroke="#ebe3d4" stroke-miterlimit="10" stroke-width="2.517"/>
      <line id="Line_482" data-name="Line 482" x2="31.691" transform="translate(5211.868 -1199.206)" fill="none" stroke="#ebe3d4" stroke-miterlimit="10" stroke-width="2.517"/>
    </g>
    <path id="Path_1603" data-name="Path 1603" d="M5272.116-1197.983c2.3,2.3,11.174.9,20.662-16.334,4.26-7.736,48.191-50.536,54.943-57.885,5.559-6.051,8.729-10.115,8.729-10.115s-4.065,3.17-10.115,8.729c-7.349,6.751-50.149,50.683-57.885,54.943C5271.218-1209.157,5269.818-1200.281,5272.116-1197.983Zm16.973-16.973c.75.75-1.752,5.461-6.631,10.341-3.872,3.872-6.419,3.712-6.92,3.21s-.662-3.048,3.21-6.92C5283.627-1213.2,5288.338-1215.707,5289.089-1214.956Z" transform="translate(-4847.481 2934.316)" fill="#5b4e47"/>
    <path id="Path_1604" data-name="Path 1604" d="M5311.832-1204.776a15.2,15.2,0,0,1-15.2,15.2,15.2,15.2,0,0,1-15.2-15.2" transform="translate(-4847.481 2934.316)" fill="none" stroke="#ebe3d4" stroke-linecap="round" stroke-linejoin="round" stroke-width="2.517"/>
    <rect id="Rectangle_2287" data-name="Rectangle 2287" width="19.935" height="66.874" transform="translate(246.499 1756.165)" fill="#ebe3d4"/>
    <rect id="Rectangle_2288" data-name="Rectangle 2288" width="19.935" height="5.217" transform="translate(246.499 1805.488)" fill="#5b4e47"/>
    <rect id="Rectangle_2289" data-name="Rectangle 2289" width="19.935" height="5.217" transform="translate(246.499 1812.602)" fill="#5b4e47"/>
    <rect id="Rectangle_2290" data-name="Rectangle 2290" width="19.935" height="5.217" transform="translate(246.499 1761.385)" fill="#5b4e47"/>
    <rect id="Rectangle_2291" data-name="Rectangle 2291" width="19.935" height="5.217" transform="translate(246.499 1768.498)" fill="#5b4e47"/>
    <rect id="Rectangle_2292" data-name="Rectangle 2292" width="22.505" height="80.094" transform="translate(376.969 1800.533) rotate(90)" fill="#5b4e47"/>
    <rect id="Rectangle_2293" data-name="Rectangle 2293" width="22.505" height="8.354" transform="translate(311.481 1800.533) rotate(90)" fill="#ebe3d4"/>
    <rect id="Rectangle_2294" data-name="Rectangle 2294" width="22.505" height="8.354" transform="translate(370.717 1800.533) rotate(90)" fill="#ebe3d4"/>
    <rect id="Rectangle_2295" data-name="Rectangle 2295" width="10.609" height="66.874" transform="translate(282.461 1756.165)" fill="#fffcf0"/>
    <rect id="Rectangle_2296" data-name="Rectangle 2296" width="10.609" height="22.811" transform="translate(282.461 1778.196)" fill="#5b4e47"/>
    <rect id="Rectangle_2297" data-name="Rectangle 2297" width="10.609" height="49.324" transform="translate(269.143 1773.715)" fill="#5b4e47"/>
    <rect id="Rectangle_2298" data-name="Rectangle 2298" width="10.609" height="5.774" transform="translate(269.143 1773.715)" fill="#fffcf0"/>
    <rect id="Rectangle_2299" data-name="Rectangle 2299" width="10.609" height="5.774" transform="translate(269.143 1817.265)" fill="#fffcf0"/>
    <ellipse id="Ellipse_147" data-name="Ellipse 147" cx="3.408" cy="6.897" rx="3.408" ry="6.897" transform="translate(271.04 1791.48)" fill="#fffcf0"/>
    <rect id="Rectangle_2300" data-name="Rectangle 2300" width="6.787" height="27.321" transform="translate(350.583 1808.392) rotate(90)" fill="#fffcf0"/>
    <rect id="Rectangle_2301" data-name="Rectangle 2301" width="155.397" height="11.535" transform="translate(235.116 1823.038)" fill="#9d9591"/>
  </g>
</svg>
