<svg xmlns="http://www.w3.org/2000/svg" width="190.683" height="337.199" viewBox="0 0 190.683 337.199">
  <g id="Group_4552" data-name="Group 4552" transform="translate(-964.438 -1191.219)">
    <path id="Path_1978" data-name="Path 1978" d="M5667.8-356.118c-14.914,0-14.58,38.924-14.58,45.144h0a14.58,14.58,0,0,0,14.58,14.58,14.581,14.581,0,0,0,14.581-14.58C5682.383-317.194,5682.717-356.118,5667.8-356.118Z" transform="translate(-4688.785 1777.03)" fill="#ada6a3"/>
    <path id="Path_1979" data-name="Path 1979" d="M5667.8-356.118c-.022,0-.042,0-.064,0V-296.4l.063,0a14.581,14.581,0,0,0,14.581-14.58C5682.383-317.194,5682.717-356.118,5667.8-356.118Z" transform="translate(-4688.785 1777.03)" fill="#9d9591"/>
    <rect id="Rectangle_2589" data-name="Rectangle 2589" width="4.688" height="4.688" transform="translate(976.61 1479.931)" fill="#7c716c"/>
    <path id="Rectangle_2590" data-name="Rectangle 2590" d="M3.01,0H8.026a3.01,3.01,0,0,1,3.01,3.01V39.158a5.518,5.518,0,0,1-5.518,5.518h0A5.518,5.518,0,0,1,0,39.158V3.01A3.01,3.01,0,0,1,3.01,0Z" transform="translate(973.5 1483.743)" fill="#efe9dd"/>
    <line id="Line_502" data-name="Line 502" y1="19.979" transform="translate(976.611 1449.202)" fill="none" stroke="#7c716c" stroke-linecap="round" stroke-linejoin="round" stroke-width="3.01"/>
    <line id="Line_503" data-name="Line 503" y1="19.979" transform="translate(981.298 1449.202)" fill="none" stroke="#7c716c" stroke-linecap="round" stroke-linejoin="round" stroke-width="3.01"/>
    <path id="Path_1980" data-name="Path 1980" d="M5670.311-293.288h-2.572v44.673c.021,0,.042,0,.064,0a5.517,5.517,0,0,0,5.517-5.517v-36.149A3.009,3.009,0,0,0,5670.311-293.288Z" transform="translate(-4688.785 1777.03)" fill="#ebe3d4"/>
    <rect id="Rectangle_2591" data-name="Rectangle 2591" width="4.688" height="4.688" transform="translate(1089.257 1334.482) rotate(90)" fill="#7c716c"/>
    <path id="Path_1981" data-name="Path 1981" d="M5791.917-454.785a14.581,14.581,0,0,0-14.581,14.58,14.581,14.581,0,0,0,14.581,14.581c6.991,0,29.116-1.6,32-1.94,3.377-.4,3.912-1,3.912-1.706,0-2.006-19.462-1.479-30.3-1.88a3.223,3.223,0,0,1-3.222-3.223,3.223,3.223,0,0,1,3.222-3.223c4.816,0,25.682-1.1,27.087-1.3s3.21-.3,3.21-1.3-1.806-1.1-3.21-1.3-22.271-1.3-27.087-1.3a3.223,3.223,0,0,1-3.222-3.223,3.223,3.223,0,0,1,3.222-3.223c10.835-.4,30.3.126,30.3-1.88,0-.7-.535-1.3-3.912-1.706-2.889-.343-25.014-1.94-32-1.94" transform="translate(-4688.785 1777.03)" fill="#ada6a3"/>
    <path id="Rectangle_2592" data-name="Rectangle 2592" d="M3.01,0H8.026a3.01,3.01,0,0,1,3.01,3.01V39.158a5.518,5.518,0,0,1-5.518,5.518h0A5.518,5.518,0,0,1,0,39.158V3.01A3.01,3.01,0,0,1,3.01,0Z" transform="translate(1085.445 1331.308) rotate(90)" fill="#efe9dd"/>
    <path id="Path_1982" data-name="Path 1982" d="M5827.834-429.27c0-2.006-19.462-1.479-30.3-1.88a3.222,3.222,0,0,1-3.222-3.223,3.222,3.222,0,0,1,3.222-3.223c4.816,0,25.682-1.1,27.087-1.3,1.374-.2,3.127-.3,3.2-1.243h-50.489a14.58,14.58,0,0,0,14.579,14.519c6.991,0,29.116-1.6,32-1.94C5827.3-427.966,5827.834-428.568,5827.834-429.27Z" transform="translate(-4688.785 1777.03)" fill="#9d9591"/>
    <path id="Path_1983" data-name="Path 1983" d="M5774.23-437.7v-2.446h-44.673a5.515,5.515,0,0,0,5.514,5.456h36.149A3.01,3.01,0,0,0,5774.23-437.7Z" transform="translate(-4688.785 1777.03)" fill="#ebe3d4"/>
    <rect id="Rectangle_2593" data-name="Rectangle 2593" width="20.568" height="17.433" transform="translate(1088.268 1252.192)" fill="#9d9591"/>
    <rect id="Rectangle_2594" data-name="Rectangle 2594" width="6.667" height="17.433" transform="translate(1102.169 1252.192)" fill="#ada6a3"/>
    <path id="Path_1984" data-name="Path 1984" d="M5802.69-565.962a9.925,9.925,0,0,1-9.924-9.925,9.924,9.924,0,0,1,9.924-9.924h-15.354v54.224h15.354a17.188,17.188,0,0,0,17.187-17.188A17.187,17.187,0,0,0,5802.69-565.962Z" transform="translate(-4688.785 1777.03)" fill="#7c716c"/>
    <path id="Path_1985" data-name="Path 1985" d="M5771.983-565.962a9.925,9.925,0,0,0,9.924-9.925,9.925,9.925,0,0,0-9.924-9.924h15.353v54.224h-15.353a17.188,17.188,0,0,1-17.188-17.188A17.188,17.188,0,0,1,5771.983-565.962Z" transform="translate(-4688.785 1777.03)" fill="#5b4e47"/>
    <rect id="Rectangle_2595" data-name="Rectangle 2595" width="85.069" height="7.592" transform="translate(1056.017 1245.443)" fill="#efe9dd"/>
    <rect id="Rectangle_2596" data-name="Rectangle 2596" width="70.85" height="7.592" transform="translate(1056.017 1245.443)" fill="#ebe3d4"/>
    <rect id="Rectangle_2600" data-name="Rectangle 2600" width="30.684" height="14.126" transform="translate(1054.35 1458.18)" fill="#7c716c"/>
    <rect id="Rectangle_2601" data-name="Rectangle 2601" width="73.995" height="119.025" rx="4.485" transform="translate(1010.18 1459.326) rotate(-90)" fill="#5b4e46"/>
    <rect id="Rectangle_2602" data-name="Rectangle 2602" width="4.784" height="43.885" transform="translate(1047.749 1475.556) rotate(-90)" fill="#5b4e46"/>
    <rect id="Rectangle_2603" data-name="Rectangle 2603" width="58.715" height="108.253" transform="translate(1015.565 1449.854) rotate(-90)" fill="#ebe3d4"/>
    <path id="Path_2034" data-name="Path 2034" d="M5812.6-385.891v58.715H5704.35" transform="translate(-4688.785 1777.03)" fill="#efe9dd"/>
    <circle id="Ellipse_150" data-name="Ellipse 150" cx="2.177" cy="2.177" r="2.177" transform="translate(1067.516 1452.175)" fill="#7c716c"/>
    <path id="Path_2035" data-name="Path 2035" d="M5758.477-340.794a15.675,15.675,0,0,1-15.612-15.74,15.677,15.677,0,0,1,15.612-15.741,15.676,15.676,0,0,1,15.611,15.741,15.675,15.675,0,0,1-15.611,15.74" transform="translate(-4688.785 1777.03)" fill="#aece5a"/>
    <path id="Path_2036" data-name="Path 2036" d="M5766.914-361.631l-3.381-3.41-5.056,5.1-2.455-2.474-3.381,3.41,2.454,2.474,2.835,2.859.546.551,2.53-2.553Z" transform="translate(-4688.785 1777.03)" fill="#5b4e47"/>
    <path id="Rectangle_2604" data-name="Rectangle 2604" d="M0,0H48.238a0,0,0,0,1,0,0V9.387a18.53,18.53,0,0,1-18.53,18.53H18.53A18.53,18.53,0,0,1,0,9.387V0A0,0,0,0,1,0,0Z" transform="translate(1091.808 1483.456)" fill="#efe9dd"/>
    <path id="Path_2037" data-name="Path 2037" d="M5832.8-292.06a11.1,11.1,0,0,0-11.1,11.1,11.1,11.1,0,0,0,11.1,11.1,11.1,11.1,0,0,0,11.1-11.1A11.1,11.1,0,0,0,5832.8-292.06Zm0,18.074a6.971,6.971,0,0,1-6.971-6.97,6.971,6.971,0,0,1,6.971-6.971,6.97,6.97,0,0,1,6.97,6.971A6.97,6.97,0,0,1,5832.8-273.986Z" transform="translate(-4688.785 1777.03)" fill="#ebe3d4"/>
    <path id="Path_2038" data-name="Path 2038" d="M5803.97-302.7a6.06,6.06,0,0,1-6.06-6.059,6.06,6.06,0,0,1,6.06-6.059" transform="translate(-4688.785 1777.03)" fill="#ebe3d4" opacity="0.5"/>
    <path id="Path_2039" data-name="Path 2039" d="M5803.97-335.8a10.494,10.494,0,0,1,10.493,10.494,10.493,10.493,0,0,1-10.493,10.494" transform="translate(-4688.785 1777.03)" fill="#ebe3d4" opacity="0.5"/>
    <path id="Path_2040" data-name="Path 2040" d="M5810.3-265.658a18.53,18.53,0,0,0,18.53-18.53v-9.387h-23.382v27.917Z" transform="translate(-4688.785 1777.03)" fill="#ebe3d4"/>
    <path id="Path_2041" data-name="Path 2041" d="M5809.435-285.281l-8.44,8.1c1.728,1.1,4.533.509,6.648-1.522S5810.465-283.509,5809.435-285.281Z" transform="translate(-4688.785 1777.03)" fill="#5b4e47"/>
    <path id="Path_2042" data-name="Path 2042" d="M5808.429-286.329c-1.728-1.1-4.534-.509-6.649,1.521s-2.822,4.81-1.792,6.581Z" transform="translate(-4688.785 1777.03)" fill="#5b4e47"/>
    <path id="Rectangle_2605" data-name="Rectangle 2605" d="M12.147,0h7.328A12.147,12.147,0,0,1,31.622,12.147V18.3a0,0,0,0,1,0,0H0a0,0,0,0,1,0,0V12.147A12.147,12.147,0,0,1,12.147,0Z" transform="translate(1083.191 1505.517) rotate(-180)" fill="#efe9dd"/>
    <path id="Path_2043" data-name="Path 2043" d="M5730.472-281.541a7.278,7.278,0,0,0,7.279,7.278,7.277,7.277,0,0,0,7.278-7.278,7.278,7.278,0,0,0-7.278-7.279A7.279,7.279,0,0,0,5730.472-281.541Zm2.709,0a4.57,4.57,0,0,1,4.57-4.57,4.57,4.57,0,0,1,4.569,4.57,4.569,4.569,0,0,1-4.569,4.569A4.57,4.57,0,0,1,5733.181-281.541Z" transform="translate(-4688.785 1777.03)" fill="#efe9dd"/>
    <path id="Path_2044" data-name="Path 2044" d="M5759.829-271.513a12.147,12.147,0,0,0,12.147-12.147v-6.153h-15.328v18.3Z" transform="translate(-4688.785 1777.03)" fill="#ebe3d4"/>
    <path id="Path_2045" data-name="Path 2045" d="M5753.744-295.793a3.972,3.972,0,0,1-3.972-3.972,3.973,3.973,0,0,1,3.972-3.972" transform="translate(-4688.785 1777.03)" fill="#ebe3d4" opacity="0.5"/>
    <path id="Path_2046" data-name="Path 2046" d="M5753.744-317.495a6.879,6.879,0,0,1,6.879,6.879,6.879,6.879,0,0,1-6.879,6.879" transform="translate(-4688.785 1777.03)" fill="#ebe3d4" opacity="0.5"/>
    <path id="Path_2047" data-name="Path 2047" d="M5753.068-284.376l5.533,5.311c-1.132.723-2.971.334-4.358-1S5752.393-283.215,5753.068-284.376Z" transform="translate(-4688.785 1777.03)" fill="#5b4e47"/>
    <path id="Path_2048" data-name="Path 2048" d="M5753.728-285.063c1.133-.723,2.972-.334,4.359,1s1.85,3.153,1.174,4.314Z" transform="translate(-4688.785 1777.03)" fill="#5b4e47"/>
  </g>
</svg>
