<svg xmlns="http://www.w3.org/2000/svg" width="164.697" height="357.958" viewBox="0 0 164.697 357.958">
  <g id="Group_4551" data-name="Group 4551" transform="translate(-230.88 -1173)">
    <line id="Line_504" data-name="Line 504" y1="57.761" transform="translate(296.084 1432.401)" fill="none" stroke="#fffcf0" stroke-linecap="round" stroke-linejoin="round" stroke-width="2.693"/>
    <path id="Path_1986" data-name="Path 1986" d="M4983.205-323.169a8.56,8.56,0,0,0,12.1-.05c5.317-5.318,3.418-15.472,3.418-15.472s-10.154-1.9-15.472,3.418a8.56,8.56,0,0,0-.05,12.1" transform="translate(-4688.785 1777.03)" fill="#fffcf0"/>
    <line id="Line_505" data-name="Line 505" y1="7.255" x2="7.255" transform="translate(297.111 1443.915)" fill="none" stroke="#afcf5a" stroke-linecap="round" stroke-linejoin="round" stroke-width="1.641"/>
    <path id="Path_1987" data-name="Path 1987" d="M4986.421-301.244a8.559,8.559,0,0,0-.05-12.1c-5.317-5.317-15.471-3.418-15.471-3.418s-1.9,10.154,3.418,15.472a8.559,8.559,0,0,0,12.1.05" transform="translate(-4688.785 1777.03)" fill="#fffcf0"/>
    <line id="Line_506" data-name="Line 506" x1="7.255" y1="7.255" transform="translate(287.69 1465.84)" fill="none" stroke="#afcf5a" stroke-linecap="round" stroke-linejoin="round" stroke-width="1.641"/>
    <path id="Path_1988" data-name="Path 1988" d="M5001.294-246.072h-33.312l-4.472-44.694h42.255Z" transform="translate(-4688.785 1777.03)" fill="#6b6059"/>
    <path id="Path_1989" data-name="Path 1989" d="M4964.94-276.478h39.4l1.429-14.288h-42.255Z" transform="translate(-4688.785 1777.03)" fill="#5b4e47"/>
    <path id="Path_1990" data-name="Path 1990" d="M4959.188-292.283l1.083,10.83h48.733l1.083-10.83Z" transform="translate(-4688.785 1777.03)" fill="#7c716c"/>
    <path id="Path_1991" data-name="Path 1991" d="M4986.546-360.648a7.222,7.222,0,0,0,10.215-.042c4.488-4.488,2.885-13.057,2.885-13.057s-8.57-1.6-13.058,2.884a7.224,7.224,0,0,0-.042,10.215" transform="translate(-4688.785 1777.03)" fill="#cfe29c"/>
    <path id="Path_1992" data-name="Path 1992" d="M4983.193-357.294a7.222,7.222,0,0,0-10.215.042c-4.488,4.488-2.885,13.057-2.885,13.057s8.57,1.6,13.058-2.884a7.224,7.224,0,0,0,.042-10.215" transform="translate(-4688.785 1777.03)" fill="#cfe29c"/>
    <path id="Path_1993" data-name="Path 1993" d="M4986.546-357.294a7.224,7.224,0,0,0,.042,10.215c4.488,4.488,13.058,2.884,13.058,2.884s1.6-8.569-2.885-13.057a7.222,7.222,0,0,0-10.215-.042" transform="translate(-4688.785 1777.03)" fill="#cfe29c"/>
    <path id="Path_1994" data-name="Path 1994" d="M4983.193-360.648a7.224,7.224,0,0,0-.042-10.215c-4.488-4.488-13.058-2.884-13.058-2.884s-1.6,8.569,2.885,13.057a7.222,7.222,0,0,0,10.215.042" transform="translate(-4688.785 1777.03)" fill="#cfe29c"/>
    <circle id="Ellipse_148" data-name="Ellipse 148" cx="5.133" cy="5.133" r="5.133" transform="translate(290.952 1412.926)" fill="#6b6059"/>
    <line id="Line_507" data-name="Line 507" y1="57.761" transform="translate(365.533 1457.384)" fill="none" stroke="#fffcf0" stroke-linecap="round" stroke-linejoin="round" stroke-width="2.693"/>
    <path id="Path_1995" data-name="Path 1995" d="M5060.25-335.8a6.273,6.273,0,0,0,8.871-.037c3.9-3.9,2.5-11.338,2.5-11.338s-7.442-1.393-11.339,2.5a6.273,6.273,0,0,0-.037,8.871" transform="translate(-4688.785 1777.03)" fill="#c7dd8b"/>
    <path id="Path_1996" data-name="Path 1996" d="M5054.317-338.259a6.273,6.273,0,0,0,6.247-6.3c0-5.511-6.247-9.789-6.247-9.789s-6.246,4.278-6.246,9.789a6.272,6.272,0,0,0,6.246,6.3" transform="translate(-4688.785 1777.03)" fill="#c7dd8b"/>
    <path id="Path_1997" data-name="Path 1997" d="M5054.317-321.477a6.272,6.272,0,0,0-6.246,6.3c0,5.511,6.246,9.789,6.246,9.789s6.247-4.278,6.247-9.789a6.273,6.273,0,0,0-6.247-6.3" transform="translate(-4688.785 1777.03)" fill="#c7dd8b"/>
    <path id="Path_1998" data-name="Path 1998" d="M5054.317-338.259a6.273,6.273,0,0,0,6.247-6.3c0-5.511-6.247-9.789-6.247-9.789s-6.246,4.278-6.246,9.789a6.272,6.272,0,0,0,6.246,6.3" transform="translate(-4688.785 1777.03)" fill="#c7dd8b"/>
    <path id="Path_1999" data-name="Path 1999" d="M5054.317-321.477a6.272,6.272,0,0,0-6.246,6.3c0,5.511,6.246,9.789,6.246,9.789s6.247-4.278,6.247-9.789a6.273,6.273,0,0,0-6.247-6.3" transform="translate(-4688.785 1777.03)" fill="#c7dd8b"/>
    <path id="Path_2000" data-name="Path 2000" d="M5062.708-329.868a6.272,6.272,0,0,0,6.3,6.246c5.511,0,9.789-6.246,9.789-6.246s-4.278-6.246-9.789-6.246a6.272,6.272,0,0,0-6.3,6.246" transform="translate(-4688.785 1777.03)" fill="#c7dd8b"/>
    <path id="Path_2001" data-name="Path 2001" d="M5045.926-329.868a6.271,6.271,0,0,0-6.3-6.246c-5.511,0-9.789,6.246-9.789,6.246s4.278,6.246,9.789,6.246a6.271,6.271,0,0,0,6.3-6.246" transform="translate(-4688.785 1777.03)" fill="#c7dd8b"/>
    <path id="Path_2002" data-name="Path 2002" d="M5062.708-329.868a6.272,6.272,0,0,0,6.3,6.246c5.511,0,9.789-6.246,9.789-6.246s-4.278-6.246-9.789-6.246a6.272,6.272,0,0,0-6.3,6.246" transform="translate(-4688.785 1777.03)" fill="#c7dd8b"/>
    <path id="Path_2003" data-name="Path 2003" d="M5045.926-329.868a6.271,6.271,0,0,0-6.3-6.246c-5.511,0-9.789,6.246-9.789,6.246s4.278,6.246,9.789,6.246a6.271,6.271,0,0,0,6.3-6.246" transform="translate(-4688.785 1777.03)" fill="#c7dd8b"/>
    <path id="Path_2004" data-name="Path 2004" d="M5060.25-335.8a6.273,6.273,0,0,0,8.871-.037c3.9-3.9,2.5-11.338,2.5-11.338s-7.442-1.393-11.339,2.5a6.273,6.273,0,0,0-.037,8.871" transform="translate(-4688.785 1777.03)" fill="#c7dd8b"/>
    <path id="Path_2005" data-name="Path 2005" d="M5048.384-323.935a6.272,6.272,0,0,0-8.87.037c-3.9,3.9-2.505,11.338-2.505,11.338s7.441,1.393,11.338-2.5a6.273,6.273,0,0,0,.037-8.871" transform="translate(-4688.785 1777.03)" fill="#c7dd8b"/>
    <path id="Path_2006" data-name="Path 2006" d="M5048.384-323.935a6.272,6.272,0,0,0-8.87.037c-3.9,3.9-2.505,11.338-2.505,11.338s7.441,1.393,11.338-2.5a6.273,6.273,0,0,0,.037-8.871" transform="translate(-4688.785 1777.03)" fill="#c7dd8b"/>
    <path id="Path_2007" data-name="Path 2007" d="M5060.25-323.935a6.273,6.273,0,0,0,.037,8.871c3.9,3.9,11.339,2.5,11.339,2.5s1.392-7.441-2.5-11.338a6.273,6.273,0,0,0-8.871-.037" transform="translate(-4688.785 1777.03)" fill="#c7dd8b"/>
    <path id="Path_2008" data-name="Path 2008" d="M5048.384-335.8a6.273,6.273,0,0,0-.037-8.871c-3.9-3.9-11.338-2.5-11.338-2.5s-1.392,7.441,2.505,11.338a6.272,6.272,0,0,0,8.87.037" transform="translate(-4688.785 1777.03)" fill="#c7dd8b"/>
    <path id="Path_2009" data-name="Path 2009" d="M5060.25-323.935a6.273,6.273,0,0,0,.037,8.871c3.9,3.9,11.339,2.5,11.339,2.5s1.392-7.441-2.5-11.338a6.273,6.273,0,0,0-8.871-.037" transform="translate(-4688.785 1777.03)" fill="#c7dd8b"/>
    <path id="Path_2010" data-name="Path 2010" d="M5048.384-335.8a6.273,6.273,0,0,0-.037-8.871c-3.9-3.9-11.338-2.5-11.338-2.5s-1.392,7.441,2.505,11.338a6.272,6.272,0,0,0,8.87.037" transform="translate(-4688.785 1777.03)" fill="#c7dd8b"/>
    <path id="Path_2011" data-name="Path 2011" d="M5057.326-337.131a5.878,5.878,0,0,0,7.665-3.213c1.976-4.77-1.9-10.713-1.9-10.713s-6.941,1.463-8.917,6.234a5.878,5.878,0,0,0,3.149,7.692" transform="translate(-4688.785 1777.03)" fill="#d7e7ac"/>
    <path id="Path_2012" data-name="Path 2012" d="M5051.309-322.605a5.878,5.878,0,0,0-7.666,3.213c-1.976,4.77,1.9,10.713,1.9,10.713s6.941-1.463,8.917-6.234a5.877,5.877,0,0,0-3.148-7.692" transform="translate(-4688.785 1777.03)" fill="#d7e7ac"/>
    <path id="Path_2013" data-name="Path 2013" d="M5057.326-337.131a5.878,5.878,0,0,0,7.665-3.213c1.976-4.77-1.9-10.713-1.9-10.713s-6.941,1.463-8.917,6.234a5.878,5.878,0,0,0,3.149,7.692" transform="translate(-4688.785 1777.03)" fill="#d7e7ac"/>
    <path id="Path_2014" data-name="Path 2014" d="M5051.309-322.605a5.878,5.878,0,0,0-7.666,3.213c-1.976,4.77,1.9,10.713,1.9,10.713s6.941-1.463,8.917-6.234a5.877,5.877,0,0,0-3.148-7.692" transform="translate(-4688.785 1777.03)" fill="#d7e7ac"/>
    <path id="Path_2015" data-name="Path 2015" d="M5061.581-326.859a5.877,5.877,0,0,0,3.212,7.665c4.771,1.976,10.713-1.9,10.713-1.9s-1.463-6.941-6.234-8.917a5.875,5.875,0,0,0-7.691,3.149" transform="translate(-4688.785 1777.03)" fill="#d7e7ac"/>
    <path id="Path_2016" data-name="Path 2016" d="M5047.054-332.877a5.876,5.876,0,0,0-3.213-7.665c-4.77-1.976-10.713,1.9-10.713,1.9s1.463,6.941,6.234,8.917a5.878,5.878,0,0,0,7.692-3.149" transform="translate(-4688.785 1777.03)" fill="#d7e7ac"/>
    <path id="Path_2017" data-name="Path 2017" d="M5061.581-326.859a5.877,5.877,0,0,0,3.212,7.665c4.771,1.976,10.713-1.9,10.713-1.9s-1.463-6.941-6.234-8.917a5.875,5.875,0,0,0-7.691,3.149" transform="translate(-4688.785 1777.03)" fill="#d7e7ac"/>
    <path id="Path_2018" data-name="Path 2018" d="M5047.054-332.877a5.876,5.876,0,0,0-3.213-7.665c-4.77-1.976-10.713,1.9-10.713,1.9s1.463,6.941,6.234,8.917a5.878,5.878,0,0,0,7.692-3.149" transform="translate(-4688.785 1777.03)" fill="#d7e7ac"/>
    <path id="Path_2019" data-name="Path 2019" d="M5061.581-332.877a5.876,5.876,0,0,0,7.691,3.149c4.771-1.976,6.234-8.917,6.234-8.917s-5.942-3.873-10.713-1.9a5.877,5.877,0,0,0-3.212,7.665" transform="translate(-4688.785 1777.03)" fill="#d7e7ac"/>
    <path id="Path_2020" data-name="Path 2020" d="M5047.054-326.859a5.877,5.877,0,0,0-7.692-3.149c-4.771,1.976-6.234,8.917-6.234,8.917s5.943,3.873,10.713,1.9a5.876,5.876,0,0,0,3.213-7.665" transform="translate(-4688.785 1777.03)" fill="#d7e7ac"/>
    <path id="Path_2021" data-name="Path 2021" d="M5061.581-332.877a5.876,5.876,0,0,0,7.691,3.149c4.771-1.976,6.234-8.917,6.234-8.917s-5.942-3.873-10.713-1.9a5.877,5.877,0,0,0-3.212,7.665" transform="translate(-4688.785 1777.03)" fill="#d7e7ac"/>
    <path id="Path_2022" data-name="Path 2022" d="M5047.054-326.859a5.877,5.877,0,0,0-7.692-3.149c-4.771,1.976-6.234,8.917-6.234,8.917s5.943,3.873,10.713,1.9a5.876,5.876,0,0,0,3.213-7.665" transform="translate(-4688.785 1777.03)" fill="#d7e7ac"/>
    <path id="Path_2023" data-name="Path 2023" d="M5057.326-322.605a5.878,5.878,0,0,0-3.149,7.692c1.976,4.771,8.917,6.234,8.917,6.234s3.873-5.943,1.9-10.713a5.877,5.877,0,0,0-7.665-3.213" transform="translate(-4688.785 1777.03)" fill="#d7e7ac"/>
    <path id="Path_2024" data-name="Path 2024" d="M5051.309-337.131a5.877,5.877,0,0,0,3.148-7.692c-1.976-4.771-8.917-6.234-8.917-6.234s-3.873,5.943-1.9,10.713a5.878,5.878,0,0,0,7.666,3.213" transform="translate(-4688.785 1777.03)" fill="#d7e7ac"/>
    <path id="Path_2025" data-name="Path 2025" d="M5057.326-322.605a5.878,5.878,0,0,0-3.149,7.692c1.976,4.771,8.917,6.234,8.917,6.234s3.873-5.943,1.9-10.713a5.877,5.877,0,0,0-7.665-3.213" transform="translate(-4688.785 1777.03)" fill="#d7e7ac"/>
    <path id="Path_2026" data-name="Path 2026" d="M5051.309-337.131a5.877,5.877,0,0,0,3.148-7.692c-1.976-4.771-8.917-6.234-8.917-6.234s-3.873,5.943-1.9,10.713a5.878,5.878,0,0,0,7.666,3.213" transform="translate(-4688.785 1777.03)" fill="#d7e7ac"/>
    <circle id="Ellipse_149" data-name="Ellipse 149" cx="9.798" cy="9.798" r="9.798" transform="translate(355.734 1437.364)" fill="#6b6059"/>
    <path id="Path_2027" data-name="Path 2027" d="M5057.575-281.986a8.558,8.558,0,0,0-.049-12.1c-5.318-5.317-15.472-3.418-15.472-3.418s-1.9,10.154,3.418,15.472a8.558,8.558,0,0,0,12.1.049" transform="translate(-4688.785 1777.03)" fill="#fffcf0"/>
    <line id="Line_508" data-name="Line 508" x1="7.255" y1="7.255" transform="translate(358.845 1485.099)" fill="none" stroke="#afcf5a" stroke-linecap="round" stroke-linejoin="round" stroke-width="1.641"/>
    <path id="Path_2028" data-name="Path 2028" d="M5065.115-246.072h-21.6l-2.9-28.976h27.4Z" transform="translate(-4688.785 1777.03)" fill="#6b6059"/>
    <path id="Path_2029" data-name="Path 2029" d="M5041.546-265.785h25.542l.927-9.263h-27.4Z" transform="translate(-4688.785 1777.03)" fill="#5b4e47"/>
    <path id="Path_2030" data-name="Path 2030" d="M5037.817-276.031l.7,7.021h31.594l.7-7.021Z" transform="translate(-4688.785 1777.03)" fill="#7c716c"/>
    <path id="Path_2031" data-name="Path 2031" d="M5005.072-551.733a14.349,14.349,0,0,1,14.348-14.349,14.349,14.349,0,0,1,14.349,14.349" transform="translate(-4688.785 1777.03)" fill="none" stroke="#ebe3d4" stroke-linecap="round" stroke-linejoin="round" stroke-width="1.697"/>
    <rect id="Rectangle_2597" data-name="Rectangle 2597" width="21.374" height="30.808" transform="translate(298.065 1199.986)" fill="#fffdf3"/>
    <rect id="Rectangle_2598" data-name="Rectangle 2598" width="31.913" height="4.382" rx="2.191" transform="translate(292.832 1195.604)" fill="#5b4e47"/>
    <rect id="Rectangle_2599" data-name="Rectangle 2599" width="31.913" height="4.382" rx="2.191" transform="translate(292.832 1230.794)" fill="#5b4e47"/>
    <line id="Line_509" data-name="Line 509" x2="21.374" transform="translate(298.065 1201.726)" fill="none" stroke="#ebe3d4" stroke-miterlimit="10" stroke-width="1.697"/>
    <line id="Line_510" data-name="Line 510" x2="21.374" transform="translate(298.065 1204.459)" fill="none" stroke="#ebe3d4" stroke-miterlimit="10" stroke-width="1.697"/>
    <line id="Line_511" data-name="Line 511" x2="21.374" transform="translate(298.065 1207.192)" fill="none" stroke="#ebe3d4" stroke-miterlimit="10" stroke-width="1.697"/>
    <line id="Line_512" data-name="Line 512" x2="21.374" transform="translate(298.065 1209.925)" fill="none" stroke="#ebe3d4" stroke-miterlimit="10" stroke-width="1.697"/>
    <line id="Line_513" data-name="Line 513" x2="21.374" transform="translate(298.065 1212.657)" fill="none" stroke="#ebe3d4" stroke-miterlimit="10" stroke-width="1.697"/>
    <line id="Line_514" data-name="Line 514" x2="21.374" transform="translate(298.065 1215.39)" fill="none" stroke="#ebe3d4" stroke-miterlimit="10" stroke-width="1.697"/>
    <line id="Line_515" data-name="Line 515" x2="21.374" transform="translate(298.065 1218.123)" fill="none" stroke="#ebe3d4" stroke-miterlimit="10" stroke-width="1.697"/>
    <line id="Line_516" data-name="Line 516" x2="21.374" transform="translate(298.065 1220.855)" fill="none" stroke="#ebe3d4" stroke-miterlimit="10" stroke-width="1.697"/>
    <line id="Line_517" data-name="Line 517" x2="21.374" transform="translate(298.065 1223.588)" fill="none" stroke="#ebe3d4" stroke-miterlimit="10" stroke-width="1.697"/>
    <line id="Line_518" data-name="Line 518" x2="21.374" transform="translate(298.065 1226.321)" fill="none" stroke="#ebe3d4" stroke-miterlimit="10" stroke-width="1.697"/>
    <line id="Line_519" data-name="Line 519" x2="21.374" transform="translate(298.065 1229.054)" fill="none" stroke="#ebe3d4" stroke-miterlimit="10" stroke-width="1.697"/>
    <path id="Path_2032" data-name="Path 2032" d="M5027.483-547.152c1.55,1.55,7.537.606,13.936-11.016,2.872-5.218,32.5-34.083,37.055-39.04,3.749-4.081,5.888-6.822,5.888-6.822s-2.742,2.138-6.823,5.887c-4.956,4.554-33.822,34.183-39.04,37.056C5026.878-554.688,5025.934-548.7,5027.483-547.152ZM5038.93-558.6c.507.506-1.181,3.683-4.472,6.974-2.611,2.612-4.329,2.5-4.667,2.165s-.446-2.055,2.165-4.667C5035.247-557.418,5038.424-559.1,5038.93-558.6Z" transform="translate(-4688.785 1777.03)" fill="#5b4e47"/>
    <path id="Path_2033" data-name="Path 2033" d="M5054.269-551.733a10.25,10.25,0,0,1-10.25,10.25,10.25,10.25,0,0,1-10.25-10.25" transform="translate(-4688.785 1777.03)" fill="none" stroke="#ebe3d4" stroke-linecap="round" stroke-linejoin="round" stroke-width="1.697"/>
    <rect id="Rectangle_2606" data-name="Rectangle 2606" width="13.445" height="45.102" transform="translate(238.557 1263.254)" fill="#ebe3d4"/>
    <rect id="Rectangle_2607" data-name="Rectangle 2607" width="13.445" height="3.518" transform="translate(238.557 1296.519)" fill="#5b4e47"/>
    <rect id="Rectangle_2608" data-name="Rectangle 2608" width="13.445" height="3.518" transform="translate(238.557 1301.317)" fill="#5b4e47"/>
    <rect id="Rectangle_2609" data-name="Rectangle 2609" width="13.445" height="3.518" transform="translate(238.557 1266.774)" fill="#5b4e47"/>
    <rect id="Rectangle_2610" data-name="Rectangle 2610" width="13.445" height="3.518" transform="translate(238.557 1271.572)" fill="#5b4e47"/>
    <rect id="Rectangle_2611" data-name="Rectangle 2611" width="15.178" height="54.018" transform="translate(326.551 1293.177) rotate(90)" fill="#5b4e47"/>
    <rect id="Rectangle_2612" data-name="Rectangle 2612" width="15.178" height="5.634" transform="translate(282.383 1293.177) rotate(90)" fill="#ebe3d4"/>
    <rect id="Rectangle_2613" data-name="Rectangle 2613" width="15.178" height="5.634" transform="translate(322.334 1293.177) rotate(90)" fill="#ebe3d4"/>
    <rect id="Rectangle_2614" data-name="Rectangle 2614" width="7.155" height="45.102" transform="translate(262.812 1263.254)" fill="#fffcf0"/>
    <rect id="Rectangle_2615" data-name="Rectangle 2615" width="7.155" height="15.385" transform="translate(262.812 1278.112)" fill="#5b4e47"/>
    <rect id="Rectangle_2616" data-name="Rectangle 2616" width="7.155" height="33.266" transform="translate(253.829 1275.09)" fill="#5b4e47"/>
    <rect id="Rectangle_2617" data-name="Rectangle 2617" width="7.155" height="3.894" transform="translate(253.829 1275.09)" fill="#fffcf0"/>
    <rect id="Rectangle_2618" data-name="Rectangle 2618" width="7.155" height="3.894" transform="translate(253.829 1304.462)" fill="#fffcf0"/>
    <ellipse id="Ellipse_151" data-name="Ellipse 151" cx="2.298" cy="4.651" rx="2.298" ry="4.651" transform="translate(255.108 1287.072)" fill="#fffcf0"/>
    <rect id="Rectangle_2619" data-name="Rectangle 2619" width="4.577" height="18.426" transform="translate(308.755 1298.478) rotate(90)" fill="#fffcf0"/>
    <rect id="Rectangle_2620" data-name="Rectangle 2620" width="104.806" height="7.78" transform="translate(230.88 1308.356)" fill="#9d9591"/>
  </g>
</svg>
