<svg xmlns="http://www.w3.org/2000/svg" width="260.68" height="98.111" viewBox="0 0 260.68 98.111">
  <g id="Group_4548" data-name="Group 4548" transform="translate(-228 -265.289)">
    <path id="Path_2211" data-name="Path 2211" d="M8091.368-543.768c-9.7,0-9.479,25.307-9.479,29.35h0a9.479,9.479,0,0,0,9.48,9.48,9.479,9.479,0,0,0,9.479-9.48C8100.847-518.461,8101.064-543.768,8091.368-543.768Z" transform="translate(-7725.303 835.623)" fill="#ada6a3"/>
    <path id="Path_2212" data-name="Path 2212" d="M8091.368-543.768l-.042,0v38.827h.042a9.479,9.479,0,0,0,9.479-9.48C8100.847-518.461,8101.064-543.768,8091.368-543.768Z" transform="translate(-7725.303 835.623)" fill="#9d9591"/>
    <rect id="Rectangle_2712" data-name="Rectangle 2712" width="3.048" height="3.048" transform="translate(364.5 330.226)" fill="#7c716c"/>
    <path id="Rectangle_2713" data-name="Rectangle 2713" d="M1.957,0H5.218A1.957,1.957,0,0,1,7.175,1.957v23.5a3.587,3.587,0,0,1-3.587,3.587h0A3.587,3.587,0,0,1,0,25.459V1.957A1.957,1.957,0,0,1,1.957,0Z" transform="translate(362.478 332.705)" fill="#efe9dd"/>
    <line id="Line_572" data-name="Line 572" y1="12.989" transform="translate(364.5 310.248)" fill="none" stroke="#7c716c" stroke-linecap="round" stroke-linejoin="round" stroke-width="1.957"/>
    <line id="Line_573" data-name="Line 573" y1="12.989" transform="translate(367.548 310.248)" fill="none" stroke="#7c716c" stroke-linecap="round" stroke-linejoin="round" stroke-width="1.957"/>
    <path id="Path_2213" data-name="Path 2213" d="M8093-502.918h-1.672v29.044l.042,0a3.587,3.587,0,0,0,3.587-3.587v-23.5A1.957,1.957,0,0,0,8093-502.918Z" transform="translate(-7725.303 835.623)" fill="#ebe3d4"/>
    <rect id="Rectangle_2714" data-name="Rectangle 2714" width="3.048" height="3.048" transform="translate(340.452 330.226)" fill="#7c716c"/>
    <path id="Path_2214" data-name="Path 2214" d="M8057.8-514.418a9.479,9.479,0,0,0,9.479,9.48,9.479,9.479,0,0,0,9.479-9.48c0-4.545-1.038-18.93-1.261-20.808-.261-2.2-.652-2.544-1.109-2.544-1.3,0-.961,12.654-1.222,19.7a2.1,2.1,0,0,1-2.1,2.1,2.1,2.1,0,0,1-2.095-2.1c0-3.131-.718-16.7-.848-17.61s-.2-2.088-.848-2.088-.717,1.174-.848,2.088-.848,14.479-.848,17.61a2.1,2.1,0,0,1-2.1,2.1,2.1,2.1,0,0,1-2.1-2.1c-.261-7.044.082-19.7-1.222-19.7-.457,0-.848.348-1.109,2.544-.223,1.878-1.261,16.263-1.261,20.808" transform="translate(-7725.303 835.623)" fill="#ada6a3"/>
    <path id="Rectangle_2715" data-name="Rectangle 2715" d="M1.957,0H5.218A1.957,1.957,0,0,1,7.175,1.957v23.5a3.587,3.587,0,0,1-3.587,3.587h0A3.587,3.587,0,0,1,0,25.459V1.957A1.957,1.957,0,0,1,1.957,0Z" transform="translate(338.389 332.705)" fill="#efe9dd"/>
    <path id="Path_2215" data-name="Path 2215" d="M8074.388-537.77c-1.3,0-.961,12.654-1.222,19.7a2.1,2.1,0,0,1-2.1,2.1,2.1,2.1,0,0,1-2.095-2.1c0-3.131-.718-16.7-.848-17.611-.128-.893-.195-2.033-.808-2.082v32.826a9.479,9.479,0,0,0,9.439-9.479c0-4.545-1.038-18.93-1.261-20.808C8075.236-537.422,8074.845-537.77,8074.388-537.77Z" transform="translate(-7725.303 835.623)" fill="#9d9591"/>
    <path id="Path_2216" data-name="Path 2216" d="M8068.91-502.918h-1.591v29.044a3.586,3.586,0,0,0,3.547-3.585v-23.5A1.956,1.956,0,0,0,8068.91-502.918Z" transform="translate(-7725.303 835.623)" fill="#ebe3d4"/>
    <line id="Line_574" data-name="Line 574" y1="42.303" transform="translate(246.808 286.819)" fill="none" stroke="#fffcf0" stroke-linecap="round" stroke-linejoin="round" stroke-width="1.972"/>
    <path id="Path_2219" data-name="Path 2219" d="M7970.891-533.087a6.269,6.269,0,0,0,8.865-.037c3.894-3.894,2.5-11.331,2.5-11.331s-7.437-1.391-11.331,2.5a6.27,6.27,0,0,0-.037,8.865" transform="translate(-7725.303 835.623)" fill="#fffcf0"/>
    <line id="Line_575" data-name="Line 575" y1="5.314" x2="5.314" transform="translate(247.56 295.251)" fill="none" stroke="#afcf5a" stroke-linecap="round" stroke-linejoin="round" stroke-width="1.202"/>
    <path id="Path_2220" data-name="Path 2220" d="M7973.247-517.03a6.268,6.268,0,0,0-.037-8.864c-3.894-3.9-11.331-2.5-11.331-2.5s-1.391,7.436,2.5,11.33a6.269,6.269,0,0,0,8.865.037" transform="translate(-7725.303 835.623)" fill="#fffcf0"/>
    <line id="Line_576" data-name="Line 576" x1="5.314" y1="5.314" transform="translate(240.66 311.309)" fill="none" stroke="#afcf5a" stroke-linecap="round" stroke-linejoin="round" stroke-width="1.202"/>
    <path id="Path_2221" data-name="Path 2221" d="M7984.14-476.623h-24.4l-3.275-32.733h30.947Z" transform="translate(-7725.303 835.623)" fill="#6b6059"/>
    <path id="Path_2222" data-name="Path 2222" d="M7957.515-498.892h28.853l1.047-10.464h-30.947Z" transform="translate(-7725.303 835.623)" fill="#5b4e47"/>
    <path id="Path_2223" data-name="Path 2223" d="M7953.3-510.467l.793,7.932h35.691l.793-7.932Z" transform="translate(-7725.303 835.623)" fill="#7c716c"/>
    <path id="Path_2224" data-name="Path 2224" d="M7973.338-560.536a5.291,5.291,0,0,0,7.482-.03c3.286-3.287,2.112-9.564,2.112-9.564s-6.276-1.174-9.563,2.113a5.289,5.289,0,0,0-.031,7.481" transform="translate(-7725.303 835.623)" fill="#cfe29c"/>
    <path id="Path_2225" data-name="Path 2225" d="M7970.882-558.08a5.291,5.291,0,0,0-7.481.031c-3.287,3.287-2.113,9.563-2.113,9.563s6.277,1.174,9.563-2.112a5.29,5.29,0,0,0,.031-7.482" transform="translate(-7725.303 835.623)" fill="#cfe29c"/>
    <path id="Path_2226" data-name="Path 2226" d="M7973.338-558.08a5.291,5.291,0,0,0,.031,7.482c3.287,3.286,9.563,2.112,9.563,2.112s1.174-6.276-2.112-9.563a5.292,5.292,0,0,0-7.482-.031" transform="translate(-7725.303 835.623)" fill="#cfe29c"/>
    <path id="Path_2227" data-name="Path 2227" d="M7970.882-560.536a5.289,5.289,0,0,0-.031-7.481c-3.286-3.287-9.563-2.113-9.563-2.113s-1.174,6.277,2.113,9.564a5.29,5.29,0,0,0,7.481.03" transform="translate(-7725.303 835.623)" fill="#cfe29c"/>
    <circle id="Ellipse_162" data-name="Ellipse 162" cx="3.759" cy="3.759" r="3.759" transform="translate(243.048 272.556)" fill="#6b6059"/>
    <line id="Line_577" data-name="Line 577" y1="42.303" transform="translate(297.669 305.116)" fill="none" stroke="#fffcf0" stroke-linecap="round" stroke-linejoin="round" stroke-width="1.972"/>
    <path id="Path_2228" data-name="Path 2228" d="M8027.318-542.339a4.593,4.593,0,0,0,6.5-.026c2.854-2.855,1.835-8.3,1.835-8.3s-5.45-1.019-8.3,1.835a4.593,4.593,0,0,0-.026,6.5" transform="translate(-7725.303 835.623)" fill="#c7dd8b"/>
    <path id="Path_2229" data-name="Path 2229" d="M8022.972-544.139a4.593,4.593,0,0,0,4.575-4.612c0-4.037-4.575-7.169-4.575-7.169s-4.575,3.132-4.575,7.169a4.594,4.594,0,0,0,4.575,4.612" transform="translate(-7725.303 835.623)" fill="#c7dd8b"/>
    <path id="Path_2230" data-name="Path 2230" d="M8022.972-531.848a4.594,4.594,0,0,0-4.575,4.613c0,4.036,4.575,7.169,4.575,7.169s4.575-3.133,4.575-7.169a4.594,4.594,0,0,0-4.575-4.613" transform="translate(-7725.303 835.623)" fill="#c7dd8b"/>
    <path id="Path_2231" data-name="Path 2231" d="M8022.972-544.139a4.593,4.593,0,0,0,4.575-4.612c0-4.037-4.575-7.169-4.575-7.169s-4.575,3.132-4.575,7.169a4.594,4.594,0,0,0,4.575,4.612" transform="translate(-7725.303 835.623)" fill="#c7dd8b"/>
    <path id="Path_2232" data-name="Path 2232" d="M8022.972-531.848a4.594,4.594,0,0,0-4.575,4.613c0,4.036,4.575,7.169,4.575,7.169s4.575-3.133,4.575-7.169a4.594,4.594,0,0,0-4.575-4.613" transform="translate(-7725.303 835.623)" fill="#c7dd8b"/>
    <path id="Path_2233" data-name="Path 2233" d="M8029.118-537.993a4.593,4.593,0,0,0,4.612,4.574c4.036,0,7.169-4.574,7.169-4.574s-3.133-4.575-7.169-4.575a4.593,4.593,0,0,0-4.612,4.575" transform="translate(-7725.303 835.623)" fill="#c7dd8b"/>
    <path id="Path_2234" data-name="Path 2234" d="M8016.827-537.993a4.594,4.594,0,0,0-4.613-4.575c-4.036,0-7.169,4.575-7.169,4.575s3.133,4.574,7.169,4.574a4.594,4.594,0,0,0,4.613-4.574" transform="translate(-7725.303 835.623)" fill="#c7dd8b"/>
    <path id="Path_2235" data-name="Path 2235" d="M8029.118-537.993a4.593,4.593,0,0,0,4.612,4.574c4.036,0,7.169-4.574,7.169-4.574s-3.133-4.575-7.169-4.575a4.593,4.593,0,0,0-4.612,4.575" transform="translate(-7725.303 835.623)" fill="#c7dd8b"/>
    <path id="Path_2236" data-name="Path 2236" d="M8016.827-537.993a4.594,4.594,0,0,0-4.613-4.575c-4.036,0-7.169,4.575-7.169,4.575s3.133,4.574,7.169,4.574a4.594,4.594,0,0,0,4.613-4.574" transform="translate(-7725.303 835.623)" fill="#c7dd8b"/>
    <path id="Path_2237" data-name="Path 2237" d="M8027.318-542.339a4.593,4.593,0,0,0,6.5-.026c2.854-2.855,1.835-8.3,1.835-8.3s-5.45-1.019-8.3,1.835a4.593,4.593,0,0,0-.026,6.5" transform="translate(-7725.303 835.623)" fill="#c7dd8b"/>
    <path id="Path_2238" data-name="Path 2238" d="M8018.627-533.648a4.594,4.594,0,0,0-6.5.027c-2.854,2.854-1.834,8.3-1.834,8.3s5.45,1.02,8.3-1.834a4.6,4.6,0,0,0,.027-6.5" transform="translate(-7725.303 835.623)" fill="#c7dd8b"/>
    <path id="Path_2239" data-name="Path 2239" d="M8018.627-533.648a4.594,4.594,0,0,0-6.5.027c-2.854,2.854-1.834,8.3-1.834,8.3s5.45,1.02,8.3-1.834a4.6,4.6,0,0,0,.027-6.5" transform="translate(-7725.303 835.623)" fill="#c7dd8b"/>
    <path id="Path_2240" data-name="Path 2240" d="M8027.318-533.648a4.594,4.594,0,0,0,.026,6.5c2.855,2.854,8.3,1.834,8.3,1.834s1.019-5.45-1.835-8.3a4.593,4.593,0,0,0-6.5-.027" transform="translate(-7725.303 835.623)" fill="#c7dd8b"/>
    <path id="Path_2241" data-name="Path 2241" d="M8018.627-542.339a4.594,4.594,0,0,0-.027-6.5c-2.854-2.854-8.3-1.835-8.3-1.835s-1.02,5.45,1.834,8.3a4.594,4.594,0,0,0,6.5.026" transform="translate(-7725.303 835.623)" fill="#c7dd8b"/>
    <path id="Path_2242" data-name="Path 2242" d="M8027.318-533.648a4.594,4.594,0,0,0,.026,6.5c2.855,2.854,8.3,1.834,8.3,1.834s1.019-5.45-1.835-8.3a4.593,4.593,0,0,0-6.5-.027" transform="translate(-7725.303 835.623)" fill="#c7dd8b"/>
    <path id="Path_2243" data-name="Path 2243" d="M8018.627-542.339a4.594,4.594,0,0,0-.027-6.5c-2.854-2.854-8.3-1.835-8.3-1.835s-1.02,5.45,1.834,8.3a4.594,4.594,0,0,0,6.5.026" transform="translate(-7725.303 835.623)" fill="#c7dd8b"/>
    <path id="Path_2244" data-name="Path 2244" d="M8025.176-543.313a4.3,4.3,0,0,0,5.614-2.352c1.447-3.494-1.39-7.847-1.39-7.847s-5.083,1.072-6.53,4.566a4.3,4.3,0,0,0,2.306,5.633" transform="translate(-7725.303 835.623)" fill="#d7e7ac"/>
    <path id="Path_2245" data-name="Path 2245" d="M8020.769-532.674a4.3,4.3,0,0,0-5.614,2.353c-1.447,3.494,1.389,7.846,1.389,7.846s5.084-1.072,6.531-4.565a4.306,4.306,0,0,0-2.306-5.634" transform="translate(-7725.303 835.623)" fill="#d7e7ac"/>
    <path id="Path_2246" data-name="Path 2246" d="M8025.176-543.313a4.3,4.3,0,0,0,5.614-2.352c1.447-3.494-1.39-7.847-1.39-7.847s-5.083,1.072-6.53,4.566a4.3,4.3,0,0,0,2.306,5.633" transform="translate(-7725.303 835.623)" fill="#d7e7ac"/>
    <path id="Path_2247" data-name="Path 2247" d="M8020.769-532.674a4.3,4.3,0,0,0-5.614,2.353c-1.447,3.494,1.389,7.846,1.389,7.846s5.084-1.072,6.531-4.565a4.306,4.306,0,0,0-2.306-5.634" transform="translate(-7725.303 835.623)" fill="#d7e7ac"/>
    <path id="Path_2248" data-name="Path 2248" d="M8028.292-535.79a4.3,4.3,0,0,0,2.352,5.614c3.494,1.447,7.847-1.389,7.847-1.389s-1.072-5.084-4.566-6.531a4.3,4.3,0,0,0-5.633,2.306" transform="translate(-7725.303 835.623)" fill="#d7e7ac"/>
    <path id="Path_2249" data-name="Path 2249" d="M8017.653-540.2a4.3,4.3,0,0,0-2.353-5.614c-3.494-1.447-7.846,1.39-7.846,1.39s1.071,5.083,4.565,6.53a4.3,4.3,0,0,0,5.634-2.306" transform="translate(-7725.303 835.623)" fill="#d7e7ac"/>
    <path id="Path_2250" data-name="Path 2250" d="M8028.292-535.79a4.3,4.3,0,0,0,2.352,5.614c3.494,1.447,7.847-1.389,7.847-1.389s-1.072-5.084-4.566-6.531a4.3,4.3,0,0,0-5.633,2.306" transform="translate(-7725.303 835.623)" fill="#d7e7ac"/>
    <path id="Path_2251" data-name="Path 2251" d="M8017.653-540.2a4.3,4.3,0,0,0-2.353-5.614c-3.494-1.447-7.846,1.39-7.846,1.39s1.071,5.083,4.565,6.53a4.3,4.3,0,0,0,5.634-2.306" transform="translate(-7725.303 835.623)" fill="#d7e7ac"/>
    <path id="Path_2252" data-name="Path 2252" d="M8028.292-540.2a4.3,4.3,0,0,0,5.633,2.306c3.494-1.447,4.566-6.53,4.566-6.53s-4.353-2.837-7.847-1.39a4.3,4.3,0,0,0-2.352,5.614" transform="translate(-7725.303 835.623)" fill="#d7e7ac"/>
    <path id="Path_2253" data-name="Path 2253" d="M8017.653-535.79a4.3,4.3,0,0,0-5.634-2.306c-3.494,1.447-4.565,6.531-4.565,6.531s4.352,2.836,7.846,1.389a4.3,4.3,0,0,0,2.353-5.614" transform="translate(-7725.303 835.623)" fill="#d7e7ac"/>
    <path id="Path_2254" data-name="Path 2254" d="M8028.292-540.2a4.3,4.3,0,0,0,5.633,2.306c3.494-1.447,4.566-6.53,4.566-6.53s-4.353-2.837-7.847-1.39a4.3,4.3,0,0,0-2.352,5.614" transform="translate(-7725.303 835.623)" fill="#d7e7ac"/>
    <path id="Path_2255" data-name="Path 2255" d="M8017.653-535.79a4.3,4.3,0,0,0-5.634-2.306c-3.494,1.447-4.565,6.531-4.565,6.531s4.352,2.836,7.846,1.389a4.3,4.3,0,0,0,2.353-5.614" transform="translate(-7725.303 835.623)" fill="#d7e7ac"/>
    <path id="Path_2256" data-name="Path 2256" d="M8025.176-532.674a4.3,4.3,0,0,0-2.306,5.634c1.447,3.493,6.53,4.565,6.53,4.565s2.837-4.352,1.39-7.846a4.305,4.305,0,0,0-5.614-2.353" transform="translate(-7725.303 835.623)" fill="#d7e7ac"/>
    <path id="Path_2257" data-name="Path 2257" d="M8020.769-543.313a4.3,4.3,0,0,0,2.306-5.633c-1.447-3.494-6.531-4.566-6.531-4.566s-2.836,4.353-1.389,7.847a4.3,4.3,0,0,0,5.614,2.352" transform="translate(-7725.303 835.623)" fill="#d7e7ac"/>
    <path id="Path_2258" data-name="Path 2258" d="M8025.176-532.674a4.3,4.3,0,0,0-2.306,5.634c1.447,3.493,6.53,4.565,6.53,4.565s2.837-4.352,1.39-7.846a4.305,4.305,0,0,0-5.614-2.353" transform="translate(-7725.303 835.623)" fill="#d7e7ac"/>
    <path id="Path_2259" data-name="Path 2259" d="M8020.769-543.313a4.3,4.3,0,0,0,2.306-5.633c-1.447-3.494-6.531-4.566-6.531-4.566s-2.836,4.353-1.389,7.847a4.3,4.3,0,0,0,5.614,2.352" transform="translate(-7725.303 835.623)" fill="#d7e7ac"/>
    <circle id="Ellipse_163" data-name="Ellipse 163" cx="7.176" cy="7.176" r="7.176" transform="translate(290.494 290.454)" fill="#6b6059"/>
    <path id="Path_2260" data-name="Path 2260" d="M8025.359-502.925a6.27,6.27,0,0,0-.037-8.865c-3.894-3.894-11.331-2.5-11.331-2.5s-1.391,7.437,2.5,11.331a6.269,6.269,0,0,0,8.865.037" transform="translate(-7725.303 835.623)" fill="#fffcf0"/>
    <line id="Line_578" data-name="Line 578" x1="5.314" y1="5.314" transform="translate(292.771 325.414)" fill="none" stroke="#afcf5a" stroke-linecap="round" stroke-linejoin="round" stroke-width="1.202"/>
    <path id="Path_2261" data-name="Path 2261" d="M8030.881-476.623h-15.817l-2.124-21.221H8033Z" transform="translate(-7725.303 835.623)" fill="#6b6059"/>
    <path id="Path_2262" data-name="Path 2262" d="M8013.62-491.06h18.706l.679-6.784H8012.94Z" transform="translate(-7725.303 835.623)" fill="#5b4e47"/>
    <path id="Path_2263" data-name="Path 2263" d="M8010.888-498.564l.515,5.142h23.139l.514-5.142Z" transform="translate(-7725.303 835.623)" fill="#7c716c"/>
    <rect id="Rectangle_2723" data-name="Rectangle 2723" width="19.949" height="9.184" transform="translate(423.163 328.817)" fill="#7c716c"/>
    <rect id="Rectangle_2724" data-name="Rectangle 2724" width="48.109" height="77.385" rx="2.916" transform="translate(394.445 329.562) rotate(-90)" fill="#5b4e46"/>
    <rect id="Rectangle_2725" data-name="Rectangle 2725" width="3.11" height="28.532" transform="translate(418.871 340.115) rotate(-90)" fill="#5b4e46"/>
    <rect id="Rectangle_2726" data-name="Rectangle 2726" width="38.174" height="70.382" transform="translate(397.947 323.404) rotate(-90)" fill="#ebe3d4"/>
    <path id="Path_2267" data-name="Path 2267" d="M8193.631-550.393v38.174H8123.25" transform="translate(-7725.303 835.623)" fill="#efe9dd"/>
    <circle id="Ellipse_164" data-name="Ellipse 164" cx="1.415" cy="1.415" r="1.415" transform="translate(431.722 324.913)" fill="#7c716c"/>
    <path id="Path_2268" data-name="Path 2268" d="M8158.44-521.072a10.191,10.191,0,0,1-10.15-10.234,10.192,10.192,0,0,1,10.15-10.234,10.192,10.192,0,0,1,10.15,10.234,10.191,10.191,0,0,1-10.15,10.234" transform="translate(-7725.303 835.623)" fill="#aece5a"/>
    <path id="Path_2269" data-name="Path 2269" d="M8163.926-534.62l-2.2-2.217-3.287,3.314-1.6-1.608-2.2,2.217,1.6,1.608,1.843,1.859.355.358,1.645-1.66Z" transform="translate(-7725.303 835.623)" fill="#5b4e47"/>
    <path id="Rectangle_2727" data-name="Rectangle 2727" d="M0,0H31.362a0,0,0,0,1,0,0V6.1A12.047,12.047,0,0,1,19.315,18.15H12.047A12.047,12.047,0,0,1,0,6.1V0A0,0,0,0,1,0,0Z" transform="translate(447.517 345.25)" fill="#efe9dd"/>
    <path id="Path_2270" data-name="Path 2270" d="M8206.763-489.388a7.219,7.219,0,0,0-7.219,7.219,7.219,7.219,0,0,0,7.219,7.219,7.219,7.219,0,0,0,7.22-7.219A7.219,7.219,0,0,0,8206.763-489.388Zm0,11.751a4.531,4.531,0,0,1-4.531-4.532,4.531,4.531,0,0,1,4.531-4.532,4.532,4.532,0,0,1,4.532,4.532A4.532,4.532,0,0,1,8206.763-477.637Z" transform="translate(-7725.303 835.623)" fill="#ebe3d4"/>
    <path id="Path_2271" data-name="Path 2271" d="M8188.018-496.3a3.939,3.939,0,0,1-3.94-3.939,3.939,3.939,0,0,1,3.94-3.939" transform="translate(-7725.303 835.623)" fill="#ebe3d4" opacity="0.5"/>
    <path id="Path_2272" data-name="Path 2272" d="M8188.018-517.827a6.821,6.821,0,0,1,6.822,6.822,6.822,6.822,0,0,1-6.822,6.823" transform="translate(-7725.303 835.623)" fill="#ebe3d4" opacity="0.5"/>
    <path id="Path_2273" data-name="Path 2273" d="M8192.134-472.223a12.046,12.046,0,0,0,12.047-12.047v-6.1h-15.2v18.15Z" transform="translate(-7725.303 835.623)" fill="#ebe3d4"/>
    <path id="Path_2274" data-name="Path 2274" d="M8191.571-484.98l-5.487,5.268c1.123.716,2.947.331,4.322-.99S8192.241-483.829,8191.571-484.98Z" transform="translate(-7725.303 835.623)" fill="#5b4e47"/>
    <path id="Path_2275" data-name="Path 2275" d="M8190.917-485.662c-1.124-.716-2.947-.331-4.323.989s-1.835,3.127-1.165,4.279Z" transform="translate(-7725.303 835.623)" fill="#5b4e47"/>
    <path id="Rectangle_2728" data-name="Rectangle 2728" d="M7.9,0h4.764a7.9,7.9,0,0,1,7.9,7.9v4a0,0,0,0,1,0,0H0a0,0,0,0,1,0,0v-4A7.9,7.9,0,0,1,7.9,0Z" transform="translate(441.914 359.594) rotate(-180)" fill="#efe9dd"/>
    <path id="Path_2276" data-name="Path 2276" d="M8140.233-482.549a4.731,4.731,0,0,0,4.732,4.732,4.731,4.731,0,0,0,4.732-4.732,4.731,4.731,0,0,0-4.732-4.732A4.731,4.731,0,0,0,8140.233-482.549Zm1.761,0a2.971,2.971,0,0,1,2.971-2.971,2.971,2.971,0,0,1,2.971,2.971,2.971,2.971,0,0,1-2.971,2.971A2.971,2.971,0,0,1,8141.994-482.549Z" transform="translate(-7725.303 835.623)" fill="#efe9dd"/>
    <path id="Path_2277" data-name="Path 2277" d="M8159.319-476.029a7.9,7.9,0,0,0,7.9-7.9v-4h-9.966v11.9Z" transform="translate(-7725.303 835.623)" fill="#ebe3d4"/>
    <path id="Path_2278" data-name="Path 2278" d="M8155.363-491.815a2.582,2.582,0,0,1-2.582-2.582,2.583,2.583,0,0,1,2.582-2.583" transform="translate(-7725.303 835.623)" fill="#ebe3d4" opacity="0.5"/>
    <path id="Path_2279" data-name="Path 2279" d="M8155.363-505.924a4.473,4.473,0,0,1,4.473,4.472,4.473,4.473,0,0,1-4.473,4.472" transform="translate(-7725.303 835.623)" fill="#ebe3d4" opacity="0.5"/>
    <path id="Path_2280" data-name="Path 2280" d="M8154.924-484.392l3.6,3.453a2.438,2.438,0,0,1-2.833-.648A2.44,2.44,0,0,1,8154.924-484.392Z" transform="translate(-7725.303 835.623)" fill="#5b4e47"/>
    <path id="Path_2281" data-name="Path 2281" d="M8155.353-484.839a2.44,2.44,0,0,1,2.834.649,2.44,2.44,0,0,1,.763,2.8Z" transform="translate(-7725.303 835.623)" fill="#5b4e47"/>
  </g>
</svg>
