<svg xmlns="http://www.w3.org/2000/svg" width="131.458" height="391.249" viewBox="0 0 131.458 391.249">
  <g id="Group_4549" data-name="Group 4549" transform="translate(-231.132 -709.254)">
    <line id="Line_522" data-name="Line 522" y1="57.761" transform="translate(266.249 1001.947)" fill="none" stroke="#fffcf0" stroke-linecap="round" stroke-linejoin="round" stroke-width="2.693"/>
    <path id="Path_2057" data-name="Path 2057" d="M6082.906-307.876a8.56,8.56,0,0,0,12.1-.05c5.317-5.317,3.418-15.471,3.418-15.471s-10.154-1.9-15.472,3.417a8.56,8.56,0,0,0-.05,12.1" transform="translate(-5818.322 1331.282)" fill="#fffcf0"/>
    <line id="Line_523" data-name="Line 523" y1="7.255" x2="7.255" transform="translate(267.275 1013.46)" fill="none" stroke="#afcf5a" stroke-linecap="round" stroke-linejoin="round" stroke-width="1.641"/>
    <path id="Path_2058" data-name="Path 2058" d="M6086.122-285.951a8.559,8.559,0,0,0-.049-12.1c-5.318-5.317-15.472-3.418-15.472-3.418s-1.9,10.154,3.418,15.472a8.559,8.559,0,0,0,12.1.05" transform="translate(-5818.322 1331.282)" fill="#fffcf0"/>
    <line id="Line_524" data-name="Line 524" x1="7.255" y1="7.255" transform="translate(257.854 1035.385)" fill="none" stroke="#afcf5a" stroke-linecap="round" stroke-linejoin="round" stroke-width="1.641"/>
    <path id="Path_2059" data-name="Path 2059" d="M6101-230.779h-33.312l-4.472-44.694h42.255Z" transform="translate(-5818.322 1331.282)" fill="#6b6059"/>
    <path id="Path_2060" data-name="Path 2060" d="M6064.642-261.185h39.4l1.43-14.288h-42.255Z" transform="translate(-5818.322 1331.282)" fill="#5b4e47"/>
    <path id="Path_2061" data-name="Path 2061" d="M6058.89-276.99l1.083,10.83h48.733l1.083-10.83Z" transform="translate(-5818.322 1331.282)" fill="#7c716c"/>
    <path id="Path_2062" data-name="Path 2062" d="M6086.247-345.354a7.223,7.223,0,0,0,10.215-.043c4.488-4.487,2.885-13.057,2.885-13.057s-8.57-1.6-13.058,2.884a7.225,7.225,0,0,0-.042,10.216" transform="translate(-5818.322 1331.282)" fill="#cfe29c"/>
    <path id="Path_2063" data-name="Path 2063" d="M6082.894-342a7.223,7.223,0,0,0-10.215.042c-4.488,4.488-2.885,13.058-2.885,13.058s8.57,1.6,13.058-2.885a7.224,7.224,0,0,0,.042-10.215" transform="translate(-5818.322 1331.282)" fill="#cfe29c"/>
    <path id="Path_2064" data-name="Path 2064" d="M6086.247-342a7.224,7.224,0,0,0,.042,10.215c4.488,4.488,13.058,2.885,13.058,2.885s1.6-8.57-2.885-13.058a7.223,7.223,0,0,0-10.215-.042" transform="translate(-5818.322 1331.282)" fill="#cfe29c"/>
    <path id="Path_2065" data-name="Path 2065" d="M6082.894-345.354a7.225,7.225,0,0,0-.042-10.216c-4.488-4.488-13.058-2.884-13.058-2.884s-1.6,8.57,2.885,13.057a7.223,7.223,0,0,0,10.215.043" transform="translate(-5818.322 1331.282)" fill="#cfe29c"/>
    <circle id="Ellipse_152" data-name="Ellipse 152" cx="5.133" cy="5.133" r="5.133" transform="translate(261.116 982.471)" fill="#6b6059"/>
    <line id="Line_525" data-name="Line 525" y1="57.761" transform="translate(335.696 1026.929)" fill="none" stroke="#fffcf0" stroke-linecap="round" stroke-linejoin="round" stroke-width="2.693"/>
    <path id="Path_2066" data-name="Path 2066" d="M6159.952-320.508a6.272,6.272,0,0,0,8.87-.037c3.9-3.9,2.505-11.338,2.505-11.338s-7.442-1.393-11.339,2.5a6.273,6.273,0,0,0-.036,8.871" transform="translate(-5818.322 1331.282)" fill="#c7dd8b"/>
    <path id="Path_2067" data-name="Path 2067" d="M6154.018-322.966a6.273,6.273,0,0,0,6.247-6.3c0-5.511-6.247-9.789-6.247-9.789s-6.246,4.278-6.246,9.789a6.273,6.273,0,0,0,6.246,6.3" transform="translate(-5818.322 1331.282)" fill="#c7dd8b"/>
    <path id="Path_2068" data-name="Path 2068" d="M6154.018-306.184a6.273,6.273,0,0,0-6.246,6.3c0,5.511,6.246,9.789,6.246,9.789s6.247-4.278,6.247-9.789a6.273,6.273,0,0,0-6.247-6.3" transform="translate(-5818.322 1331.282)" fill="#c7dd8b"/>
    <path id="Path_2069" data-name="Path 2069" d="M6154.018-322.966a6.273,6.273,0,0,0,6.247-6.3c0-5.511-6.247-9.789-6.247-9.789s-6.246,4.278-6.246,9.789a6.273,6.273,0,0,0,6.246,6.3" transform="translate(-5818.322 1331.282)" fill="#c7dd8b"/>
    <path id="Path_2070" data-name="Path 2070" d="M6154.018-306.184a6.273,6.273,0,0,0-6.246,6.3c0,5.511,6.246,9.789,6.246,9.789s6.247-4.278,6.247-9.789a6.273,6.273,0,0,0-6.247-6.3" transform="translate(-5818.322 1331.282)" fill="#c7dd8b"/>
    <path id="Path_2071" data-name="Path 2071" d="M6162.409-314.575a6.273,6.273,0,0,0,6.3,6.247c5.512,0,9.789-6.247,9.789-6.247s-4.277-6.246-9.789-6.246a6.272,6.272,0,0,0-6.3,6.246" transform="translate(-5818.322 1331.282)" fill="#c7dd8b"/>
    <path id="Path_2072" data-name="Path 2072" d="M6145.628-314.575a6.272,6.272,0,0,0-6.3-6.246c-5.511,0-9.788,6.246-9.788,6.246s4.277,6.247,9.788,6.247a6.273,6.273,0,0,0,6.3-6.247" transform="translate(-5818.322 1331.282)" fill="#c7dd8b"/>
    <path id="Path_2073" data-name="Path 2073" d="M6162.409-314.575a6.273,6.273,0,0,0,6.3,6.247c5.512,0,9.789-6.247,9.789-6.247s-4.277-6.246-9.789-6.246a6.272,6.272,0,0,0-6.3,6.246" transform="translate(-5818.322 1331.282)" fill="#c7dd8b"/>
    <path id="Path_2074" data-name="Path 2074" d="M6145.628-314.575a6.272,6.272,0,0,0-6.3-6.246c-5.511,0-9.788,6.246-9.788,6.246s4.277,6.247,9.788,6.247a6.273,6.273,0,0,0,6.3-6.247" transform="translate(-5818.322 1331.282)" fill="#c7dd8b"/>
    <path id="Path_2075" data-name="Path 2075" d="M6159.952-320.508a6.272,6.272,0,0,0,8.87-.037c3.9-3.9,2.505-11.338,2.505-11.338s-7.442-1.393-11.339,2.5a6.273,6.273,0,0,0-.036,8.871" transform="translate(-5818.322 1331.282)" fill="#c7dd8b"/>
    <path id="Path_2076" data-name="Path 2076" d="M6148.085-308.642a6.272,6.272,0,0,0-8.87.037c-3.9,3.9-2.5,11.339-2.5,11.339s7.442,1.392,11.339-2.505a6.273,6.273,0,0,0,.036-8.871" transform="translate(-5818.322 1331.282)" fill="#c7dd8b"/>
    <path id="Path_2077" data-name="Path 2077" d="M6148.085-308.642a6.272,6.272,0,0,0-8.87.037c-3.9,3.9-2.5,11.339-2.5,11.339s7.442,1.392,11.339-2.505a6.273,6.273,0,0,0,.036-8.871" transform="translate(-5818.322 1331.282)" fill="#c7dd8b"/>
    <path id="Path_2078" data-name="Path 2078" d="M6159.952-308.642a6.273,6.273,0,0,0,.036,8.871c3.9,3.9,11.339,2.505,11.339,2.505s1.392-7.442-2.505-11.339a6.272,6.272,0,0,0-8.87-.037" transform="translate(-5818.322 1331.282)" fill="#c7dd8b"/>
    <path id="Path_2079" data-name="Path 2079" d="M6148.085-320.508a6.273,6.273,0,0,0-.036-8.871c-3.9-3.9-11.339-2.5-11.339-2.5s-1.392,7.441,2.5,11.338a6.272,6.272,0,0,0,8.87.037" transform="translate(-5818.322 1331.282)" fill="#c7dd8b"/>
    <path id="Path_2080" data-name="Path 2080" d="M6159.952-308.642a6.273,6.273,0,0,0,.036,8.871c3.9,3.9,11.339,2.505,11.339,2.505s1.392-7.442-2.505-11.339a6.272,6.272,0,0,0-8.87-.037" transform="translate(-5818.322 1331.282)" fill="#c7dd8b"/>
    <path id="Path_2081" data-name="Path 2081" d="M6148.085-320.508a6.273,6.273,0,0,0-.036-8.871c-3.9-3.9-11.339-2.5-11.339-2.5s-1.392,7.441,2.5,11.338a6.272,6.272,0,0,0,8.87.037" transform="translate(-5818.322 1331.282)" fill="#c7dd8b"/>
    <path id="Path_2082" data-name="Path 2082" d="M6157.027-321.838a5.878,5.878,0,0,0,7.666-3.213c1.976-4.77-1.9-10.713-1.9-10.713s-6.941,1.463-8.917,6.234a5.878,5.878,0,0,0,3.149,7.692" transform="translate(-5818.322 1331.282)" fill="#d7e7ac"/>
    <path id="Path_2083" data-name="Path 2083" d="M6151.01-307.311a5.877,5.877,0,0,0-7.666,3.212c-1.976,4.77,1.9,10.713,1.9,10.713s6.941-1.463,8.917-6.234a5.877,5.877,0,0,0-3.149-7.691" transform="translate(-5818.322 1331.282)" fill="#d7e7ac"/>
    <path id="Path_2084" data-name="Path 2084" d="M6157.027-321.838a5.878,5.878,0,0,0,7.666-3.213c1.976-4.77-1.9-10.713-1.9-10.713s-6.941,1.463-8.917,6.234a5.878,5.878,0,0,0,3.149,7.692" transform="translate(-5818.322 1331.282)" fill="#d7e7ac"/>
    <path id="Path_2085" data-name="Path 2085" d="M6151.01-307.311a5.877,5.877,0,0,0-7.666,3.212c-1.976,4.77,1.9,10.713,1.9,10.713s6.941-1.463,8.917-6.234a5.877,5.877,0,0,0-3.149-7.691" transform="translate(-5818.322 1331.282)" fill="#d7e7ac"/>
    <path id="Path_2086" data-name="Path 2086" d="M6161.282-311.566a5.876,5.876,0,0,0,3.212,7.665c4.771,1.976,10.713-1.9,10.713-1.9s-1.463-6.941-6.233-8.917a5.878,5.878,0,0,0-7.692,3.149" transform="translate(-5818.322 1331.282)" fill="#d7e7ac"/>
    <path id="Path_2087" data-name="Path 2087" d="M6146.755-317.583a5.877,5.877,0,0,0-3.212-7.666c-4.771-1.976-10.714,1.9-10.714,1.9s1.464,6.941,6.234,8.917a5.876,5.876,0,0,0,7.692-3.148" transform="translate(-5818.322 1331.282)" fill="#d7e7ac"/>
    <path id="Path_2088" data-name="Path 2088" d="M6161.282-311.566a5.876,5.876,0,0,0,3.212,7.665c4.771,1.976,10.713-1.9,10.713-1.9s-1.463-6.941-6.233-8.917a5.878,5.878,0,0,0-7.692,3.149" transform="translate(-5818.322 1331.282)" fill="#d7e7ac"/>
    <path id="Path_2089" data-name="Path 2089" d="M6146.755-317.583a5.877,5.877,0,0,0-3.212-7.666c-4.771-1.976-10.714,1.9-10.714,1.9s1.464,6.941,6.234,8.917a5.876,5.876,0,0,0,7.692-3.148" transform="translate(-5818.322 1331.282)" fill="#d7e7ac"/>
    <path id="Path_2090" data-name="Path 2090" d="M6161.282-317.584a5.876,5.876,0,0,0,7.692,3.149c4.77-1.976,6.233-8.917,6.233-8.917s-5.942-3.873-10.713-1.9a5.876,5.876,0,0,0-3.212,7.665" transform="translate(-5818.322 1331.282)" fill="#d7e7ac"/>
    <path id="Path_2091" data-name="Path 2091" d="M6146.755-311.566a5.878,5.878,0,0,0-7.692-3.149c-4.77,1.976-6.234,8.917-6.234,8.917s5.943,3.873,10.714,1.9a5.876,5.876,0,0,0,3.212-7.665" transform="translate(-5818.322 1331.282)" fill="#d7e7ac"/>
    <path id="Path_2092" data-name="Path 2092" d="M6161.282-317.584a5.876,5.876,0,0,0,7.692,3.149c4.77-1.976,6.233-8.917,6.233-8.917s-5.942-3.873-10.713-1.9a5.876,5.876,0,0,0-3.212,7.665" transform="translate(-5818.322 1331.282)" fill="#d7e7ac"/>
    <path id="Path_2093" data-name="Path 2093" d="M6146.755-311.566a5.878,5.878,0,0,0-7.692-3.149c-4.77,1.976-6.234,8.917-6.234,8.917s5.943,3.873,10.714,1.9a5.876,5.876,0,0,0,3.212-7.665" transform="translate(-5818.322 1331.282)" fill="#d7e7ac"/>
    <path id="Path_2094" data-name="Path 2094" d="M6157.027-307.311a5.877,5.877,0,0,0-3.149,7.691c1.976,4.771,8.917,6.234,8.917,6.234s3.874-5.943,1.9-10.713a5.878,5.878,0,0,0-7.666-3.212" transform="translate(-5818.322 1331.282)" fill="#d7e7ac"/>
    <path id="Path_2095" data-name="Path 2095" d="M6151.01-321.838a5.878,5.878,0,0,0,3.149-7.692c-1.976-4.771-8.917-6.234-8.917-6.234s-3.874,5.943-1.9,10.713a5.878,5.878,0,0,0,7.666,3.213" transform="translate(-5818.322 1331.282)" fill="#d7e7ac"/>
    <path id="Path_2096" data-name="Path 2096" d="M6157.027-307.311a5.877,5.877,0,0,0-3.149,7.691c1.976,4.771,8.917,6.234,8.917,6.234s3.874-5.943,1.9-10.713a5.878,5.878,0,0,0-7.666-3.212" transform="translate(-5818.322 1331.282)" fill="#d7e7ac"/>
    <path id="Path_2097" data-name="Path 2097" d="M6151.01-321.838a5.878,5.878,0,0,0,3.149-7.692c-1.976-4.771-8.917-6.234-8.917-6.234s-3.874,5.943-1.9,10.713a5.878,5.878,0,0,0,7.666,3.213" transform="translate(-5818.322 1331.282)" fill="#d7e7ac"/>
    <circle id="Ellipse_153" data-name="Ellipse 153" cx="9.798" cy="9.798" r="9.798" transform="translate(325.898 1006.909)" fill="#6b6059"/>
    <path id="Path_2098" data-name="Path 2098" d="M6157.277-266.692a8.56,8.56,0,0,0-.05-12.1c-5.318-5.317-15.472-3.418-15.472-3.418s-1.9,10.154,3.418,15.472a8.56,8.56,0,0,0,12.1.05" transform="translate(-5818.322 1331.282)" fill="#fffcf0"/>
    <line id="Line_526" data-name="Line 526" x1="7.255" y1="7.255" transform="translate(329.008 1054.644)" fill="none" stroke="#afcf5a" stroke-linecap="round" stroke-linejoin="round" stroke-width="1.641"/>
    <path id="Path_2099" data-name="Path 2099" d="M6164.817-230.779h-21.6l-2.9-28.976h27.395Z" transform="translate(-5818.322 1331.282)" fill="#6b6059"/>
    <path id="Path_2100" data-name="Path 2100" d="M6141.248-250.491h25.541l.927-9.263h-27.395Z" transform="translate(-5818.322 1331.282)" fill="#5b4e47"/>
    <path id="Path_2101" data-name="Path 2101" d="M6137.519-260.738l.7,7.021h31.594l.7-7.021Z" transform="translate(-5818.322 1331.282)" fill="#7c716c"/>
    <path id="Path_2102" data-name="Path 2102" d="M6101.623-569.731a14.348,14.348,0,0,1,14.348-14.349,14.348,14.348,0,0,1,14.349,14.349" transform="translate(-5818.322 1331.282)" fill="none" stroke="#ebe3d4" stroke-linecap="round" stroke-linejoin="round" stroke-width="1.697"/>
    <rect id="Rectangle_2629" data-name="Rectangle 2629" width="21.374" height="30.808" transform="translate(265.079 736.24)" fill="#fffdf3"/>
    <rect id="Rectangle_2630" data-name="Rectangle 2630" width="31.913" height="4.382" rx="2.191" transform="translate(259.846 731.858)" fill="#5b4e47"/>
    <rect id="Rectangle_2631" data-name="Rectangle 2631" width="31.913" height="4.382" rx="2.191" transform="translate(259.846 767.048)" fill="#5b4e47"/>
    <line id="Line_527" data-name="Line 527" x2="21.374" transform="translate(265.079 737.98)" fill="none" stroke="#ebe3d4" stroke-miterlimit="10" stroke-width="1.697"/>
    <line id="Line_528" data-name="Line 528" x2="21.374" transform="translate(265.079 740.713)" fill="none" stroke="#ebe3d4" stroke-miterlimit="10" stroke-width="1.697"/>
    <line id="Line_529" data-name="Line 529" x2="21.374" transform="translate(265.079 743.446)" fill="none" stroke="#ebe3d4" stroke-miterlimit="10" stroke-width="1.697"/>
    <line id="Line_530" data-name="Line 530" x2="21.374" transform="translate(265.079 746.179)" fill="none" stroke="#ebe3d4" stroke-miterlimit="10" stroke-width="1.697"/>
    <line id="Line_531" data-name="Line 531" x2="21.374" transform="translate(265.079 748.911)" fill="none" stroke="#ebe3d4" stroke-miterlimit="10" stroke-width="1.697"/>
    <line id="Line_532" data-name="Line 532" x2="21.374" transform="translate(265.079 751.644)" fill="none" stroke="#ebe3d4" stroke-miterlimit="10" stroke-width="1.697"/>
    <line id="Line_533" data-name="Line 533" x2="21.374" transform="translate(265.079 754.377)" fill="none" stroke="#ebe3d4" stroke-miterlimit="10" stroke-width="1.697"/>
    <line id="Line_534" data-name="Line 534" x2="21.374" transform="translate(265.079 757.11)" fill="none" stroke="#ebe3d4" stroke-miterlimit="10" stroke-width="1.697"/>
    <line id="Line_535" data-name="Line 535" x2="21.374" transform="translate(265.079 759.842)" fill="none" stroke="#ebe3d4" stroke-miterlimit="10" stroke-width="1.697"/>
    <line id="Line_536" data-name="Line 536" x2="21.374" transform="translate(265.079 762.575)" fill="none" stroke="#ebe3d4" stroke-miterlimit="10" stroke-width="1.697"/>
    <line id="Line_537" data-name="Line 537" x2="21.374" transform="translate(265.079 765.308)" fill="none" stroke="#ebe3d4" stroke-miterlimit="10" stroke-width="1.697"/>
    <path id="Path_2103" data-name="Path 2103" d="M6124.035-565.15c1.55,1.55,7.536.606,13.935-11.016,2.873-5.218,32.5-34.083,37.056-39.04,3.749-4.081,5.887-6.822,5.887-6.822s-2.742,2.138-6.822,5.887c-4.957,4.554-33.823,34.183-39.04,37.056C6123.429-572.686,6122.485-566.7,6124.035-565.15Zm11.447-11.447c.506.506-1.182,3.683-4.473,6.974-2.611,2.612-4.328,2.5-4.667,2.166s-.446-2.056,2.165-4.668C6131.8-575.416,6134.976-577.1,6135.482-576.6Z" transform="translate(-5818.322 1331.282)" fill="#5b4e47"/>
    <path id="Path_2104" data-name="Path 2104" d="M6150.821-569.731a10.251,10.251,0,0,1-10.251,10.25,10.25,10.25,0,0,1-10.25-10.25" transform="translate(-5818.322 1331.282)" fill="none" stroke="#ebe3d4" stroke-linecap="round" stroke-linejoin="round" stroke-width="1.697"/>
    <rect id="Rectangle_2638" data-name="Rectangle 2638" width="13.445" height="45.102" transform="translate(238.81 890.341)" fill="#ebe3d4"/>
    <rect id="Rectangle_2639" data-name="Rectangle 2639" width="13.445" height="3.518" transform="translate(238.81 923.607)" fill="#5b4e47"/>
    <rect id="Rectangle_2640" data-name="Rectangle 2640" width="13.445" height="3.518" transform="translate(238.81 928.405)" fill="#5b4e47"/>
    <rect id="Rectangle_2641" data-name="Rectangle 2641" width="13.445" height="3.518" transform="translate(238.81 893.862)" fill="#5b4e47"/>
    <rect id="Rectangle_2642" data-name="Rectangle 2642" width="13.445" height="3.518" transform="translate(238.81 898.659)" fill="#5b4e47"/>
    <rect id="Rectangle_2643" data-name="Rectangle 2643" width="15.178" height="54.018" transform="translate(326.803 920.265) rotate(90)" fill="#5b4e47"/>
    <rect id="Rectangle_2644" data-name="Rectangle 2644" width="15.178" height="5.634" transform="translate(282.636 920.265) rotate(90)" fill="#ebe3d4"/>
    <rect id="Rectangle_2645" data-name="Rectangle 2645" width="15.178" height="5.634" transform="translate(322.587 920.265) rotate(90)" fill="#ebe3d4"/>
    <rect id="Rectangle_2646" data-name="Rectangle 2646" width="7.155" height="45.102" transform="translate(263.064 890.341)" fill="#fffcf0"/>
    <rect id="Rectangle_2647" data-name="Rectangle 2647" width="7.155" height="15.385" transform="translate(263.064 905.2)" fill="#5b4e47"/>
    <rect id="Rectangle_2648" data-name="Rectangle 2648" width="7.155" height="33.266" transform="translate(254.082 902.178)" fill="#5b4e47"/>
    <rect id="Rectangle_2649" data-name="Rectangle 2649" width="7.155" height="3.894" transform="translate(254.082 902.178)" fill="#fffcf0"/>
    <rect id="Rectangle_2650" data-name="Rectangle 2650" width="7.155" height="3.894" transform="translate(254.082 931.549)" fill="#fffcf0"/>
    <ellipse id="Ellipse_155" data-name="Ellipse 155" cx="2.298" cy="4.651" rx="2.298" ry="4.651" transform="translate(255.361 914.159)" fill="#fffcf0"/>
    <rect id="Rectangle_2651" data-name="Rectangle 2651" width="4.577" height="18.426" transform="translate(309.007 925.565) rotate(90)" fill="#fffcf0"/>
    <rect id="Rectangle_2652" data-name="Rectangle 2652" width="104.806" height="7.78" transform="translate(231.132 935.443)" fill="#9d9591"/>
  </g>
</svg>
