<svg xmlns="http://www.w3.org/2000/svg" width="154.577" height="392.917" viewBox="0 0 154.577 392.917">
  <g id="Group_4550" data-name="Group 4550" transform="translate(-740.29 -708)">
    <path id="Path_2049" data-name="Path 2049" d="M6698.609-577.749c-14.914,0-14.579,38.924-14.579,45.144h0a14.581,14.581,0,0,0,14.58,14.58,14.58,14.58,0,0,0,14.58-14.58C6713.189-538.825,6713.524-577.749,6698.609-577.749Z" transform="translate(-5818.322 1331.282)" fill="#ada6a3"/>
    <path id="Path_2050" data-name="Path 2050" d="M6698.609-577.749c-.021,0-.042,0-.063,0v59.72h.063a14.58,14.58,0,0,0,14.58-14.58C6713.189-538.825,6713.524-577.749,6698.609-577.749Z" transform="translate(-5818.322 1331.282)" fill="#9d9591"/>
    <rect id="Rectangle_2621" data-name="Rectangle 2621" width="4.688" height="4.688" transform="translate(877.879 812.552)" fill="#7c716c"/>
    <path id="Rectangle_2622" data-name="Rectangle 2622" d="M3.01,0H8.026a3.01,3.01,0,0,1,3.01,3.01V39.158a5.518,5.518,0,0,1-5.518,5.518h0A5.518,5.518,0,0,1,0,39.158V3.01A3.01,3.01,0,0,1,3.01,0Z" transform="translate(874.77 816.364)" fill="#efe9dd"/>
    <line id="Line_520" data-name="Line 520" y1="19.979" transform="translate(877.879 781.824)" fill="none" stroke="#7c716c" stroke-linecap="round" stroke-linejoin="round" stroke-width="3.01"/>
    <line id="Line_521" data-name="Line 521" y1="19.979" transform="translate(882.567 781.824)" fill="none" stroke="#7c716c" stroke-linecap="round" stroke-linejoin="round" stroke-width="3.01"/>
    <path id="Path_2051" data-name="Path 2051" d="M6701.117-514.918h-2.571v44.673l.063,0a5.518,5.518,0,0,0,5.518-5.518v-36.149A3.009,3.009,0,0,0,6701.117-514.918Z" transform="translate(-5818.322 1331.282)" fill="#ebe3d4"/>
    <rect id="Rectangle_2623" data-name="Rectangle 2623" width="4.688" height="4.688" transform="translate(842.748 927.799) rotate(90)" fill="#7c716c"/>
    <path id="Path_2052" data-name="Path 2052" d="M6674.945-415.719a14.58,14.58,0,0,0-14.581,14.58,14.581,14.581,0,0,0,14.581,14.58c6.991,0,29.116-1.6,32.005-1.94,3.377-.4,3.912-1,3.912-1.706,0-2.006-19.462-1.479-30.3-1.88a3.223,3.223,0,0,1-3.223-3.223,3.223,3.223,0,0,1,3.223-3.223c4.815,0,25.681-1.1,27.086-1.3s3.21-.3,3.21-1.3-1.806-1.1-3.21-1.3-22.271-1.3-27.086-1.3a3.223,3.223,0,0,1-3.223-3.223,3.222,3.222,0,0,1,3.223-3.222c10.834-.4,30.3.125,30.3-1.881,0-.7-.535-1.3-3.912-1.7-2.889-.344-25.014-1.94-32.005-1.94" transform="translate(-5818.322 1331.282)" fill="#ada6a3"/>
    <path id="Rectangle_2624" data-name="Rectangle 2624" d="M3.01,0H8.026a3.01,3.01,0,0,1,3.01,3.01V39.158a5.518,5.518,0,0,1-5.518,5.518h0A5.518,5.518,0,0,1,0,39.158V3.01A3.01,3.01,0,0,1,3.01,0Z" transform="translate(838.936 924.625) rotate(90)" fill="#efe9dd"/>
    <path id="Path_2053" data-name="Path 2053" d="M6710.862-390.2c0-2.007-19.462-1.48-30.3-1.881a3.223,3.223,0,0,1-3.223-3.223,3.223,3.223,0,0,1,3.223-3.223c4.815,0,25.681-1.1,27.086-1.3,1.374-.2,3.127-.3,3.2-1.242h-50.489a14.58,14.58,0,0,0,14.579,14.518c6.991,0,29.116-1.6,32.005-1.94C6710.327-388.9,6710.862-389.5,6710.862-390.2Z" transform="translate(-5818.322 1331.282)" fill="#9d9591"/>
    <path id="Path_2054" data-name="Path 2054" d="M6657.258-398.631v-2.446h-44.673a5.516,5.516,0,0,0,5.515,5.455h36.148A3.009,3.009,0,0,0,6657.258-398.631Z" transform="translate(-5818.322 1331.282)" fill="#ebe3d4"/>
    <rect id="Rectangle_2625" data-name="Rectangle 2625" width="20.568" height="17.433" transform="translate(772.541 768.972)" fill="#9d9591"/>
    <rect id="Rectangle_2626" data-name="Rectangle 2626" width="6.667" height="17.433" transform="translate(786.441 768.972)" fill="#ada6a3"/>
    <path id="Path_2055" data-name="Path 2055" d="M6616.5-603.434a9.924,9.924,0,0,1-9.924-9.924,9.924,9.924,0,0,1,9.924-9.924h-15.353v54.223H6616.5a17.187,17.187,0,0,0,17.188-17.188A17.187,17.187,0,0,0,6616.5-603.434Z" transform="translate(-5818.322 1331.282)" fill="#7c716c"/>
    <path id="Path_2056" data-name="Path 2056" d="M6585.793-603.434a9.924,9.924,0,0,0,9.924-9.924,9.924,9.924,0,0,0-9.924-9.924h15.354v54.223h-15.354a17.187,17.187,0,0,1-17.187-17.188A17.187,17.187,0,0,1,6585.793-603.434Z" transform="translate(-5818.322 1331.282)" fill="#5b4e47"/>
    <rect id="Rectangle_2627" data-name="Rectangle 2627" width="85.069" height="7.592" transform="translate(740.29 762.223)" fill="#efe9dd"/>
    <rect id="Rectangle_2628" data-name="Rectangle 2628" width="70.85" height="7.592" transform="translate(740.29 762.223)" fill="#ebe3d4"/>
    <rect id="Rectangle_2632" data-name="Rectangle 2632" width="30.684" height="14.126" transform="translate(792.706 1047.725)" fill="#7c716c"/>
    <rect id="Rectangle_2633" data-name="Rectangle 2633" width="73.995" height="119.025" rx="4.485" transform="translate(748.535 1048.87) rotate(-90)" fill="#5b4e46"/>
    <rect id="Rectangle_2634" data-name="Rectangle 2634" width="4.784" height="43.885" transform="translate(786.105 1065.102) rotate(-90)" fill="#5b4e46"/>
    <rect id="Rectangle_2635" data-name="Rectangle 2635" width="58.715" height="108.253" transform="translate(753.921 1039.398) rotate(-90)" fill="#ebe3d4"/>
    <path id="Path_2105" data-name="Path 2105" d="M6680.5-350.6v58.715H6572.243" transform="translate(-5818.322 1331.282)" fill="#efe9dd"/>
    <circle id="Ellipse_154" data-name="Ellipse 154" cx="2.177" cy="2.177" r="2.177" transform="translate(805.871 1041.72)" fill="#7c716c"/>
    <path id="Path_2106" data-name="Path 2106" d="M6626.37-305.5a15.676,15.676,0,0,1-15.612-15.741,15.677,15.677,0,0,1,15.612-15.74,15.676,15.676,0,0,1,15.612,15.74A15.676,15.676,0,0,1,6626.37-305.5" transform="translate(-5818.322 1331.282)" fill="#aece5a"/>
    <path id="Path_2107" data-name="Path 2107" d="M6634.807-326.338l-3.381-3.41-5.056,5.1-2.454-2.474-3.381,3.41,2.455,2.474,2.835,2.859.545.551,2.531-2.553Z" transform="translate(-5818.322 1331.282)" fill="#5b4e47"/>
    <path id="Rectangle_2636" data-name="Rectangle 2636" d="M0,0H48.238a0,0,0,0,1,0,0V9.387a18.53,18.53,0,0,1-18.53,18.53H18.53A18.53,18.53,0,0,1,0,9.387V0A0,0,0,0,1,0,0Z" transform="translate(830.164 1073.001)" fill="#efe9dd"/>
    <path id="Path_2108" data-name="Path 2108" d="M6700.695-256.767a11.1,11.1,0,0,0-11.1,11.1,11.1,11.1,0,0,0,11.1,11.1,11.1,11.1,0,0,0,11.1-11.1A11.1,11.1,0,0,0,6700.695-256.767Zm0,18.074a6.971,6.971,0,0,1-6.97-6.97,6.971,6.971,0,0,1,6.97-6.971,6.971,6.971,0,0,1,6.971,6.971A6.971,6.971,0,0,1,6700.695-238.693Z" transform="translate(-5818.322 1331.282)" fill="#ebe3d4"/>
    <path id="Path_2109" data-name="Path 2109" d="M6671.863-267.4a6.059,6.059,0,0,1-6.059-6.059,6.059,6.059,0,0,1,6.059-6.059" transform="translate(-5818.322 1331.282)" fill="#ebe3d4" opacity="0.5"/>
    <path id="Path_2110" data-name="Path 2110" d="M6671.863-300.51a10.5,10.5,0,0,1,10.494,10.494,10.494,10.494,0,0,1-10.494,10.494" transform="translate(-5818.322 1331.282)" fill="#ebe3d4" opacity="0.5"/>
    <path id="Path_2111" data-name="Path 2111" d="M6678.194-230.365a18.53,18.53,0,0,0,18.53-18.53v-9.387h-23.382v27.917Z" transform="translate(-5818.322 1331.282)" fill="#ebe3d4"/>
    <path id="Path_2112" data-name="Path 2112" d="M6677.328-249.988l-8.44,8.1c1.728,1.1,4.533.509,6.649-1.522S6678.359-248.216,6677.328-249.988Z" transform="translate(-5818.322 1331.282)" fill="#5b4e47"/>
    <path id="Path_2113" data-name="Path 2113" d="M6676.322-251.036c-1.728-1.1-4.533-.509-6.649,1.521s-2.822,4.81-1.791,6.582Z" transform="translate(-5818.322 1331.282)" fill="#5b4e47"/>
    <path id="Rectangle_2637" data-name="Rectangle 2637" d="M12.147,0h7.328A12.147,12.147,0,0,1,31.622,12.147V18.3a0,0,0,0,1,0,0H0a0,0,0,0,1,0,0V12.147A12.147,12.147,0,0,1,12.147,0Z" transform="translate(821.547 1095.063) rotate(-180)" fill="#efe9dd"/>
    <path id="Path_2114" data-name="Path 2114" d="M6598.365-246.248a7.279,7.279,0,0,0,7.279,7.279,7.279,7.279,0,0,0,7.279-7.279,7.279,7.279,0,0,0-7.279-7.279A7.279,7.279,0,0,0,6598.365-246.248Zm2.71,0a4.568,4.568,0,0,1,4.569-4.569,4.568,4.568,0,0,1,4.569,4.569,4.568,4.568,0,0,1-4.569,4.569A4.568,4.568,0,0,1,6601.075-246.248Z" transform="translate(-5818.322 1331.282)" fill="#efe9dd"/>
    <path id="Path_2115" data-name="Path 2115" d="M6627.722-236.22a12.146,12.146,0,0,0,12.147-12.146v-6.154h-15.328v18.3Z" transform="translate(-5818.322 1331.282)" fill="#ebe3d4"/>
    <path id="Path_2116" data-name="Path 2116" d="M6621.637-260.5a3.971,3.971,0,0,1-3.971-3.972,3.972,3.972,0,0,1,3.971-3.972" transform="translate(-5818.322 1331.282)" fill="#ebe3d4" opacity="0.5"/>
    <path id="Path_2117" data-name="Path 2117" d="M6621.637-282.2a6.879,6.879,0,0,1,6.879,6.879,6.878,6.878,0,0,1-6.879,6.879" transform="translate(-5818.322 1331.282)" fill="#ebe3d4" opacity="0.5"/>
    <path id="Path_2118" data-name="Path 2118" d="M6620.962-249.083l5.533,5.312c-1.133.722-2.972.333-4.359-1S6620.286-247.922,6620.962-249.083Z" transform="translate(-5818.322 1331.282)" fill="#5b4e47"/>
    <path id="Path_2119" data-name="Path 2119" d="M6621.621-249.77c1.133-.722,2.972-.334,4.359,1s1.85,3.153,1.174,4.314Z" transform="translate(-5818.322 1331.282)" fill="#5b4e47"/>
  </g>
</svg>
