<?xml version="1.0" encoding="UTF-8" standalone="no"?>
<svg width="210px" height="62px" viewBox="0 0 210 62" version="1.1" xmlns="http://www.w3.org/2000/svg" xmlns:xlink="http://www.w3.org/1999/xlink">
    <!-- Generator: Sketch 47.1 (45422) - http://www.bohemiancoding.com/sketch -->
    <title>logo/header</title>
    <desc>Created with Sketch.</desc>
    <defs>
        <polygon id="path-1" points="47.4053434 62 0.000362264151 62 0.000362264151 0.545417647 47.4053434 0.545417647 47.4053434 62"></polygon>
    </defs>
    <g id="Symbols" stroke="none" stroke-width="1" fill="none" fill-rule="evenodd">
        <g id="logo/header">
            <g id="Page-1-Copy-2">
                <path d="M66,18 L75.9995535,18 C82.6662201,18 86,21.1201953 86,27.3624134 C86,30.5940769 85.1560616,32.9970384 83.469971,34.5703844 C81.7829873,36.1455577 79.3333333,36.9322306 76.1210092,36.9322306 L71.1404331,36.9322306 L71.1404331,47 L66,47 L66,18 Z M75.518196,32.5 C77.2846618,32.5 78.6028131,32.0861059 79.4726501,31.2574039 C80.3433802,30.4296156 80.7782987,29.157782 80.7782987,27.4455577 C80.7782987,25.734247 80.3371288,24.4697227 79.453896,23.6547259 C78.56977,22.839729 77.2176825,22.4322306 75.3976334,22.4322306 L71.1404331,22.4322306 L71.1404331,32.5 L75.518196,32.5 Z" id="Fill-1" fill="#5B4E46"></path>
                <path d="M91.3915146,46.4631903 C90.4641605,45.43896 90,44.1129393 90,42.4841995 L90,16 L95.3919981,16 L95.3919981,40.3363803 C95.3919981,41.4599692 95.4577541,42.2529816 95.5873323,42.7154174 C95.7178774,43.1787818 95.9489907,43.4601434 96.2835731,43.5576449 C96.6162214,43.6570036 97.1896531,43.70529 98,43.70529 L97.5232685,48 L95.5660583,48 C93.7103832,48 92.3179016,47.4883491 91.3915146,46.4631903" id="Fill-3" fill="#5B4E46"></path>
                <path d="M100.691911,45.3584809 C99.5630637,44.2632408 99,42.783549 99,40.9194057 C99,39.1625511 99.6383202,37.7508089 100.916774,36.682391 C102.194321,35.6148672 103.702171,34.8584809 105.442138,34.4123382 C107.181198,33.9661955 108.853162,33.716749 110.458029,33.6622105 C110.40272,32.4730926 110.096254,31.6219346 109.540444,31.1078423 C108.981914,30.5955381 108.064328,30.338045 106.788595,30.338045 C105.89005,30.338045 105.014173,30.4587449 104.157337,30.7019329 C103.301408,30.946015 102.31582,31.3385133 101.201479,31.8776396 L100.753567,27.7836768 C103.226151,26.5945589 105.699642,26 108.17404,26 C110.565927,26 112.393844,26.6482033 113.658697,27.9463982 C114.921737,29.2436989 115.55371,31.310797 115.55371,34.1494806 L115.55371,39.6221049 C115.55371,40.6485014 115.600859,41.3843239 115.69697,41.8313607 C115.791267,42.2775034 115.954474,42.5609247 116.185684,42.6825187 C116.416893,42.8041127 116.804056,42.8649097 117.348986,42.8649097 L118,42.8649097 L117.552088,47 L115.717824,47 C114.602577,47 113.665044,46.7907868 112.903412,46.3714663 C112.142687,45.9530399 111.557862,45.3781505 111.150752,44.6485865 C110.497017,45.3781505 109.606633,45.9530399 108.479599,46.3714663 C107.350752,46.7907868 106.162062,47 104.911716,47 C103.226151,47 101.818945,46.452827 100.691911,45.3584809 M108.785159,42.7638794 C109.437986,42.5072803 110.008304,42.1478627 110.497017,41.689203 L110.497017,37.0677367 C108.866762,37.1490974 107.426008,37.5004683 106.176569,38.1218495 C104.925316,38.7441247 104.300597,39.6077997 104.300597,40.7155569 C104.300597,41.5541979 104.517299,42.1684264 104.952517,42.5609247 C105.387736,42.953423 106.080458,43.1483311 107.031592,43.1483311 C107.547507,43.1483311 108.134145,43.0204785 108.785159,42.7638794" id="Fill-5" fill="#5B4E46"></path>
                <path d="M123.053927,45.6070065 C121.376493,44.678938 120.115597,43.4195436 119.270299,41.8306048 C118.425,40.2434473 118,38.4790483 118,36.5409704 C118,34.575282 118.425,32.7921792 119.270299,31.1889897 C120.115597,29.5884723 121.384015,28.3228433 123.075553,27.3938841 C124.76615,26.4640343 126.823451,26 129.248396,26 C131.418529,26 133.306582,26.4310798 134.915376,27.2932395 L134.492257,31.3306048 C132.969967,30.5771058 131.390321,30.1994656 129.756139,30.1994656 C127.754314,30.1994656 126.189712,30.7792858 125.062334,31.9362541 C123.934956,33.0941132 123.370796,34.6287217 123.370796,36.5409704 C123.370796,38.3712783 123.94906,39.8854016 125.105586,41.0833404 C126.260232,42.2812792 127.796626,42.8806939 129.712887,42.8806939 C131.319801,42.8806939 132.926715,42.4362541 134.533628,41.5482653 L135,45.7887013 C134.238385,46.1663415 133.343252,46.4611502 132.314602,46.6775808 C131.285011,46.8931207 130.206527,47 129.079148,47 C126.739768,47 124.731361,46.5350751 123.053927,45.6070065" id="Fill-7" fill="#5B4E46"></path>
                <path d="M141.059318,45.5605416 C139.366449,44.6012006 138.098864,43.317311 137.259318,41.7088726 C136.418854,40.1022224 136,38.310499 136,36.3381727 C136,34.4454189 136.397728,32.7153866 137.196858,31.1480756 C137.995987,29.5807646 139.152429,28.3308498 140.667102,27.3983311 C142.181774,26.4667064 143.984868,26 146.078221,26 C148.005318,26 149.636645,26.3924983 150.972202,27.1757067 C152.308678,27.9589152 153.313561,29.013922 153.988687,30.3371509 C154.662896,31.6612738 155,33.1490123 155,34.7958958 C155,35.6077146 154.889775,36.5268222 154.669326,37.5532187 L141.328451,37.5532187 C141.602175,39.3377895 142.319555,40.6690651 143.475997,41.5470453 C144.632439,42.4259196 146.023109,42.8649097 147.648006,42.8649097 C149.878221,42.8649097 151.943099,42.3105841 153.843558,41.2019329 L154.091564,45.4586172 C153.210684,45.918171 152.183756,46.2892115 151.013536,46.5735269 C149.843316,46.8578423 148.57022,47 147.193328,47 C144.797776,47 142.753106,46.5198825 141.059318,45.5605416 L141.059318,45.5605416 Z M149.795552,34.1476924 C149.795552,33.0953678 149.492434,32.161955 148.887116,31.3519244 C148.28088,30.5401056 147.344888,30.1350903 146.078221,30.1350903 C144.810636,30.1350903 143.791975,30.4998723 143.02132,31.2294363 C142.250665,31.9581063 141.727097,32.9317524 141.451535,34.1476924 L149.795552,34.1476924 Z" id="Fill-9" fill="#5B4E46"></path>
                <path d="M163.935535,45.1451637 C161.738503,43.9083033 160.034297,42.1561601 158.819319,39.8905516 C157.60614,37.6240344 157,34.9949108 157,31.9986368 C157,29.0323529 157.626824,26.416861 158.880473,24.149435 C160.133222,21.8838266 161.873401,20.1262307 164.098312,18.8748296 C166.322324,17.6252461 168.849405,17 171.680456,17 C174.40269,17 176.842538,17.5634485 179,18.6912544 L178.43343,23.7177607 C177.275109,23.1961164 176.162654,22.790797 175.097862,22.5008936 C174.032171,22.2137166 172.880146,22.0683106 171.639088,22.0683106 C168.754977,22.0683106 166.53816,22.975281 164.987737,24.7892218 C163.436414,26.601345 162.662102,29.005998 162.662102,31.9986368 C162.662102,34.9949108 163.422924,37.3977462 164.947267,39.2107782 C166.468912,41.024719 168.660549,41.9307806 171.519478,41.9307806 C172.785717,41.9307806 173.951232,41.7935537 175.016924,41.5181909 C176.081715,41.2446457 177.220251,40.832056 178.43343,40.2822393 L179,45.3105631 C176.65458,46.4365515 174.160773,47 171.519478,47 C168.660549,47 166.133467,46.3802066 163.935535,45.1451637" id="Fill-11" fill="#5B4E46"></path>
                <path d="M182.692737,45.3584809 C181.563944,44.2632408 181,42.783549 181,40.9194057 C181,39.1625511 181.639196,37.7508089 182.917589,36.682391 C184.195075,35.6148672 185.702854,34.8584809 187.442737,34.4123382 C189.181714,33.9661955 190.853598,33.716749 192.458389,33.6622105 C192.403083,32.4730926 192.096631,31.6219346 191.540847,31.1078423 C190.982344,30.5955381 190.064802,30.338045 188.78913,30.338045 C187.890628,30.338045 187.014793,30.4587449 186.157998,30.7019329 C185.303016,30.946015 184.316568,31.3385133 183.202281,31.8776396 L182.753483,27.7836768 C185.227763,26.5945589 187.700229,26 190.174508,26 C192.566282,26 194.395018,26.6482033 195.658904,27.9463982 C196.921884,29.2436989 197.554734,31.310797 197.554734,34.1494806 L197.554734,39.6221049 C197.554734,40.6485014 197.60188,41.3843239 197.69708,41.8313607 C197.792279,42.2775034 197.954571,42.5609247 198.186677,42.6825187 C198.416969,42.8041127 198.804113,42.8649097 199.349017,42.8649097 L200,42.8649097 L199.553016,47 L197.717933,47 C196.602739,47 195.665251,46.7907868 194.904562,46.3714663 C194.142966,45.9530399 193.558169,45.3781505 193.151078,44.6485865 C192.498282,45.3781505 191.60794,45.9530399 190.480053,46.3714663 C189.352166,46.7907868 188.162626,47 186.913247,47 C185.227763,47 183.819718,46.452827 182.692737,45.3584809 M190.785598,42.7638794 C191.438395,42.5072803 192.008685,42.1478627 192.498282,41.689203 L192.498282,37.0677367 C190.867198,37.1490974 189.427419,37.5004683 188.177133,38.1218495 C186.92594,38.7441247 186.30125,39.6077997 186.30125,40.7155569 C186.30125,41.5541979 186.518849,42.1684264 186.95314,42.5609247 C187.387431,42.953423 188.081027,43.1483311 189.033022,43.1483311 C189.548912,43.1483311 190.134615,43.0204785 190.785598,42.7638794" id="Fill-13" fill="#5B4E46"></path>
                <path d="M203.391515,46.4631903 C202.463194,45.43896 202,44.1129393 202,42.4841995 L202,16 L207.391031,16 L207.391031,40.3363803 C207.391031,41.4599692 207.457754,42.2529816 207.586365,42.7154174 C207.717877,43.1787818 207.948991,43.4601434 208.283573,43.5576449 C208.615254,43.6570036 209.189653,43.70529 210,43.70529 L209.523268,48 L207.566058,48 C205.710383,48 204.318869,47.4883491 203.391515,46.4631903" id="Fill-15" fill="#5B4E46"></path>
                <polygon id="Fill-17" fill="#5B4E46" points="32 20.1475194 28.9204405 17 24.3154164 21.7049613 22.0795595 19.4222845 19 22.5688973 21.2358568 24.8524806 23.8179628 27.491429 24.3154164 28 26.6201652 25.6429866"></polygon>
                <g id="Group-21">
                    <mask id="mask-2" fill="white">
                        <use xlink:href="#path-1"></use>
                    </mask>
                    <g id="Clip-20"></g>
                    <path d="M23.7024,0.545417647 C10.6128906,0.545417647 0.000362264151,11.3170059 0.000362264151,24.6059765 C0.000362264151,45.6595353 23.7024,62.0001824 23.7024,62.0001824 C23.7024,62.0001824 47.4053434,45.6595353 47.4053434,24.6059765 C47.4053434,11.3170059 36.7928151,0.545417647 23.7024,0.545417647 M23.7024,39.2160941 C15.7525132,39.2160941 9.30783396,32.6760059 9.30783396,24.6059765 C9.30783396,16.5368588 15.7525132,9.99494706 23.7024,9.99494706 C31.6522868,9.99494706 38.096966,16.5368588 38.096966,24.6059765 C38.096966,32.6760059 31.6522868,39.2160941 23.7024,39.2160941" id="Fill-19" fill="#F19089" mask="url(#mask-2)"></path>
                </g>
            </g>
        </g>
    </g>
</svg>