<?xml version="1.0" encoding="UTF-8"?>
<svg width="1822px" height="660px" viewBox="0 0 1822 660" version="1.1" xmlns="http://www.w3.org/2000/svg" xmlns:xlink="http://www.w3.org/1999/xlink">
    <!-- Generator: Sketch 51.2 (57519) - http://www.bohemiancoding.com/sketch -->
    <title>regions/mossley/background</title>
    <desc>Created with Sketch.</desc>
    <defs></defs>
    <g id="regions/mossley/background" stroke="none" stroke-width="1" fill="none" fill-rule="evenodd">
        <path d="M219.595737,145.432 C201.772737,145.432 184.026737,141.805 166.865737,138.296 C163.243737,137.556 160.197737,136.536 157.250737,135.548 C154.276737,134.551 151.200737,133.521 147.518737,132.768 C131.671737,127.592 119.048737,112.891 113.808737,93.456 C109.063737,75.859 113.838737,55.702 125.971737,42.102 C132.837737,34.407 141.913737,28.668 149.880737,23.893 C161.281737,17.062 173.682737,10.289 187.116737,7.018 C192.493737,5.709 197.867737,5.046 203.091737,5.046 C211.969737,5.046 219.968737,6.929 226.866737,10.642 C229.236737,11.918 231.632737,13.47 233.949737,14.971 C239.928737,18.844 246.109737,22.849 252.826737,22.849 C253.900737,22.849 254.977737,22.745 256.027737,22.541 C260.639737,21.645 264.498737,18.778 268.230737,16.005 C268.769737,15.605 269.307737,15.204 269.845737,14.813 C282.762737,5.4 298.944737,0 314.244737,0 C327.698737,0 339.560737,4.148 348.547737,11.994 C351.227737,14.333 353.714737,17.045 356.120737,19.667 C360.669737,24.626 365.374737,29.755 371.589737,32.594 C375.528737,34.393 379.999737,35.267 385.257737,35.267 C390.598737,35.267 396.132737,34.375 401.484737,33.513 C403.640737,33.165 405.870737,32.807 408.030737,32.516 C410.550737,32.178 413.069737,32.006 415.518737,32.006 C422.515737,32.006 435.002737,33.487 440.017737,43.403 C444.317737,51.906 440.318737,62.443 434.146737,68.457 C427.265737,75.163 417.715737,78.263 409.280737,80.411 C394.352737,84.21 378.958737,86.137 363.525737,86.137 C360.777737,86.137 357.995737,86.075 355.255737,85.953 C353.011737,85.851 350.747737,85.713 348.476737,85.575 C344.095737,85.308 339.564737,85.032 335.137737,85.032 C325.514737,85.032 318.418737,86.345 312.127737,89.291 C305.657737,92.322 299.701737,97.367 293.921737,104.713 C292.128737,106.994 290.424737,109.397 288.777737,111.721 C286.336737,115.165 283.811737,118.726 280.967737,121.919 C268.790737,135.592 249.600737,143.867 226.933737,145.218 C224.550737,145.36 222.081737,145.432 219.595737,145.432" id="Fill-18" stroke="#000000" fill="#FFFFFF"></path>
        <path d="M1538.16103,659.481645 C1526.70465,659.481645 1515.29777,657.150261 1504.26692,654.894725 C1501.93875,654.419063 1499.98083,653.763421 1498.08654,653.128349 C1496.17489,652.487491 1494.19768,651.825422 1491.83094,651.341404 C1481.64472,648.014344 1473.53083,638.564748 1470.16263,626.072203 C1467.11261,614.761099 1470.18191,601.804463 1477.98084,593.062574 C1482.3942,588.116336 1488.22813,584.427387 1493.34921,581.358085 C1500.67761,576.967214 1508.6488,572.613625 1517.28398,570.511072 C1520.74024,569.669665 1524.19457,569.243498 1527.55249,569.243498 C1533.25914,569.243498 1538.40079,570.453864 1542.83472,572.840528 C1544.35813,573.660723 1545.89824,574.658327 1547.38758,575.623148 C1551.23079,578.112658 1555.20385,580.687016 1559.52145,580.687016 C1560.2118,580.687016 1560.90408,580.620166 1561.579,580.489038 C1564.54353,579.913102 1567.02404,578.070234 1569.42292,576.287789 C1569.76938,576.030675 1570.1152,575.772917 1570.46102,575.521588 C1578.76389,569.471044 1589.16545,566 1599.00007,566 C1607.64812,566 1615.27284,568.666276 1621.04956,573.709575 C1622.77223,575.213051 1624.37084,576.956286 1625.91738,578.641671 C1628.84141,581.829247 1631.86572,585.126096 1635.86063,586.950965 C1638.39257,588.107337 1641.26646,588.669132 1644.64623,588.669132 C1648.07935,588.669132 1651.63653,588.095767 1655.07672,587.541685 C1656.46257,587.317996 1657.89598,587.087878 1659.2844,586.900828 C1660.90422,586.683566 1662.52339,586.573007 1664.09758,586.573007 C1668.59515,586.573007 1676.62162,587.524973 1679.84519,593.898838 C1682.60917,599.364447 1680.03867,606.137483 1676.07139,610.003197 C1671.64838,614.31372 1665.50978,616.306356 1660.08788,617.68706 C1650.49237,620.129004 1640.59732,621.367653 1630.67721,621.367653 C1628.91083,621.367653 1627.1226,621.3278 1625.36137,621.24938 C1623.91896,621.183816 1622.46369,621.095111 1621.00392,621.006407 C1618.18788,620.834783 1615.27541,620.657374 1612.4298,620.657374 C1606.24427,620.657374 1601.68306,621.501352 1597.6393,623.395 C1593.48047,625.343284 1589.65204,628.586139 1585.93674,633.308044 C1584.78422,634.774239 1583.68891,636.318854 1582.63024,637.812688 C1581.0612,640.026443 1579.43817,642.315404 1577.61009,644.367819 C1569.78288,653.156631 1557.44782,658.475685 1542.87779,659.344089 C1541.34603,659.435365 1539.75899,659.481645 1538.16103,659.481645" id="Fill-18-Copy" stroke="#000000" fill="#FFFFFF"></path>
        <path d="M1557.1442,305.914 C1554.1512,305.914 1551.1912,305.622 1548.3462,305.044 C1542.0832,303.773 1536.0602,301.081 1530.2352,298.478 C1522.8332,295.171 1515.1792,291.751 1506.9672,291.218 C1506.1832,291.167 1505.3682,291.142 1504.5442,291.142 C1499.7262,291.142 1494.8832,292.018 1490.2012,292.866 C1488.5502,293.166 1486.8992,293.465 1485.2492,293.726 C1481.7562,294.282 1478.7482,294.552 1476.0532,294.552 C1471.4072,294.552 1467.5102,293.766 1464.1402,292.147 C1457.5322,288.977 1453.5052,280.655 1455.5222,274.341 L1455.5392,274.29 L1455.5442,274.238 C1457.0932,258.663 1472.7602,245 1489.0712,245 C1491.7222,245 1494.3122,245.371 1496.7692,246.101 C1499.6862,246.969 1502.5192,248.272 1505.2592,249.532 C1507.9252,250.76 1510.6832,252.028 1513.5452,252.912 C1517.2842,254.066 1521.3022,254.628 1525.8292,254.628 C1532.7372,254.628 1539.8082,253.304 1546.6442,252.023 C1547.9332,251.782 1549.2172,251.541 1550.4962,251.31 C1556.7362,250.183 1561.7582,249.658 1566.3002,249.658 C1574.4102,249.658 1580.8992,251.365 1586.1402,254.876 C1591.9982,258.801 1596.7122,265.467 1600.1512,274.687 C1600.9732,276.892 1601.8272,279.459 1601.5482,282.031 C1601.0512,286.634 1597.1202,290.095 1593.7502,292.596 C1582.1762,301.184 1569.1762,305.914 1557.1442,305.914" id="Fill-14" stroke="#000000" fill="#FFFFFF"></path>
        <path d="M133.078155,345.361557 C129.178737,345.361557 125.322313,344.981126 121.615716,344.228081 C113.455992,342.572164 105.608951,339.064902 98.0198739,335.673594 C88.3762084,331.365083 78.4042256,326.90935 67.7052549,326.214933 C66.6838237,326.148488 65.6220043,326.115917 64.5484592,326.115917 C58.2713476,326.115917 51.9616647,327.25721 45.8617401,328.362023 C43.7107415,328.752877 41.5597429,329.142428 39.4100471,329.482471 C34.8592063,330.206853 30.9402457,330.558621 27.429076,330.558621 C21.3760538,330.558621 16.2988632,329.534584 11.9082725,327.425277 C3.29906658,323.295255 -1.94749396,312.452971 0.680346269,304.226802 L0.70249465,304.160357 L0.70900888,304.092609 C2.72711722,283.800784 23.1388043,266 44.3895242,266 C47.8433688,266 51.2177397,266.483356 54.4188322,267.434433 C58.2192337,268.565304 61.9101962,270.262912 65.4799941,271.904498 C68.9533813,273.504393 72.5466304,275.156401 76.2753754,276.308117 C81.1467163,277.811601 86.3815512,278.543801 92.2795348,278.543801 C101.279594,278.543801 110.492018,276.818833 119.398273,275.149887 C121.077641,274.835901 122.750495,274.521915 124.416835,274.220958 C132.546594,272.75265 139.089486,272.068656 145.007012,272.068656 C155.573093,272.068656 164.02726,274.292614 170.855475,278.866906 C178.487547,283.980577 184.629162,292.665348 189.10965,304.677587 C190.180589,307.550362 191.293219,310.894768 190.929725,314.245687 C190.282211,320.242687 185.160724,324.751837 180.770133,328.010255 C165.690994,339.199095 148.753997,345.361557 133.078155,345.361557" id="Fill-14-Copy" stroke="#000000" fill="#FFFFFF"></path>
        <path d="M253.571332,535.594 C247.498332,535.595 242.237332,533.991 237.934332,530.828 C236.208332,529.56 234.624332,528.018 233.092332,526.527 C230.907332,524.4 228.647332,522.199 225.903332,520.708 C222.819332,519.033 219.299332,518.252 214.825332,518.252 C211.679332,518.252 208.410332,518.641 205.249332,519.017 C202.948332,519.29 200.570332,519.573 198.283332,519.698 C197.835332,519.723 197.384332,519.736 196.935332,519.736 C191.206332,519.736 185.960332,517.818 182.904332,514.607 C180.955332,512.559 179.979332,510.109 180.000332,507.318 C180.172332,507.324 180.342332,507.327 180.513332,507.327 C190.213332,507.327 197.658332,496.143 199.738332,485.618 C201.843332,474.97 204.886332,463.417 214.401332,461.124 C215.493332,460.861 216.675332,460.733 218.017332,460.733 C219.791332,460.733 221.633332,460.959 223.414332,461.178 C225.213332,461.4 227.073332,461.628 228.884332,461.628 C230.748332,461.628 232.361332,461.383 233.814332,460.878 C239.428332,458.926 242.584332,453.236 245.101332,448.055 C245.680332,446.862 246.256332,445.663 246.833332,444.464 C251.281332,435.206 255.882332,425.633 262.714332,417.875 C270.365332,409.188 280.523332,404 289.885332,404 C290.970332,404 292.061332,404.068 293.127332,404.201 C303.472332,405.495 313.156332,412.876 322.731332,426.766 L322.925332,427.046 L323.257332,426.969 C329.259332,425.574 335.509332,424.867 341.830332,424.867 C366.379332,424.867 390.550332,435.47 406.485332,453.23 C409.771332,456.892 413.691332,461.866 414.848332,467.887 C416.517332,476.574 411.711332,486.328 403.159332,491.607 C397.786332,494.923 391.254332,496.606 383.743332,496.606 C381.135332,496.606 378.435332,496.395 375.715332,495.981 C371.806332,495.384 367.884332,494.403 364.091332,493.454 C358.760332,492.12 353.249332,490.741 347.659332,490.398 C346.717332,490.34 345.759332,490.311 344.808332,490.311 C331.345332,490.311 316.719332,496.269 302.513332,507.541 C299.461332,509.963 296.464332,512.57 293.566332,515.089 C287.162332,520.659 280.539332,526.418 272.979332,530.463 C266.794332,533.772 259.902332,535.594 253.571332,535.594" id="Fill-1" stroke="#000000" fill="#FFFFFF"></path>
        <path d="M1727.58594,151.977 C1715.18594,151.977 1702.89294,150.178 1691.04794,146.629 C1686.96494,145.406 1682.84894,143.947 1678.86694,142.537 C1669.22394,139.119 1659.25194,135.585 1648.88294,135.076 C1647.97794,135.031 1647.04594,135.008 1646.11394,135.008 C1635.43094,135.008 1624.63994,137.958 1614.20394,140.811 C1604.12294,143.568 1593.69794,146.417 1583.73194,146.418 L1583.72794,146.418 C1578.29194,146.418 1573.39494,145.597 1568.75394,143.908 C1563.59294,142.029 1558.84694,139.004 1554.25694,136.081 C1550.85894,133.916 1547.34794,131.678 1543.66194,129.894 C1534.35294,125.387 1523.66894,123.377 1509.02394,123.377 C1502.98194,123.377 1496.81494,123.709 1490.85194,124.03 C1488.15494,124.174 1485.46894,124.319 1482.80194,124.433 C1481.96794,124.469 1481.11594,124.496 1480.26094,124.496 C1476.88994,124.496 1472.65594,124.142 1469.82194,121.382 C1467.31194,118.937 1471.19294,112.379 1472.90094,110.059 C1473.12694,109.769 1496.45994,79.988 1513.16694,73.936 C1519.70994,71.567 1526.86994,70.314 1533.87394,70.314 C1545.37194,70.314 1556.03794,73.508 1564.71994,79.55 C1565.48294,80.081 1566.23394,80.636 1566.98494,81.19 C1569.12894,82.772 1571.34594,84.407 1573.84894,85.491 C1576.28194,86.544 1578.97594,87.079 1581.85594,87.079 C1587.01194,87.079 1592.85694,85.386 1599.22694,82.048 C1605.17694,78.929 1610.81194,75.082 1616.25994,71.362 C1620.60494,68.396 1625.09694,65.329 1629.71294,62.657 C1639.63994,56.913 1648.93794,54 1657.34894,54 C1659.54094,54 1661.70294,54.201 1663.77694,54.595 C1677.91294,57.284 1685.78394,69.335 1684.97094,78.96 L1684.91794,79.578 L1685.53294,79.498 C1697.54794,77.942 1711.16594,76.177 1724.47694,76.177 C1735.64694,76.177 1745.39894,77.418 1754.29294,79.97 C1770.84394,84.72 1782.41994,94.785 1785.25994,106.892 C1787.98794,118.528 1782.36794,131.971 1771.27494,140.343 C1762.28894,147.125 1750.40494,150.861 1734.94594,151.763 C1732.50994,151.905 1730.03394,151.977 1727.58594,151.977" id="Fill-5" stroke="#000000" fill="#FFFFFF"></path>
        <path d="M1785.77809,395.169 C1774.91509,395.169 1764.30009,393.191 1754.23109,389.291 C1749.88309,387.607 1745.56809,385.529 1741.39509,383.521 C1733.05109,379.505 1724.42409,375.352 1715.10409,374.125 C1712.96209,373.844 1710.74909,373.706 1708.34009,373.706 C1703.05009,373.706 1697.67409,374.391 1692.47509,375.052 C1687.73609,375.655 1682.83609,376.279 1678.01809,376.382 C1677.69009,376.389 1677.35909,376.393 1677.02909,376.393 C1659.61109,376.393 1650.28909,367.94 1647.59809,360.702 C1646.49109,357.723 1647.09409,355.851 1648.00709,353.016 C1648.75709,350.687 1649.69109,347.788 1650.07709,343.224 C1650.93509,333.061 1662.79209,316.077 1673.32709,306.59 C1680.68909,299.959 1690.44409,296 1699.42109,296 C1704.30109,296 1708.77809,297.133 1712.72609,299.367 C1714.56009,300.405 1716.29809,301.692 1717.97809,302.938 C1719.81209,304.298 1721.70909,305.703 1723.76409,306.814 C1728.25009,309.239 1733.45409,310.368 1740.13909,310.368 C1744.43709,310.368 1748.86809,309.905 1753.15109,309.457 C1755.01309,309.262 1756.86709,309.068 1758.69809,308.912 C1760.46009,308.763 1762.21609,308.687 1763.92209,308.687 C1771.20209,308.687 1784.19809,310.163 1789.43709,320.053 C1790.94209,322.894 1791.63409,326.192 1792.30409,329.383 C1793.18009,333.556 1794.08609,337.87 1796.81909,341.243 C1798.91909,343.834 1801.84009,345.532 1804.66409,347.174 C1805.54309,347.685 1806.42209,348.195 1807.27409,348.731 C1812.89509,352.266 1817.51709,357.805 1819.95609,363.93 C1822.58109,370.524 1822.34409,377.032 1819.29009,382.252 C1814.18109,390.982 1803.05109,393.85 1794.61409,394.718 C1791.69909,395.018 1788.72609,395.169 1785.77809,395.169" id="Fill-10" stroke="#000000" fill="#FFFFFF"></path>
    </g>
</svg>