<svg id="Layer_1" data-name="Layer 1" xmlns="http://www.w3.org/2000/svg" width="192" height="80" viewBox="0 0 192 80">
  <defs>
    <style>
      .cls-1 {
        fill: #fffcf0;
      }
    </style>
  </defs>
  <title>PlaceCal</title>
  <path class="cls-1" d="M124.85,44c-1.26.19-1.27.14,0-.1a165.44,165.44,0,0,0,23.79-6.55c1.19-.43,1.18-.49,0-.13a171.14,171.14,0,0,1-19,4.4c-1.25.22-1.26.17,0-.11a166.06,166.06,0,0,0,19-5.54c1.19-.43,1.18-.49,0-.13-4.65,1.37-9.54,2.58-14.61,3.59-1.25.25-1.26.19,0-.12,5.1-1.31,10-2.82,14.68-4.49q1-.36.87-.36a6.21,6.21,0,0,0-.91.23,180.06,180.06,0,0,1-31.78,6.19c-1.66.17-3.33.33-5,.47l-.77.06c-1.57.12-3.15.23-4.75.31l-.51,0c-1.68.08-3.36.15-5,.2l-1.13,0c-1.71,0-3.43.07-5.17.07a193.23,193.23,0,0,1-54.17-7.37l-.37-.1-.17-.05-.11,0-.1,0-.09,0h-.07s0,0,0,0l0,0,.08,0,.08,0,.14,0,.15.06.4.15c4.67,1.67,9.57,3.18,14.68,4.49l.69.18a.73.73,0,0,1,.22.09,5.6,5.6,0,0,1-.94-.15q-5.72-1.14-11.08-2.59c-1.19-.32-2.37-.65-3.53-1s-1.24-.3,0,.13a165.47,165.47,0,0,0,19,5.54c1.24.28,1.23.33,0,.11a170.61,170.61,0,0,1-19-4.4l-.4-.11A1.79,1.79,0,0,0,39.3,37a5.33,5.33,0,0,0,.89.36c1.38.49,2.8,1,4.22,1.44l.76.25c1.39.45,2.81.88,4.24,1.3l.7.2q4.52,1.3,9.26,2.38l.37.09c1.32.3,2.57.56,3.79.79l.45.1c1.24.24,1.23.29,0,.1a172.92,172.92,0,0,1-23.73-5.17c-1.22-.36-1.24-.3,0,.13A161.89,161.89,0,0,0,94.4,48.5,162,162,0,0,0,148.62,39c1.19-.43,1.18-.49,0-.13A173.25,173.25,0,0,1,124.85,44ZM69.16,32.74h8.6l.88,1.95H85L73.86,11.43c0-.12-.12-.18-.2-.18s-.15.06-.2.18L62.33,34.69h6Zm4.23-9.88,2.36,5.31H71.11ZM55.85,56H53.92v7h1.44V61.37h.49c1.93,0,3.11-1,3.11-2.68S57.79,56,55.85,56Zm0,4.11h-.45V57.26h.45c1.14,0,1.68.47,1.68,1.43S57,60.11,55.81,60.11Zm78.2.59h2.8V59.47H134V57.26h3.18V56h-4.61v7h4.75V61.7H134Zm-41.29-28h8.61l.87,1.95h6.32L97.43,11.43c-.05-.12-.13-.18-.2-.18s-.16.06-.21.18L85.9,34.69h6ZM97,22.86l2.35,5.31H94.67Zm29.51,6.69h-9.71V11.83h-6.12V34.69h15.83ZM97.37,58.63c0-1.7-1.17-2.63-3.11-2.63H92.34v7h1.43V61.23h.49a2.83,2.83,0,0,0,.41,0L95.82,63h1.65L96,60.79A2.17,2.17,0,0,0,97.37,58.63ZM94.22,60h-.45V57.26h.45c1.15,0,1.68.39,1.68,1.37S95.39,60,94.22,60Zm-8.78.51h1.68v1a3.51,3.51,0,0,1-1.36.25,2.17,2.17,0,0,1-2.31-2.29,2.09,2.09,0,0,1,2.08-2.27,1.93,1.93,0,0,1,1.56.63l1-1a3.11,3.11,0,0,0-2.53-1A3.42,3.42,0,0,0,82,59.48a3.51,3.51,0,0,0,3.78,3.57,4.5,4.5,0,0,0,2.67-.81v-3h-3Zm39.63-.8-3.43-3.76h-.11v7h1.37V60.35c0-.47-.05-1.22-.05-1.22a10.72,10.72,0,0,0,.75,1L125,61.66h.13l1.38-1.55a10.72,10.72,0,0,0,.75-1s0,.75,0,1.22V63h1.38v-7h-.12ZM74.84,55.91a3.57,3.57,0,1,0,3.6,3.57A3.52,3.52,0,0,0,74.84,55.91Zm0,5.86A2.3,2.3,0,1,1,77,59.48,2.14,2.14,0,0,1,74.84,61.77Zm28.83-5.83-3.06,7H102l.32-.79h2.83l.33.79H107l-3.18-7Zm1,5H102.8l.51-1.21c.2-.49.41-1.24.41-1.24a12.44,12.44,0,0,0,.42,1.24Zm-37-2.34c0-1.7-1.17-2.63-3.11-2.63H62.63v7h1.43V61.23h.5l.41,0L66.11,63h1.66l-1.44-2.17A2.17,2.17,0,0,0,67.67,58.63ZM64.52,60h-.46V57.26h.46c1.14,0,1.67.39,1.67,1.37S65.68,60,64.52,60Zm49.5-.29-3.43-3.76h-.11v7h1.37V60.35c0-.47,0-1.22,0-1.22a10.72,10.72,0,0,0,.75,1l1.38,1.55h.13l1.38-1.55a10.72,10.72,0,0,0,.75-1s0,.75,0,1.22V63h1.38v-7h-.12Z"/>
</svg>
