<svg id="Layer_1" data-name="Layer 1" xmlns="http://www.w3.org/2000/svg" width="192" height="80" viewBox="0 0 192 80">
  <defs>
    <style>
      .cls-1 {
        fill: #fffcf0;
      }
    </style>
  </defs>
  <title>PlaceCal</title>
  <path class="cls-1" d="M55.25,44.09a65.64,65.64,0,0,0,6.69.07v-3.7H58.83c-.95,0-1.42-.41-1.42-1.21V28.71h.5a2.38,2.38,0,0,0,1.7-.68,2.31,2.31,0,0,0,.71-1.74V24.73H57.41V22.08a2.33,2.33,0,0,0-.71-1.7,2.23,2.23,0,0,0-1.63-.72H52.52V40.6c0,2.18.91,3.35,2.73,3.49M50.1,27a2.37,2.37,0,0,0-.71-1.71,2.33,2.33,0,0,0-1.7-.71H45.13v19.6h5Zm0-4.9a2.37,2.37,0,0,0-.71-1.71,2.33,2.33,0,0,0-1.7-.71H45.13v3.92h5ZM35.41,44.22A9,9,0,0,0,41,42.58a7.84,7.84,0,0,0,3-4.56H40.38a2,2,0,0,0-1.28.36,2.61,2.61,0,0,0-.56.57q-.23.21-.39.39a1,1,0,0,1-.39.25,4.06,4.06,0,0,1-2.06.5A3.36,3.36,0,0,1,32.93,39c-.85-.91-1.27-2.45-1.27-4.63s.42-3.75,1.27-4.7a3.44,3.44,0,0,1,2.56-1,3.37,3.37,0,0,1,2.62,1,4.11,4.11,0,0,1,.71,1.07h5a9.88,9.88,0,0,0-1.85-3.64,8.47,8.47,0,0,0-6.59-2.56A7.88,7.88,0,0,0,29,27.13a10.57,10.57,0,0,0-2.2,7.12q0,4.77,2.27,7.33a7.88,7.88,0,0,0,6.31,2.64M152.49,32.54a4.06,4.06,0,0,1,1.06-2.82,3.53,3.53,0,0,1,2.56-1,3.44,3.44,0,0,1,2.62,1,4.56,4.56,0,0,1,1,2.82Zm10.07-5.35A8.49,8.49,0,0,0,156,24.65a7.94,7.94,0,0,0-6.32,2.61,10.43,10.43,0,0,0-2.2,7q0,4.73,2.27,7.26A7.94,7.94,0,0,0,156,44.17a9.08,9.08,0,0,0,5.53-1.62,7.67,7.67,0,0,0,3-4.51H161a2.17,2.17,0,0,0-1.31.35,1.58,1.58,0,0,0-.53.57l-.39.38a1,1,0,0,1-.39.25,4.05,4.05,0,0,1-2.06.49A3.38,3.38,0,0,1,153.55,39a4.89,4.89,0,0,1-1.06-3.25h12.27a1.12,1.12,0,0,0,.07-.49v-.78c0-3.1-.75-5.51-2.27-7.25M92.25,55.41h0C81.86,53.58,75.37,52.6,71,52.25l.2-.08c4.08.29,10.36,1.25,21.07,3.17q5.56,1,10.52,1.81-5-.74-10.58-1.74m-.21.14c-10.25-1.78-16.86-2.76-21.35-3.16l.11,0c4.29.34,10.79,1.31,21.28,3.16h0q3,.54,5.75,1-2.82-.44-5.82-1M71.68,52c3.87.23,9.9,1.16,20.86,3.17,3.46.69,6.75,1.28,9.87,1.79-3.14-.49-6.46-1.06-10-1.73-10.56-1.89-16.84-2.85-21-3.16l.19-.07m.46-.18c3.21.14,8.46.9,20.62,3.18q4.86,1,9.27,1.77-4.44-.74-9.35-1.71C81.9,53.09,75.86,52.15,72,51.9l.19-.08m.43-.15c3.9.1,9.83,1.12,20.42,3.16q4.53,1,8.67,1.74-4.17-.72-8.75-1.68c-11-2.06-16.78-3-20.5-3.16a1,1,0,0,1,.16-.06m.44-.16c3.71,0,9.27,1,20.2,3.14,2.82.65,5.51,1.23,8.11,1.73-2.61-.48-5.34-1-8.18-1.66-10.38-2-16.31-3-20.26-3.16l.13-.05m.42-.14c3.74-.12,9,.87,20,3.11,2.6.64,5.11,1.2,7.53,1.7q-3.66-.72-7.6-1.63c-5.71-1.13-10.21-2-13.63-2.51a47.61,47.61,0,0,0-6.39-.65l.08,0m.8-.15c3.84-.17,9,.88,19.43,3.09,2.4.62,4.72,1.17,7,1.66q-3.4-.7-7-1.59h0c-10.61-2.17-16-3.18-19.73-3.14l.39,0m1-.16c3.92-.18,8.84.91,18.65,3.08q3.31.9,6.46,1.64c-2.11-.47-4.29-1-6.52-1.57C83.8,52.09,78.6,51,74.75,51.08l.49,0m1-.17c3.87-.18,8.27.85,17,2.88l.85.2q3.06.89,6,1.6c-2-.46-4-1-6-1.53-9.58-2.12-14.53-3.21-18.46-3.12l.64,0m1-.18c3.92-.17,8.1.86,15.68,2.73l1.46.36q2.73.84,5.36,1.53-2.66-.66-5.41-1.46l-.86-.2c-8.7-2-13.12-3.05-17-2.9q.41,0,.81-.06m1-.18c4-.18,8.07.89,14.74,2.66l1.68.44c1.67.54,3.32,1,4.94,1.51-1.63-.44-3.3-.92-5-1.44L93,53.34C85.41,51.46,81.2,50.42,77.2,50.6h-.14l1.08-.07m.92-.19a28.36,28.36,0,0,1,8.12,1c1.81.45,3.78,1,6.06,1.67l.06,0,1.48.43q2.34.81,4.67,1.52-2.33-.67-4.71-1.45l-1.68-.44c-6.73-1.79-10.8-2.86-14.92-2.68l-.23,0,1.15-.09m.89-.19a24.51,24.51,0,0,1,6.68.67c2.24.51,4.57,1.25,7.28,2.11l1.09.35c1.35.51,2.7,1,4.06,1.42-1.36-.41-2.72-.86-4.09-1.34l-1.54-.44c-2.29-.66-4.26-1.23-6.09-1.68a28.33,28.33,0,0,0-8.28-1l-.5,0c.47-.06.93-.09,1.39-.11m.87-.2a23.29,23.29,0,0,1,6,.5A58.81,58.81,0,0,1,94.85,53l.38.14c1.21.49,2.42,1,3.64,1.38-1.22-.41-2.44-.84-3.67-1.3l-1.1-.35C91.38,52,89,51.23,86.79,50.72A25.26,25.26,0,0,0,80,50l-1,.07c.71-.08,1.34-.13,1.9-.15m.86-.22.82,0c5-.05,8.84,1.43,12.94,3.23,1,.46,2.11.89,3.18,1.3-1.06-.38-2.13-.79-3.18-1.21h0l-.39-.15a62.38,62.38,0,0,0-8.12-2.54,24.51,24.51,0,0,0-6.1-.51c-.44,0-.87.05-1.31.1.73-.1,1.45-.16,2.16-.2M69.1,52.13h0l.13-.05h0l-.13.05m-.39,0h-.06l.11,0h0l-.1,0m0,.14h0l.06,0h0l-.06,0m-.39,0h0Zm-3,1.4c1.09-.48,2-.88,2.93-1.21h0c-.91.34-1.89.74-3,1.21m-3.1,2.92a9.91,9.91,0,0,1-2.49,1,9.9,9.9,0,0,0,1.53-.67h0c2.3-1.3,4.37-2.35,6.23-3.2-1.71.83-3.47,1.79-5.3,2.88m-2.14.6h0c2.27-1.21,4.36-2.24,6.28-3.11Q63.84,55.25,61,56.82a11.18,11.18,0,0,1-2.46,1,11,11,0,0,0,1.49-.62m-2.42.78c.44-.16.86-.33,1.24-.51h0c2.29-1.14,4.34-2.12,6.18-2.95-1.63.76-3.36,1.64-5.23,2.62h0a13,13,0,0,1-2.21.84m.06-.23c1.95-.92,3.68-1.71,5.24-2.41q-2,.93-4.26,2.07a14.26,14.26,0,0,1-2,.75c.38-.13.73-.27,1.07-.41m-1.9.54h0l.74-.28h0l1.56-.69c1.32-.58,2.55-1.13,3.69-1.62l-4.28,2a14,14,0,0,1-1.7.62m-.61.07h-.06l.21-.07h0c1.65-.68,3.15-1.32,4.52-1.91l-2,.88-1.57.69q-.54.22-1.14.42m-.68.06,3.28-1.31-2.64,1.1-.54.2h-.1m-.47,0H54l1.5-.57L54,58.4m.05.13.06,0h0l-.07,0m-.6.07h0l.13-.05h0l-.15.06m5.79-3.91a10,10,0,0,1,4.11-2A13.61,13.61,0,0,0,60,54.45a33.94,33.94,0,0,1-3.8,2.22,28.4,28.4,0,0,0,3.08-2m5.39-2.22A15.6,15.6,0,0,0,61,54.29a43.88,43.88,0,0,1-4.63,2.48,34.14,34.14,0,0,0,3.88-2.27,11.43,11.43,0,0,1,4.35-2h.09m.86-.07a20.06,20.06,0,0,0-3.65,1.74c-1.15.65-2.49,1.39-4.3,2.22,1.5-.74,2.63-1.42,3.62-2a13.88,13.88,0,0,1,4.18-1.93h.15m.53,0h.18A26.19,26.19,0,0,0,62.69,54c-1.07.55-2.29,1.19-3.84,1.89,1.3-.63,2.33-1.2,3.25-1.72a17.58,17.58,0,0,1,4-1.81m.8,0c-1.09.4-2.17.93-3.5,1.57-.92.46-2,1-3.17,1.51,1-.5,1.91-1,2.71-1.37a24.5,24.5,0,0,1,3.76-1.71h.2m.39,0h.16c-1.08.4-2.21.93-3.56,1.55-.67.31-1.4.65-2.21,1L63.57,54a31.1,31.1,0,0,1,3.68-1.63m.64,0c-1.15.43-2.37,1-3.82,1.61l-.79.36L64,54c1.43-.66,2.61-1.2,3.74-1.61h.11m0-.19h0m.34-.12h.05l-.05,0h0ZM53,58.64h0m85-1c-.56.14-1.13.27-1.73.39-.86.16-1.75.31-2.69.44-1.11.15-2.29.27-3.51.35-.52,0-1,.07-1.58.09-.86,0-1.74.07-2.64.07-1.2,0-2.43,0-3.7-.06-.93,0-1.89-.1-2.85-.17-.71-.05-1.43-.12-2.16-.19s-1.35-.14-2-.23l-1.67-.22-2.27-.39-1-.19-1.54-.34a74.68,74.68,0,0,1-12.94-4.3c-4.15-1.81-8-3.31-13.13-3.25l-.85,0a29.48,29.48,0,0,0-7.06,1.24l-.45.11-.31.06-.42.08c-.26,0-.53.08-.79.14s-.51.07-.76.12-.54.07-.81.12-.64.08-.94.14a9.64,9.64,0,0,0-1,.14c-.35,0-.68.07-1,.13s-.72.07-1,.13-.75.08-1.09.13l-.61.07a10.26,10.26,0,0,0-6.5,2.39,27.61,27.61,0,0,1-7.45,3.92c-4.21.15-9.08,0-14.22-.12h0c-2.9-.07-5.89-.15-8.81-.18v.11c2.93,0,5.9.11,8.77.19,5,.13,9.78.26,13.93.13l-.3.1h0c-4.46.2-9.63,0-15.09-.11-2.39-.07-4.87-.14-7.3-.19v.12c2.41,0,4.87.11,7.25.18,5.32.16,10.36.31,14.76.13l-.28.1-.72,0c-4.57.21-10,0-15.25-.14l-5.76-.17v.12c1.9,0,3.83.1,5.7.16,5.27.17,10.71.35,15.3.15h0l.31,0-.26.08L48,59.29c-4.68.21-10.14,0-15.42-.17h-.15L28.39,59v.11l4.1.14h0c5.3.19,10.77.39,15.47.17h0l1,0-.23.07c-.68.06-1.39.1-2.12.13-4.81.22-10.3,0-15.61-.21l-2.64-.1v.12l2.55.1h0c5.33.2,10.83.42,15.66.2h0c.55,0,1.09,0,1.61-.09l-.17,0c-.9.08-1.83.15-2.83.19-4.94.22-10.46,0-15.8-.25l-1.06-.05v.12l1,0c5.35.24,10.89.48,15.86.25.78,0,1.53-.07,2.25-.13l-.11,0c-1.1.11-2.27.2-3.52.25-5.07.23-10.84,0-15.48-.28v.12c4.64.23,10.39.5,15.48.27,1,0,2-.1,2.87-.18h0c-1.31.15-2.71.25-4.21.32-4.7.21-9.74,0-14.1-.24v.11c4.36.23,9.39.46,14.1.25,1.09-.05,2.13-.12,3.11-.22-1.4.17-2.89.29-4.49.36-4.38.2-8.88,0-12.72-.2v.11c3.84.21,8.33.4,12.72.21,1.11-.05,2.17-.13,3.18-.22q-2.15.25-4.56.36c-4.23.19-8.48,0-11.34-.16v.12c2.87.16,7.11.34,11.33.16h0c1.13,0,2.2-.13,3.24-.23-1.46.18-3,.3-4.62.37a99.42,99.42,0,0,1-10-.11v.12c3.75.2,7,.24,10,.11,1.14,0,2.23-.13,3.29-.23-1.49.18-3.05.3-4.67.37-2.64.12-5.45.1-8.57-.06v.12c3.12.15,5.92.18,8.57.06h0c1.07-.05,2.11-.12,3.13-.21-1.47.16-3,.28-4.51.35-2.29.1-4.65.1-7.19,0v.12c2.54.11,4.89.11,7.18,0,1.13,0,2.24-.13,3.32-.24-1.54.19-3.1.31-4.69.38-1.88.09-3.83.09-5.81,0V62c2,.06,3.93.05,5.8,0,1.16-.06,2.3-.13,3.42-.24-1.59.18-3.19.31-4.79.38s-2.95.09-4.43.06v.12c1.48,0,3,0,4.42-.06,1.18-.06,2.36-.14,3.54-.25q-2.48.28-4.92.39c-1,.05-2,.07-3,.07v.11c1,0,2,0,3-.07.67,0,1.34-.06,2-.11-1.15.1-2.28.18-3.4.23-.55,0-1.1,0-1.65,0v.18c.54,0,1.09,0,1.63,0A78.72,78.72,0,0,0,43.57,61l1.69-.4.13,0,1.1-.22,1-.2c.35-.07.69-.13,1-.21s.73-.14,1.09-.21l1.11-.22,1.14-.23L53,59c.41-.07.8-.15,1.17-.23s.82-.15,1.21-.24l1-.2c.49-.08.94-.17,1.37-.27a13.34,13.34,0,0,0,4.61-1.47,64.45,64.45,0,0,1,7.88-4c4.48.37,11.18,1.36,21.51,3.15a221.6,221.6,0,0,0,29.28,3.45q.76.06,1.53.09a82.61,82.61,0,0,0,8.33,0c2.92-.13,5.88-.41,8.82-.83a95.69,95.69,0,0,0,15.66-3.6c2.65-.86,5.28-1.83,7.79-2.9V51.8c-2.56,1.09-5.24,2.09-7.95,3a95.54,95.54,0,0,1-15.56,3.59c-1.11.16-2.23.29-3.34.41l1.31-.16a92.29,92.29,0,0,0,18-4.22c2.52-.85,5-1.83,7.5-2.9v-.16c-2.51,1.1-5.09,2.1-7.66,3a92.2,92.2,0,0,1-17.5,4.14A89.51,89.51,0,0,0,156,53.92c2.38-.86,4.82-1.84,7.26-2.93v-.16c-2.5,1.12-5,2.13-7.43,3a88.66,88.66,0,0,1-18,4.51,87.32,87.32,0,0,0,18.31-4.88c2.28-.88,4.61-1.85,7.08-3v-.16c-2.54,1.15-4.92,2.16-7.26,3A88.67,88.67,0,0,1,139.62,58,86.46,86.46,0,0,0,156.28,53c2.15-.86,4.37-1.83,6.94-3v-.16c-2.64,1.22-4.92,2.21-7.12,3.09a86.24,86.24,0,0,1-16.18,4.84,84.05,84.05,0,0,0,16.47-5.21c2.39-1,4.68-2.06,6.83-3.07v-.16c-2.2,1-4.57,2.11-7,3.15a89.43,89.43,0,0,1-13.83,4.63c7.52-1.88,13.9-4.87,20.53-8l.32-.15v-.16l-.53.24c-6.7,3.14-13.15,6.17-20.8,8,6.82-1.75,12.55-4.47,18.49-7.28l2.84-1.34v-.16l-3,1.42,0,0a105.87,105.87,0,0,1-17.36,7,96.55,96.55,0,0,0,15.52-6.41q2.37-1.16,4.88-2.33v-.16c-1.73.8-3.41,1.61-5.05,2.41h0a100.47,100.47,0,0,1-14.53,6.11,91.91,91.91,0,0,0,13.07-5.7c2.1-1,4.26-2.13,6.55-3.17v-.16c-2.36,1.07-4.6,2.18-6.76,3.27A96.63,96.63,0,0,1,144.37,56a91,91,0,0,0,10.92-5.05c2.5-1.31,5.08-2.65,7.93-3.91v-.16c-2.94,1.29-5.58,2.67-8.15,4a95,95,0,0,1-10,4.72,86.14,86.14,0,0,0,9.08-4.49c2.82-1.53,5.72-3.11,9.09-4.55v-.16a102,102,0,0,0-9.3,4.65,92.49,92.49,0,0,1-8.27,4.15,82.41,82.41,0,0,0,7.52-4A81.57,81.57,0,0,1,163.22,46v-.15A81,81,0,0,0,153,51.11c-2.2,1.26-4.36,2.5-6.72,3.61,2.17-1.08,4.14-2.28,6.14-3.5a64.3,64.3,0,0,1,10.85-5.64v-.15a64.75,64.75,0,0,0-11.08,5.73c-1.77,1.08-3.51,2.15-5.39,3.12,1.73-1,3.33-2,4.95-3.05a53.77,53.77,0,0,1,11.52-6.09V45a53.16,53.16,0,0,0-11.75,6.19c-1.41.91-2.79,1.81-4.27,2.66,1.37-.84,2.65-1.73,3.94-2.63a44.71,44.71,0,0,1,12.08-6.5v-.14a44.58,44.58,0,0,0-12.32,6.59l-2,1.35,1.8-1.34a37.91,37.91,0,0,1,12.47-6.82v-.23a38.34,38.34,0,0,0-12.87,7c-3.4,2.55-6.68,5-12.36,6.49m2.91-13.48,6.67-19.45h-3.69a2.23,2.23,0,0,0-2.27,1.76l-3.33,11.91-3.76-13.67h-5.25l6.6,19.45Zm-18.6-10a4.47,4.47,0,0,1,1-3.21,4,4,0,0,1,3-1H128V24.67h-.71a13.63,13.63,0,0,0-3.72.51,8.68,8.68,0,0,0-3.16,1.61,8,8,0,0,0-2.23,3.11,12.25,12.25,0,0,0-.82,4.79v9.43h5ZM92.46,44l6.29-19.33H95.06a2.22,2.22,0,0,0-2.27,1.71L89.45,38,85.69,24.67H80.44l7,19.33ZM67.57,45.71a3.42,3.42,0,0,1-2.24.68H64V50.3a19.88,19.88,0,0,0,2.21.15,7.36,7.36,0,0,0,4-.86,6.76,6.76,0,0,0,2.13-3.34l7.23-21.58h-3.4a2.09,2.09,0,0,0-2.27,1.71L70.58,38.06,66.75,24.67H61.29l6.6,18.87c.33,1,.22,1.72-.32,2.17m36.61-16a3.51,3.51,0,0,1,2.56-1,3.44,3.44,0,0,1,2.62,1,4.5,4.5,0,0,1,1,2.82h-7.23a4,4,0,0,1,1.06-2.82m-3.83,11.84a7.94,7.94,0,0,0,6.32,2.61,9.08,9.08,0,0,0,5.53-1.62,7.71,7.71,0,0,0,3-4.51h-3.55a2.13,2.13,0,0,0-1.31.35,1.49,1.49,0,0,0-.53.57l-.39.38a1,1,0,0,1-.39.25,4.05,4.05,0,0,1-2.06.49A3.38,3.38,0,0,1,104.18,39a4.84,4.84,0,0,1-1.06-3.25h12.27a1.12,1.12,0,0,0,.07-.49v-.78c0-3.1-.75-5.51-2.27-7.25a8.5,8.5,0,0,0-6.6-2.54,7.92,7.92,0,0,0-6.31,2.61,10.38,10.38,0,0,0-2.2,7q0,4.73,2.27,7.26"/>
</svg>
