<svg id="Layer_1" data-name="Layer 1" xmlns="http://www.w3.org/2000/svg" width="414" height="80" viewBox="0 0 414 80">
  <defs>
    <style>
      .cls-1 {
        fill: #fffcf0;
      }

      .cls-2 {
        fill: #f19089;
      }
    </style>
  </defs>
  <title>PlaceCal</title>
  <g>
    <path class="cls-1" d="M318.55,54.42h0a.71.71,0,0,1-.2,0,.47.47,0,0,1-.06-.09v-1c0-.69,0-1.27,0-1.74v-.33H317v0l0,.1.2,0a.87.87,0,0,1,.49.14,3,3,0,0,1,.06.85v.25c0,.16,0,.47,0,.92,0,.13,0,.26,0,.39a1.75,1.75,0,0,1-.46.35,1.18,1.18,0,0,1-.55.14.67.67,0,0,1-.41-.13.52.52,0,0,1-.22-.32,5.73,5.73,0,0,1,0-1s0-.18,0-.41c0-.41,0-.83,0-1.26v-.09h-1v.15l.14,0,.33.09a.16.16,0,0,1,.06.13v.72a1,1,0,0,0,0,.18v.33c0,.06,0,.16,0,.31a1.31,1.31,0,0,0,0,.17,2.09,2.09,0,0,0,.27,1.22.79.79,0,0,0,.68.36.87.87,0,0,0,.45-.13,3.16,3.16,0,0,0,.67-.48l.12-.1v.5s0,.09,0,.2l.22-.07a6.28,6.28,0,0,1,.87-.27v-.14l-.3,0Zm2.66-3.36a.91.91,0,0,0-.42.2.57.57,0,0,0-.11.11l-.09.11a2.76,2.76,0,0,0-.38.58V51.9c0-.53,0-.87,0-1h-.14a1.64,1.64,0,0,1-.34.55,2.15,2.15,0,0,1-.56.34v.14a.73.73,0,0,0,.21.06.63.63,0,0,1,.29.1.67.67,0,0,1,.07.31c0,.16,0,.76,0,1.8a1.45,1.45,0,0,1,0,.36.1.1,0,0,1-.05.06l-.34.07-.23.06a.3.3,0,0,0,0,.1l0,.06h.67l.22,0h1.25a.25.25,0,0,0,0-.07.08.08,0,0,0,0-.07.5.5,0,0,0-.24-.06h-.08a3.68,3.68,0,0,0-.51-.07.27.27,0,0,1-.08-.07.75.75,0,0,1,0-.2V53.4l0-.76a1.16,1.16,0,0,1,.12-.44,1.62,1.62,0,0,1,.27-.41.23.23,0,0,1,.16,0,.73.73,0,0,1,.25.08,1,1,0,0,0,.25.08.33.33,0,0,0,.24-.12.32.32,0,0,0,.08-.24.48.48,0,0,0-.11-.34.32.32,0,0,0-.28-.13Zm55.62,3.38a1.85,1.85,0,0,1,0-.41v-.36a1.74,1.74,0,0,0,0-.18v-.7a5,5,0,0,0-.07-1.1.94.94,0,0,0-.3-.48.89.89,0,0,0-.56-.2.86.86,0,0,0-.28,0,1.7,1.7,0,0,0-.44.18,2.45,2.45,0,0,0-.5.34l-.11.09v-.39c0-.06,0-.16,0-.3h-.14a1.51,1.51,0,0,1-.38.56,1,1,0,0,1-.44.24v.18a.62.62,0,0,1,.4.18.74.74,0,0,1,.06.36V53.9a1.55,1.55,0,0,1,0,.23v.16a.47.47,0,0,1-.05.26.67.67,0,0,1-.3.1l-.23.05s0,.06,0,.09v.06h1.76v-.09a.17.17,0,0,0-.11-.09l-.16,0-.22-.07a.16.16,0,0,1-.13-.06.17.17,0,0,1,0-.1c0-.12,0-.44,0-1v-1c0-.1,0-.23,0-.38a1.76,1.76,0,0,1,.49-.41,1.06,1.06,0,0,1,.52-.13.74.74,0,0,1,.56.22,1.25,1.25,0,0,1,.2.82v.61c0,.57,0,.92,0,1.06s0,.11,0,.13a.53.53,0,0,1,0,.18.28.28,0,0,1-.11.08.41.41,0,0,1-.16,0,.82.82,0,0,0-.3.07l0,.07,0,.1h1.65a.36.36,0,0,0,0-.11v0a1,1,0,0,0-.45-.14.29.29,0,0,1-.1-.12Zm-11.1-5a.39.39,0,0,0,.11-.27.36.36,0,0,0-.11-.26.33.33,0,0,0-.26-.13.32.32,0,0,0-.24.11.33.33,0,0,0-.1.26.41.41,0,0,0,.1.3.3.3,0,0,0,.25.12.31.31,0,0,0,.25-.13Zm-50.87,4.94h0a.61.61,0,0,1-.24.15,1.59,1.59,0,0,1-.39.08.37.37,0,0,1-.31-.17,1.22,1.22,0,0,1-.1-.63V51.93a.84.84,0,0,1,0-.27h.37l.62,0h.07a1.11,1.11,0,0,0,0-.19.92.92,0,0,0,0-.15h-.59l-.4,0h-.1v-1h-.13l-.1.26c0,.12-.08.24-.13.36a1.72,1.72,0,0,1-.24.31,1.12,1.12,0,0,1-.24.19.58.58,0,0,0-.18.11.12.12,0,0,0,0,.09.08.08,0,0,0,0,.05.07.07,0,0,0,.07,0h.42a2.17,2.17,0,0,1,0,.26v1.72a4.46,4.46,0,0,0,0,.82.69.69,0,0,0,.22.33.64.64,0,0,0,.43.14,1.5,1.5,0,0,0,.59-.1,1,1,0,0,0,.39-.32v0a.11.11,0,0,0,0-.07.08.08,0,0,0-.06,0Zm-9.17,0h0a.61.61,0,0,1-.24.15,1.69,1.69,0,0,1-.39.08.37.37,0,0,1-.31-.17,1.12,1.12,0,0,1-.1-.63V51.93a1.24,1.24,0,0,1,0-.27H305l.62,0h.07a1.11,1.11,0,0,0,0-.19.92.92,0,0,0,0-.15h-.6l-.39,0h-.1v-.56l0-.44h-.12l-.09.26c0,.12-.09.24-.14.36a1.66,1.66,0,0,1-.23.31,1.12,1.12,0,0,1-.24.19.52.52,0,0,0-.19.11.09.09,0,0,0,0,.09,0,0,0,0,0,0,.05,0,0,0,0,0,.06,0h.43c0,.08,0,.17,0,.26v.68l0,1a4.52,4.52,0,0,0,.05.82.57.57,0,0,0,.22.33.71.71,0,0,0,.42.14,1.7,1.7,0,0,0,.59-.1.94.94,0,0,0,.39-.32v0a.06.06,0,0,0,0-.07s0,0-.06,0Zm-3-4.94a.39.39,0,0,0,.11-.27.36.36,0,0,0-.11-.26.33.33,0,0,0-.26-.13.32.32,0,0,0-.24.11.33.33,0,0,0-.1.26.41.41,0,0,0,.1.3.3.3,0,0,0,.24.12.32.32,0,0,0,.26-.13Zm24.21,7.82h.36V48.67h-.36Zm56.56-2.67-.24-.09a.4.4,0,0,1-.07-.28V52.36a1.63,1.63,0,0,0-.29-1,.93.93,0,0,0-.73-.33,1.21,1.21,0,0,0-.59.16,2.48,2.48,0,0,0-.64.57,1.42,1.42,0,0,0-.39-.55.87.87,0,0,0-.54-.15,1.1,1.1,0,0,0-.53.11,3.54,3.54,0,0,0-.76.63c0-.12,0-.24,0-.35v-.52l0,0h-.11a2.69,2.69,0,0,1-.39.5,1.2,1.2,0,0,1-.39.2v.16l.19,0a.62.62,0,0,1,.22.1,7.67,7.67,0,0,1,.05,1.27c0,.66,0,1.05,0,1.16a.35.35,0,0,1-.1.2.73.73,0,0,1-.25.08.36.36,0,0,0-.17.07.29.29,0,0,0,0,.09s0,0,0,.05l.45,0h.61l.61,0v-.09a.11.11,0,0,0,0-.08.84.84,0,0,0-.33-.1.3.3,0,0,1-.2-.1,1.91,1.91,0,0,1-.06-.58V52.1a1.39,1.39,0,0,1,.47-.43,1.14,1.14,0,0,1,.57-.16.6.6,0,0,1,.5.26,1.42,1.42,0,0,1,.2.83v.94l0,.53a2.31,2.31,0,0,1,0,.37l0,.06a1.29,1.29,0,0,1-.26.08,1.07,1.07,0,0,0-.33.11v.05a.31.31,0,0,0,0,.1h1.75a.11.11,0,0,0,0-.08.18.18,0,0,0,0-.12l-.18,0a.87.87,0,0,1-.31-.1.28.28,0,0,1-.07-.17c0-.08,0-.4,0-1V52a1.67,1.67,0,0,1,.45-.43.8.8,0,0,1,.47-.15.69.69,0,0,1,.51.19.89.89,0,0,1,.26.55c0,.14,0,.67,0,1.58a2.9,2.9,0,0,1,0,.72.3.3,0,0,1-.23.12,1.32,1.32,0,0,0-.3.09.16.16,0,0,0,0,.09.25.25,0,0,0,0,.08h.37c.22,0,.4,0,.53,0h.23l.4,0h0a.53.53,0,0,0,0-.12.09.09,0,0,0,0-.07.47.47,0,0,0-.15-.06Zm-76.55-2.94a.85.85,0,0,1,.74-.4.78.78,0,0,1,.39.1.55.55,0,0,1,.24.28.89.89,0,0,1,.08.32.29.29,0,0,1-.07.16.45.45,0,0,1-.2,0c-.67,0-1.08.07-1.21.07h-.19a1,1,0,0,1,.22-.57Zm1.74,2.52a1.6,1.6,0,0,1-.38.23,1.53,1.53,0,0,1-.36.07,1.18,1.18,0,0,1-.71-.23,1.36,1.36,0,0,1-.44-.62,2.08,2.08,0,0,1-.15-.69v-.32a.58.58,0,0,1,0-.19l.38,0h1.9v-.07a1.41,1.41,0,0,0-.16-.6,1.29,1.29,0,0,0-.48-.53,1.06,1.06,0,0,0-.6-.16,1.57,1.57,0,0,0-.6.12,2.53,2.53,0,0,0-.42.31,1.6,1.6,0,0,0-.28.4,4.23,4.23,0,0,0-.24.68,2.31,2.31,0,0,0-.06.52,2.4,2.4,0,0,0,.23,1.09,1.44,1.44,0,0,0,.64.65,1.19,1.19,0,0,0,.56.14,2.12,2.12,0,0,0,.44,0,2.29,2.29,0,0,0,.56-.29,2,2,0,0,0,.45-.46.2.2,0,0,0,0-.07l0-.19Zm3.13.25a1.32,1.32,0,0,1-.55.11,1,1,0,0,1-.79-.44,2,2,0,0,1-.33-1.19,2.09,2.09,0,0,1,.33-1.2.68.68,0,0,1,.59-.34.48.48,0,0,1,.26.07.78.78,0,0,1,.27.24A.62.62,0,0,0,312,52a.23.23,0,0,0,.21-.1.34.34,0,0,0,.09-.24.39.39,0,0,0-.17-.33,1.34,1.34,0,0,0-.85-.22,1.79,1.79,0,0,0-1,.22,1.68,1.68,0,0,0-.62.7,2.21,2.21,0,0,0-.23,1,2.51,2.51,0,0,0,.2,1,1.68,1.68,0,0,0,.55.76,1.29,1.29,0,0,0,.8.27,1.44,1.44,0,0,0,.71-.15,2,2,0,0,0,.62-.53V54a2.37,2.37,0,0,1-.57.43ZM372.23,54a1.29,1.29,0,0,1-.45.61,1.08,1.08,0,0,1-.58.19,1,1,0,0,1-.82-.43,2.07,2.07,0,0,1-.33-1.28,2.84,2.84,0,0,1,.19-1.15,1.13,1.13,0,0,1,.46-.55,1.11,1.11,0,0,1,.54-.14.92.92,0,0,1,.63.24,1.4,1.4,0,0,1,.4.71,3.35,3.35,0,0,1,.13.84,2.43,2.43,0,0,1-.17,1Zm-1-2.93a2,2,0,0,0-.89.19,1.67,1.67,0,0,0-.49.43,1.79,1.79,0,0,0-.34.64,2.14,2.14,0,0,0-.11.67,2.08,2.08,0,0,0,.23,1,1.9,1.9,0,0,0,.56.67,1.66,1.66,0,0,0,.93.3,1.71,1.71,0,0,0,1.33-.58,1.91,1.91,0,0,0,.52-1.32,2.11,2.11,0,0,0-.5-1.42,1.57,1.57,0,0,0-1.24-.59Zm-11.06,3.37a1.85,1.85,0,0,1,0-.41c0-.13,0-.26,0-.36v-.88a5.76,5.76,0,0,0-.07-1.1,1,1,0,0,0-.3-.48.9.9,0,0,0-.57-.2.84.84,0,0,0-.27,0,1.77,1.77,0,0,0-.45.18,2.38,2.38,0,0,0-.49.34l-.11.09v-.39c0-.06,0-.16,0-.3h-.13a1.79,1.79,0,0,1-.38.56,1,1,0,0,1-.45.24v.18a.62.62,0,0,1,.4.18.64.64,0,0,1,.06.36v1.81a.47.47,0,0,1-.05.26.63.63,0,0,1-.3.1l-.23.05a.28.28,0,0,0,0,.09v.06h1.76v-.09a.14.14,0,0,0-.11-.09l-.16,0-.22-.07a.18.18,0,0,1-.13-.06l0-.1c0-.12,0-.44,0-1v-1c0-.11,0-.23,0-.38a1.76,1.76,0,0,1,.49-.41,1.06,1.06,0,0,1,.52-.13.74.74,0,0,1,.56.22,1.19,1.19,0,0,1,.2.82v.61c0,.57,0,.92,0,1.06a.85.85,0,0,1,0,.13.37.37,0,0,1,0,.18.23.23,0,0,1-.11.08l-.15,0a.73.73,0,0,0-.3.07.11.11,0,0,0,0,.07l0,.1h1.65a.36.36,0,0,0,0-.11v0a1,1,0,0,0-.44-.14.23.23,0,0,1-.1-.12Zm-3.95-.95a3.84,3.84,0,0,1-.41.84,1,1,0,0,1-.42.27,4.43,4.43,0,0,1-1,.07h-1a.38.38,0,0,1-.3-.1A1.45,1.45,0,0,1,353,54V52q.36,0,.72,0h.9A.5.5,0,0,1,355,52a1.46,1.46,0,0,1,.22.58,1.42,1.42,0,0,0,.12.4h0l.05,0a.41.41,0,0,0,0-.11s0-.12,0-.32a5.06,5.06,0,0,1,0-.53c0-.6,0-1,0-1.07a.41.41,0,0,0,0-.11.09.09,0,0,0,0-.07.13.13,0,0,0-.09,0c-.07,0-.11.16-.13.4a1.07,1.07,0,0,1-.09.43.46.46,0,0,1-.25.1l-1.11,0H353v-.64c0-.7,0-1.07,0-1.11a1.78,1.78,0,0,1,.06-.65s.12-.06.27-.06h.1l1.13,0h.54a.38.38,0,0,1,.23,0,.61.61,0,0,1,.15.23,2.91,2.91,0,0,1,.22.51l.12.31h.08l0,0c0-.23,0-.5,0-.82a.86.86,0,0,1,0-.16,1.36,1.36,0,0,0,0-.2.11.11,0,0,0,0-.08l0,0h-1l-.45,0h-.4l-.83,0-.7,0h-.3a3.87,3.87,0,0,1-.48,0h-.14s0,0-.06,0a.19.19,0,0,0,0,.08.11.11,0,0,0,.05.09l.27,0c.24,0,.38,0,.43.1a1.57,1.57,0,0,1,.05.53l0,1.31v3.22a.45.45,0,0,1-.05.25,1.32,1.32,0,0,1-.48.09.59.59,0,0,0-.23,0,.1.1,0,0,0-.07,0v0a.1.1,0,0,0,0,.07l.08,0c.23,0,.58,0,1.06,0h.65l1.2,0h.5l1.12,0h.08a.43.43,0,0,0,.07-.25,4.63,4.63,0,0,1,.18-1.26l-.08,0s-.1.07-.15.19Zm9.86,1.17a.6.6,0,0,1-.31-.15.37.37,0,0,1-.05-.23v-3c0-.13,0-.2,0-.21a2.14,2.14,0,0,0,0-.32h-.12a1.27,1.27,0,0,1-.27.34,1.14,1.14,0,0,1-.3.23l-.28.1v.14a.93.93,0,0,1,.36.14.33.33,0,0,1,.11.13,1.79,1.79,0,0,1,0,.4v1.94a.64.64,0,0,1-.07.31.22.22,0,0,1-.17.09,4,4,0,0,0-.4.11.16.16,0,0,0-.08.1s0,0,0,.06h.07l.23,0,.64,0a3.15,3.15,0,0,1,.44,0l.4,0a.17.17,0,0,0,0-.07.13.13,0,0,0,0-.06l-.24-.08Zm-1.49-3.37a.1.1,0,0,0,0,0c-.09,0-.34,0-.76,0l-.23,0H363v.1s0,0,.05,0l.36.07a.29.29,0,0,1,.18.1.22.22,0,0,1,.06.13.52.52,0,0,1,0,.11,3.53,3.53,0,0,1-.13.54c-.17.53-.3.91-.39,1.15a7.49,7.49,0,0,1-.28.71c-.15-.35-.32-.78-.5-1.28l-.4-1.11a1.1,1.1,0,0,0,0-.11.43.43,0,0,1,0-.14.05.05,0,0,1,0,0,2.78,2.78,0,0,1,.5-.11l.13,0a.19.19,0,0,0,0-.1.07.07,0,0,0,0,0l-.15,0h-.89c-.22,0-.48,0-.77,0v0l0,.1a2.25,2.25,0,0,1,.51.2,4.14,4.14,0,0,1,.26.61l.71,1.93.3.75.09.23h.12l.61-1.66.1-.27.21-.58c.07-.21.13-.39.17-.53a1.72,1.72,0,0,1,.19-.47.88.88,0,0,1,.42-.11h.08l.12,0a.16.16,0,0,0,0-.1Zm-15.51,6h.35V48.68h-.35Zm-46.07-2.63a.64.64,0,0,1-.31-.15.37.37,0,0,1-.05-.23l0-1.41V51.3c0-.13,0-.2,0-.21s0-.17,0-.32h-.12a1.46,1.46,0,0,1-.26.34,1.33,1.33,0,0,1-.3.23l-.28.1v.14a1.18,1.18,0,0,1,.37.14.41.41,0,0,1,.1.13,2.69,2.69,0,0,1,0,.4c0,1.06,0,1.71,0,2a.63.63,0,0,1-.07.3.23.23,0,0,1-.17.1l-.41.1a.12.12,0,0,0-.07.1.14.14,0,0,0,0,.06h.06l.23,0,.64,0,.44,0,.4,0a.14.14,0,0,0,0-.07.13.13,0,0,0,0-.06l-.24-.08Zm29.05-2.72a5.76,5.76,0,0,0-.92-.63,4.79,4.79,0,0,1-1-.74.87.87,0,0,1-.2-.55,1,1,0,0,1,.29-.69A1,1,0,0,1,331,49a1,1,0,0,1,.74.3,1.67,1.67,0,0,1,.43.94h0l.06,0a2,2,0,0,0,0-.33v-.41s0-.15,0-.35a1.57,1.57,0,0,0-.44-.28,2.32,2.32,0,0,0-.7-.1,1.56,1.56,0,0,0-1.17.45,1.46,1.46,0,0,0-.44,1.08,1.59,1.59,0,0,0,.12.62,2.5,2.5,0,0,0,.5.66,7,7,0,0,0,.9.6,3.53,3.53,0,0,1,.91.72,1.2,1.2,0,0,1,.22.68,1.26,1.26,0,0,1-.14.57,1.18,1.18,0,0,1-.42.44,1.19,1.19,0,0,1-.58.15,1.22,1.22,0,0,1-.92-.45,1.65,1.65,0,0,1-.45-1,.27.27,0,0,0,0-.12l-.06,0a.06.06,0,0,0-.06,0,1.07,1.07,0,0,0,0,.25,8.74,8.74,0,0,1-.06.9s0,.09,0,.13a.21.21,0,0,0,.07.15.94.94,0,0,0,.35.2,2.82,2.82,0,0,0,1,.2,1.87,1.87,0,0,0,1-.22,1.51,1.51,0,0,0,.6-.65,2,2,0,0,0,.22-.93,1.7,1.7,0,0,0-.14-.71,1.54,1.54,0,0,0-.41-.56ZM336,54.3a1,1,0,0,1-.84.4,1.11,1.11,0,0,1-.74-.23.82.82,0,0,1-.22-.52c0-.13,0-.74,0-1.84,0,0,0-.08,0-.12a1.24,1.24,0,0,1,.39-.29,1,1,0,0,1,.46-.1,1.17,1.17,0,0,1,.95.45,1.81,1.81,0,0,1,.36,1.21,1.53,1.53,0,0,1-.34,1Zm-.55-3.14a1.84,1.84,0,0,0-.66.12,2.27,2.27,0,0,0-.61.39v-.89a.13.13,0,0,0-.08,0H334a1.3,1.3,0,0,1-.28.34,4,4,0,0,1-.57.33l0,.14a.92.92,0,0,1,.4.15.16.16,0,0,1,.06.08,2.21,2.21,0,0,1,.05.51V54q0,2,0,2.7a.88.88,0,0,1,0,.16.44.44,0,0,1-.16.14l-.4.09v.18H335a.21.21,0,0,0-.08-.16.88.88,0,0,0-.42-.11c-.12,0-.2,0-.22-.11a8.58,8.58,0,0,1-.07-1.6c0-.19,0-.41,0-.66l.13.07a2,2,0,0,0,.83.23,1.84,1.84,0,0,0,.83-.23,1.65,1.65,0,0,0,.66-.7,2.42,2.42,0,0,0,.24-1.06,1.92,1.92,0,0,0-.43-1.29,1.29,1.29,0,0,0-1-.5Zm33.33-.1a.93.93,0,0,0-.41.2.57.57,0,0,0-.11.11l-.09.11a2.76,2.76,0,0,0-.38.58.25.25,0,0,0,0-.08V51.9c0-.53,0-.87,0-1h-.14a1.67,1.67,0,0,1-.33.54,2.15,2.15,0,0,1-.56.34l0,.14a.79.79,0,0,0,.22.06.56.56,0,0,1,.28.1.57.57,0,0,1,.07.31c0,.16,0,.76,0,1.81a1.4,1.4,0,0,1,0,.35.13.13,0,0,1-.06.07l-.33.06-.24.06a.29.29,0,0,0,0,.1l0,.06h.66l.22,0h1.26l0-.07a.08.08,0,0,0,0-.07.39.39,0,0,0-.24,0h-.08a2.76,2.76,0,0,0-.51-.06.3.3,0,0,1-.08-.08.69.69,0,0,1,0-.2V53.4l0-.76a1.16,1.16,0,0,1,.12-.44,1.62,1.62,0,0,1,.27-.41.24.24,0,0,1,.16,0,.73.73,0,0,1,.25.08,1,1,0,0,0,.25.08.33.33,0,0,0,.24-.12.31.31,0,0,0,.08-.24.48.48,0,0,0-.11-.34.37.37,0,0,0-.28-.13ZM345,51.68a.88.88,0,0,1,.74-.4.75.75,0,0,1,.38.1.55.55,0,0,1,.24.28.9.9,0,0,1,.09.33.28.28,0,0,1-.08.15.41.41,0,0,1-.19,0c-.67,0-1.08.07-1.21.07h-.19a1,1,0,0,1,.22-.57Zm1.74,2.52a2.14,2.14,0,0,1-.38.23,1.15,1.15,0,0,1-.36.07,1.23,1.23,0,0,1-.72-.23,1.34,1.34,0,0,1-.43-.62,1.83,1.83,0,0,1-.16-.69v-.32a1.29,1.29,0,0,1,0-.19l.37,0H347v-.06a1.25,1.25,0,0,0-.16-.6,1.3,1.3,0,0,0-.47-.54,1.07,1.07,0,0,0-.61-.16,1.41,1.41,0,0,0-.6.13,2,2,0,0,0-.42.3,1.52,1.52,0,0,0-.28.4,4.23,4.23,0,0,0-.24.68,2.31,2.31,0,0,0-.06.52,2.4,2.4,0,0,0,.23,1.09,1.51,1.51,0,0,0,.64.66,1.32,1.32,0,0,0,.56.13,1.6,1.6,0,0,0,.44,0,2.29,2.29,0,0,0,.56-.29,1.79,1.79,0,0,0,.45-.46.08.08,0,0,0,0-.07l0-.19Zm-7.53-.11a1.91,1.91,0,0,1-.48.42.63.63,0,0,1-.3.1.36.36,0,0,1-.27-.12.45.45,0,0,1-.1-.3.82.82,0,0,1,.13-.4,1.79,1.79,0,0,1,.47-.52,2.77,2.77,0,0,1,.57-.34c0,.14,0,.25,0,.34s0,.43,0,.82Zm1.08.17-.05.07a.28.28,0,0,1-.26.18.23.23,0,0,1-.18-.09.43.43,0,0,1-.07-.25V52.52c0-.41,0-.65,0-.72a.83.83,0,0,0-.16-.39.67.67,0,0,0-.3-.25,1.24,1.24,0,0,0-.51-.07,1,1,0,0,0-.58.21,1.55,1.55,0,0,0-.56.63,1.71,1.71,0,0,0-.22.54.07.07,0,0,0,0,.07.23.23,0,0,0,.16.06.46.46,0,0,0,.27-.13,1.06,1.06,0,0,0,.09-.25,1.13,1.13,0,0,1,.23-.59.65.65,0,0,1,.51-.25.44.44,0,0,1,.4.2,1.57,1.57,0,0,1,.15.8c0,.12,0,.23,0,.33l-.5.25a2.62,2.62,0,0,0-.92.73,1.33,1.33,0,0,0-.34.76.58.58,0,0,0,.12.36.4.4,0,0,0,.32.14,1.86,1.86,0,0,0,.48-.06,1.58,1.58,0,0,0,.36-.2l.44-.36a1.08,1.08,0,0,0,.13.43.51.51,0,0,0,.43.2.46.46,0,0,0,.26-.07,1,1,0,0,0,.28-.34.64.64,0,0,0,.1-.24.16.16,0,0,0,0-.09l-.08,0Zm2.78.19a1.15,1.15,0,0,1-.55.11,1,1,0,0,1-.78-.44,2,2,0,0,1-.34-1.19,2.13,2.13,0,0,1,.33-1.2.72.72,0,0,1,.59-.34.52.52,0,0,1,.27.07,1,1,0,0,1,.26.24.67.67,0,0,0,.44.29.32.32,0,0,0,.22-.1.44.44,0,0,0,.08-.25.42.42,0,0,0-.16-.33,1.41,1.41,0,0,0-.85-.22,1.74,1.74,0,0,0-1,.23A1.66,1.66,0,0,0,341,52a2.21,2.21,0,0,0-.23,1,2.71,2.71,0,0,0,.2,1,1.68,1.68,0,0,0,.55.76,1.23,1.23,0,0,0,.8.27,1.44,1.44,0,0,0,.71-.15,2,2,0,0,0,.62-.53V54a2.42,2.42,0,0,1-.56.44Zm-20.32-2.77a.88.88,0,0,1,.74-.4.7.7,0,0,1,.38.1.62.62,0,0,1,.25.28.73.73,0,0,1,.08.33.26.26,0,0,1-.07.15.45.45,0,0,1-.2,0c-.67,0-1.07.07-1.21.07h-.18a1,1,0,0,1,.21-.57Zm1.74,2.52a1.6,1.6,0,0,1-.38.23,1.15,1.15,0,0,1-.36.07,1.18,1.18,0,0,1-.71-.23,1.29,1.29,0,0,1-.44-.62,2,2,0,0,1-.15-.69v-.32a.63.63,0,0,1,0-.19l.38,0h1.9v-.06a1.38,1.38,0,0,0-.16-.6,1.32,1.32,0,0,0-.48-.54,1.06,1.06,0,0,0-.6-.16,1.38,1.38,0,0,0-.6.13,1.58,1.58,0,0,0-.42.31,1.15,1.15,0,0,0-.28.4,2.68,2.68,0,0,0-.24.67,2.31,2.31,0,0,0-.06.52,2.17,2.17,0,0,0,.23,1.09,1.46,1.46,0,0,0,.64.66,1.31,1.31,0,0,0,.55.13,1.71,1.71,0,0,0,.45,0,2.29,2.29,0,0,0,.56-.29,2,2,0,0,0,.45-.46v-.07l0-.19Zm66.17.25a2,2,0,0,1,0-.42c0-.13,0-.25,0-.36v-.88a5,5,0,0,0-.07-1.1,1,1,0,0,0-.3-.48.85.85,0,0,0-.56-.2,1.35,1.35,0,0,0-.28,0,2.39,2.39,0,0,0-.44.18,2.85,2.85,0,0,0-.49.34l-.12.1v-.39c0-.06,0-.17,0-.31h-.13a1.61,1.61,0,0,1-.39.57,1.18,1.18,0,0,1-.44.24v.17a.62.62,0,0,1,.4.18.57.57,0,0,1,.06.36v1.81a.47.47,0,0,1-.05.26.63.63,0,0,1-.3.1l-.23.05a.28.28,0,0,0,0,.09v.06h1.76v-.09a.17.17,0,0,0-.11-.09l-.16,0-.22-.07a.18.18,0,0,1-.13-.06.29.29,0,0,1,0-.1c0-.12,0-.44,0-1v-1c0-.11,0-.23,0-.38a1.76,1.76,0,0,1,.49-.41,1.06,1.06,0,0,1,.52-.13.74.74,0,0,1,.56.22,1.19,1.19,0,0,1,.2.82v.61c0,.57,0,.92,0,1.06s0,.11,0,.13a.37.37,0,0,1-.05.18.23.23,0,0,1-.11.08.4.4,0,0,1-.15,0,.73.73,0,0,0-.3.07.11.11,0,0,0,0,.07l0,.1h1.65a.2.2,0,0,0,0-.11v0a1,1,0,0,0-.44-.14.23.23,0,0,1-.1-.12ZM258.2,57.29h.35V48.67h-.36Zm9.55-5.61a.89.89,0,0,1,.74-.4.76.76,0,0,1,.39.1.67.67,0,0,1,.25.28.93.93,0,0,1,.07.33.26.26,0,0,1-.07.16.58.58,0,0,1-.19,0c-.67,0-1.08.07-1.21.07h-.19a1,1,0,0,1,.22-.57Zm1.75,2.52a2,2,0,0,1-.39.24,1.36,1.36,0,0,1-.36.06,1.23,1.23,0,0,1-.71-.23,1.34,1.34,0,0,1-.43-.62,1.83,1.83,0,0,1-.16-.69v-.32a1.29,1.29,0,0,1,0-.19l.37,0h1.9v-.06a1.38,1.38,0,0,0-.16-.6,1.3,1.3,0,0,0-.47-.54,1.05,1.05,0,0,0-.6-.15,1.24,1.24,0,0,0-.6.12,1.63,1.63,0,0,0-.42.31,1.28,1.28,0,0,0-.29.4,3.12,3.12,0,0,0-.23.67,3.21,3.21,0,0,0-.07.53,2.31,2.31,0,0,0,.24,1.09,1.42,1.42,0,0,0,.63.65,1.24,1.24,0,0,0,.56.13,1.38,1.38,0,0,0,.45,0,2.29,2.29,0,0,0,.56-.29,2,2,0,0,0,.45-.46v-.07l0-.18Zm124.13.21h0a.61.61,0,0,1-.24.15,1.69,1.69,0,0,1-.39.08.36.36,0,0,1-.31-.16,1.4,1.4,0,0,1-.11-.64V51.93a1.09,1.09,0,0,1,0-.26H393l.62,0h.07a1.1,1.1,0,0,0,0-.18s0-.09,0-.15h-.24l-.36,0h-.49v-.57l0-.44h-.12l-.1.27a2.55,2.55,0,0,1-.14.35,1.39,1.39,0,0,1-.23.31.88.88,0,0,1-.24.19.54.54,0,0,0-.18.11.14.14,0,0,0,0,.09.14.14,0,0,0,0,.06l.07,0H392a2.26,2.26,0,0,1,0,.26v1.72a4.62,4.62,0,0,0,0,.83.67.67,0,0,0,.22.33.65.65,0,0,0,.43.13,1.34,1.34,0,0,0,.59-.1,1.07,1.07,0,0,0,.39-.31v0a.08.08,0,0,0,0-.07.06.06,0,0,0-.06,0ZM254.08,51.68a.89.89,0,0,1,.75-.4.75.75,0,0,1,.38.1.65.65,0,0,1,.24.28.76.76,0,0,1,.08.33.26.26,0,0,1-.07.16.63.63,0,0,1-.19,0c-.68,0-1.08.07-1.21.07h-.19a1,1,0,0,1,.21-.57Zm1.75,2.52a3,3,0,0,1-.38.24,1.51,1.51,0,0,1-.37.06,1.23,1.23,0,0,1-.71-.23,1.34,1.34,0,0,1-.43-.62,1.83,1.83,0,0,1-.16-.69v-.32a1.29,1.29,0,0,1,0-.19l.37,0h1.89v-.06a1.24,1.24,0,0,0-.15-.6,1.32,1.32,0,0,0-.48-.54,1.05,1.05,0,0,0-.6-.15,1.24,1.24,0,0,0-.6.12,1.63,1.63,0,0,0-.42.31,1.26,1.26,0,0,0-.28.4,2.68,2.68,0,0,0-.24.67,3.21,3.21,0,0,0-.07.53,2.31,2.31,0,0,0,.24,1.09,1.39,1.39,0,0,0,.64.65,1.17,1.17,0,0,0,.55.13,1.38,1.38,0,0,0,.45,0,2.29,2.29,0,0,0,.56-.29,2,2,0,0,0,.45-.46v-.07l0-.18Zm10.24.42-.32-.08a.14.14,0,0,1-.08-.09,1.38,1.38,0,0,1-.05-.45v-.62c0-.32,0-.56,0-.71V49.5a.35.35,0,0,1,.07-.26.64.64,0,0,1,.23-.05,1.06,1.06,0,0,0,.36-.09.44.44,0,0,0,0-.16c-.36,0-.62,0-.78,0s-.48,0-.72,0h-.27l-.17,0a.88.88,0,0,0,0,.16l.13,0a2.7,2.7,0,0,1,.41.08.11.11,0,0,1,.06.1,6.09,6.09,0,0,1,0,.85c0,.5,0,1,0,1.55l-.22,0-1,0-.39,0h-.75a2.92,2.92,0,0,1-.51,0l0-.44c0-.53,0-1,0-1.54a.86.86,0,0,1,.09-.5,1.21,1.21,0,0,1,.62-.15s.05,0,.06,0a.14.14,0,0,0,0-.07.22.22,0,0,0,0-.08l-.66,0a8.39,8.39,0,0,1-.84,0h-.53v.09s0,.05,0,.08l.26,0a.93.93,0,0,1,.29.05.15.15,0,0,1,.06.09,3.54,3.54,0,0,1,0,.46c0,.09,0,.25,0,.49s0,.44,0,.64v1.26s0,.15,0,.38,0,.43,0,.59V54.2a1.06,1.06,0,0,1-.05.31.22.22,0,0,1-.11.12,1.19,1.19,0,0,1-.36.09.76.76,0,0,0-.32.11v.1h.19l.81,0,.35,0,.5,0h.25l.07,0s0,0,0,0l0,0a2.29,2.29,0,0,0-.28-.09,1.12,1.12,0,0,1-.31-.1.21.21,0,0,1-.07-.13,4.73,4.73,0,0,1,0-.84v-.27c0-.53,0-.82,0-.87v-.32a.22.22,0,0,1,0-.16.2.2,0,0,1,.13,0h.43l.56,0h.69A4.7,4.7,0,0,1,265,52s0,0,0,.07c0,.5,0,.89,0,1.15,0,0,0,.13,0,.33v.66a.35.35,0,0,1-.08.24.46.46,0,0,1-.31.15.89.89,0,0,0-.39.12.28.28,0,0,0,0,.09.25.25,0,0,0,0,.08l.65-.1h.53a4.6,4.6,0,0,1,.91.09h.07l0,0a.12.12,0,0,0-.05-.1.77.77,0,0,0-.28-.12Zm-22.69-5.53a2.16,2.16,0,0,0-1-.2c-.21,0-.42,0-.62,0l-.68,0-.37,0h-.22L240,49,240,49a.19.19,0,0,0,0,.08.15.15,0,0,0,0,.09,1.39,1.39,0,0,1,.73.25.6.6,0,0,1,.09.41v.08c0,.57,0,1.14,0,1.69,0,1.18,0,2,0,2.32v.26c0,.1,0,.16,0,.18a.57.57,0,0,1,0,.26.28.28,0,0,1-.15.08l-.52.12v.11h.65l.7,0a3.27,3.27,0,0,1,.54,0l.22,0a.16.16,0,0,0,.1,0,.13.13,0,0,0,0-.09.15.15,0,0,0-.05-.06l-.24-.07-.56-.15a1.87,1.87,0,0,1,0-.34c0-.06,0-.13,0-.21a1.31,1.31,0,0,0,0-.17l-.05-2.11v-.26c0-.15,0-.54,0-1.17a3.78,3.78,0,0,1,0-.38v-.68a1.26,1.26,0,0,1,.58-.08,2.36,2.36,0,0,1,.45.08,1.07,1.07,0,0,1,.42.19,1.39,1.39,0,0,1,.4.54,1.71,1.71,0,0,1,.16.7,1.66,1.66,0,0,1-.15.7,1.11,1.11,0,0,1-1,.69.8.8,0,0,1-.34-.05.2.2,0,0,0-.11,0,.12.12,0,0,0,0,.05.27.27,0,0,0,.09.12,1.18,1.18,0,0,0,.32.19,1,1,0,0,0,.35,0,1.46,1.46,0,0,0,1.18-.53,1.88,1.88,0,0,0,.44-1.24,2.4,2.4,0,0,0-.2-.88,1.42,1.42,0,0,0-.57-.64Zm2.51,5.56c-.16,0-.26-.06-.29-.12a2.24,2.24,0,0,1,0-.58s0-.16,0-.45c0-.49,0-2,0-4.52v-.25h-.19l-.59.22-.25.09v.1l.29.15a.33.33,0,0,1,.19.14.45.45,0,0,1,0,.23v3.8c0,.51,0,.82,0,.94a.27.27,0,0,1-.05.15,1.71,1.71,0,0,1-.3.09,1,1,0,0,0-.29.07s0,0,0,.07a0,0,0,0,0,0,.06.1.1,0,0,0,.1,0l.67,0,.52,0h.41a.08.08,0,0,0,.07,0,.1.1,0,0,0,0-.07.05.05,0,0,0,0-.06.89.89,0,0,0-.28-.07Zm2.41-.55a2.09,2.09,0,0,1-.48.41.67.67,0,0,1-.3.1.34.34,0,0,1-.27-.12.46.46,0,0,1-.11-.3.82.82,0,0,1,.13-.4,2,2,0,0,1,.48-.52,2.46,2.46,0,0,1,.56-.34c0,.14,0,.26,0,.34s0,.44,0,.83Zm1.08.16,0,.07a.3.3,0,0,1-.26.18.23.23,0,0,1-.18-.09.37.37,0,0,1-.07-.25V52.52a5.15,5.15,0,0,0,0-.72.82.82,0,0,0-.15-.39.67.67,0,0,0-.3-.25,1.26,1.26,0,0,0-.51-.07,1.08,1.08,0,0,0-.59.21,1.46,1.46,0,0,0-.55.63,1.73,1.73,0,0,0-.23.54s0,.06,0,.07a.33.33,0,0,0,.16.07.57.57,0,0,0,.28-.14,1.06,1.06,0,0,0,.09-.25,1.13,1.13,0,0,1,.23-.59.63.63,0,0,1,.51-.25.44.44,0,0,1,.4.21,1.43,1.43,0,0,1,.14.79c0,.12,0,.23,0,.33l-.5.25a2.58,2.58,0,0,0-.91.73,1.33,1.33,0,0,0-.34.76.52.52,0,0,0,.12.36A.4.4,0,0,0,247,55a1.84,1.84,0,0,0,.47-.06,1.58,1.58,0,0,0,.36-.2l.45-.36a1.06,1.06,0,0,0,.12.43.48.48,0,0,0,.43.2.42.42,0,0,0,.27-.07,1,1,0,0,0,.27-.33.77.77,0,0,0,.1-.25.32.32,0,0,0,0-.09l-.09,0Zm2.78.19a1.15,1.15,0,0,1-.55.11,1,1,0,0,1-.78-.44,2,2,0,0,1-.34-1.19,2.13,2.13,0,0,1,.33-1.2.72.72,0,0,1,.59-.34.54.54,0,0,1,.27.07,1,1,0,0,1,.26.24.67.67,0,0,0,.44.29.32.32,0,0,0,.22-.1.44.44,0,0,0,.08-.25.42.42,0,0,0-.16-.33,1.41,1.41,0,0,0-.85-.22,1.74,1.74,0,0,0-1,.23,1.6,1.6,0,0,0-.62.69,2.21,2.21,0,0,0-.23,1,2.51,2.51,0,0,0,.2,1,1.55,1.55,0,0,0,.55.76,1.23,1.23,0,0,0,.8.27,1.44,1.44,0,0,0,.71-.15,2,2,0,0,0,.62-.53V54a2.14,2.14,0,0,1-.56.43Zm63.57-19,11.15-11h1l3.2,11Zm54.08-12.52A6.81,6.81,0,0,0,369,23a2.1,2.1,0,0,0-.43-.05,2.36,2.36,0,0,0-1.22.31,2.5,2.5,0,0,0-.69,1.21,11.66,11.66,0,0,0-3.8-1.5,25.58,25.58,0,0,0-15.23,1.62q-4.1,2.13-4.1,4.78c0,1.29.81,2.28,2.44,2.95a31,31,0,0,0,8,1.57c2.8.29,4.6.53,5.42.72a7.13,7.13,0,0,1,2.79,1.15,2.13,2.13,0,0,1,.91,1.71,3.67,3.67,0,0,1-1.53,2.64A11.55,11.55,0,0,1,357,42.25a24.42,24.42,0,0,1-6.48.84,16.85,16.85,0,0,1-7-1.16c-1.63-.78-2.45-1.68-2.45-2.71a1.69,1.69,0,0,1,.08-.5,1.72,1.72,0,0,0,.08-.38c0-.15-.1-.27-.3-.38a1.57,1.57,0,0,0-.77-.16,2.27,2.27,0,0,0-1.05.23,1.33,1.33,0,0,0-.64.79l-1.38,3.68h-1.32l-5.64-19.56H317a3.44,3.44,0,0,0-1.55.27c-.35.18-.52.39-.52.63a.51.51,0,0,0,.31.46,3.05,3.05,0,0,0,1.2.15h7.77L305.82,42.5h-1.56v-18h1.95a4.6,4.6,0,0,0,1.65-.21c.32-.13.49-.32.49-.54s-.17-.42-.49-.56a4.83,4.83,0,0,0-1.65-.2h-9.32a4.68,4.68,0,0,0-1.63.2c-.31.14-.47.33-.47.56s.16.41.49.54a4.38,4.38,0,0,0,1.61.21h4.2V32.3H280.22V24.45h4.23a4.38,4.38,0,0,0,1.61-.21c.33-.13.49-.32.49-.54s-.16-.42-.49-.56a4.6,4.6,0,0,0-1.61-.2h-9.32a4.83,4.83,0,0,0-1.65.2c-.33.14-.49.33-.49.56s.16.41.49.54a4.6,4.6,0,0,0,1.65.21h1.94V42.5h-3.56a4.54,4.54,0,0,0-1.6.2c-.33.14-.49.33-.49.55s.16.4.49.54a4.14,4.14,0,0,0,1.6.22h10.94a4.19,4.19,0,0,0,1.61-.22c.33-.14.49-.32.49-.54s-.16-.41-.49-.55a4.6,4.6,0,0,0-1.61-.2h-4.23V33.81h20.86V42.5h-4.2a4.3,4.3,0,0,0-1.63.2c-.31.14-.47.33-.47.55s.17.4.49.54a4.22,4.22,0,0,0,1.61.22h16.18a3.46,3.46,0,0,0,1.56-.27c.36-.18.54-.4.54-.65a.47.47,0,0,0-.32-.44,3.13,3.13,0,0,0-1.22-.15h-5L314.19,37h17.3l1.56,5.53h-5a3.44,3.44,0,0,0-1.55.27c-.35.18-.52.39-.52.63a.52.52,0,0,0,.31.45,3.06,3.06,0,0,0,1.2.16h10.43a2.48,2.48,0,0,0,1.07-.23,1.34,1.34,0,0,0,.66-.78l.31-.86A11.09,11.09,0,0,0,344,44a24.64,24.64,0,0,0,5.93.62,30.41,30.41,0,0,0,8.11-1.07,14.28,14.28,0,0,0,5.85-2.82,5,5,0,0,0,1.93-3.63,2.88,2.88,0,0,0-1.19-2.33,9,9,0,0,0-3.52-1.47,59.42,59.42,0,0,0-6.39-.85,27,27,0,0,1-6.61-1.22c-1.25-.5-1.88-1.22-1.88-2.17q0-1.92,3.15-3.5A18,18,0,0,1,357.5,24a13.71,13.71,0,0,1,5.86,1c1.42.69,2.13,1.49,2.13,2.39a1.62,1.62,0,0,1-.08.49,1.63,1.63,0,0,0-.08.37.47.47,0,0,0,.3.4,1.58,1.58,0,0,0,.74.17,2.41,2.41,0,0,0,1.05-.24,1.41,1.41,0,0,0,.67-.77l1.23-3.35h3.46l-6.67,18h-3.55a3.44,3.44,0,0,0-1.55.27q-.51.27-.51.63a.48.48,0,0,0,.31.45A2.84,2.84,0,0,0,362,44h29.05l2.23-6a1.88,1.88,0,0,0,.1-.47c0-.15-.1-.27-.3-.38a1.46,1.46,0,0,0-.74-.16,2.27,2.27,0,0,0-1,.23,1.43,1.43,0,0,0-.67.78L389,42.5H368.75l3.2-8.66h9.43l-.62,1.71a1.4,1.4,0,0,0-.1.45.45.45,0,0,0,.3.4,1.53,1.53,0,0,0,.73.16,2.27,2.27,0,0,0,1.05-.23,1.53,1.53,0,0,0,.68-.78l1.81-4.93a1.45,1.45,0,0,0,.13-.45c0-.16-.1-.29-.32-.4a1.62,1.62,0,0,0-.75-.17,2.41,2.41,0,0,0-1.05.24,1.44,1.44,0,0,0-.67.77l-.63,1.71h-9.43l2.91-7.86h18.84l-1.35,3.69a1.21,1.21,0,0,0-.12.46c0,.15.1.27.3.38a1.54,1.54,0,0,0,.76.17,2.34,2.34,0,0,0,1-.23,1.26,1.26,0,0,0,.65-.78l1.94-5.2ZM288.63,52c-.37,0-.69,0-1,0l0,0a.83.83,0,0,0,0-.15s0-.12.07-.24.08-.24.11-.36c.07-.27.2-.64.37-1.12.1-.28.16-.44.17-.48l0,.09.36,1.06c0,.06.12.35.29.89a2,2,0,0,1,.09.33,4.39,4.39,0,0,1-.54,0ZM291,54.6l-.19-.06a.34.34,0,0,1-.14,0,.72.72,0,0,1-.15-.27c-.05-.13-.17-.49-.34-1.07l-.32-1-.6-1.9c-.11-.32-.19-.56-.23-.72a6.47,6.47,0,0,0-.3-.84h-.26c-.08.29-.15.52-.2.69l-.42,1.31-.38,1.22c-.06.2-.12.4-.19.58s-.07.22-.15.5a12.34,12.34,0,0,1-.47,1.33.67.67,0,0,1-.24.31,1.09,1.09,0,0,1-.36.06h-.19a.17.17,0,0,0-.1,0,.29.29,0,0,0,0,.09v0h1l.73,0h.28a.15.15,0,0,0,0-.07.1.1,0,0,0,0-.07l-.54-.06a1,1,0,0,1-.23,0,.61.61,0,0,1,0-.13,7.27,7.27,0,0,1,.22-.8l.35-1.27a1.18,1.18,0,0,1,.07-.2l.3,0H289a1.43,1.43,0,0,1,.29,0c.25.78.39,1.23.42,1.37l.13.44a2.07,2.07,0,0,1,.1.43.5.5,0,0,1,0,.12.45.45,0,0,1-.25.05l-.42,0a.16.16,0,0,0-.09,0,.5.5,0,0,0,0,.12.13.13,0,0,0,.08,0h1.16l.72,0h.17a.13.13,0,0,0,0-.06.28.28,0,0,0,0-.09l-.25-.1Zm9.82,0c0-.14,0-.25,0-.33s0-.29,0-.67v-.72l0-.47a1.59,1.59,0,0,0-.18-.8,1,1,0,0,0-.8-.48,1.11,1.11,0,0,0-.5.12,1.9,1.9,0,0,0-.44.3,4,4,0,0,0-.37.45c0-.07,0-.13,0-.18l0-.94V49.52c0-.46,0-.73,0-.82h-.2a2.39,2.39,0,0,1-.69.31l-.1,0-.1,0s0,.07,0,.09v0a1.21,1.21,0,0,1,.52.22.38.38,0,0,1,.07.25c0,.14,0,.56,0,1.26v3.54a.17.17,0,0,1-.05.14,1.68,1.68,0,0,1-.53.15.36.36,0,0,0,0,.09v0h.12l.51,0h1.17a.14.14,0,0,0,0-.07v0l-.13-.06-.56-.15a.44.44,0,0,1,0-.1v-.62c0-.36,0-.55,0-.58v-.66a.78.78,0,0,1,0-.3,1.64,1.64,0,0,1,.26-.33,2,2,0,0,1,.31-.27.76.76,0,0,1,.41-.1.71.71,0,0,1,.46.14.64.64,0,0,1,.25.39,3,3,0,0,1,.07.89v.34c0,.72,0,1.11,0,1.19a.17.17,0,0,1-.06.1l-.24.07a.31.31,0,0,0-.2.11v0a.19.19,0,0,0,0,.07h.31l.39,0,.85,0v-.14a2,2,0,0,0-.35-.1Zm-17.23,2.71h.36V48.67h-.36Zm10.05-6.23a.83.83,0,0,0-.41.2.38.38,0,0,0-.11.11l-.09.11a2.42,2.42,0,0,0-.38.58.19.19,0,0,1,0-.08V51.9c0-.53,0-.87,0-1h-.14a1.67,1.67,0,0,1-.33.54,2.05,2.05,0,0,1-.57.34v.14a.83.83,0,0,0,.21.06.56.56,0,0,1,.29.1.57.57,0,0,1,.07.31c0,.16,0,.76,0,1.81a1.06,1.06,0,0,1,0,.35.12.12,0,0,1-.05.07l-.33.06-.24.06a.17.17,0,0,0,0,.1v.06h.67l.22,0h1.25a.09.09,0,0,0,0-.07.06.06,0,0,0,0-.07.4.4,0,0,0-.24,0h-.08a3.08,3.08,0,0,0-.51-.06.3.3,0,0,1-.08-.08.69.69,0,0,1,0-.2V53.4l0-.76a1,1,0,0,1,.12-.44,1.62,1.62,0,0,1,.27-.41.24.24,0,0,1,.16,0,.62.62,0,0,1,.24.08,1.29,1.29,0,0,0,.26.08.42.42,0,0,0,.25-.12.34.34,0,0,0,.07-.24.48.48,0,0,0-.11-.34.35.35,0,0,0-.29-.13Zm-12.58,3.52c0-.14,0-.25,0-.33s0-.29,0-.67V52.39a1.49,1.49,0,0,0-.17-.8,1,1,0,0,0-.8-.48,1.06,1.06,0,0,0-.5.12,1.9,1.9,0,0,0-.44.3,3.16,3.16,0,0,0-.37.45c0-.07,0-.13,0-.18l0-.94V49.52c0-.46,0-.73,0-.81h-.2a2.83,2.83,0,0,1-.69.3l-.1,0-.11,0v.12a1.1,1.1,0,0,1,.52.22.37.37,0,0,1,.07.25c0,.14,0,.56,0,1.26v3.53c0,.08,0,.13,0,.15a2.39,2.39,0,0,1-.54.15.16.16,0,0,0,0,.09v0h.12l.51,0h1.18a.17.17,0,0,0,0-.07v0a.31.31,0,0,0-.13-.06l-.56-.16a.31.31,0,0,1,0-.1v-.62c0-.35,0-.54,0-.57v-.66a1,1,0,0,1,.05-.3,1.64,1.64,0,0,1,.26-.33,1.58,1.58,0,0,1,.31-.27.87.87,0,0,1,.41-.11.77.77,0,0,1,.46.15.61.61,0,0,1,.25.39,3,3,0,0,1,.07.89v.34c0,.71,0,1.11,0,1.19a.21.21,0,0,1-.06.1l-.23.06a.28.28,0,0,0-.21.12v0a.19.19,0,0,0,0,.07h.31l.39,0,.85,0v-.15l-.35-.1Zm15.61-.13a1.15,1.15,0,0,1-.55.11,1,1,0,0,1-.78-.44,2,2,0,0,1-.34-1.19,2.13,2.13,0,0,1,.33-1.2.72.72,0,0,1,.59-.34.52.52,0,0,1,.27.07,1.22,1.22,0,0,1,.27.24.6.6,0,0,0,.43.29.3.3,0,0,0,.22-.1.44.44,0,0,0,.08-.25.42.42,0,0,0-.16-.33,1.43,1.43,0,0,0-.85-.22,1.74,1.74,0,0,0-1,.23,1.58,1.58,0,0,0-.61.69,2.09,2.09,0,0,0-.24,1,2.71,2.71,0,0,0,.2,1,1.68,1.68,0,0,0,.55.76,1.23,1.23,0,0,0,.8.27,1.44,1.44,0,0,0,.71-.15,2,2,0,0,0,.62-.53V54a2.42,2.42,0,0,1-.56.44ZM270.05,31.27a12.28,12.28,0,0,1-4.46,1.83,27.09,27.09,0,0,1-6.53.74H249v-9.4h11.2a20,20,0,0,1,8.06,1.42q3.18,1.42,3.18,3.2a2.93,2.93,0,0,1-1.4,2.2Zm4.55-2.2q0-2.47-4.1-4.3a26.06,26.06,0,0,0-10.58-1.84H241.65a4.38,4.38,0,0,0-1.61.21c-.33.13-.49.32-.49.55s.16.41.49.55a4.6,4.6,0,0,0,1.61.2h4.23V42.49h-4.23a4.6,4.6,0,0,0-1.61.2c-.33.14-.49.33-.49.56s.16.4.49.53a4.19,4.19,0,0,0,1.61.22h18.16a4.19,4.19,0,0,0,1.61-.22c.33-.14.49-.32.49-.53s-.16-.42-.49-.56a4.6,4.6,0,0,0-1.61-.2H249V35.36h9.85a34.7,34.7,0,0,0,5.39-.35,31.31,31.31,0,0,0,5.81-1.47,9.75,9.75,0,0,0,3.2-1.84,3.47,3.47,0,0,0,1.33-2.63Zm2.91,25.34h0a.61.61,0,0,1-.24.15,1.8,1.8,0,0,1-.39.08.36.36,0,0,1-.31-.17,1.22,1.22,0,0,1-.11-.63V51.93a1.24,1.24,0,0,1,0-.27h.38l.62,0h.06a1.13,1.13,0,0,0,0-.18s0-.1,0-.15h-.24l-.36,0h-.49v-.57l0-.43h-.12c0,.05-.06.14-.1.27a3.65,3.65,0,0,1-.14.35,1.39,1.39,0,0,1-.23.31.88.88,0,0,1-.24.19.54.54,0,0,0-.18.11.16.16,0,0,0,0,.09.14.14,0,0,0,0,.06l.06,0h.43a2.26,2.26,0,0,1,0,.26v1.72a4.57,4.57,0,0,0,0,.83.74.74,0,0,0,.22.33.66.66,0,0,0,.43.13,1.34,1.34,0,0,0,.59-.1,1.07,1.07,0,0,0,.39-.31v0a.08.08,0,0,0,0-.07s0,0-.06,0Zm-5.44-.32a2.13,2.13,0,0,1-.48.42.67.67,0,0,1-.3.1.34.34,0,0,1-.27-.12.42.42,0,0,1-.1-.3.73.73,0,0,1,.13-.4,1.79,1.79,0,0,1,.47-.52,2.77,2.77,0,0,1,.57-.34c0,.14,0,.25,0,.34s0,.43,0,.82Zm1.08.17,0,.07a.3.3,0,0,1-.25.18.23.23,0,0,1-.18-.09.38.38,0,0,1-.08-.25,1.72,1.72,0,0,1,0-.2V52.52c0-.41,0-.65,0-.72a.79.79,0,0,0-.16-.39.62.62,0,0,0-.3-.25,1.44,1.44,0,0,0-.51-.08,1.2,1.2,0,0,0-.58.21,1.69,1.69,0,0,0-.56.63,1.86,1.86,0,0,0-.22.55.1.1,0,0,0,0,.07.23.23,0,0,0,.16.06.46.46,0,0,0,.27-.13,1.3,1.3,0,0,0,.1-.25,1.1,1.1,0,0,1,.22-.6.67.67,0,0,1,.51-.24.44.44,0,0,1,.4.2,1.55,1.55,0,0,1,.15.79c0,.13,0,.23,0,.34l-.5.25a2.61,2.61,0,0,0-.92.72,1.39,1.39,0,0,0-.34.77.58.58,0,0,0,.12.36.4.4,0,0,0,.32.14,2,2,0,0,0,.48-.06,1.58,1.58,0,0,0,.36-.2l.44-.36a.94.94,0,0,0,.13.43.51.51,0,0,0,.43.2.48.48,0,0,0,.26-.07,1,1,0,0,0,.28-.34.63.63,0,0,0,.09-.24.29.29,0,0,0,0-.09l-.09,0Zm111.74-2.58a.88.88,0,0,1,.74-.4.76.76,0,0,1,.39.1.62.62,0,0,1,.25.28.88.88,0,0,1,.07.32.24.24,0,0,1-.07.16.45.45,0,0,1-.2,0c-.67,0-1.07.07-1.21.07h-.19a1.05,1.05,0,0,1,.22-.57Zm1.75,2.52a2.14,2.14,0,0,1-.38.23,1.51,1.51,0,0,1-.37.07,1.23,1.23,0,0,1-.71-.23,1.44,1.44,0,0,1-.44-.62,2,2,0,0,1-.15-.69v-.32a1.29,1.29,0,0,1,0-.19l.37,0h1.9v-.07a1.41,1.41,0,0,0-.16-.6,1.27,1.27,0,0,0-.47-.53,1.06,1.06,0,0,0-.6-.16,1.35,1.35,0,0,0-.6.13,1.6,1.6,0,0,0-.42.3,1.41,1.41,0,0,0-.29.4,3.41,3.41,0,0,0-.23.68,3.09,3.09,0,0,0-.07.52,2.29,2.29,0,0,0,.24,1.09,1.42,1.42,0,0,0,.63.65,1.25,1.25,0,0,0,.56.14,1.71,1.71,0,0,0,.45,0,2.29,2.29,0,0,0,.56-.29,2,2,0,0,0,.45-.46v-.07l0-.19Zm-111.79.45c-.17,0-.26-.06-.29-.12a2.24,2.24,0,0,1,0-.58s0-.17,0-.45c0-.49,0-2,0-4.52v-.26h-.18l-.6.23-.24.09v.1l.29.14a.4.4,0,0,1,.19.15.45.45,0,0,1,0,.23v3.8a9,9,0,0,1,0,.93.23.23,0,0,1,0,.16,1.11,1.11,0,0,1-.3.08,1.38,1.38,0,0,0-.29.08.08.08,0,0,0,0,.07.09.09,0,0,0,0,.06.09.09,0,0,0,.1,0l.67,0,.52,0,.42,0a.07.07,0,0,0,.06,0,.1.1,0,0,0,0-.07.09.09,0,0,0,0-.07,1.36,1.36,0,0,0-.29-.06Z"/>
    <path class="cls-1" d="M73.56,45.45v-.13A1.25,1.25,0,0,1,74.71,44H75c.88,0,1.38.43,1.38,1.7A7.17,7.17,0,0,1,76.23,47l1.76.11a12.64,12.64,0,0,0,.13-1.63c0-1.92-1-3.27-3.2-3.27a3.24,3.24,0,0,0-3.51,2.95,2.72,2.72,0,0,0,0,.28v.15c0,1.69,1.24,3.17,2.66,4.53,1.66,1.61,2.13,2.24,2.13,3.25v.25A1.32,1.32,0,0,1,75,55.09a1,1,0,0,1-.3,0c-.84,0-1.5-.55-1.5-1.73A6.48,6.48,0,0,1,73.38,52l-1.76-.11a9.31,9.31,0,0,0-.16,1.59c0,2.24,1.17,3.42,3.31,3.42a3.34,3.34,0,0,0,3.56-3.1c0-.11,0-.23,0-.34v-.17c0-1.44-.58-2.64-3-5.05-1.35-1.34-1.8-1.91-1.8-2.79Zm3.09-11.56c0,1.07-.38,1.8-1.37,1.8s-1.39-.76-1.39-1.66V26.28c0-1,.4-1.72,1.33-1.72s1.39.4,1.39,1.87a5.16,5.16,0,0,1-.13,1.31l1.8.14a10.21,10.21,0,0,0,.14-1.65c0-2.36-1.21-3.5-3.16-3.5s-3.51,1-3.51,3.74v7.24c0,2.67,1.12,3.7,3.08,3.7A2.81,2.81,0,0,0,77.27,36h.07L78,37.19h.82V30.45H76.65ZM57.12,18.54A15.4,15.4,0,0,0,45.38,17a15.64,15.64,0,0,0-2.65,1A15.45,15.45,0,0,0,27.35,44.66a15.45,15.45,0,0,0,30.32,2.77,16.67,16.67,0,0,0,.48-2.81,15.4,15.4,0,0,0-1-26.08ZM42.78,20.65A13.13,13.13,0,0,1,49,29.3a15.45,15.45,0,0,0-12.36-.05A12.6,12.6,0,0,1,38,25.37a13,13,0,0,1,4.75-4.72ZM49.22,32a13.13,13.13,0,0,1-6.48,11.2,13,13,0,0,1-6-7.91,13.29,13.29,0,0,1-.4-3.32,13.11,13.11,0,0,1,12.91,0ZM27.41,41.72A13.09,13.09,0,0,1,36.1,18.81a12.9,12.9,0,0,1,4.13.67A15.37,15.37,0,0,0,34,30.71a15.41,15.41,0,0,0-6.58,11ZM34,33.61a16.57,16.57,0,0,0,.41,2.32,15.36,15.36,0,0,0,5.78,8.44,12.86,12.86,0,0,1-4.13.68,13,13,0,0,1-6.45-1.72A13.15,13.15,0,0,1,34,33.61ZM55.42,46.82a13,13,0,0,1-6.12,8,13.1,13.1,0,0,1-19.4-8.71,15.29,15.29,0,0,0,12.86-.22,15.21,15.21,0,0,0,12.78.22c0,.25,0,.5-.12.75ZM45.23,44.37a15.41,15.41,0,0,0,6.23-10.74,13.34,13.34,0,0,1,2.65,3.24,13,13,0,0,1,1.7,6.47,13.11,13.11,0,0,1-10.58,1Zm15.52-5.88a13.25,13.25,0,0,1-2.64,3.23,15.5,15.5,0,0,0-2-6,15.35,15.35,0,0,0-4.63-5,15.46,15.46,0,0,0-6.21-11.2c.24-.07.46-.2.7-.26A13.12,13.12,0,0,1,60.74,38.48Zm25.91-3.12H83.05v-4.7h3.1V28.86H83.06V24.78h3.57V23H80.91V37.18h5.76Zm42.13,2a3.29,3.29,0,0,0,3.55-3.65V26.45c0-2.76-1.62-3.73-3.55-3.73s-3.61,1-3.61,3.73v7.31a3.36,3.36,0,0,0,3.61,3.65Zm-1.46-11.25a1.38,1.38,0,0,1,1.18-1.57,1.1,1.1,0,0,1,.26,0A1.42,1.42,0,0,1,130.18,26a.91.91,0,0,1,0,.17V34c0,1-.52,1.61-1.39,1.61a1.44,1.44,0,0,1-1.47-1.42c0-.07,0-.14,0-.21ZM83.87,42.21c-1.92,0-3.61,1-3.61,3.72v7.31a3.31,3.31,0,0,0,3.61,3.65,3.3,3.3,0,0,0,3.56-3,3.42,3.42,0,0,0,0-.64V45.93c0-2.75-1.63-3.72-3.56-3.72Zm1.39,11.28c0,1-.53,1.61-1.39,1.61a1.44,1.44,0,0,1-1.47-1.42,1.48,1.48,0,0,1,0-.21V45.65a1.4,1.4,0,0,1,1.18-1.58,1.15,1.15,0,0,1,.26,0,1.42,1.42,0,0,1,1.42,1.41,1.1,1.1,0,0,1,0,.18Zm57.44-11-2.51,14.22h1.94l.32-2.12h2.68l.35,2.12h2.17l-2.52-14.22Zm0,10.29,1-7.39h.09l1.07,7.39ZM141,35c0-.34,0-.92,0-1.33,0-1.91-.41-2.94-1.85-3.27v-.1c1.55-.45,2.17-1.72,2.17-3.74,0-2.51-1.4-3.63-3.33-3.63h-3.54V37.19h2.15V31.35h.79c1.12,0,1.35.73,1.4,2.51,0,.88,0,1.57.08,2.6a2,2,0,0,0,.13.73h2.28A5.58,5.58,0,0,1,141,35Zm-3.48-5.41h-.94V24.79h1c1,0,1.59.5,1.59,2.22,0,2.06-.67,2.62-1.63,2.62Zm-1.3,19h-3V42.45h-2.15V56.67h2.15V50.41h3v6.26h2.15V42.46h-2.15Zm18.18,1.91h-.07l-2.87-8h-2.07V56.67h1.92V47.81h.07l3.12,8.86h1.82V42.45h-1.92Zm15.37,4.36v-4.7h3.09V48.34h-3.09V44.27h3.58V42.45h-5.73V56.67h5.76V54.85Zm-6.41-1.48c0,1.07-.37,1.8-1.37,1.8s-1.38-.77-1.38-1.67V45.77c0-1.05.39-1.72,1.33-1.72s1.38.39,1.38,1.87a4.46,4.46,0,0,1-.13,1.31l1.8.13a11.24,11.24,0,0,0,.15-1.65c0-2.35-1.22-3.5-3.16-3.5s-3.52,1-3.52,3.75V53.2c0,2.67,1.12,3.7,3.08,3.7A2.86,2.86,0,0,0,164,55.53h.07l.64,1.14h.82V49.94H163.4Zm-34.33-6.12a11.43,11.43,0,0,0,.11-1.75c0-2.44-1.33-3.3-3.2-3.3s-3.44,1-3.44,3.86v7.09c0,2.8,1.51,3.76,3.42,3.76s3.22-.85,3.22-3.3a9.53,9.53,0,0,0-.13-1.77l-1.76.15a6.13,6.13,0,0,1,.11,1.29c0,1.36-.45,1.81-1.29,1.81s-1.42-.62-1.42-1.55v-8A1.41,1.41,0,0,1,126,44h.16c.86,0,1.28.41,1.28,1.83a6.75,6.75,0,0,1-.12,1.27Zm-24.59-4.8L102,56.67h2l.32-2.11h2.67l.36,2.11h2.17l-2.53-14.21Zm0,10.28,1-7.38h.1l1.06,7.38Zm-3.19-24.2L103.64,23h-2.12l-3,7.67h0V23H96.29V37.19h2.16V33.65L100,30.94l1.52,6.25h2.24ZM98.06,56.67h2.15V42.45H98.06Zm-2-9.41a11.48,11.48,0,0,0,.11-1.76c0-2.43-1.33-3.29-3.2-3.29s-3.44,1-3.44,3.85v7.09c0,2.8,1.51,3.76,3.42,3.76s3.22-.84,3.22-3.29A9.7,9.7,0,0,0,96,51.84L94.27,52a5.63,5.63,0,0,1,.11,1.29c0,1.37-.45,1.82-1.29,1.82-1,0-1.42-.62-1.42-1.56v-8A1.4,1.4,0,0,1,92.93,44h.16c.86,0,1.27.42,1.27,1.84a6.06,6.06,0,0,1-.11,1.27Zm17.31-4.81h-2.15V56.67H117V54.85h-3.61ZM123,29.37h-3.08V24.78h3.57V23h-5.73V37.19h2.15v-6H123Zm-28.59,6H90.76v-4.7h3.09V28.86H90.76V24.78h3.57V23H88.61V37.18h5.76Zm17.55-1.57c0-1.44-.58-2.64-3-5-1.35-1.35-1.8-1.91-1.8-2.79v-.13a1.24,1.24,0,0,1,1.16-1.33,1,1,0,0,1,.24,0c.89,0,1.39.43,1.39,1.7a8.4,8.4,0,0,1-.11,1.32l1.75.11A11.09,11.09,0,0,0,111.7,26c0-1.93-1-3.27-3.2-3.27A3.23,3.23,0,0,0,105,25.68a2.72,2.72,0,0,0,0,.28v.15c0,1.69,1.24,3.16,2.66,4.53,1.66,1.61,2.13,2.24,2.13,3.25v.25a1.31,1.31,0,0,1-1.16,1.47,1,1,0,0,1-.3,0c-.84,0-1.5-.55-1.5-1.73a6.48,6.48,0,0,1,.15-1.38l-1.76-.11A10.45,10.45,0,0,0,105,34c0,2.24,1.18,3.42,3.31,3.42a3.34,3.34,0,0,0,3.57-3.1c0-.12,0-.23,0-.34Z"/>
    <path id="Path_1908" data-name="Path 1908" class="cls-2" d="M208,39V33h-3v6h-6v3h6v6h3V42h6V39Z"/>
  </g>
</svg>
