<svg id="Layer_1" data-name="Layer 1" xmlns="http://www.w3.org/2000/svg" width="192" height="80" viewBox="0 0 192 80">
  <defs>
    <style>
      .cls-1 {
        fill: #fffcf0;
      }
    </style>
  </defs>
  <title>PlaceCal</title>
  <path class="cls-1" d="M73.56,45.45v-.13A1.25,1.25,0,0,1,74.71,44H75c.88,0,1.38.43,1.38,1.7A7.17,7.17,0,0,1,76.23,47l1.76.11a12.64,12.64,0,0,0,.13-1.63c0-1.92-1-3.27-3.2-3.27a3.24,3.24,0,0,0-3.51,2.95,2.72,2.72,0,0,0,0,.28v.15c0,1.69,1.24,3.17,2.66,4.53,1.66,1.61,2.13,2.25,2.13,3.25v.25A1.32,1.32,0,0,1,75,55.09a1,1,0,0,1-.3,0c-.84,0-1.5-.55-1.5-1.73A6.48,6.48,0,0,1,73.38,52l-1.76-.11a9.31,9.31,0,0,0-.16,1.59c0,2.24,1.17,3.42,3.3,3.42a3.34,3.34,0,0,0,3.57-3.1c0-.11,0-.23,0-.34v-.17c0-1.44-.58-2.64-3-5.05-1.35-1.34-1.8-1.91-1.8-2.79Zm3.09-11.56c0,1.07-.38,1.8-1.37,1.8s-1.39-.76-1.39-1.66V26.28c0-1,.4-1.71,1.33-1.71s1.39.39,1.39,1.86a5.16,5.16,0,0,1-.13,1.31l1.8.14a10.21,10.21,0,0,0,.14-1.65c0-2.36-1.21-3.5-3.16-3.5s-3.51,1-3.51,3.74v7.24c0,2.67,1.12,3.7,3.08,3.7A2.81,2.81,0,0,0,77.27,36h.07L78,37.19h.82V30.45H76.65ZM57.12,18.54A15.4,15.4,0,0,0,45.38,17a15.64,15.64,0,0,0-2.65,1A15.45,15.45,0,0,0,27.35,44.66a15.45,15.45,0,0,0,30.32,2.77,16.67,16.67,0,0,0,.48-2.81,15.4,15.4,0,0,0-1-26.08ZM42.78,20.65A13.16,13.16,0,0,1,49,29.3a15.45,15.45,0,0,0-12.36-.05A12.6,12.6,0,0,1,38,25.37a13,13,0,0,1,4.75-4.72ZM49.22,32a13.12,13.12,0,0,1-6.48,11.19,13,13,0,0,1-6-7.91,13.29,13.29,0,0,1-.4-3.32,13.11,13.11,0,0,1,12.91,0ZM27.41,41.72A13.09,13.09,0,0,1,36.1,18.81a12.9,12.9,0,0,1,4.13.67A15.37,15.37,0,0,0,34,30.71a15.41,15.41,0,0,0-6.58,11ZM34,33.61a16.57,16.57,0,0,0,.41,2.32,15.42,15.42,0,0,0,5.78,8.45,13,13,0,0,1-10.58-1.05A13.15,13.15,0,0,1,34,33.61ZM55.42,46.82a13,13,0,0,1-6.12,8,13.1,13.1,0,0,1-19.4-8.71,15.29,15.29,0,0,0,12.86-.22,15.42,15.42,0,0,0,6.6,1.53,15.64,15.64,0,0,0,6.18-1.3c0,.24,0,.5-.12.74ZM45.23,44.38a15.45,15.45,0,0,0,6.23-10.75,13.34,13.34,0,0,1,2.65,3.24,13,13,0,0,1,1.7,6.48,13.19,13.19,0,0,1-10.58,1Zm15.52-5.89a13.25,13.25,0,0,1-2.64,3.23,15.5,15.5,0,0,0-2-6,15.35,15.35,0,0,0-4.63-5,15.46,15.46,0,0,0-6.21-11.2c.24-.07.46-.2.7-.26A13.12,13.12,0,0,1,60.74,38.48Zm25.91-3.12H83.05v-4.7h3.1V28.86H83.06V24.78h3.57V23H80.91V37.18h5.76Zm42.13,2a3.29,3.29,0,0,0,3.55-3.65V26.45c0-2.75-1.62-3.73-3.55-3.73s-3.61,1-3.61,3.73v7.31a3.36,3.36,0,0,0,3.61,3.65Zm-1.46-11.24a1.38,1.38,0,0,1,1.18-1.58,1.1,1.1,0,0,1,.26,0A1.42,1.42,0,0,1,130.18,26a1.09,1.09,0,0,1,0,.18V34c0,1-.52,1.61-1.39,1.61a1.44,1.44,0,0,1-1.47-1.42c0-.07,0-.14,0-.21Zm-43.46,16c-1.92,0-3.61,1-3.61,3.72v7.31a3.31,3.31,0,0,0,3.61,3.65,3.3,3.3,0,0,0,3.56-3,3.42,3.42,0,0,0,0-.64V45.93c0-2.75-1.63-3.72-3.56-3.72Zm1.39,11.28c0,1-.53,1.61-1.39,1.61a1.44,1.44,0,0,1-1.47-1.42,1.48,1.48,0,0,1,0-.21V45.65a1.4,1.4,0,0,1,1.18-1.58,1.15,1.15,0,0,1,.26,0,1.42,1.42,0,0,1,1.42,1.41,1.1,1.1,0,0,1,0,.18Zm57.44-11-2.51,14.22h1.94l.32-2.12h2.68l.35,2.12h2.17l-2.52-14.22Zm0,10.29,1-7.39h.09l1.07,7.39ZM141,35c0-.34,0-.92,0-1.33,0-1.91-.41-2.94-1.85-3.27v-.1c1.55-.45,2.17-1.72,2.17-3.74,0-2.51-1.4-3.63-3.33-3.63h-3.54V37.19h2.15V31.35h.79c1.12,0,1.35.73,1.4,2.51,0,.88,0,1.57.08,2.6a2,2,0,0,0,.13.73h2.28A5.58,5.58,0,0,1,141,35Zm-3.48-5.41h-.94V24.79h1c1,0,1.59.5,1.59,2.22,0,2.06-.67,2.62-1.63,2.62Zm-1.3,19h-3V42.45h-2.15V56.67h2.15V50.41h3v6.27h2.15V42.46h-2.15Zm18.18,1.91h-.07l-2.87-8h-2.07V56.67h1.92V47.81h.07l3.12,8.86h1.82V42.46h-1.92Zm15.37,4.36v-4.7h3.09V48.34h-3.09V44.27h3.58V42.45h-5.73V56.67h5.76V54.85Zm-6.41-1.48c0,1.07-.37,1.8-1.37,1.8s-1.38-.77-1.38-1.67V45.77c0-1.05.39-1.72,1.33-1.72s1.38.39,1.38,1.87a4.46,4.46,0,0,1-.13,1.31l1.8.13a11.24,11.24,0,0,0,.15-1.65c0-2.35-1.22-3.5-3.16-3.5s-3.52,1-3.52,3.75V53.2c0,2.67,1.12,3.7,3.08,3.7A2.86,2.86,0,0,0,164,55.53h.07l.64,1.14h.82V49.94H163.4Zm-34.33-6.12a11.43,11.43,0,0,0,.11-1.75c0-2.43-1.33-3.3-3.2-3.3s-3.44,1-3.44,3.86v7.09c0,2.8,1.51,3.76,3.42,3.76s3.22-.85,3.22-3.3a9.53,9.53,0,0,0-.13-1.77l-1.76.15a6.13,6.13,0,0,1,.11,1.29c0,1.36-.45,1.81-1.29,1.81s-1.42-.62-1.42-1.55v-8A1.41,1.41,0,0,1,126,44h.16c.86,0,1.27.41,1.27,1.83a6,6,0,0,1-.11,1.27Zm-24.59-4.8L102,56.67h2l.32-2.11h2.67l.36,2.11h2.17l-2.53-14.21Zm0,10.28,1-7.38h.1l1.06,7.38Zm-3.19-24.2L103.64,23h-2.12l-3,7.67h0V23H96.29V37.19h2.16V33.65L100,30.94l1.52,6.25h2.24ZM98.06,56.67h2.15V42.45H98.06Zm-2-9.41a11.48,11.48,0,0,0,.11-1.76c0-2.43-1.33-3.29-3.2-3.29s-3.44,1-3.44,3.85v7.09c0,2.8,1.51,3.76,3.42,3.76s3.22-.84,3.22-3.29A9.7,9.7,0,0,0,96,51.84L94.27,52a5.63,5.63,0,0,1,.11,1.29c0,1.37-.45,1.82-1.29,1.82-1,0-1.42-.62-1.42-1.56v-8A1.4,1.4,0,0,1,92.93,44h.16c.86,0,1.27.42,1.27,1.84a6.06,6.06,0,0,1-.11,1.27Zm17.31-4.81h-2.15V56.67H117V54.85h-3.61ZM123,29.37h-3.08V24.78h3.57V23h-5.73V37.19h2.15v-6H123Zm-28.59,6H90.76v-4.7h3.09V28.86H90.76V24.78h3.57V23H88.61V37.18h5.76Zm17.55-1.57c0-1.44-.58-2.64-3-5-1.35-1.35-1.8-1.91-1.8-2.79v-.13a1.24,1.24,0,0,1,1.16-1.33,1,1,0,0,1,.24,0c.89,0,1.39.44,1.39,1.7a8.4,8.4,0,0,1-.11,1.32l1.75.11A11.09,11.09,0,0,0,111.7,26c0-1.93-1-3.27-3.2-3.27A3.23,3.23,0,0,0,105,25.68a2.72,2.72,0,0,0,0,.28v.15c0,1.69,1.24,3.17,2.66,4.53,1.66,1.61,2.13,2.24,2.13,3.25v.25a1.31,1.31,0,0,1-1.16,1.47,1,1,0,0,1-.3,0c-.84,0-1.5-.55-1.5-1.73a6.48,6.48,0,0,1,.15-1.38l-1.76-.11A10.59,10.59,0,0,0,105,34c0,2.24,1.18,3.42,3.31,3.42a3.34,3.34,0,0,0,3.57-3.1c0-.12,0-.23,0-.34Z"/>
</svg>
