<svg id="Layer_1" data-name="Layer 1" xmlns="http://www.w3.org/2000/svg" width="192" height="80" viewBox="0 0 192 80">
  <defs>
    <style>
      .cls-1 {
        fill: #fffcf0;
      }
    </style>
  </defs>
  <title>PlaceCal</title>
  <path id="Path_821" data-name="Path 821" class="cls-1" d="M41.91,34.5a6.47,6.47,0,0,0-5.16,2.12h-.07V35H31V51.18h5.73V42.81c0-2,.66-3.75,3-3.75,2.84,0,2.59,2.71,2.59,4.25v7.87H48v-10C48,37.24,46.26,34.5,41.91,34.5Zm51.15-4.28H87.33v4.85l-2.55,0v4.73l2.55,0V51.22h5.73V39.79l2.55,0V35l-2.55,0ZM59,34.5c-5.05,0-8.58,3.24-8.58,8.63,0,5.57,3.84,8.6,9,8.6,3.53,0,7.12-2,8-5.8H62.6a4,4,0,0,1-3.32,1.74,3.47,3.47,0,0,1-3.51-3.39H67.5v-.6C67.5,38.16,64.39,34.5,59,34.5ZM56,41a3.3,3.3,0,0,1,6.51,0Zm22.52,0c-.79-.16-3-.4-2.83-1.5.1-.81,1.26-1,1.91-.89a7.08,7.08,0,0,1,3,1.13l2.32-3.41a12.8,12.8,0,0,0-5.17-1.64c-3.5-.4-7.27,1-7.72,4.89-.33,2.88,2.08,4.5,3.88,5s4,.71,3.85,2c-.1.87-1.2,1.1-1.92,1a9.32,9.32,0,0,1-4.32-2.14l-2.52,3.73a12.58,12.58,0,0,0,6.27,2.59c3.72.42,7.79-.89,8.25-5.12.37-3.39-2.07-5.08-5-5.6Zm30.9-4.85a7.69,7.69,0,0,0-4.71-1.57c-4.57,0-7.81,3.51-7.81,8.6s3.3,8.63,7.87,8.63A6.13,6.13,0,0,0,109.32,50h.06v1.22h5.48V35h-5.48ZM105.71,46.9a3.61,3.61,0,0,1-3.85-3.34c0-.15,0-.29,0-.43a3.86,3.86,0,1,1,7.71,0,3.6,3.6,0,0,1-3.42,3.78Zm42.89-31a5.25,5.25,0,1,0-5.25-5.25h0a5.25,5.25,0,0,0,5.25,5.25Zm9,6a3.75,3.75,0,1,0,3.75,3.75h0a3.75,3.75,0,0,0-3.75-3.75Zm-13.91,15v21a10.49,10.49,0,0,0,0-21Zm-18.33,15a3,3,0,1,0,3,3,3,3,0,0,0-3-3Zm3-15a15,15,0,0,0,14.66,15v-30a15,15,0,0,0-14.67,15Z"/>
</svg>
