<svg id="Layer_1" data-name="Layer 1" xmlns="http://www.w3.org/2000/svg" width="192" height="80" viewBox="0 0 192 80">
  <defs>
    <style>
      .cls-1 {
        fill: #fffcf0;
      }
    </style>
  </defs>
  <title>PlaceCal</title>
  <path class="cls-1" d="M96.55,54h0a.71.71,0,0,1-.2,0s0,0-.06-.09v-1c0-.67,0-1.23,0-1.69v-.32H95V51l0,.09.2,0a.87.87,0,0,1,.49.14,2.84,2.84,0,0,1,.06.82v.25c0,.15,0,.45,0,.9,0,.12,0,.25,0,.37a1.72,1.72,0,0,1-.46.34,1.18,1.18,0,0,1-.55.14.73.73,0,0,1-.41-.12.55.55,0,0,1-.22-.32,5.47,5.47,0,0,1,0-1s0-.16,0-.39c0-.4,0-.81,0-1.23v-.08H93v.14l.14,0a2,2,0,0,1,.33.09.16.16,0,0,1,.06.13V52a1.11,1.11,0,0,0,0,.19v.32s0,.15,0,.3a1.1,1.1,0,0,0,0,.16,2,2,0,0,0,.27,1.19.83.83,0,0,0,.68.35A1,1,0,0,0,95,54.4a3.46,3.46,0,0,0,.67-.46.53.53,0,0,1,.12-.1v.48s0,.09,0,.2l.22-.08a8,8,0,0,1,.87-.26v-.13l-.3,0Zm2.66-3.27a.91.91,0,0,0-.42.2.38.38,0,0,0-.11.11l-.09.1a2.46,2.46,0,0,0-.38.57v-.16c0-.52,0-.85,0-1h-.14a1.55,1.55,0,0,1-.34.53,2.46,2.46,0,0,1-.56.34v.13a.73.73,0,0,0,.21.06.63.63,0,0,1,.29.1.6.6,0,0,1,.07.3c0,.15,0,.74,0,1.75a1.37,1.37,0,0,1,0,.35.15.15,0,0,1,0,.06l-.34.07-.23.05a.3.3,0,0,0,0,.1l0,.06.67,0H99.2a.25.25,0,0,0,0-.07.08.08,0,0,0,0-.07.4.4,0,0,0-.24-.05h-.08l-.51-.06a.3.3,0,0,1-.08-.08.63.63,0,0,1,0-.19V53l0-.74a1.06,1.06,0,0,1,.12-.43,1.76,1.76,0,0,1,.27-.4.29.29,0,0,1,.16,0,1,1,0,0,1,.25.08,1,1,0,0,0,.25.08.37.37,0,0,0,.24-.12.29.29,0,0,0,.08-.23.44.44,0,0,0-.11-.33.37.37,0,0,0-.28-.13ZM154.83,54a1.79,1.79,0,0,1,0-.4v-.35a1.74,1.74,0,0,0,0-.18v-.68a4.69,4.69,0,0,0-.07-1.06.87.87,0,0,0-.3-.47.83.83,0,0,0-.56-.19,1.27,1.27,0,0,0-.28,0,1.7,1.7,0,0,0-.44.18,2.41,2.41,0,0,0-.5.33l-.11.09V51c0-.06,0-.16,0-.3h-.14a1.44,1.44,0,0,1-.38.54,1.26,1.26,0,0,1-.44.24v.17a.66.66,0,0,1,.4.17.72.72,0,0,1,.06.36v1.37a1.55,1.55,0,0,1,0,.23v.16a.4.4,0,0,1-.05.24.67.67,0,0,1-.3.1l-.23,0s0,.06,0,.09v.06h1.76v-.09a.17.17,0,0,0-.11-.09l-.16-.05-.22-.06a.26.26,0,0,1-.13-.06.17.17,0,0,1,0-.1c0-.11,0-.43,0-1v-1c0-.09,0-.22,0-.37a1.69,1.69,0,0,1,.49-.39,1.06,1.06,0,0,1,.52-.13.74.74,0,0,1,.56.22,1.18,1.18,0,0,1,.2.8v.59c0,.55,0,.89,0,1s0,.1,0,.12a.53.53,0,0,1-.05.18l-.11.08-.16,0a1.09,1.09,0,0,0-.3.07l0,.07,0,.1h.53l.51,0h.61a.36.36,0,0,0,0-.11v0a.87.87,0,0,0-.45-.13.29.29,0,0,1-.1-.12Zm-11.1-4.83a.36.36,0,0,0,0-.52.32.32,0,0,0-.26-.12.29.29,0,0,0-.24.11.3.3,0,0,0-.1.25.38.38,0,0,0,.1.29.33.33,0,0,0,.25.11.3.3,0,0,0,.25-.12ZM92.86,54h0a1,1,0,0,1-.24.15,2.26,2.26,0,0,1-.39.07.34.34,0,0,1-.31-.16,1.18,1.18,0,0,1-.1-.62V51.6a.75.75,0,0,1,0-.26h.37l.62,0h.07a1.11,1.11,0,0,0,0-.19.82.82,0,0,0,0-.14h-.59l-.4,0h-.1V50h-.13l-.1.26a3.42,3.42,0,0,1-.13.34,1.38,1.38,0,0,1-.24.3.88.88,0,0,1-.24.19.87.87,0,0,0-.18.11.11.11,0,0,0,0,.08.14.14,0,0,0,0,.06l.07,0h.42a2.18,2.18,0,0,1,0,.25v1.68a4.25,4.25,0,0,0,0,.8.66.66,0,0,0,.22.32.68.68,0,0,0,.43.13,1.49,1.49,0,0,0,.59-.09,1.07,1.07,0,0,0,.39-.31v0a.11.11,0,0,0,0-.07l-.06,0Zm-9.17,0h0a.75.75,0,0,1-.24.15,2.44,2.44,0,0,1-.39.07.34.34,0,0,1-.31-.16,1.09,1.09,0,0,1-.1-.62V51.6a1.09,1.09,0,0,1,0-.26H83l.62,0h.07a1.11,1.11,0,0,0,0-.19.82.82,0,0,0,0-.14h-.6l-.39,0h-.1v-.55l0-.43h-.12l-.09.26a3.45,3.45,0,0,1-.14.34,1.33,1.33,0,0,1-.23.3.88.88,0,0,1-.24.19.72.72,0,0,0-.19.11.08.08,0,0,0,0,.08s0,0,0,.06l.06,0h.43c0,.09,0,.17,0,.25v.67l0,1a4.3,4.3,0,0,0,0,.8.58.58,0,0,0,.22.32.64.64,0,0,0,.42.13,1.34,1.34,0,0,0,.59-.1.89.89,0,0,0,.39-.3v0a.06.06,0,0,0,0-.07s0,0-.06,0Zm-3-4.8a.36.36,0,0,0,0-.52.33.33,0,0,0-.5,0,.3.3,0,0,0-.1.25.38.38,0,0,0,.1.29.32.32,0,0,0,.24.11.31.31,0,0,0,.26-.12Zm24.21,7.6h.36V48.43h-.36Zm56.56-2.6-.24-.08a.4.4,0,0,1-.07-.28V52a1.52,1.52,0,0,0-.29-1,1,1,0,0,0-.73-.33,1.21,1.21,0,0,0-.59.16,2.59,2.59,0,0,0-.64.55,1.36,1.36,0,0,0-.39-.53.87.87,0,0,0-.54-.15,1.23,1.23,0,0,0-.53.11,3.23,3.23,0,0,0-.76.62c0-.13,0-.24,0-.34v-.51l-.05,0h-.11a2.6,2.6,0,0,1-.4.49,1.23,1.23,0,0,1-.38.19v.15l.19.05a.62.62,0,0,1,.22.1,7.24,7.24,0,0,1,0,1.23c0,.65,0,1,0,1.14a.35.35,0,0,1-.1.19.72.72,0,0,1-.25.07.36.36,0,0,0-.17.07.29.29,0,0,0,0,.09.43.43,0,0,1,0,0l.45,0h.12l.2,0h.29l.61,0v-.09a.11.11,0,0,0,0-.08,1,1,0,0,0-.33-.1.29.29,0,0,1-.2-.09,1.85,1.85,0,0,1-.06-.57V51.77a1.27,1.27,0,0,1,.47-.42,1,1,0,0,1,.57-.16.62.62,0,0,1,.5.25,1.34,1.34,0,0,1,.2.81v.91l0,.52a2.19,2.19,0,0,1,0,.36l0,.06a1.25,1.25,0,0,1-.26.07,1.42,1.42,0,0,0-.33.11v0a.31.31,0,0,0,0,.1h1.75a.11.11,0,0,0,0-.08.16.16,0,0,0-.05-.11l-.18,0a.71.71,0,0,1-.31-.1.24.24,0,0,1-.07-.16c0-.07,0-.39,0-.93V51.69a1.84,1.84,0,0,1,.45-.43.86.86,0,0,1,.47-.14.74.74,0,0,1,.51.19.84.84,0,0,1,.26.53c0,.14,0,.65,0,1.53a2.72,2.72,0,0,1,0,.7c0,.06-.11.1-.23.13a1,1,0,0,0-.3.08.16.16,0,0,0,0,.09.17.17,0,0,0,0,.07h1.13l.4,0h0a.35.35,0,0,0,0-.11.06.06,0,0,0,0-.06.34.34,0,0,0-.15-.07ZM84.88,51.35a.86.86,0,0,1,.74-.38.77.77,0,0,1,.39.09.6.6,0,0,1,.24.28.84.84,0,0,1,.08.31.26.26,0,0,1-.07.15.45.45,0,0,1-.2,0c-.67,0-1.08.07-1.21.07h-.19a.92.92,0,0,1,.22-.55Zm1.74,2.45a1.33,1.33,0,0,1-.38.23,1.53,1.53,0,0,1-.36.07,1.18,1.18,0,0,1-.71-.23,1.26,1.26,0,0,1-.44-.6,2,2,0,0,1-.15-.67v-.31a.63.63,0,0,1,0-.19h.68l1.6,0V52a1.33,1.33,0,0,0-.16-.58,1.21,1.21,0,0,0-.48-.52,1.15,1.15,0,0,0-.6-.16,1.57,1.57,0,0,0-.6.12,2.47,2.47,0,0,0-.42.3,1.75,1.75,0,0,0-.28.39,3.71,3.71,0,0,0-.24.66,2.22,2.22,0,0,0-.06.51,2.31,2.31,0,0,0,.23,1.06,1.44,1.44,0,0,0,.64.63,1.18,1.18,0,0,0,.56.13,1.29,1.29,0,0,0,.44,0,2,2,0,0,0,.56-.28,1.61,1.61,0,0,0,.45-.45.15.15,0,0,0,0-.07l0-.18Zm3.13.24a1.33,1.33,0,0,1-.55.12,1,1,0,0,1-.79-.43,1.92,1.92,0,0,1-.33-1.16,2,2,0,0,1,.33-1.17.72.72,0,0,1,.59-.33.48.48,0,0,1,.26.07.87.87,0,0,1,.27.23.66.66,0,0,0,.44.28.25.25,0,0,0,.21-.1.33.33,0,0,0,.09-.23A.4.4,0,0,0,90.1,51a1.4,1.4,0,0,0-.85-.21,1.88,1.88,0,0,0-1,.22,1.6,1.6,0,0,0-.62.67,2.15,2.15,0,0,0-.23,1,2.37,2.37,0,0,0,.2.94,1.68,1.68,0,0,0,.55.74,1.29,1.29,0,0,0,.8.27,1.71,1.71,0,0,0,.71-.15,2.07,2.07,0,0,0,.62-.52v-.29a2.33,2.33,0,0,1-.57.42Zm60.48-.43a1.19,1.19,0,0,1-.45.59,1.08,1.08,0,0,1-.58.19,1,1,0,0,1-.82-.42,2,2,0,0,1-.33-1.24,2.7,2.7,0,0,1,.19-1.12,1.08,1.08,0,0,1,.46-.53,1.11,1.11,0,0,1,.54-.14.91.91,0,0,1,.63.23,1.39,1.39,0,0,1,.4.69,3.19,3.19,0,0,1,.13.81,2.34,2.34,0,0,1-.17.94Zm-1-2.85a2,2,0,0,0-.89.19,1.6,1.6,0,0,0-.49.41,1.88,1.88,0,0,0-.34.62,2.17,2.17,0,0,0-.11.66,2,2,0,0,0,.23,1,1.75,1.75,0,0,0,.56.65,1.65,1.65,0,0,0,.93.29,1.73,1.73,0,0,0,1.33-.56,1.83,1.83,0,0,0,.52-1.28,2,2,0,0,0-.5-1.38,1.6,1.6,0,0,0-1.24-.58ZM138.21,54a1.79,1.79,0,0,1,0-.4c0-.13,0-.25,0-.35v-.86a5.35,5.35,0,0,0-.07-1.06.93.93,0,0,0-.3-.47,1,1,0,0,0-.84-.16,1.77,1.77,0,0,0-.45.18,2.34,2.34,0,0,0-.49.33l-.11.09V51c0-.06,0-.16,0-.3h-.13a1.71,1.71,0,0,1-.38.54,1.31,1.31,0,0,1-.45.24v.17a.66.66,0,0,1,.4.17.63.63,0,0,1,.06.36V53.9a.4.4,0,0,1,0,.24.63.63,0,0,1-.3.1l-.23,0a.28.28,0,0,0,0,.09v.06h1.76v-.09a.17.17,0,0,0-.11-.09l-.16-.05-.22-.06a.31.31,0,0,1-.13-.06l0-.1c0-.11,0-.43,0-1v-1c0-.1,0-.22,0-.37a1.69,1.69,0,0,1,.49-.39,1.06,1.06,0,0,1,.52-.13.74.74,0,0,1,.56.22,1.13,1.13,0,0,1,.2.8v.59c0,.55,0,.89,0,1a.68.68,0,0,1,0,.12.37.37,0,0,1-.05.18.31.31,0,0,1-.11.08l-.15,0a.94.94,0,0,0-.3.07.11.11,0,0,0,0,.07l0,.1h.53l.52,0h.6a.36.36,0,0,0,0-.11v0a.84.84,0,0,0-.44-.13.23.23,0,0,1-.1-.12Zm-4-.93a3.5,3.5,0,0,1-.41.82,1,1,0,0,1-.42.26,4.43,4.43,0,0,1-1,.07h-1a.35.35,0,0,1-.3-.1,1.35,1.35,0,0,1-.05-.53v-2l.72,0h.9a.54.54,0,0,1,.37.11,1.54,1.54,0,0,1,.22.57,1.36,1.36,0,0,0,.12.39h0l.05,0a.41.41,0,0,0,0-.11s0-.12,0-.31a4.79,4.79,0,0,1,0-.52c0-.58,0-.93,0-1a.34.34,0,0,0,0-.1.09.09,0,0,0,0-.07l-.09,0c-.07,0-.11.16-.13.39a1,1,0,0,1-.09.42.46.46,0,0,1-.25.1c-.45,0-.82,0-1.11,0h-.63l-.09,0v-.62c0-.68,0-1,0-1.08a1.69,1.69,0,0,1,.06-.63s.12-.06.27-.06h.1l1.13,0h.54a.47.47,0,0,1,.23,0,.66.66,0,0,1,.15.22,3.16,3.16,0,0,1,.22.5l.12.3a.11.11,0,0,0,.08,0s0,0,0,0c0-.22,0-.48,0-.79a.86.86,0,0,1,0-.16,1.23,1.23,0,0,0,0-.19.11.11,0,0,0,0-.08l0,0h-1l-.45,0h-.4l-.83,0-.7,0h-.3a3.87,3.87,0,0,1-.48,0h-.14l-.06,0a.19.19,0,0,0,0,.08.08.08,0,0,0,.05.08,1.24,1.24,0,0,0,.27,0c.24,0,.38,0,.43.1a1.48,1.48,0,0,1,.05.51l0,1.28V54a.45.45,0,0,1,0,.25,1.56,1.56,0,0,1-.48.08.59.59,0,0,0-.23,0,.1.1,0,0,0-.07,0v0a.07.07,0,0,0,0,.06.08.08,0,0,0,.08,0l1.06,0h.65l1.2,0h1.7a.43.43,0,0,0,.07-.25,4.6,4.6,0,0,1,0-.64,4.46,4.46,0,0,1,.13-.58.2.2,0,0,0-.08,0c-.05,0-.1.06-.15.19Zm9.86,1.14a.68.68,0,0,1-.31-.14.37.37,0,0,1-.05-.23V51c0-.12,0-.19,0-.2a2,2,0,0,0,0-.31h-.12a1.22,1.22,0,0,1-.27.33,1.14,1.14,0,0,1-.3.23l-.28.09v.14a.93.93,0,0,1,.36.14.25.25,0,0,1,.11.12,1.7,1.7,0,0,1,0,.39V53.8a.63.63,0,0,1-.07.3.26.26,0,0,1-.17.09l-.4.1a.16.16,0,0,0-.08.1s0,0,0,0l.07,0,.23,0,.64,0,.44,0,.4,0a.17.17,0,0,0,0-.07.13.13,0,0,0,0-.06l-.24-.08ZM142.63,51a.09.09,0,0,0,0-.06h-1.46l-.14,0V51a.12.12,0,0,0,0,0l.36.07a.29.29,0,0,1,.18.1.2.2,0,0,1,.06.12.43.43,0,0,1,0,.11,3.16,3.16,0,0,1-.13.53c-.17.51-.3.88-.39,1.12s-.18.46-.28.69c-.15-.34-.32-.76-.5-1.25l-.4-1.08a1.1,1.1,0,0,0,0-.11.33.33,0,0,1,0-.14.05.05,0,0,1,0,0,2.11,2.11,0,0,1,.5-.1.61.61,0,0,0,.13,0,.17.17,0,0,0,0-.1.1.1,0,0,0,0,0l-.15,0h-.89c-.22,0-.48,0-.77,0v0l0,.1a2.23,2.23,0,0,1,.51.19,4.41,4.41,0,0,1,.26.59l.71,1.88.3.72.09.23h.12l.61-1.61.1-.26.21-.57c.07-.2.13-.38.17-.51a1.54,1.54,0,0,1,.19-.46.88.88,0,0,1,.42-.11h.08l.12,0a.15.15,0,0,0,0-.09Zm-15.51,5.83h.35V48.43h-.35ZM81.05,54.26a.89.89,0,0,1-.31-.15.37.37,0,0,1,0-.23l0-1.37V51c0-.13,0-.19,0-.21s0-.17,0-.31h-.12a1.46,1.46,0,0,1-.26.34A1.66,1.66,0,0,1,80,51l-.28.1v.13a1,1,0,0,1,.37.14.29.29,0,0,1,.1.12,2.56,2.56,0,0,1,0,.39c0,1,0,1.66,0,1.89a.6.6,0,0,1-.07.3.26.26,0,0,1-.17.09l-.41.1a.12.12,0,0,0-.07.1.14.14,0,0,0,0,.06h.06l.23,0,.64,0a3.07,3.07,0,0,1,.44,0l.4,0a.19.19,0,0,0,0-.07.07.07,0,0,0,0,0l-.24-.09Zm29-2.65a5.16,5.16,0,0,0-.91-.61,4.43,4.43,0,0,1-1-.73.81.81,0,0,1-.2-.53,1,1,0,0,1,.29-.67,1,1,0,0,1,.75-.29,1.06,1.06,0,0,1,.74.29,1.64,1.64,0,0,1,.43.92h0l.06,0a2,2,0,0,0,0-.33v-.4s0-.14,0-.34a1.5,1.5,0,0,0-.44-.26,2,2,0,0,0-.7-.1,1.62,1.62,0,0,0-1.17.43A1.42,1.42,0,0,0,107.5,50a1.57,1.57,0,0,0,.12.6,2.4,2.4,0,0,0,.5.64,6,6,0,0,0,.9.58,3.46,3.46,0,0,1,.91.7,1.17,1.17,0,0,1,.22.67,1.11,1.11,0,0,1-.14.54,1.09,1.09,0,0,1-.42.43,1.19,1.19,0,0,1-.58.15,1.25,1.25,0,0,1-.92-.44,1.57,1.57,0,0,1-.45-1,.2.2,0,0,0,0-.11.08.08,0,0,0-.12,0,1,1,0,0,0,0,.25,8.25,8.25,0,0,1-.06.87s0,.09,0,.13a.23.23,0,0,0,.07.15,1.08,1.08,0,0,0,.35.19,2.81,2.81,0,0,0,1,.19,2,2,0,0,0,1-.21,1.48,1.48,0,0,0,.6-.64,1.87,1.87,0,0,0,.22-.9,1.64,1.64,0,0,0-.14-.69,1.46,1.46,0,0,0-.41-.54ZM114,53.9a1,1,0,0,1-.84.39,1.1,1.1,0,0,1-.74-.22.81.81,0,0,1-.22-.5q0-.2,0-1.8a.49.49,0,0,1,0-.12,1.39,1.39,0,0,1,.39-.28,1.25,1.25,0,0,1,1.41.34,1.74,1.74,0,0,1,.36,1.18,1.44,1.44,0,0,1-.34,1Zm-.55-3a1.84,1.84,0,0,0-.66.12,2,2,0,0,0-.61.38v-.87l-.08,0,0,0a1.22,1.22,0,0,1-.28.32,4,4,0,0,1-.57.32l0,.14a.8.8,0,0,1,.4.14.15.15,0,0,1,.06.09,2,2,0,0,1,0,.49v1.64c0,1.29,0,2.17,0,2.62a.78.78,0,0,1,0,.16.34.34,0,0,1-.16.13l-.4.09v.18H113a.21.21,0,0,0-.08-.16.87.87,0,0,0-.42-.1c-.12,0-.2-.05-.22-.11a8.16,8.16,0,0,1-.07-1.56c0-.18,0-.39,0-.63l.13.06a2,2,0,0,0,.83.22,1.72,1.72,0,0,0,.83-.22,1.6,1.6,0,0,0,.66-.68,2.29,2.29,0,0,0,.24-1,1.8,1.8,0,0,0-.43-1.25,1.31,1.31,0,0,0-1-.49Zm33.33-.1a.93.93,0,0,0-.41.2.57.57,0,0,0-.11.11l-.09.1a2.7,2.7,0,0,0-.38.57.19.19,0,0,0,0-.08v-.08c0-.52,0-.85,0-1h-.14a1.53,1.53,0,0,1-.33.53,2.46,2.46,0,0,1-.56.34l0,.13a.79.79,0,0,0,.22.06.56.56,0,0,1,.28.1.51.51,0,0,1,.07.3c0,.15,0,.74,0,1.75a1.37,1.37,0,0,1,0,.35.12.12,0,0,1-.06.06l-.33.07-.24.05a.29.29,0,0,0,0,.1l0,.06.66,0h1.48l0-.07a.08.08,0,0,0,0-.07.39.39,0,0,0-.24-.05h-.08l-.51-.06a.2.2,0,0,1-.08-.08.58.58,0,0,1,0-.19V53l0-.74a1.06,1.06,0,0,1,.12-.43,1.76,1.76,0,0,1,.27-.4.32.32,0,0,1,.16,0,1,1,0,0,1,.25.08,1,1,0,0,0,.25.08.33.33,0,0,0,.24-.12.29.29,0,0,0,.08-.23.44.44,0,0,0-.11-.33.37.37,0,0,0-.28-.13ZM123,51.36a.85.85,0,0,1,.74-.39.73.73,0,0,1,.38.09.55.55,0,0,1,.24.28.85.85,0,0,1,.09.31.35.35,0,0,1-.08.16.58.58,0,0,1-.19,0c-.67,0-1.08.07-1.21.07h-.19a1,1,0,0,1,.22-.55Zm1.74,2.45a2.08,2.08,0,0,1-.38.22,1.53,1.53,0,0,1-.36.07,1.19,1.19,0,0,1-1.15-.83,1.73,1.73,0,0,1-.16-.67v-.31a1.16,1.16,0,0,1,0-.18,2.3,2.3,0,0,1,.37,0H125V52a1.21,1.21,0,0,0-.16-.58,1.31,1.31,0,0,0-.47-.52,1.07,1.07,0,0,0-.61-.15,1.27,1.27,0,0,0-.6.12,2,2,0,0,0-.42.3,1.29,1.29,0,0,0-.28.38,4,4,0,0,0-.24.66,2.22,2.22,0,0,0-.06.51,2.28,2.28,0,0,0,.23,1.06,1.39,1.39,0,0,0,.64.63,1.32,1.32,0,0,0,.56.14,2.12,2.12,0,0,0,.44,0,2.29,2.29,0,0,0,.56-.29,1.61,1.61,0,0,0,.45-.45.06.06,0,0,0,0-.06l0-.18Zm-7.53-.11a2.09,2.09,0,0,1-.48.41.62.62,0,0,1-.3.09.35.35,0,0,1-.27-.11.45.45,0,0,1-.1-.29.76.76,0,0,1,.13-.39,1.76,1.76,0,0,1,.47-.51,3.25,3.25,0,0,1,.57-.33c0,.14,0,.25,0,.33s0,.42,0,.8Zm1.08.16,0,.07a.3.3,0,0,1-.26.18.26.26,0,0,1-.18-.09.42.42,0,0,1-.07-.24v-1.6c0-.41,0-.64,0-.71a.84.84,0,0,0-.16-.38.71.71,0,0,0-.3-.24,1.24,1.24,0,0,0-.51-.07,1.09,1.09,0,0,0-.58.2,1.59,1.59,0,0,0-.56.62,1.7,1.7,0,0,0-.22.52.07.07,0,0,0,0,.07.23.23,0,0,0,.16.06.51.51,0,0,0,.27-.12,1.25,1.25,0,0,0,.09-.25,1.13,1.13,0,0,1,.23-.58.71.71,0,0,1,.51-.24.47.47,0,0,1,.4.2,1.48,1.48,0,0,1,.15.77c0,.12,0,.23,0,.33l-.5.24a2.46,2.46,0,0,0-.92.71,1.27,1.27,0,0,0-.34.74.57.57,0,0,0,.12.35.39.39,0,0,0,.32.13,1.51,1.51,0,0,0,.48-.05,1.58,1.58,0,0,0,.36-.2l.44-.35a1,1,0,0,0,.13.42.5.5,0,0,0,.43.19.46.46,0,0,0,.26-.06,1,1,0,0,0,.28-.33.64.64,0,0,0,.1-.24.06.06,0,1,0-.11,0Zm2.78.19a1.46,1.46,0,0,1-.55.11,1,1,0,0,1-.78-.43,1.86,1.86,0,0,1-.34-1.16,2,2,0,0,1,.33-1.17.7.7,0,0,1,.59-.32.63.63,0,0,1,.27.06.85.85,0,0,1,.26.24.61.61,0,0,0,.44.27.31.31,0,0,0,.22-.09.43.43,0,0,0,.08-.24.42.42,0,0,0-.16-.33,1.48,1.48,0,0,0-.85-.21,1.92,1.92,0,0,0-1,.22,1.74,1.74,0,0,0-.62.67,2.15,2.15,0,0,0-.23,1,2.56,2.56,0,0,0,.2.94,1.71,1.71,0,0,0,.55.75,1.34,1.34,0,0,0,.8.26,1.71,1.71,0,0,0,.71-.15,2.07,2.07,0,0,0,.62-.52v-.29a2.11,2.11,0,0,1-.56.42Zm-20.32-2.69a.85.85,0,0,1,.74-.39.79.79,0,0,1,.38.09.62.62,0,0,1,.25.28.68.68,0,0,1,.08.31.33.33,0,0,1-.07.16.64.64,0,0,1-.2,0c-.67,0-1.07.07-1.21.07h-.18a.94.94,0,0,1,.21-.55Zm1.74,2.45a1.57,1.57,0,0,1-.38.22,1.53,1.53,0,0,1-.36.07,1.18,1.18,0,0,1-.71-.23,1.2,1.2,0,0,1-.44-.6,1.92,1.92,0,0,1-.15-.67v-.31a.57.57,0,0,1,0-.18,2.42,2.42,0,0,1,.38,0h1.9V52a1.39,1.39,0,0,0-.64-1.1,1.05,1.05,0,0,0-.6-.15,1.24,1.24,0,0,0-.6.12,1.79,1.79,0,0,0-.42.3,1.29,1.29,0,0,0-.28.38,2.76,2.76,0,0,0-.24.66,2.22,2.22,0,0,0-.06.51,2.06,2.06,0,0,0,.23,1.06,1.35,1.35,0,0,0,.64.63,1.32,1.32,0,0,0,.55.14,1.4,1.4,0,0,0,1-.33,1.75,1.75,0,0,0,.45-.45v-.06l0-.18Zm66.17.23a1.76,1.76,0,0,1,0-.4c0-.13,0-.25,0-.35v-.86a4.73,4.73,0,0,0-.07-1.06.91.91,0,0,0-.3-.47.8.8,0,0,0-.56-.19,1.33,1.33,0,0,0-.28,0,3.38,3.38,0,0,0-.44.18,2.34,2.34,0,0,0-.49.33l-.12.09V51c0-.06,0-.16,0-.3h-.13a1.5,1.5,0,0,1-.39.54,1.18,1.18,0,0,1-.44.24v.17a.66.66,0,0,1,.4.17.56.56,0,0,1,.06.36V53.9a.4.4,0,0,1,0,.24.63.63,0,0,1-.3.1l-.23,0a.28.28,0,0,0,0,.09v.06h1.76v-.09a.17.17,0,0,0-.11-.09l-.16-.05-.22-.06a.31.31,0,0,1-.13-.06.29.29,0,0,1,0-.1c0-.11,0-.43,0-1v-1c0-.1,0-.22,0-.37a1.69,1.69,0,0,1,.49-.39,1.06,1.06,0,0,1,.52-.13.74.74,0,0,1,.56.22,1.13,1.13,0,0,1,.2.8v.59c0,.55,0,.89,0,1s0,.1,0,.12a.37.37,0,0,1-.05.18.31.31,0,0,1-.11.08l-.15,0a.94.94,0,0,0-.3.07.11.11,0,0,0,0,.07l0,.1h.53l.52,0h.6a.2.2,0,0,0,0-.11v0a.84.84,0,0,0-.44-.13.23.23,0,0,1-.1-.12ZM36.2,56.81h.35V48.43h-.36Zm9.55-5.45a.86.86,0,0,1,.74-.39.76.76,0,0,1,.39.1.55.55,0,0,1,.25.27.88.88,0,0,1,.07.32.23.23,0,0,1-.07.15.4.4,0,0,1-.19,0c-.67,0-1.08.07-1.21.07h-.19a1,1,0,0,1,.22-.55Zm1.75,2.45a1.87,1.87,0,0,1-.39.22,1.35,1.35,0,0,1-.36.07,1.29,1.29,0,0,1-.71-.22,1.31,1.31,0,0,1-.43-.61,1.73,1.73,0,0,1-.16-.67v-.31a1.16,1.16,0,0,1,0-.18,2.3,2.3,0,0,1,.37,0h1.9V52a1.33,1.33,0,0,0-.16-.58,1.31,1.31,0,0,0-.47-.52,1.05,1.05,0,0,0-.6-.15,1.37,1.37,0,0,0-.6.12,1.6,1.6,0,0,0-.42.3,1.24,1.24,0,0,0-.29.39,3.15,3.15,0,0,0-.23.65,3,3,0,0,0-.07.51,2.17,2.17,0,0,0,.24,1.06,1.33,1.33,0,0,0,.63.63,1.25,1.25,0,0,0,.56.14,1.4,1.4,0,0,0,1-.33,1.88,1.88,0,0,0,.45-.44v-.07l0-.18Zm124.13.2h0a.61.61,0,0,1-.24.15,1.68,1.68,0,0,1-.39.07.34.34,0,0,1-.31-.16,1.28,1.28,0,0,1-.11-.61V51.6a1.15,1.15,0,0,1,0-.26H171l.62,0h.07a1.1,1.1,0,0,0,0-.18s0-.09,0-.15h-.6l-.39,0h-.1v-.55l0-.42h-.12l-.1.26a2.55,2.55,0,0,1-.14.35,1.33,1.33,0,0,1-.23.3,1.08,1.08,0,0,1-.24.18.54.54,0,0,0-.18.11.12.12,0,0,0,0,.09.08.08,0,0,0,0,.05.08.08,0,0,0,.07,0H170a2,2,0,0,1,0,.25v1.67a4.25,4.25,0,0,0,0,.8.6.6,0,0,0,.22.32.65.65,0,0,0,.43.14,1.7,1.7,0,0,0,.59-.1,1,1,0,0,0,.39-.31v0a.07.07,0,0,0,0-.06.06.06,0,0,0-.06,0ZM32.08,51.36a.86.86,0,0,1,.75-.39.75.75,0,0,1,.38.1.53.53,0,0,1,.24.27.72.72,0,0,1,.08.32.23.23,0,0,1-.07.15.42.42,0,0,1-.19,0c-.68,0-1.08.07-1.21.07h-.19a.94.94,0,0,1,.21-.55Zm1.75,2.45a2.08,2.08,0,0,1-.38.22,1.51,1.51,0,0,1-.37.07,1.29,1.29,0,0,1-.71-.22,1.31,1.31,0,0,1-.43-.61,1.73,1.73,0,0,1-.16-.67v-.31a1.16,1.16,0,0,1,0-.18,2.3,2.3,0,0,1,.37,0h1.89V52a1.19,1.19,0,0,0-.15-.58,1.33,1.33,0,0,0-.48-.52,1.05,1.05,0,0,0-.6-.15,1.37,1.37,0,0,0-.6.12,1.6,1.6,0,0,0-.42.3,1.21,1.21,0,0,0-.28.39,2.69,2.69,0,0,0-.24.65,3,3,0,0,0-.07.51,2.17,2.17,0,0,0,.24,1.06,1.31,1.31,0,0,0,.64.63,1.18,1.18,0,0,0,.55.14,2.28,2.28,0,0,0,.45,0,2.29,2.29,0,0,0,.56-.29,1.88,1.88,0,0,0,.45-.44v-.07l0-.18Zm10.24.4-.32-.08a.12.12,0,0,1-.08-.09,1.24,1.24,0,0,1-.05-.43V53c0-.31,0-.54,0-.68V49.24a.36.36,0,0,1,.07-.26l.23,0a.86.86,0,0,0,.36-.08.44.44,0,0,0,0-.16c-.36,0-.62,0-.78,0s-.48,0-.72,0h-.27l-.17,0a.88.88,0,0,0,0,.16l.13,0a2.7,2.7,0,0,1,.41.07.12.12,0,0,1,.06.1,5.76,5.76,0,0,1,0,.83c0,.49,0,1,0,1.51h-.22l-1,0H40.61a4.4,4.4,0,0,1-.51-.05l0-.42c0-.52,0-1,0-1.5a.83.83,0,0,1,.09-.49,1.32,1.32,0,0,1,.62-.15.07.07,0,0,0,.06,0,.14.14,0,0,0,0-.07.22.22,0,0,0,0-.08l-.66,0a8.39,8.39,0,0,1-.84,0h-.53v.08s0,.06,0,.08l.26,0a.93.93,0,0,1,.29,0,.18.18,0,0,1,.06.09,3.39,3.39,0,0,1,0,.45c0,.09,0,.24,0,.47s0,.44,0,.63v1.23s0,.13,0,.36,0,.42,0,.57v1a1,1,0,0,1-.05.3.25.25,0,0,1-.11.12,1.55,1.55,0,0,1-.36.08.76.76,0,0,0-.32.11v.09h.19l.81,0h.35l.5,0h.25a.08.08,0,0,0,.07,0s0,0,0,0l0,0a1.31,1.31,0,0,0-.28-.09,1.58,1.58,0,0,1-.31-.09.24.24,0,0,1-.07-.13,4.55,4.55,0,0,1,0-.82V53c0-.51,0-.8,0-.85v-.31a.2.2,0,0,1,0-.15.2.2,0,0,1,.13,0H41.9a5.37,5.37,0,0,1,1.06,0s0,0,0,.08c0,.48,0,.85,0,1.11,0,0,0,.13,0,.32v.65a.34.34,0,0,1-.08.23.41.41,0,0,1-.31.14.89.89,0,0,0-.39.12.22.22,0,0,0,0,.08.28.28,0,0,0,0,.09l.65-.1h.53a4,4,0,0,1,.91.09h.07l0-.06a.12.12,0,0,0,0-.09,1,1,0,0,0-.28-.12ZM21.38,48.84a2.15,2.15,0,0,0-1-.19,4.24,4.24,0,0,0-.62,0l-.68,0-.37,0h-.22l-.45,0-.09,0a.19.19,0,0,0,0,.08.11.11,0,0,0,0,.08,1.58,1.58,0,0,1,.73.24.61.61,0,0,1,.09.41v.08c0,.55,0,1.1,0,1.64,0,1.15,0,1.9,0,2.25v.26c0,.09,0,.15,0,.18a.51.51,0,0,1,0,.24.28.28,0,0,1-.15.08l-.52.12v.11h.65l.7,0a4.93,4.93,0,0,1,.54.05l.22,0,.1,0a.18.18,0,0,0,0-.09.15.15,0,0,0-.05-.06l-.24-.07-.56-.14a1.84,1.84,0,0,1,0-.33c0-.06,0-.13,0-.21a1.31,1.31,0,0,0,0-.17l-.05-2v-.26c0-.14,0-.52,0-1.13a3.56,3.56,0,0,1,0-.37V49a1,1,0,0,1,.58-.08,2.34,2.34,0,0,1,.45.07,1.14,1.14,0,0,1,.82.72,1.58,1.58,0,0,1,.16.68,1.64,1.64,0,0,1-.15.68,1.13,1.13,0,0,1-1,.67,1,1,0,0,1-.34,0,.2.2,0,0,0-.11,0,.1.1,0,0,0-.05,0,.3.3,0,0,0,.09.13,2,2,0,0,0,.32.18,1,1,0,0,0,.35,0,1.47,1.47,0,0,0,1.18-.51,1.81,1.81,0,0,0,.44-1.21,2.3,2.3,0,0,0-.2-.85,1.37,1.37,0,0,0-.57-.62Zm2.51,5.4c-.16,0-.26-.06-.29-.11a2.15,2.15,0,0,1,0-.56s0-.17,0-.45c0-.47,0-1.93,0-4.39v-.25h-.19l-.59.22-.25.09v.09l.29.15a.38.38,0,0,1,.19.14.41.41,0,0,1,0,.22v3.7c0,.49,0,.8,0,.91a.3.3,0,0,1,0,.15,1.11,1.11,0,0,1-.3.08,1,1,0,0,0-.29.07s0,0,0,.07,0,0,0,.06a.17.17,0,0,0,.1,0l.67,0,.52,0,.41,0,.07,0a.1.1,0,0,0,0-.07.05.05,0,0,0,0-.06.89.89,0,0,0-.28-.07Zm2.41-.54a2.09,2.09,0,0,1-.48.41.65.65,0,0,1-.3.09.33.33,0,0,1-.27-.11.46.46,0,0,1-.11-.29.76.76,0,0,1,.13-.39,1.94,1.94,0,0,1,.48-.51,2.84,2.84,0,0,1,.56-.33c0,.14,0,.25,0,.33s0,.42,0,.8Zm1.08.16-.05.07a.31.31,0,0,1-.26.18.26.26,0,0,1-.18-.09.36.36,0,0,1-.07-.24v-1.6a5,5,0,0,0,0-.71.82.82,0,0,0-.15-.38.64.64,0,0,0-.3-.24,1.26,1.26,0,0,0-.51-.07,1.16,1.16,0,0,0-.59.2,1.56,1.56,0,0,0-.55.62,1.72,1.72,0,0,0-.23.52.2.2,0,0,0,0,.08.3.3,0,0,0,.16,0,.47.47,0,0,0,.28-.12,1.06,1.06,0,0,0,.09-.25,1.13,1.13,0,0,1,.23-.58.73.73,0,0,1,.51-.24.48.48,0,0,1,.4.2,1.38,1.38,0,0,1,.14.77c0,.12,0,.23,0,.33l-.5.24a2.53,2.53,0,0,0-.91.71,1.27,1.27,0,0,0-.34.74.52.52,0,0,0,.12.35.43.43,0,0,0,.32.14,1.84,1.84,0,0,0,.47-.06,1.58,1.58,0,0,0,.36-.2l.45-.35a1,1,0,0,0,.12.42.48.48,0,0,0,.43.19.42.42,0,0,0,.27-.06,1,1,0,0,0,.27-.33.64.64,0,0,0,.1-.24.26.26,0,0,0,0-.08l-.09,0Zm2.78.19a1.46,1.46,0,0,1-.55.11,1,1,0,0,1-.78-.43,1.86,1.86,0,0,1-.34-1.16,2,2,0,0,1,.33-1.17.7.7,0,0,1,.59-.32.53.53,0,0,1,.27.06.85.85,0,0,1,.26.24.61.61,0,0,0,.44.27.31.31,0,0,0,.22-.09.43.43,0,0,0,.08-.24.42.42,0,0,0-.16-.33,1.48,1.48,0,0,0-.85-.21,1.92,1.92,0,0,0-1,.22,1.66,1.66,0,0,0-.62.67,2.15,2.15,0,0,0-.23,1,2.37,2.37,0,0,0,.2.94,1.62,1.62,0,0,0,.55.75,1.34,1.34,0,0,0,.8.26,1.71,1.71,0,0,0,.71-.15,2.07,2.07,0,0,0,.62-.52v-.29a2.11,2.11,0,0,1-.56.42ZM93.73,35.57l11.15-10.69h1l3.2,10.69Zm54.08-12.16a5.1,5.1,0,0,0-.78,0,1.57,1.57,0,0,0-.43,0,2.44,2.44,0,0,0-1.22.29,2.45,2.45,0,0,0-.69,1.18,12,12,0,0,0-3.8-1.46A26.38,26.38,0,0,0,125.66,25q-4.09,2.07-4.1,4.64c0,1.26.81,2.22,2.44,2.87A31.34,31.34,0,0,0,132,34c2.8.28,4.6.51,5.42.7a7.23,7.23,0,0,1,2.79,1.12,2.05,2.05,0,0,1,.91,1.66,3.55,3.55,0,0,1-1.53,2.57,11.86,11.86,0,0,1-4.59,2.1,25.24,25.24,0,0,1-6.48.81,17,17,0,0,1-7-1.13c-1.63-.75-2.45-1.63-2.45-2.63a1.62,1.62,0,0,1,.08-.49,1.53,1.53,0,0,0,.08-.37c0-.14-.1-.26-.3-.37a1.68,1.68,0,0,0-.77-.15,2.39,2.39,0,0,0-1,.22,1.34,1.34,0,0,0-.64.78l-1.38,3.57h-1.32l-5.64-19H95a3.57,3.57,0,0,0-1.55.26c-.35.18-.52.38-.52.62a.49.49,0,0,0,.31.44,3.05,3.05,0,0,0,1.2.15h7.77L83.82,42.43H82.26V24.88h1.95a4.59,4.59,0,0,0,1.65-.2c.32-.13.49-.31.49-.53s-.17-.4-.49-.54a4.83,4.83,0,0,0-1.65-.2H74.89a4.68,4.68,0,0,0-1.63.2c-.31.14-.47.32-.47.54s.16.4.49.53a4.6,4.6,0,0,0,1.61.2h4.2v7.64H58.22V24.88h4.23a4.6,4.6,0,0,0,1.61-.2c.33-.13.49-.31.49-.53s-.16-.4-.49-.54a4.6,4.6,0,0,0-1.61-.2H53.13a4.83,4.83,0,0,0-1.65.2c-.33.14-.49.32-.49.54s.16.4.49.53a4.59,4.59,0,0,0,1.65.2h1.94V42.43H51.51a4.63,4.63,0,0,0-1.61.2c-.32.13-.48.31-.48.53s.16.39.48.53a4.41,4.41,0,0,0,1.61.21H62.45a4.38,4.38,0,0,0,1.61-.21c.33-.14.49-.32.49-.53s-.16-.4-.49-.53a4.6,4.6,0,0,0-1.61-.2H58.22V34H79.08v8.44h-4.2a4.3,4.3,0,0,0-1.63.2c-.31.13-.47.31-.47.53s.17.39.49.53a4.41,4.41,0,0,0,1.61.21H91.06a3.74,3.74,0,0,0,1.56-.26q.54-.27.54-.63a.45.45,0,0,0-.32-.43,3.13,3.13,0,0,0-1.22-.15h-5l5.61-5.38h17.3l1.56,5.38h-5a3.57,3.57,0,0,0-1.55.26c-.35.17-.52.38-.52.61a.49.49,0,0,0,.31.44,3.26,3.26,0,0,0,1.2.16h10.43a2.48,2.48,0,0,0,1.07-.23,1.29,1.29,0,0,0,.66-.75l.31-.84a11.33,11.33,0,0,0,4.1,1.79,25.69,25.69,0,0,0,5.93.61,31.66,31.66,0,0,0,8.11-1,14.39,14.39,0,0,0,5.85-2.74,4.84,4.84,0,0,0,1.93-3.53,2.77,2.77,0,0,0-1.19-2.26,9.15,9.15,0,0,0-3.52-1.44q-3.16-.57-6.39-.82a27.89,27.89,0,0,1-6.61-1.19c-1.25-.48-1.88-1.18-1.88-2.1q0-1.87,3.15-3.4a18.57,18.57,0,0,1,8.1-1.54,14,14,0,0,1,5.86,1c1.42.67,2.13,1.44,2.13,2.32a1.61,1.61,0,0,1-.08.48,1.55,1.55,0,0,0-.08.36.46.46,0,0,0,.3.39,1.57,1.57,0,0,0,.74.16,2.27,2.27,0,0,0,1-.23,1.4,1.4,0,0,0,.67-.75l1.23-3.26h3.46l-6.67,17.54h-3.55a3.44,3.44,0,0,0-1.55.27c-.34.17-.51.37-.51.61a.48.48,0,0,0,.31.44,3,3,0,0,0,1.19.15h29.05l2.23-5.81a1.82,1.82,0,0,0,.1-.45c0-.14-.1-.27-.3-.37a1.57,1.57,0,0,0-.74-.16,2.27,2.27,0,0,0-1.05.23,1.4,1.4,0,0,0-.67.75L167,42.43H146.75L150,34h9.43l-.62,1.66a1.34,1.34,0,0,0-.1.44.44.44,0,0,0,.3.39,1.66,1.66,0,0,0,.73.16,2.4,2.4,0,0,0,1.05-.23,1.46,1.46,0,0,0,.68-.75l1.81-4.8a1.39,1.39,0,0,0,.13-.44c0-.15-.1-.28-.32-.39a1.74,1.74,0,0,0-.75-.16,2.4,2.4,0,0,0-1,.23,1.4,1.4,0,0,0-.67.75l-.63,1.67h-9.43l2.91-7.65h18.84l-1.35,3.58a1.25,1.25,0,0,0-.12.46c0,.14.1.26.3.37a1.65,1.65,0,0,0,.76.16,2.47,2.47,0,0,0,1.05-.22,1.25,1.25,0,0,0,.65-.76l1.94-5.06ZM66.63,51.63l-1,0,0,0a.74.74,0,0,0,0-.14,1.67,1.67,0,0,1,.07-.24l.11-.35c.07-.26.2-.62.37-1.09l.17-.46,0,.08.36,1,.29.86a2,2,0,0,1,.09.33,4.52,4.52,0,0,1-.54,0ZM69,54.2l-.19-.06-.14,0a.76.76,0,0,1-.15-.26c-.05-.13-.17-.48-.34-1l-.32-1-.6-1.84c-.11-.31-.19-.54-.23-.7a6.21,6.21,0,0,0-.3-.82h-.26l-.2.68-.42,1.27-.38,1.18c-.06.2-.12.39-.19.56l-.15.49a12.64,12.64,0,0,1-.47,1.3.62.62,0,0,1-.24.29,1.09,1.09,0,0,1-.36.06h-.19a.17.17,0,0,0-.1,0,.29.29,0,0,0,0,.09v0h1c.28,0,.52,0,.73,0h.28a.15.15,0,0,0,0-.07.1.1,0,0,0,0-.07l-.54,0L65,54.19a.58.58,0,0,1,0-.14,6.77,6.77,0,0,1,.22-.77L65.51,52a1.46,1.46,0,0,1,.07-.19l.3,0H67a1.43,1.43,0,0,1,.29,0c.25.76.39,1.2.42,1.33s.08.28.13.43a2.13,2.13,0,0,1,.1.42.5.5,0,0,1,0,.12.74.74,0,0,1-.25.05l-.42,0-.09,0a.5.5,0,0,0,0,.12.13.13,0,0,0,.08,0h1.16l.72,0h.17a.13.13,0,0,0,0-.06.19.19,0,0,0,0-.08l-.25-.1Zm9.82,0c0-.13,0-.23,0-.31s0-.29,0-.66v-.69l0-.46a1.52,1.52,0,0,0-.18-.78.93.93,0,0,0-.8-.46,1.09,1.09,0,0,0-.5.1,1.9,1.9,0,0,0-.44.3,5.07,5.07,0,0,0-.37.44c0-.07,0-.13,0-.18l0-.91v-1.3c0-.45,0-.71,0-.8h-.2a2.67,2.67,0,0,1-.69.3l-.1,0-.1,0s0,.07,0,.09v0a1.21,1.21,0,0,1,.52.22.37.37,0,0,1,.07.25c0,.13,0,.54,0,1.22V54a.17.17,0,0,1,0,.14,2,2,0,0,1-.53.14.36.36,0,0,0,0,.09v0h.12l.51,0h1.17a.14.14,0,0,0,0-.07V54.3l-.13-.06-.56-.15a.29.29,0,0,1,0-.09v-.61c0-.34,0-.53,0-.55V52.2a.78.78,0,0,1,0-.3,1.92,1.92,0,0,1,.26-.32,1.53,1.53,0,0,1,.31-.26.87.87,0,0,1,.41-.11.79.79,0,0,1,.46.15.59.59,0,0,1,.25.38,2.76,2.76,0,0,1,.07.86v.33c0,.7,0,1.08,0,1.16a.21.21,0,0,1-.06.1l-.24.06a.31.31,0,0,0-.2.11v0a.19.19,0,0,0,0,.07h.31l.39,0,.85,0v-.14l-.35-.1ZM61.58,56.81h.36V48.43h-.36Zm10-6.06a.83.83,0,0,0-.41.2.29.29,0,0,0-.11.11l-.09.1a2.18,2.18,0,0,0-.38.57.25.25,0,0,1,0-.08v-.08c0-.52,0-.85,0-1h-.14a1.53,1.53,0,0,1-.33.53,2.33,2.33,0,0,1-.57.34v.13a.83.83,0,0,0,.21.06.56.56,0,0,1,.29.1.51.51,0,0,1,.07.3c0,.15,0,.74,0,1.75a1,1,0,0,1,0,.35.15.15,0,0,1-.05.06l-.33.07-.24.05a.17.17,0,0,0,0,.1v.06l.67,0h1.47a.11.11,0,0,0,0-.07s0-.05,0-.07a.4.4,0,0,0-.24-.05H71.3l-.51-.06a.2.2,0,0,1-.08-.08.58.58,0,0,1,0-.19V53l0-.74a.93.93,0,0,1,.12-.43,1.76,1.76,0,0,1,.27-.4.32.32,0,0,1,.16,0,.85.85,0,0,1,.24.08,1.29,1.29,0,0,0,.26.08.42.42,0,0,0,.25-.12.32.32,0,0,0,.07-.23.44.44,0,0,0-.11-.33.38.38,0,0,0-.29-.13ZM59.05,54.17c0-.13,0-.23,0-.31s0-.29,0-.66V52.05a1.34,1.34,0,0,0-.18-.78.91.91,0,0,0-.79-.46,1,1,0,0,0-.5.1,1.9,1.9,0,0,0-.44.3,3.75,3.75,0,0,0-.37.44c0-.07,0-.13,0-.18l0-.91v-1.3c0-.45,0-.71,0-.8h-.2a2.83,2.83,0,0,1-.69.3l-.1,0-.11,0v.11a1.21,1.21,0,0,1,.52.22.37.37,0,0,1,.07.25c0,.12,0,.53,0,1.22V54c0,.08,0,.13,0,.15a2.38,2.38,0,0,1-.54.14.16.16,0,0,0,0,.09v0h.12l.51,0H57.5a.17.17,0,0,0,0-.07V54.3l-.13-.06-.56-.15a.31.31,0,0,1,0-.1v-.6c0-.34,0-.53,0-.56v-.64a.93.93,0,0,1,0-.29,1.35,1.35,0,0,1,.26-.32,2,2,0,0,1,.31-.27,1,1,0,0,1,.41-.1.83.83,0,0,1,.46.14.61.61,0,0,1,.25.38,2.85,2.85,0,0,1,.07.87v.33c0,.69,0,1.08,0,1.16a.18.18,0,0,1-.06.09l-.23.07a.27.27,0,0,0-.21.1v0a.14.14,0,0,0,0,.06h.31l.39,0,.85,0v-.14a3.58,3.58,0,0,0-.35-.09Zm15.61-.12a1.46,1.46,0,0,1-.55.11,1,1,0,0,1-.78-.43A1.86,1.86,0,0,1,73,52.57a2,2,0,0,1,.33-1.17.7.7,0,0,1,.59-.32.63.63,0,0,1,.27.06,1,1,0,0,1,.27.24.57.57,0,0,0,.43.27.29.29,0,0,0,.22-.09.43.43,0,0,0,.08-.24A.42.42,0,0,0,75,51a1.5,1.5,0,0,0-.85-.21,1.92,1.92,0,0,0-1,.22,1.64,1.64,0,0,0-.61.67,2,2,0,0,0-.24,1,2.56,2.56,0,0,0,.2.94,1.71,1.71,0,0,0,.55.75,1.34,1.34,0,0,0,.8.26,1.71,1.71,0,0,0,.71-.15,2.07,2.07,0,0,0,.62-.52v-.29a2.11,2.11,0,0,1-.56.42ZM48.05,31.51a12.55,12.55,0,0,1-4.46,1.78,28.11,28.11,0,0,1-6.53.72H27V24.88h11.2a20.32,20.32,0,0,1,8.06,1.38q3.18,1.38,3.18,3.11a2.88,2.88,0,0,1-1.4,2.14Zm4.55-2.14q0-2.4-4.1-4.18a26.7,26.7,0,0,0-10.58-1.78H19.65a4.6,4.6,0,0,0-1.61.2c-.33.13-.49.31-.49.53s.16.4.49.53a4.38,4.38,0,0,0,1.61.21h4.23V42.42H19.65a4.6,4.6,0,0,0-1.61.2c-.33.13-.49.31-.49.54s.16.38.49.52a4.38,4.38,0,0,0,1.61.21H37.81a4.38,4.38,0,0,0,1.61-.21c.33-.14.49-.31.49-.52s-.16-.41-.49-.54a4.6,4.6,0,0,0-1.61-.2H27V35.49h9.85a36,36,0,0,0,5.39-.34,32.87,32.87,0,0,0,5.81-1.43,9.8,9.8,0,0,0,3.2-1.79,3.33,3.33,0,0,0,1.33-2.56ZM55.51,54h0a.61.61,0,0,1-.24.15,1.78,1.78,0,0,1-.39.07.33.33,0,0,1-.31-.16,1.17,1.17,0,0,1-.11-.61V51.6a1.09,1.09,0,0,1,0-.26h.38l.62,0h.06a1.13,1.13,0,0,0,0-.18s0-.1,0-.14h-.6l-.39,0h-.1v-.55l0-.43h-.12c0,.06-.06.14-.1.26a3.65,3.65,0,0,1-.14.35,1.33,1.33,0,0,1-.23.3.84.84,0,0,1-.24.18.78.78,0,0,0-.18.11.16.16,0,0,0,0,.09.08.08,0,0,0,0,.05s0,0,.06,0h.43a2,2,0,0,1,0,.25v1.68a4.33,4.33,0,0,0,0,.8.77.77,0,0,0,.22.32.66.66,0,0,0,.43.13,1.5,1.5,0,0,0,.59-.1,1,1,0,0,0,.39-.3v0a.07.07,0,0,0,0-.06,0,0,0,0,0-.06,0Zm-5.44-.31a1.83,1.83,0,0,1-.48.4.57.57,0,0,1-.3.1.37.37,0,0,1-.27-.11.42.42,0,0,1-.1-.3.73.73,0,0,1,.13-.39,1.86,1.86,0,0,1,.47-.5,3.25,3.25,0,0,1,.57-.33c0,.14,0,.25,0,.33s0,.42,0,.8Zm1.08.16,0,.07a.27.27,0,0,1-.25.17.22.22,0,0,1-.18-.08.37.37,0,0,1-.08-.24,1.64,1.64,0,0,1,0-.2V52.17c0-.4,0-.63,0-.7a.76.76,0,0,0-.16-.38.6.6,0,0,0-.3-.24,1.24,1.24,0,0,0-.51-.07A1.09,1.09,0,0,0,49,51a1.57,1.57,0,0,0-.56.61,1.86,1.86,0,0,0-.22.53.08.08,0,0,0,0,.07.23.23,0,0,0,.16.06.51.51,0,0,0,.27-.12,1.3,1.3,0,0,0,.1-.25,1,1,0,0,1,.22-.58.71.71,0,0,1,.51-.24.44.44,0,0,1,.4.2,1.48,1.48,0,0,1,.15.77c0,.12,0,.22,0,.32l-.5.25a2.45,2.45,0,0,0-.92.7,1.33,1.33,0,0,0-.34.74.58.58,0,0,0,.12.36.39.39,0,0,0,.32.13,1.12,1.12,0,0,0,.84-.25l.44-.35a.9.9,0,0,0,.13.42.5.5,0,0,0,.43.19.41.41,0,0,0,.26-.07.87.87,0,0,0,.28-.32.63.63,0,0,0,.09-.24.19.19,0,0,0,0-.08l-.09,0Zm111.74-2.5a.85.85,0,0,1,.74-.39.75.75,0,0,1,.39.09.62.62,0,0,1,.25.28.82.82,0,0,1,.07.31.21.21,0,0,1-.07.15.45.45,0,0,1-.2,0c-.67,0-1.07.07-1.21.07h-.19a1,1,0,0,1,.22-.55Zm1.75,2.44a1.68,1.68,0,0,1-.38.23,1.51,1.51,0,0,1-.37.07,1.23,1.23,0,0,1-.71-.23,1.33,1.33,0,0,1-.44-.6,1.92,1.92,0,0,1-.15-.67v-.31a1.29,1.29,0,0,1,0-.19h.67l1.6,0V52a1.33,1.33,0,0,0-.16-.58,1.19,1.19,0,0,0-.47-.52,1.15,1.15,0,0,0-.6-.16,1.35,1.35,0,0,0-.6.13,1.84,1.84,0,0,0-.42.29,1.52,1.52,0,0,0-.29.39,3,3,0,0,0-.23.66,3,3,0,0,0-.07.51,2.17,2.17,0,0,0,.24,1.06,1.37,1.37,0,0,0,.63.63,1.24,1.24,0,0,0,.56.13,1.71,1.71,0,0,0,.45,0,2.29,2.29,0,0,0,.56-.29,1.75,1.75,0,0,0,.45-.45v-.07l0-.17Zm-111.79.44c-.17,0-.26-.06-.29-.11a2.15,2.15,0,0,1,0-.56s0-.17,0-.45c0-.47,0-1.93,0-4.39v-.25h-.18l-.6.22-.24.09v.09l.29.15a.36.36,0,0,1,.19.13.45.45,0,0,1,0,.23v3.69A8.56,8.56,0,0,1,52,54a.23.23,0,0,1,0,.16,1.11,1.11,0,0,1-.3.08,1,1,0,0,0-.29.07.09.09,0,0,0,0,.07.09.09,0,0,0,0,.06.15.15,0,0,0,.1,0l.67,0,.52,0,.42,0,.06,0a.1.1,0,0,0,0-.07.06.06,0,0,0,0-.06,1,1,0,0,0-.29-.07Z"/>
</svg>
