<svg id="Group_4868" data-name="Group 4868" xmlns="http://www.w3.org/2000/svg" xmlns:xlink="http://www.w3.org/1999/xlink" width="527.894" height="284.512" viewBox="0 0 527.894 284.512">
  <defs>
    <clipPath id="clip-path">
      <rect id="Rectangle_4936" data-name="Rectangle 4936" width="527.894" height="284.512" fill="none"/>
    </clipPath>
  </defs>
  <g id="Group_4867" data-name="Group 4867" clip-path="url(#clip-path)">
    <path id="Path_5144" data-name="Path 5144" d="M513.028,190.441l-17.973,55.134-1.349-55.134h-18.38l-26.757,77.7h15.406l16.486-50.675,1.487,50.675h19.188l26.758-77.7ZM152.445,176.912l7.434-14.865h19.864l-1.353,14.865h16.488l5.4-77.7h-22.7l-43.107,77.7Zm31.489-63.241-2.973,34.459H166.773ZM89.2,176.912l7.431-21.486h3.243c1.079,15.81,8.784,22.7,20.676,22.7,4.864,0,9.592-1.757,12.295-4.189l-3.917-11.757a8.773,8.773,0,0,1-5.675,2.838c-5.27,0-8.107-4.189-8.919-11.622,15.136-4.324,28.782-15.134,28.782-31.891,0-18.107-15.136-28.242-43.648-22.3v.271l-26.621,77.43Zm22.3-64.864c8.377-.676,14.459,1.757,14.459,10.27,0,9.459-9.055,18.919-24.732,19.594Zm-62.17,64.863,22.025-63.783H87.431l4.728-13.918H42.971l-4.728,13.918H54.457L32.432,176.912ZM304.488,155.7c0,5-4.19,9.188-10,9.188-6.217,0-9.055-3.919-9.055-8.513a16.076,16.076,0,0,1,2.3-7.7l-13.11-6.622a26.858,26.858,0,0,0-5.676,16.081c0,11.486,9.191,21.216,23.649,21.216,16.351,0,28.513-10.4,28.513-25.54,0-20.405-22.162-22.3-22.162-34.053a8.094,8.094,0,0,1,8.378-8.38c5.134,0,8.784,5.136,6.217,13.379h15.4c3.784-10.945-1.079-27.026-20.944-27.026a25.429,25.429,0,0,0-25.407,24.865c0,19.458,21.893,20.539,21.893,33.107m-71.629-29.46,1.488,50.675h19.188l26.758-77.7H265.426l-17.973,55.134L246.1,99.211H227.724l-26.757,77.7h15.407ZM391.4,184.089c6.487,0,12.568-7.162,12.568-13.918a7.739,7.739,0,0,0-7.973-7.972c-6.622,0-12.568,6.756-12.568,13.783,0,4.73,2.973,8.107,7.972,8.107m40.679,5c-25.4,0-41.484,30.54-41.484,53.917,0,14.459,7.431,26.487,23.514,26.487,24.593,0,40.4-28.377,40.4-52.432,0-15.4-7.3-27.971-22.435-27.971M416.13,253.412c-5.676,0-8.784-3.918-8.784-11.486,0-15.134,9.325-36.351,21.619-36.351,5.273,0,8.649,4.73,8.649,12.163,0,14.594-10,35.674-21.484,35.674m-36.9-62.971-26.754,77.7h16.891l26.754-77.7ZM224.751,236.385l4.867-14.053H211.374l6.216-17.973h26.619l4.867-13.918H205.428l-26.757,77.7h43.513l4.864-14.053H200.429l6.082-17.7Zm104.746-25.4a8.093,8.093,0,0,1,8.377-8.38c5.138,0,8.784,5.136,6.216,13.378H359.5c3.784-10.944-1.082-27.026-20.947-27.026a25.426,25.426,0,0,0-25.4,24.865c0,19.458,21.89,20.539,21.89,33.106,0,5-4.188,9.189-10,9.189-6.218,0-9.055-3.919-9.055-8.513a16.11,16.11,0,0,1,2.3-7.7l-13.106-6.622a26.855,26.855,0,0,0-5.676,16.081c0,11.486,9.19,21.216,23.646,21.216,16.353,0,28.516-10.4,28.516-25.54,0-20.405-22.164-22.3-22.164-34.053m-33.522-20.541L278,245.575l-1.35-55.134H258.273l-26.757,77.7h15.407l16.485-50.675,1.489,50.675h19.188l26.757-77.7Zm-269.627.27L0,267.2c35.672,8.379,69.323-11.621,69.323-48.649,0-24.053-19.327-32.837-42.975-27.836m-5.4,63.781,17.3-50.4c8.513,0,14.459,3.92,14.459,14.459,0,19.6-13.377,34.19-31.756,35.945m70.415-64.052L64.6,268.141H81.5l26.754-77.7Zm73.246,0L138.93,246.115l5.541-55.674H124.606l-33.38,77.7h16.756l21.081-53.783-4.728,53.783H139.2l27.836-56.215L153.93,268.141h16.62l15.133-77.7Z" transform="translate(0 -35.926)" fill="#5b4e46"/>
    <path id="Path_5145" data-name="Path 5145" d="M277.66,393.828a5.554,5.554,0,0,1,5.556-5.47c3.077,0,5.6,2.778,3.5,7.693h4.1c2.521-5.642-.812-11.2-7.18-11.2-5.941,0-10.087,4.744-10.13,9.317-.086,8.378,9.872,8.378,9.872,14.746a6.7,6.7,0,0,1-6.667,6.5c-3.206,0-5.557-2.053-5.557-5.044a6.81,6.81,0,0,1,1.967-4.874l-3.463-1.922a11.048,11.048,0,0,0-2.564,6.838c0,5.085,3.676,8.633,9.276,8.633,6.538,0,11.2-5.129,11.24-10.387.043-8.419-10.044-8.634-9.958-14.831m310.1,3.206h-3.847a43.036,43.036,0,0,1-5.337,11.266c-1.562,2.083-3.1,3.395-4.235,3.395-1.924,0-.812-3.292,3.077-13.677h-3.889c-3.377,9.744-5.129,13.72-7.736,13.72-2.565,0-1.795-4.574,2.222-13.72h-3.8c-5.256,11.967-4.445,17.181.3,17.181,2.308,0,4.359-1.666,5.641-3.888-.17,2.349,1.154,3.888,3.206,3.888,1.772,0,3.542-1.2,5.091-2.846a8.228,8.228,0,0,0,6.319,2.889,6.735,6.735,0,0,0,6.924-6.924c.042-4.146-2.991-8.762-3.931-11.283m-3.506,15.045a4.256,4.256,0,0,1-3.419-1.838,33.934,33.934,0,0,0,4.872-9.19,15.134,15.134,0,0,1,2.138,6.967c0,2.222-1.368,4.06-3.592,4.06m-233.127-.042c-2.82,0-4.1-1.239-4.358-3.206,4.7,1.069,10.214-1.582,10.214-6.412a4.741,4.741,0,0,0-4.958-4.829c-4.915,0-8.465,4.524-8.955,9.682-2.222,3.2-4.638,4.764-7.885,4.764-2.222,0-3.719-1.453-3.719-4.06,0-3.463,2.138-7.1,4.488-7.1,1.582,0,2.222,1.924,1.325,4.574h3.762c1.325-3.846-.428-7.863-4.617-7.863-4.516,0-8.245,4.449-8.71,9.711-1.792,2.653-3.659,4.394-4.963,4.394-1.709,0-.769-2.864,3.163-13.677h-3.676l-.683,1.881a4.817,4.817,0,0,0-4.1-2.308c-4.415,0-7.975,4.665-8.609,9.8-2.085,3.074-4.649,4.688-6.776,4.818,2.479-1.669,4.745-6.07,4.745-9.319,0-3.292-1.625-5.256-4.019-5.256-2.563,0-4.872,2.051-6.025,4.1l1.452-3.719h-3.674c-3.121,9.147-6.284,18.678-9.447,27.868h3.89c1.494-4.788,2.821-9.19,3.974-12.4a9.93,9.93,0,0,0,6.113,1.752c2.993,0,6.744-.335,9.948-3.933.633,2.363,2.275,3.89,4.581,3.89a5.7,5.7,0,0,0,4.915-2.864,3.132,3.132,0,0,0,3.248,2.864c2.251,0,4.5-1.933,6.293-4.261a6.316,6.316,0,0,0,6.356,4.261,10.957,10.957,0,0,0,9.037-4.171c.986,2.625,3.548,4.172,6.862,4.172a12.032,12.032,0,0,0,9.061-4.4l-1.71-2.522c-1.41,1.625-4.1,3.762-6.54,3.762m.642-11.326a1.664,1.664,0,0,1,1.709,1.881c-.042,2.564-3.547,4.273-6.583,3.8.513-3.077,2.479-5.684,4.874-5.684M297.1,412.122a3.9,3.9,0,0,1-3.291-1.454c2.522-7.137,5.258-9.872,7.223-9.829,1.241,0,1.924,1.067,1.924,2.606,0,3.762-3.034,8.677-5.856,8.677m17.735-.428c-1.581,0-2.349-1.411-2.349-2.95,0-3.719,2.094-7.822,5.256-7.822a3.173,3.173,0,0,1,2.864,1.795c-1.753,5.9-3.506,8.977-5.771,8.977m176.972-14.661a43.784,43.784,0,0,1-3.928,9.012c-2.457,4.026-5.078,5.99-8.679,5.99-2.779,0-4.1-1.238-4.359-3.163,4.7,1.069,10.214-1.453,10.214-6.454a4.741,4.741,0,0,0-4.958-4.829c-4.917,0-8.468,4.526-8.955,9.686-2.222,3.195-4.638,4.76-7.883,4.76-2.222,0-3.719-1.453-3.719-4.06,0-3.463,2.138-7.1,4.488-7.1,1.583,0,2.224,1.924,1.326,4.574h3.761c1.325-3.846-.427-7.863-4.616-7.863-4.516,0-8.245,4.448-8.71,9.708-1.794,2.655-3.662,4.4-4.966,4.4-1.709,0-.769-2.864,3.163-13.677h-3.676l-.683,1.881a4.816,4.816,0,0,0-4.1-2.308c-4.415,0-7.976,4.666-8.609,9.8-2.085,3.074-4.649,4.687-6.776,4.816,2.48-1.669,4.745-6.07,4.745-9.319,0-3.292-1.625-5.256-4.019-5.256-2.564,0-4.872,2.051-6.026,4.1l1.452-3.719h-3.674c-.845,2.477-1.694,4.984-2.544,7.5-1.822,3.388-4.039,5.671-6.044,6.387a6.22,6.22,0,0,0,1.752-4.53c.044-3.5-2.522-8.035-3.633-10.343H408.3a43.06,43.06,0,0,1-5.684,11.8,2.141,2.141,0,0,0-.428,2.437c1.068,2.478,4.147,3.974,7.393,3.974a12.022,12.022,0,0,0,8.074-2.557c-1.492,4.425-2.989,8.851-4.486,13.2h3.89c1.495-4.788,2.821-9.19,3.974-12.4a9.931,9.931,0,0,0,6.113,1.752c2.993,0,6.744-.335,9.947-3.933.634,2.363,2.276,3.89,4.581,3.89a5.7,5.7,0,0,0,4.915-2.864,3.133,3.133,0,0,0,3.249,2.864c2.252,0,4.5-1.934,6.294-4.263A6.317,6.317,0,0,0,462.5,415.2a10.959,10.959,0,0,0,9.036-4.169c.988,2.623,3.549,4.169,6.862,4.169a10.952,10.952,0,0,0,7.882-2.94,8.183,8.183,0,0,0,6.391,2.983,6.734,6.734,0,0,0,6.924-6.924c.043-4.146-2.991-8.762-3.931-11.283Zm-11.965,3.676a1.664,1.664,0,0,1,1.71,1.881c-.043,2.735-3.547,4.359-6.583,3.8.513-3.077,2.48-5.684,4.873-5.684m-71.241,11.412a4.214,4.214,0,0,1-3.378-1.881,33.159,33.159,0,0,0,4.871-9.233,15.4,15.4,0,0,1,2.053,7.01c0,2.18-1.281,4.1-3.546,4.1m16.58,0a3.9,3.9,0,0,1-3.292-1.454c2.523-7.137,5.258-9.872,7.224-9.829,1.24,0,1.923,1.067,1.923,2.606,0,3.762-3.033,8.677-5.855,8.677m17.735-.428c-1.58,0-2.349-1.411-2.349-2.95,0-3.719,2.094-7.822,5.256-7.822a3.173,3.173,0,0,1,2.864,1.795c-1.752,5.9-3.506,8.977-5.771,8.977m49.233.384a4.256,4.256,0,0,1-3.419-1.838,33.936,33.936,0,0,0,4.872-9.19,15.121,15.121,0,0,1,2.138,6.967c0,2.222-1.368,4.06-3.592,4.06m54.577-.384c-.685,0-1.026-.471-1.026-1.325,0-1.967,2.864-7.951,4.275-11.5a46.435,46.435,0,0,1-6.967-.47l.513-1.795H540.1c-1.282,4.915-3.205,8.206-6.068,9.445a13.69,13.69,0,0,0,.213-2.265c0-3.077-1.838-6.2-5.6-6.2a8.726,8.726,0,0,0-7.274,4.337,10.04,10.04,0,0,1-8.326,1.091c1.795-5,3.547-9.7,5.6-14.959h-3.76c-2.352,6.411-5.216,14.617-6.925,19.148-5,13.035-5.342,19.105.342,19.105,7.736,0,9.574-14.532,5.044-20.388a9.353,9.353,0,0,0,6.434-.327,13.594,13.594,0,0,0-.452,3.448c0,3.5,2.179,6.154,5.683,6.154,3.549,0,6.285-2.351,7.822-5.47,3.676-.683,6.8-3.5,8.977-8.292a20.475,20.475,0,0,0,3.248.428c-1.369,3.463-3.205,6.754-3.205,9.531a3.632,3.632,0,0,0,3.888,3.8c3.419,0,6.54-3.461,7.908-5.769l-2.138-2.053c-1.367,2.179-3.547,4.318-4.786,4.318m-38.082,11.412c-2.778,0-.512-6.839,2.692-15.773,2.181,5.044,1.327,15.773-2.692,15.773m16.838-11.285c-1.452,0-2.435-1.11-2.435-3.2,0-3.549,2.394-7.822,5.044-7.822,1.624,0,2.392,1.41,2.392,3.205,0,3.547-2.392,7.82-5,7.82m-137.224,3.506a6.127,6.127,0,0,1-3.59-1.2,23.939,23.939,0,0,0,7.051-13.035H388a21.94,21.94,0,0,1-5.769,10.643,25.389,25.389,0,0,1-3.975-9.66c4.958-2.606,10.3-5.3,10.3-10.985a5.928,5.928,0,0,0-6.112-6.156c-5.428,0-8.761,4.275-8.761,9.917a41.226,41.226,0,0,0,.385,5.557c-4.361,2.349-8.421,5.256-8.421,10.813,0,5.044,4.06,7.822,8.719,7.822a13.388,13.388,0,0,0,7.18-2.436,9.475,9.475,0,0,0,12.78-.086l-1.71-3.249a5.8,5.8,0,0,1-4.358,2.053m-6.242-27.056a2.822,2.822,0,0,1,2.694,3.034c0,3.377-3.249,5.3-7.053,7.267-.129-1.326-.215-2.608-.215-3.847,0-4.06,2.181-6.454,4.574-6.454m-7.137,27.056c-2.949,0-5.129-1.582-5.129-4.7,0-2.948,2.181-4.915,5-6.667a29.143,29.143,0,0,0,4.4,10.13,9.063,9.063,0,0,1-4.274,1.239" transform="translate(-98.414 -141.799)" fill="#5b4e46"/>
    <path id="Path_5146" data-name="Path 5146" d="M120.969,39.166c-2.92,2.471-7.564,6.065-11.831,6.065-3.819,0-5.842-1.422-6.44-3.894,6.964,1.573,17.372-2.1,17.372-11.159a9.023,9.023,0,0,0-9.435-9.21c-9.214,0-15.525,7.672-16.717,16.286-2.631,4.171-5.268,6.852-7.107,6.852a1.159,1.159,0,0,1-1.272-1.2c0-2.7,5.991-10.034,5.84-15.8a5.9,5.9,0,0,0-5.991-6.141c-3.37,0-7.337,2.172-9.808,6.589,2.107-6.387,4.276-12.725,6.572-19.094h.058l1.13-3.276c.085-.231.166-.462.251-.693H83.58L85.13,0h-45.2L37.005,8.463H51.533C45.692,25.087,40.076,41.787,34.385,58.411H44.12C49.586,41.787,55.278,25.087,61.193,8.463H73.376C67.923,24.16,62.92,38.682,58.43,51.672h8.986c2.022-6.814,7.564-22.765,12.88-22.765,1.05,0,1.423.748,1.423,1.648,0,3.071-5.39,9.434-5.39,15.126,0,3.82,2.32,6.74,7.112,6.74,4.135,0,8.063-3.076,11.3-6.945,2.071,4.7,7.015,6.945,12.524,6.945a24.814,24.814,0,0,0,17-7.114ZM109.96,28.007c1.348,0,2.172.824,2.1,2.473-.15,3.444-5.092,5.69-9.212,5.542.973-4.494,3.819-8.014,7.114-8.014" transform="translate(-12.669)" fill="#5b4e46"/>
  </g>
</svg>
