<svg xmlns="http://www.w3.org/2000/svg" width="282.728" height="415.386" viewBox="0 0 282.728 415.386">
  <g id="Group_4554" data-name="Group 4554" transform="translate(-1204.156 -1679.013)">
    <!-- <path id="Path_1549" data-name="Path 1549" d="M6073.255-1003.7c-22.113,0-21.617,57.713-21.617,66.936h0a21.618,21.618,0,0,0,21.618,21.618,21.619,21.619,0,0,0,21.618-21.618C6094.873-945.985,6095.369-1003.7,6073.255-1003.7Z" transform="translate(-4847.481 2934.316)" fill="#ada6a3"/> -->
    <!-- <path id="Path_1550" data-name="Path 1550" d="M6073.255-1003.7c-.032,0-.062,0-.094,0v88.547c.031,0,.062,0,.094,0a21.619,21.619,0,0,0,21.618-21.618C6094.873-945.985,6095.369-1003.7,6073.255-1003.7Z" transform="translate(-4847.481 2934.316)" fill="#9d9591"/> -->
    <!-- <rect id="Rectangle_2270" data-name="Rectangle 2270" width="6.951" height="6.951" transform="translate(1222.204 2018.126)" fill="#7c716c"/> -->
    <!-- <path id="Rectangle_2271" data-name="Rectangle 2271" d="M4.462,0H11.9a4.462,4.462,0,0,1,4.462,4.462v53.6a8.181,8.181,0,0,1-8.181,8.181h0A8.181,8.181,0,0,1,0,58.06V4.462A4.462,4.462,0,0,1,4.462,0Z" transform="translate(1217.593 2023.779)" fill="#efe9dd"/> -->
    <!-- <line id="Line_465" data-name="Line 465" y1="29.623" transform="translate(1222.204 1972.565)" fill="none" stroke="#7c716c" stroke-linecap="round" stroke-linejoin="round" stroke-width="4.462"/> -->
    <!-- <line id="Line_466" data-name="Line 466" y1="29.623" transform="translate(1229.155 1972.565)" fill="none" stroke="#7c716c" stroke-linecap="round" stroke-linejoin="round" stroke-width="4.462"/> -->
    <!-- <path id="Path_1551" data-name="Path 1551" d="M6076.974-910.538h-3.813V-844.3c.031,0,.062,0,.094,0a8.181,8.181,0,0,0,8.181-8.18v-53.6A4.462,4.462,0,0,0,6076.974-910.538Z" transform="translate(-4847.481 2934.316)" fill="#ebe3d4"/> -->
    <rect id="Rectangle_2272" data-name="Rectangle 2272" width="6.951" height="6.951" transform="translate(1389.227 1846.949) rotate(90)" fill="#7c716c"/>
    <path id="Path_1552" data-name="Path 1552" d="M6257.28-1105.51a21.617,21.617,0,0,0-21.618,21.618,21.618,21.618,0,0,0,21.618,21.618c10.367,0,43.171-2.368,47.455-2.877,5.007-.594,5.8-1.487,5.8-2.528,0-2.975-28.857-2.194-44.921-2.789a4.778,4.778,0,0,1-4.779-4.778,4.779,4.779,0,0,1,4.779-4.779c7.139,0,38.078-1.636,40.161-1.934s4.76-.446,4.76-1.933-2.678-1.637-4.76-1.934-33.022-1.934-40.161-1.934a4.778,4.778,0,0,1-4.779-4.779,4.778,4.778,0,0,1,4.779-4.778c16.064-.595,44.921.186,44.921-2.788,0-1.042-.794-1.934-5.8-2.529-4.284-.509-37.088-2.876-47.455-2.876" transform="translate(-4847.481 2934.316)" fill="#ada6a3"/>
    <path id="Rectangle_2273" data-name="Rectangle 2273" d="M4.462,0H11.9a4.462,4.462,0,0,1,4.462,4.462v53.6a8.181,8.181,0,0,1-8.181,8.181h0A8.181,8.181,0,0,1,0,58.06V4.462A4.462,4.462,0,0,1,4.462,0Z" transform="translate(1383.575 1842.243) rotate(90)" fill="#efe9dd"/>
    <path id="Path_1553" data-name="Path 1553" d="M6310.536-1067.679c0-2.975-28.857-2.193-44.921-2.789a4.778,4.778,0,0,1-4.779-4.778,4.778,4.778,0,0,1,4.779-4.779c7.139,0,38.078-1.636,40.161-1.934,2.037-.291,4.637-.443,4.749-1.842h-74.861a21.618,21.618,0,0,0,21.616,21.527c10.367,0,43.171-2.368,47.455-2.877C6309.742-1065.745,6310.536-1066.638,6310.536-1067.679Z" transform="translate(-4847.481 2934.316)" fill="#9d9591"/>
    <path id="Path_1554" data-name="Path 1554" d="M6231.056-1080.174v-3.627h-66.237a8.179,8.179,0,0,0,8.176,8.09h53.6A4.463,4.463,0,0,0,6231.056-1080.174Z" transform="translate(-4847.481 2934.316)" fill="#ebe3d4"/>
    <rect id="Rectangle_2274" data-name="Rectangle 2274" width="30.496" height="25.848" transform="translate(1372.933 1769.417)" fill="#9d9591"/>
    <rect id="Rectangle_2275" data-name="Rectangle 2275" width="9.885" height="25.848" transform="translate(1393.544 1769.417)" fill="#ada6a3"/>
    <path id="Path_1555" data-name="Path 1555" d="M6258.427-1225.874a14.715,14.715,0,0,1-14.715-14.715,14.715,14.715,0,0,1,14.715-14.714h-22.765v80.4h22.765a25.483,25.483,0,0,0,25.484-25.484A25.484,25.484,0,0,0,6258.427-1225.874Z" transform="translate(-4847.481 2934.316)" fill="#7c716c"/>
    <path id="Path_1556" data-name="Path 1556" d="M6212.9-1225.874a14.715,14.715,0,0,0,14.715-14.715A14.715,14.715,0,0,0,6212.9-1255.3h22.765v80.4H6212.9a25.484,25.484,0,0,1-25.484-25.484A25.485,25.485,0,0,1,6212.9-1225.874Z" transform="translate(-4847.481 2934.316)" fill="#5b4e47"/>
    <rect id="Rectangle_2276" data-name="Rectangle 2276" width="126.133" height="11.257" transform="translate(1325.114 1759.411)" fill="#efe9dd"/>
    <rect id="Rectangle_2277" data-name="Rectangle 2277" width="105.05" height="11.257" transform="translate(1325.114 1759.411)" fill="#ebe3d4"/>
    <rect id="Rectangle_2281" data-name="Rectangle 2281" width="45.495" height="20.944" transform="translate(1337.469 2015.53)" fill="#7c716c"/>
    <rect id="Rectangle_2282" data-name="Rectangle 2282" width="109.714" height="176.48" rx="6.649" transform="translate(1271.977 2017.229) rotate(-90)" fill="#5b4e46"/>
    <rect id="Rectangle_2283" data-name="Rectangle 2283" width="7.093" height="65.07" transform="translate(1327.682 2041.294) rotate(-90)" fill="#5b4e46"/>
    <rect id="Rectangle_2284" data-name="Rectangle 2284" width="87.057" height="160.508" transform="translate(1279.963 2003.185) rotate(-90)" fill="#ebe3d4"/>
    <path id="Path_1605" data-name="Path 1605" d="M6287.953-1018.189v87.057H6127.444" transform="translate(-4847.481 2934.316)" fill="#efe9dd"/>
    <circle id="Ellipse_146" data-name="Ellipse 146" cx="3.227" cy="3.227" r="3.227" transform="translate(1356.99 2006.627)" fill="#7c716c"/>
    <path id="Path_1606" data-name="Path 1606" d="M6207.7-951.322a23.242,23.242,0,0,1-23.147-23.338A23.244,23.244,0,0,1,6207.7-998a23.244,23.244,0,0,1,23.148,23.339,23.242,23.242,0,0,1-23.148,23.338" transform="translate(-4847.481 2934.316)" fill="#afcf5a"/>
    <path id="Path_1607" data-name="Path 1607" d="M6220.208-982.218l-5.013-5.056-7.5,7.559-3.639-3.668-5.013,5.056,3.639,3.668,4.2,4.239.809.817,3.752-3.785Z" transform="translate(-4847.481 2934.316)" fill="#5b4e47"/>
    <path id="Rectangle_2285" data-name="Rectangle 2285" d="M0,0H71.523a0,0,0,0,1,0,0V13.918A27.474,27.474,0,0,1,44.049,41.392H27.474A27.474,27.474,0,0,1,0,13.918V0A0,0,0,0,1,0,0Z" transform="translate(1393.009 2053.007)" fill="#efe9dd"/>
    <path id="Path_1608" data-name="Path 1608" d="M6317.9-879.063a16.463,16.463,0,0,0-16.464,16.463,16.464,16.464,0,0,0,16.464,16.463,16.463,16.463,0,0,0,16.463-16.463A16.463,16.463,0,0,0,6317.9-879.063Zm0,26.8a10.336,10.336,0,0,1-10.336-10.335,10.336,10.336,0,0,1,10.336-10.335,10.335,10.335,0,0,1,10.335,10.335A10.335,10.335,0,0,1,6317.9-852.265Z" transform="translate(-4847.481 2934.316)" fill="#ebe3d4"/>
    <path id="Path_1609" data-name="Path 1609" d="M6275.152-894.835a8.984,8.984,0,0,1-8.984-8.984,8.984,8.984,0,0,1,8.984-8.984" transform="translate(-4847.481 2934.316)" fill="#ebe3d4" opacity="0.5"/>
    <path id="Path_1610" data-name="Path 1610" d="M6275.152-943.921a15.559,15.559,0,0,1,15.559,15.559,15.559,15.559,0,0,1-15.559,15.559" transform="translate(-4847.481 2934.316)" fill="#ebe3d4" opacity="0.5"/>
    <path id="Path_1611" data-name="Path 1611" d="M6284.539-839.917a27.474,27.474,0,0,0,27.474-27.475v-13.917h-34.669v41.392Z" transform="translate(-4847.481 2934.316)" fill="#ebe3d4"/>
    <path id="Path_1612" data-name="Path 1612" d="M6283.255-869.012,6270.74-857c2.563,1.633,6.722.754,9.859-2.257S6284.783-866.386,6283.255-869.012Z" transform="translate(-4847.481 2934.316)" fill="#5b4e47"/>
    <path id="Path_1613" data-name="Path 1613" d="M6281.763-870.567c-2.562-1.633-6.721-.754-9.858,2.257s-4.184,7.131-2.657,9.757Z" transform="translate(-4847.481 2934.316)" fill="#5b4e47"/>
    <path id="Rectangle_2286" data-name="Rectangle 2286" d="M18.01,0H28.875a18.01,18.01,0,0,1,18.01,18.01v9.124a0,0,0,0,1,0,0H0a0,0,0,0,1,0,0V18.01A18.01,18.01,0,0,1,18.01,0Z" transform="translate(1380.232 2085.719) rotate(-180)" fill="#efe9dd"/>
    <path id="Path_1614" data-name="Path 1614" d="M6166.176-863.467a10.792,10.792,0,0,0,10.792,10.792,10.792,10.792,0,0,0,10.792-10.792,10.791,10.791,0,0,0-10.792-10.792A10.792,10.792,0,0,0,6166.176-863.467Zm4.017,0a6.775,6.775,0,0,1,6.775-6.775,6.775,6.775,0,0,1,6.775,6.775,6.775,6.775,0,0,1-6.775,6.775A6.775,6.775,0,0,1,6170.193-863.467Z" transform="translate(-4847.481 2934.316)" fill="#efe9dd"/>
    <path id="Path_1615" data-name="Path 1615" d="M6209.7-848.6a18.009,18.009,0,0,0,18.01-18.01v-9.124h-22.726V-848.6Z" transform="translate(-4847.481 2934.316)" fill="#ebe3d4"/>
    <path id="Path_1616" data-name="Path 1616" d="M6200.682-884.6a5.89,5.89,0,0,1-5.89-5.89,5.89,5.89,0,0,1,5.89-5.889" transform="translate(-4847.481 2934.316)" fill="#ebe3d4" opacity="0.5"/>
    <path id="Path_1617" data-name="Path 1617" d="M6200.682-916.776a10.2,10.2,0,0,1,10.2,10.2,10.2,10.2,0,0,1-10.2,10.2" transform="translate(-4847.481 2934.316)" fill="#ebe3d4" opacity="0.5"/>
    <path id="Path_1618" data-name="Path 1618" d="M6199.68-867.671l8.2,7.876c-1.68,1.071-4.407.495-6.463-1.479S6198.678-865.949,6199.68-867.671Z" transform="translate(-4847.481 2934.316)" fill="#5b4e47"/>
    <path id="Path_1619" data-name="Path 1619" d="M6200.658-868.69c1.679-1.07,4.406-.494,6.462,1.48s2.743,4.674,1.742,6.4Z" transform="translate(-4847.481 2934.316)" fill="#5b4e47"/>
  </g>
</svg>
