<svg xmlns="http://www.w3.org/2000/svg" width="241.297" height="47.911" viewBox="0 0 241.297 47.911">
  <g id="Group_4547" data-name="Group 4547" transform="translate(-231.022 -121)">
    <rect id="Rectangle_2716" data-name="Rectangle 2716" width="11.801" height="10.003" transform="translate(442.013 158.908)" fill="#9d9591"/>
    <rect id="Rectangle_2717" data-name="Rectangle 2717" width="3.825" height="10.003" transform="translate(449.989 158.908)" fill="#ada6a3"/>
    <path id="Path_2217" data-name="Path 2217" d="M8182.026-700.311a5.694,5.694,0,0,1-5.694-5.694,5.694,5.694,0,0,1,5.694-5.7h-8.809v31.113h8.809a9.862,9.862,0,0,0,9.862-9.862A9.862,9.862,0,0,0,8182.026-700.311Z" transform="translate(-7725.303 835.623)" fill="#7c716c"/>
    <path id="Path_2218" data-name="Path 2218" d="M8164.407-700.311a5.694,5.694,0,0,0,5.694-5.694,5.7,5.7,0,0,0-5.694-5.7h8.81v31.113h-8.81a9.862,9.862,0,0,1-9.862-9.862A9.862,9.862,0,0,1,8164.407-700.311Z" transform="translate(-7725.303 835.623)" fill="#5b4e47"/>
    <rect id="Rectangle_2718" data-name="Rectangle 2718" width="48.811" height="4.356" transform="translate(423.508 155.036)" fill="#efe9dd"/>
    <rect id="Rectangle_2719" data-name="Rectangle 2719" width="40.652" height="4.356" transform="translate(423.508 155.036)" fill="#ebe3d4"/>
    <path id="Path_2264" data-name="Path 2264" d="M8073.028-675.747a10.666,10.666,0,0,1,10.666-10.666,10.666,10.666,0,0,1,10.666,10.666" transform="translate(-7725.303 835.623)" fill="none" stroke="#ebe3d4" stroke-linecap="round" stroke-linejoin="round" stroke-width="1.262"/>
    <rect id="Rectangle_2720" data-name="Rectangle 2720" width="15.888" height="22.901" transform="translate(334.18 141.061)" fill="#fffdf3"/>
    <rect id="Rectangle_2721" data-name="Rectangle 2721" width="23.723" height="3.257" rx="1.629" transform="translate(330.29 137.803)" fill="#5b4e47"/>
    <rect id="Rectangle_2722" data-name="Rectangle 2722" width="23.723" height="3.257" rx="1.629" transform="translate(330.29 163.962)" fill="#5b4e47"/>
    <line id="Line_579" data-name="Line 579" x2="15.888" transform="translate(334.18 142.354)" fill="none" stroke="#ebe3d4" stroke-miterlimit="10" stroke-width="1.262"/>
    <line id="Line_580" data-name="Line 580" x2="15.888" transform="translate(334.18 144.386)" fill="none" stroke="#ebe3d4" stroke-miterlimit="10" stroke-width="1.262"/>
    <line id="Line_581" data-name="Line 581" x2="15.888" transform="translate(334.18 146.417)" fill="none" stroke="#ebe3d4" stroke-miterlimit="10" stroke-width="1.262"/>
    <line id="Line_582" data-name="Line 582" x2="15.888" transform="translate(334.18 148.448)" fill="none" stroke="#ebe3d4" stroke-miterlimit="10" stroke-width="1.262"/>
    <line id="Line_583" data-name="Line 583" x2="15.888" transform="translate(334.18 150.48)" fill="none" stroke="#ebe3d4" stroke-miterlimit="10" stroke-width="1.262"/>
    <line id="Line_584" data-name="Line 584" x2="15.888" transform="translate(334.18 152.511)" fill="none" stroke="#ebe3d4" stroke-miterlimit="10" stroke-width="1.262"/>
    <line id="Line_585" data-name="Line 585" x2="15.888" transform="translate(334.18 154.543)" fill="none" stroke="#ebe3d4" stroke-miterlimit="10" stroke-width="1.262"/>
    <line id="Line_586" data-name="Line 586" x2="15.888" transform="translate(334.18 156.574)" fill="none" stroke="#ebe3d4" stroke-miterlimit="10" stroke-width="1.262"/>
    <line id="Line_587" data-name="Line 587" x2="15.888" transform="translate(334.18 158.606)" fill="none" stroke="#ebe3d4" stroke-miterlimit="10" stroke-width="1.262"/>
    <line id="Line_588" data-name="Line 588" x2="15.888" transform="translate(334.18 160.637)" fill="none" stroke="#ebe3d4" stroke-miterlimit="10" stroke-width="1.262"/>
    <line id="Line_589" data-name="Line 589" x2="15.888" transform="translate(334.18 162.668)" fill="none" stroke="#ebe3d4" stroke-miterlimit="10" stroke-width="1.262"/>
    <path id="Path_2265" data-name="Path 2265" d="M8089.688-672.342c1.152,1.152,5.6.45,10.359-8.189,2.135-3.878,24.16-25.336,27.545-29.02,2.787-3.034,4.377-5.072,4.377-5.072s-2.038,1.59-5.072,4.377c-3.684,3.385-25.142,25.41-29.02,27.545C8089.237-677.944,8088.536-673.494,8089.688-672.342Zm8.509-8.509c.376.376-.878,2.738-3.325,5.184-1.941,1.942-3.217,1.861-3.469,1.61s-.332-1.528,1.61-3.47C8095.459-679.973,8097.821-681.227,8098.2-680.851Z" transform="translate(-7725.303 835.623)" fill="#5b4e47"/>
    <path id="Path_2266" data-name="Path 2266" d="M8109.6-675.747a7.619,7.619,0,0,1-7.619,7.619,7.619,7.619,0,0,1-7.62-7.619" transform="translate(-7725.303 835.623)" fill="none" stroke="#ebe3d4" stroke-linecap="round" stroke-linejoin="round" stroke-width="1.262"/>
    <rect id="Rectangle_2729" data-name="Rectangle 2729" width="9.96" height="33.412" transform="translate(236.71 128.495)" fill="#ebe3d4"/>
    <rect id="Rectangle_2730" data-name="Rectangle 2730" width="9.96" height="2.606" transform="translate(236.71 153.139)" fill="#5b4e47"/>
    <rect id="Rectangle_2731" data-name="Rectangle 2731" width="9.96" height="2.606" transform="translate(236.71 156.693)" fill="#5b4e47"/>
    <rect id="Rectangle_2732" data-name="Rectangle 2732" width="9.96" height="2.606" transform="translate(236.71 131.103)" fill="#5b4e47"/>
    <rect id="Rectangle_2733" data-name="Rectangle 2733" width="9.96" height="2.606" transform="translate(236.71 134.657)" fill="#5b4e47"/>
    <rect id="Rectangle_2734" data-name="Rectangle 2734" width="11.244" height="40.018" transform="translate(301.897 150.663) rotate(90)" fill="#5b4e47"/>
    <rect id="Rectangle_2735" data-name="Rectangle 2735" width="11.244" height="4.174" transform="translate(269.177 150.663) rotate(90)" fill="#ebe3d4"/>
    <rect id="Rectangle_2736" data-name="Rectangle 2736" width="11.244" height="4.174" transform="translate(298.773 150.663) rotate(90)" fill="#ebe3d4"/>
    <rect id="Rectangle_2737" data-name="Rectangle 2737" width="5.301" height="33.412" transform="translate(254.678 128.495)" fill="#fffcf0"/>
    <rect id="Rectangle_2738" data-name="Rectangle 2738" width="5.301" height="11.397" transform="translate(254.678 139.503)" fill="#5b4e47"/>
    <rect id="Rectangle_2739" data-name="Rectangle 2739" width="5.301" height="24.644" transform="translate(248.023 137.264)" fill="#5b4e47"/>
    <rect id="Rectangle_2740" data-name="Rectangle 2740" width="5.301" height="2.885" transform="translate(248.023 137.264)" fill="#fffcf0"/>
    <rect id="Rectangle_2741" data-name="Rectangle 2741" width="5.301" height="2.885" transform="translate(248.023 159.023)" fill="#fffcf0"/>
    <ellipse id="Ellipse_165" data-name="Ellipse 165" cx="1.703" cy="3.446" rx="1.703" ry="3.446" transform="translate(248.971 146.14)" fill="#fffcf0"/>
    <rect id="Rectangle_2742" data-name="Rectangle 2742" width="3.391" height="13.65" transform="translate(288.713 154.59) rotate(90)" fill="#fffcf0"/>
    <rect id="Rectangle_2743" data-name="Rectangle 2743" width="77.642" height="5.763" transform="translate(231.022 161.907)" fill="#9d9591"/>
  </g>
</svg>
