<?xml version="1.0" encoding="UTF-8" standalone="no"?>
<svg width="36px" height="36px" viewBox="0 0 36 36" version="1.1" xmlns="http://www.w3.org/2000/svg" xmlns:xlink="http://www.w3.org/1999/xlink">
    <!-- Generator: Sketch 47 (45396) - http://www.bohemiancoding.com/sketch -->
    <title>icon/date</title>
    <desc>Created with Sketch.</desc>
    <defs></defs>
    <g id="Symbols" stroke="none" stroke-width="1" fill="none" fill-rule="evenodd">
        <g id="icon/date" fill="#F19089">
            <path d="M27.75,25.5835 C27.75,26.7795 26.78,27.7505 25.583,27.7505 L10.417,27.7505 C9.22,27.7505 8.25,26.7795 8.25,25.5835 L8.25,16.9165 C8.25,15.7205 9.22,14.7505 10.417,14.7505 L25.583,14.7505 C26.78,14.7505 27.75,15.7205 27.75,16.9165 L27.75,25.5835 Z M26.667,8.2505 L26.667,7.1665 C26.667,5.9705 25.697,5.0005 24.5,5.0005 L23.417,5.0005 C22.22,5.0005 21.25,5.9705 21.25,7.1665 L21.25,8.2505 L14.75,8.2505 L14.75,7.1665 C14.75,5.9705 13.78,5.0005 12.583,5.0005 L11.5,5.0005 C10.303,5.0005 9.333,5.9705 9.333,7.1665 L9.333,8.2505 C6.95,8.2505 5,10.2005 5,12.5835 L5,26.6665 C5,29.0495 6.95,31.0005 9.333,31.0005 L26.667,31.0005 C29.05,31.0005 31,29.0495 31,26.6665 L31,12.5835 C31,10.2005 29.05,8.2505 26.667,8.2505 L26.667,8.2505 Z" id="Fill-2"></path>
        </g>
    </g>
</svg>