<?xml version="1.0" encoding="UTF-8" standalone="no"?>
<svg width="36px" height="36px" viewBox="0 0 36 36" version="1.1" xmlns="http://www.w3.org/2000/svg" xmlns:xlink="http://www.w3.org/1999/xlink">
    <!-- Generator: Sketch 47 (45396) - http://www.bohemiancoding.com/sketch -->
    <title>icon/duration</title>
    <desc>Created with Sketch.</desc>
    <defs></defs>
    <g id="Symbols" stroke="none" stroke-width="1" fill="none" fill-rule="evenodd">
        <g id="icon/duration" fill="#F19089">
            <path d="M10.5569,9.6523 C12.3129,10.4523 14.9029,11.3043 17.9999,11.3043 C21.0969,11.3043 23.6869,10.4523 25.4429,9.6523 C24.8179,13.3523 21.7229,16.1733 17.9999,16.1733 C14.2769,16.1733 11.1819,13.3523 10.5569,9.6523 M21.3219,18.0003 C25.1529,16.5743 27.8999,12.7663 27.8999,8.2783 C27.8999,6.1393 25.1149,4.8023 21.6349,4.2673 C21.0549,4.1783 20.4559,4.1113 19.8459,4.0673 C19.2369,4.0223 18.6189,4.0003 17.9999,4.0003 C17.3809,4.0003 16.7629,4.0223 16.1539,4.0673 C15.5449,4.1113 14.9449,4.1783 14.3649,4.2673 C10.8849,4.8023 8.0999,6.1393 8.0999,8.2783 C8.0999,12.7663 10.8479,16.5743 14.6779,18.0003 C10.8479,19.4253 8.0999,23.2343 8.0999,27.7213 C8.0999,33.4263 27.8999,33.4263 27.8999,27.7213 C27.8999,23.2343 25.1529,19.4253 21.3219,18.0003" id="Fill-2"></path>
        </g>
    </g>
</svg>