<?xml version="1.0" encoding="UTF-8" standalone="no"?>
<svg width="195px" height="67px" viewBox="0 0 195 67" version="1.1" xmlns="http://www.w3.org/2000/svg" xmlns:xlink="http://www.w3.org/1999/xlink">
    <!-- Generator: Sketch 50.2 (55047) - http://www.bohemiancoding.com/sketch -->
    <title>logo/site/hulme-footer</title>
    <desc>Created with Sketch.</desc>
    <defs>
        <polygon id="path-1" points="0.270437956 0.211937956 126.886286 0.211937956 126.886286 28.2524398 0.270437956 28.2524398"></polygon>
        <polygon id="path-3" points="0 0.266879562 50.9156031 0.266879562 50.9156031 65.830292 0 65.830292"></polygon>
    </defs>
    <g id="logo/site/hulme-footer" stroke="none" stroke-width="1" fill="none" fill-rule="evenodd">
        <g id="Page-1">
            <g id="Group-3" transform="translate(67.965328, 7.205748)">
                <mask id="mask-2" fill="white">
                    <use xlink:href="#path-1"></use>
                </mask>
                <g id="Clip-2"></g>
                <path d="M55.8650091,24.3616916 C54.2153376,24.3616916 52.8926825,23.8169015 51.8984672,22.7280328 C50.9028285,21.6395201 50.405365,20.2634891 50.405365,18.5999398 C50.405365,16.8623759 50.8907299,15.4671296 51.8614599,14.4152682 C52.8321898,13.3634069 54.1786861,12.8371204 55.9020164,12.8371204 C57.3090055,12.8371204 58.668312,13.1805055 59.9792245,13.8647847 L60.3432482,10.1950128 C58.958677,9.41181022 57.3328467,9.0207427 55.4654015,9.0207427 C53.3780474,9.0207427 51.6066788,9.44205657 50.1509398,10.2871752 C48.6952007,11.1308704 47.6031296,12.2812993 46.8750821,13.7359708 C46.1470347,15.1931332 45.7822993,16.8136259 45.7822993,18.5999398 C45.7822993,20.3613449 46.1470347,21.9644015 46.8750821,23.4073303 C47.6031296,24.8513266 48.6884398,25.9949945 50.1324361,26.8390456 C51.5764325,27.6827409 53.3054562,28.1054781 55.3191515,28.1054781 C56.2895255,28.1054781 57.2179106,28.0079781 58.1039507,27.8115547 C58.9899909,27.6158431 59.7603832,27.3471843 60.4158394,27.0037993 L60.0151642,23.1507701 C58.6313047,23.957458 57.2485128,24.3616916 55.8650091,24.3616916 Z M38.5395438,23.2977318 C38.1029288,23.7126405 37.5937226,24.0375219 37.0112135,24.2705967 C36.4294161,24.502604 35.9059763,24.6182518 35.4455201,24.6182518 C34.5961314,24.6182518 33.9776825,24.4417555 33.58875,24.0866277 C33.2012409,23.7311442 33.0073084,23.175323 33.0073084,22.4159617 C33.0073084,21.4128504 33.5652646,20.6307153 34.6818887,20.0677774 C35.7974453,19.5055511 37.0838047,19.1870748 38.5395438,19.1130602 L38.5395438,23.2977318 Z M43.6177281,24.196938 C43.4109854,24.0866277 43.2658029,23.8297117 43.1807573,23.4254781 C43.0953558,23.0216004 43.0533668,22.355469 43.0533668,21.4260164 L43.0533668,16.4713084 C43.0533668,13.901792 42.4890055,12.0297208 41.3613504,10.8554507 C40.2326277,9.68046898 38.6000365,9.09333394 36.465,9.09333394 C34.2563047,9.09333394 32.0483212,9.63136314 29.8410493,10.7081332 L30.2406569,14.4152682 C31.2352281,13.9267007 32.1159307,13.5712172 32.879562,13.3502409 C33.6442609,13.130688 34.426396,13.0210894 35.2281022,13.0210894 C36.3675,13.0210894 37.1866423,13.2538084 37.6848175,13.7174672 C38.1808577,14.1832609 38.454854,14.9536533 38.503604,16.0300675 C37.0717062,16.0802409 35.5789599,16.3054872 34.0264325,16.709365 C32.4731934,17.1135985 31.1266971,17.7982336 29.9858759,18.7643376 C28.8454106,19.731865 28.2757117,21.0100401 28.2757117,22.6002865 C28.2757117,24.287677 28.7785128,25.6277682 29.7855383,26.6191369 C30.7918522,27.6101496 32.0483212,28.1054781 33.5531661,28.1054781 C34.6690785,28.1054781 35.7305474,27.9154599 36.7379288,27.5364909 C37.7442427,27.1571661 38.5395438,26.6376405 39.1220529,25.9768467 C39.4864325,26.6376405 40.0080931,27.1571661 40.6877464,27.5364909 C41.366688,27.9154599 42.2039781,28.1054781 43.1996168,28.1054781 L44.8375456,28.1054781 L45.2371533,24.3616916 L44.6553558,24.3616916 C44.1692792,24.3616916 43.8234033,24.3061807 43.6177281,24.196938 Z M66.424188,16.4705967 C66.6668704,15.3699854 67.1283942,14.4882153 67.8076916,13.8284891 C68.4866332,13.1676953 69.3844161,12.8371204 70.501396,12.8371204 C71.6176642,12.8371204 72.4428558,13.2047026 72.9769708,13.9387993 C73.5096624,14.6725401 73.7772536,15.5173029 73.7772536,16.4705967 L66.424188,16.4705967 Z M74.8138139,10.1583613 C73.6374088,9.44881752 72.1998175,9.09368978 70.501396,9.09368978 C68.6567245,9.09368978 67.0675456,9.51607117 65.732792,10.3597664 C64.3983942,11.2038175 63.3789142,12.3357427 62.6750639,13.7548303 C61.9708577,15.1739179 61.62,16.740323 61.62,18.4529781 C61.62,20.239292 61.9893613,21.8608522 62.7305748,23.3155237 C63.4700091,24.7712628 64.5869891,25.9337901 66.0786679,26.8023942 C67.5710584,27.671354 69.3726734,28.1054781 71.4842245,28.1054781 C72.697281,28.1054781 73.8195985,27.9766642 74.8504653,27.720104 C75.8820438,27.4621204 76.7865876,27.1265639 77.563385,26.7105876 L77.344188,22.8564909 C75.6696077,23.8603139 73.8498449,24.3620474 71.8848996,24.3620474 C70.452646,24.3620474 69.2278467,23.9645748 68.2083668,23.1692737 C67.1888869,22.3743285 66.5572719,21.1683887 66.3160128,19.5532336 L78.0722354,19.5532336 C78.2661679,18.623781 78.3640237,17.7921843 78.3640237,17.0577318 C78.3640237,15.5660529 78.0658303,14.2195566 77.4722901,13.0203777 C76.8776825,11.8222664 75.9916423,10.8679051 74.8138139,10.1583613 Z M125.449051,24.2328777 C125.169361,24.1471204 124.975429,23.9023029 124.866186,23.4984252 C124.757655,23.0952591 124.7025,22.404219 124.7025,21.4253047 L124.7025,0.211937956 L120.189745,0.211937956 L120.189745,23.2970201 C120.189745,24.7171752 120.577254,25.8729416 121.354407,26.7653869 C122.130849,27.6592555 123.295511,28.1054781 124.84875,28.1054781 L126.486679,28.1054781 L126.886642,24.3616916 C126.207345,24.3616916 125.727318,24.3193467 125.449051,24.2328777 Z M93.4836405,6.0469927 C94.6002646,6.0469927 95.6371807,6.17616241 96.595812,6.43272263 C97.5540876,6.69035036 98.5554197,7.05117153 99.598385,7.51589781 L100.108659,3.03872628 C98.1664872,2.03454745 95.9706022,1.53316971 93.520292,1.53316971 C90.9724818,1.53316971 88.6979562,2.09005839 86.6960036,3.20241241 C84.6933394,4.31690146 83.127646,5.88223905 81.9999909,7.90056022 C80.8712682,9.91959307 80.3069069,12.2496296 80.3069069,14.8917372 C80.3069069,17.5598212 80.8531204,19.9016004 81.9448358,21.9209891 C83.0376186,23.9389544 84.5716423,25.4989544 86.5493978,26.6006332 C88.5275091,27.7008887 90.8027464,28.2524398 93.3751095,28.2524398 C95.7528285,28.2524398 97.9974635,27.7507062 100.108659,26.7479507 L99.598385,22.2697117 C98.5066697,22.7593467 97.4818522,23.126573 96.5232208,23.370323 C95.5642336,23.6151405 94.5148631,23.7375493 93.3751095,23.7375493 C90.8027464,23.7375493 88.8299726,22.9305055 87.459635,21.3153504 C86.0882299,19.7001953 85.4035949,17.5598212 85.4035949,14.8917372 C85.4035949,12.2257883 86.1003285,10.0843467 87.4966423,8.47025912 C88.8915328,6.85510401 90.8870803,6.0469927 93.4836405,6.0469927 Z M111.708668,23.2977318 C111.271697,23.7126405 110.762491,24.0375219 110.179982,24.2705967 C109.598184,24.502604 109.0751,24.6182518 108.614644,24.6182518 C107.765611,24.6182518 107.145739,24.4417555 106.757874,24.0866277 C106.370365,23.7311442 106.176432,23.175323 106.176432,22.4159617 C106.176432,21.4128504 106.734033,20.6307153 107.851013,20.0677774 C108.966569,19.5055511 110.252573,19.1870748 111.708668,19.1130602 L111.708668,23.2977318 Z M116.786496,24.196938 C116.579754,24.0866277 116.434571,23.8297117 116.350237,23.4254781 C116.26448,23.0216004 116.222135,22.355469 116.222135,21.4260164 L116.222135,16.4713084 C116.222135,13.901792 115.657774,12.0297208 114.530119,10.8554507 C113.401396,9.68046898 111.768805,9.09333394 109.633768,9.09333394 C107.425073,9.09333394 105.217445,9.63136314 103.00875,10.7081332 L103.409425,14.4152682 C104.403996,13.9267007 105.284699,13.5712172 106.04833,13.3502409 C106.813385,13.130688 107.595164,13.0210894 108.39687,13.0210894 C109.536624,13.0210894 110.355411,13.2538084 110.853586,13.7174672 C111.349982,14.1832609 111.623622,14.9536533 111.672728,16.0300675 C110.24083,16.0802409 108.747728,16.3054872 107.195557,16.709365 C105.642318,17.1135985 104.295821,17.7982336 103.155,18.7643376 C102.014179,19.731865 101.443412,21.0100401 101.443412,22.6002865 C101.443412,24.287677 101.947281,25.6277682 102.954662,26.6191369 C103.960976,27.6101496 105.217445,28.1054781 106.72229,28.1054781 C107.838203,28.1054781 108.899316,27.9154599 109.907053,27.5364909 C110.913367,27.1571661 111.708668,26.6376405 112.290821,25.9768467 C112.655201,26.6376405 113.177217,27.1571661 113.856515,27.5364909 C114.535812,27.9154599 115.372746,28.1054781 116.368385,28.1054781 L118.006314,28.1054781 L118.406277,24.3616916 L117.82448,24.3616916 C117.338047,24.3616916 116.992527,24.3061807 116.786496,24.196938 Z M12.4814234,13.7914818 C11.6928832,14.5259343 10.4979745,14.8924489 8.89705292,14.8924489 L4.92908759,14.8924489 L4.92908759,5.97404562 L8.78745438,5.97404562 C10.4374818,5.97404562 11.6626369,6.33451095 12.4639872,7.0572208 C13.2646259,7.7785073 13.6642336,8.89868978 13.6642336,10.4152774 C13.6642336,11.931865 13.2703193,13.0580967 12.4814234,13.7914818 Z M9.33366788,2.04735766 L0.270437956,2.04735766 L0.270437956,27.7382518 L4.92908759,27.7382518 L4.92908759,18.8191369 L9.44291058,18.8191369 C12.3551004,18.8191369 14.5755383,18.1224033 16.1038686,16.7271569 C17.6325547,15.3329781 18.3972536,13.2047026 18.3972536,10.3416186 C18.3972536,4.81151825 15.376177,2.04735766 9.33366788,2.04735766 Z M25.046469,23.4984252 C24.9382938,23.0952591 24.8831387,22.404219 24.8831387,21.4253047 L24.8831387,0.211937956 L20.3703832,0.211937956 L20.3703832,23.2970201 C20.3703832,24.7171752 20.7582482,25.8729416 21.5343339,26.7653869 C22.3100639,27.6592555 23.4757938,28.1054781 25.0293887,28.1054781 L26.6669617,28.1054781 L27.0665693,24.3616916 C26.3876277,24.3616916 25.9076004,24.3193467 25.6293339,24.2328777 C25.35,24.1471204 25.1560675,23.9023029 25.046469,23.4984252 Z" id="Fill-1" fill="#FFFCF0" mask="url(#mask-2)"></path>
            </g>
            <polygon id="Fill-4" fill="#FFFCF0" points="33.8130356 20.9767336 30.4649425 17.5998175 25.4582819 22.6481113 23.0275429 20.1981569 19.6794498 23.575073 22.109833 26.0250274 24.9177619 28.8564416 25.4582819 29.4019434 27.9641031 26.8737044"></polygon>
            <g id="Group-8" transform="translate(0.000000, 0.088960)">
                <mask id="mask-4" fill="white">
                    <use xlink:href="#path-3"></use>
                </mask>
                <g id="Clip-7"></g>
                <path d="M25.4577838,0.266879562 C11.3985684,0.266879562 -3.55839416e-05,11.7590693 -3.55839416e-05,25.9357117 C-3.55839416e-05,48.3966515 25.4577838,65.830292 25.4577838,65.830292 C25.4577838,65.830292 50.9156031,48.3966515 50.9156031,25.9357117 C50.9156031,11.7590693 39.5173549,0.266879562 25.4577838,0.266879562 M25.4577838,41.5232573 C16.919417,41.5232573 9.99798449,34.5456022 9.99798449,25.9357117 C9.99798449,17.3268887 16.919417,10.3478102 25.4577838,10.3478102 C33.9961505,10.3478102 40.9179389,17.3268887 40.9179389,25.9357117 C40.9179389,34.5456022 33.9961505,41.5232573 25.4577838,41.5232573" id="Fill-6" fill="#F19089" mask="url(#mask-4)"></path>
            </g>
            <path d="M123.142286,47.0624316 C122.234184,47.0624316 121.406146,47.2229151 120.658527,47.5435265 C119.910553,47.8637819 119.304914,48.317833 118.841967,48.9056797 C118.004677,47.6769662 116.731839,47.0624316 115.022743,47.0624316 C113.615754,47.0624316 112.306976,47.4897947 111.096055,48.3448768 L110.989659,47.2762911 L108.158245,47.2762911 L108.158245,60.6309443 L111.470042,60.6309443 L111.470042,50.9353878 C112.146849,50.1699772 113.010115,49.7867381 114.060909,49.7867381 C114.950863,49.7867381 115.600982,50.0806615 116.010909,50.6685082 C116.420124,51.2559991 116.625443,52.1822491 116.625443,53.4461907 L116.625443,60.6309443 L119.937241,60.6309443 L119.937241,53.2059991 C119.937241,52.1199772 120.159641,51.278417 120.604796,50.6816743 C121.049595,50.0852874 121.708965,49.7867381 122.581484,49.7867381 C123.471794,49.7867381 124.112661,50.0806615 124.50444,50.6685082 C124.896219,51.2559991 125.091931,52.1822491 125.091931,53.4461907 L125.091931,60.6309443 L128.404084,60.6309443 L128.404084,53.2059991 C128.404084,51.2652509 127.972095,49.7561359 127.108473,48.6786542 C126.24485,47.6015283 124.922907,47.0624316 123.142286,47.0624316 Z M133.684385,52.4313367 C133.862305,51.6299863 134.200708,50.9887637 134.699595,50.5080246 C135.19777,50.0272856 135.856429,49.7867381 136.675927,49.7867381 C137.494714,49.7867381 138.100352,50.0539735 138.492131,50.5880885 C138.883555,51.1225593 139.079622,51.7367381 139.079622,52.4313367 L133.684385,52.4313367 Z M142.445151,52.8586998 C142.445151,51.7726779 142.227022,50.793052 141.790763,49.9205338 C141.354504,49.0483714 140.704385,48.3537728 139.841119,47.837094 C138.977141,47.320771 137.922077,47.0624316 136.675927,47.0624316 C135.322314,47.0624316 134.155872,47.369521 133.176958,47.9840557 C132.197332,48.5982345 131.449714,49.4220027 130.933391,50.4546487 C130.416356,51.4876505 130.158728,52.6274042 130.158728,53.8735538 C130.158728,55.1734352 130.429878,56.3533987 130.973245,57.4123768 C131.516255,58.4720666 132.335398,59.3182527 133.430672,59.9498677 C134.525589,60.5821943 135.847889,60.8981797 137.397214,60.8981797 C138.287524,60.8981797 139.11058,60.804594 139.867807,60.6177783 C140.624321,60.4306068 141.287606,60.1861451 141.857661,59.8833257 L141.697533,57.0785995 C140.468464,57.8091378 139.132998,58.1738732 137.690781,58.1738732 C136.639987,58.1738732 135.741137,57.8845757 134.993162,57.305625 C134.245188,56.7273859 133.781885,55.8498859 133.603965,54.6749042 L142.231648,54.6749042 C142.373984,53.9984535 142.445151,53.3928148 142.445151,52.8586998 Z M105.05746,57.5461724 C104.97704,57.2522491 104.937186,56.749448 104.937186,56.0370575 L104.937186,40.5986086 L101.625033,40.5986086 L101.625033,57.3992108 C101.625033,58.4322126 101.909704,59.273417 102.480115,59.9235356 C103.049458,60.5736542 103.90454,60.8981797 105.043938,60.8981797 L106.245964,60.8981797 L106.539887,58.1738732 C106.041,58.1738732 105.689075,58.1429151 105.484823,58.0802874 C105.279859,58.0180155 105.137524,57.8400958 105.05746,57.5461724 Z M95.6665018,56.9985356 C95.025635,57.74651 94.1883449,58.1204973 93.1556989,58.1204973 C92.2298047,58.1204973 91.5572682,57.8223038 91.1391569,57.2255611 C90.7206898,56.6291743 90.511812,55.7075502 90.511812,54.4610447 L90.511812,47.2762911 L87.1996588,47.2762911 L87.1996588,54.4610447 C87.1996588,56.4736724 87.6490839,58.0493294 88.5482901,59.1887272 C89.4474964,60.3284808 90.8857993,60.8981797 92.8621314,60.8981797 C93.3606624,60.8981797 93.8769854,60.795698 94.4114562,60.5910903 C94.9455712,60.3864827 95.4170584,60.1327692 95.8266296,59.8299498 L95.8803613,60.6309443 L98.9786551,60.6309443 L98.9786551,47.2762911 L95.6665018,47.2762911 L95.6665018,56.9985356 Z M80.8134088,49.332687 L72.266146,49.332687 L72.266146,41.9340739 L68.8472409,41.9340739 L68.8472409,60.6309443 L72.266146,60.6309443 L72.266146,52.5380885 L80.8134088,52.5380885 L80.8134088,60.6309443 L84.231958,60.6309443 L84.231958,41.9340739 L80.8134088,41.9340739 L80.8134088,49.332687 Z" id="Fill-9" fill="#F19089"></path>
        </g>
    </g>
</svg>