<?xml version="1.0" encoding="UTF-8" standalone="no"?>
<svg width="195px" height="66px" viewBox="0 0 195 66" version="1.1" xmlns="http://www.w3.org/2000/svg" xmlns:xlink="http://www.w3.org/1999/xlink">
    <!-- Generator: Sketch 50.2 (55047) - http://www.bohemiancoding.com/sketch -->
    <title>logo/site/hulme-header</title>
    <desc>Created with Sketch.</desc>
    <defs>
        <polygon id="path-1" points="0.270437956 0.211341935 126.886286 0.211341935 126.886286 28.1729871 0.270437956 28.1729871"></polygon>
        <polygon id="path-3" points="0 0.266129032 50.9156031 0.266129032 50.9156031 65.6451613 0 65.6451613"></polygon>
    </defs>
    <g id="logo/site/hulme-header" stroke="none" stroke-width="1" fill="none" fill-rule="evenodd">
        <g id="Page-1">
            <g id="Group-3" transform="translate(67.965328, 7.185484)">
                <mask id="mask-2" fill="white">
                    <use xlink:href="#path-1"></use>
                </mask>
                <g id="Clip-2"></g>
                <path d="M55.8650091,24.2931806 C54.2153376,24.2931806 52.8926825,23.7499226 51.8984672,22.6641161 C50.9028285,21.5786645 50.405365,20.2065032 50.405365,18.5476323 C50.405365,16.8149548 50.8907299,15.4236323 51.8614599,14.374729 C52.8321898,13.3258258 54.1786861,12.8010194 55.9020164,12.8010194 C57.3090055,12.8010194 58.668312,13.1434387 59.9792245,13.8257935 L60.3432482,10.1663419 C58.958677,9.38534194 57.3328467,8.99537419 55.4654015,8.99537419 C53.3780474,8.99537419 51.6066788,9.41550323 50.1509398,10.2582452 C48.6952007,11.0995677 47.6031296,12.2467613 46.8750821,13.6973419 C46.1470347,15.1504065 45.7822993,16.7663419 45.7822993,18.5476323 C45.7822993,20.3040839 46.1470347,21.9026323 46.8750821,23.3415032 C47.6031296,24.7814387 48.6884398,25.9218903 50.1324361,26.7635677 C51.5764325,27.6048903 53.3054562,28.0264387 55.3191515,28.0264387 C56.2895255,28.0264387 57.2179106,27.9292129 58.1039507,27.7333419 C58.9899909,27.5381806 59.7603832,27.2702774 60.4158394,26.9278581 L60.0151642,23.0856645 C58.6313047,23.8900839 57.2485128,24.2931806 55.8650091,24.2931806 Z M38.5395438,23.2322129 C38.1029288,23.6459548 37.5937226,23.9699226 37.0112135,24.2023419 C36.4294161,24.4336968 35.9059763,24.5490194 35.4455201,24.5490194 C34.5961314,24.5490194 33.9776825,24.3730194 33.58875,24.0188903 C33.2012409,23.6644065 33.0073084,23.1101484 33.0073084,22.3529226 C33.0073084,21.3526323 33.5652646,20.5726968 34.6818887,20.0113419 C35.7974453,19.4506968 37.0838047,19.1331161 38.5395438,19.0593097 L38.5395438,23.2322129 Z M43.6177281,24.1288903 C43.4109854,24.0188903 43.2658029,23.7626968 43.1807573,23.3596 C43.0953558,22.9568581 43.0533668,22.2926 43.0533668,21.3657613 L43.0533668,16.4249871 C43.0533668,13.8626968 42.4890055,11.9958903 41.3613504,10.8249226 C40.2326277,9.65324516 38.6000365,9.06776129 36.465,9.06776129 C34.2563047,9.06776129 32.0483212,9.60427742 29.8410493,10.6780194 L30.2406569,14.374729 C31.2352281,13.8875355 32.1159307,13.5330516 32.879562,13.3126968 C33.6442609,13.0937613 34.426396,12.984471 35.2281022,12.984471 C36.3675,12.984471 37.1866423,13.2165355 37.6848175,13.6788903 C38.1808577,14.1433742 38.454854,14.9116 38.503604,15.9849871 C37.0717062,16.0350194 35.5789599,16.2596323 34.0264325,16.6623742 C32.4731934,17.065471 31.1266971,17.7481806 29.9858759,18.7115677 C28.8454106,19.6763742 28.2757117,20.9509548 28.2757117,22.536729 C28.2757117,24.2193742 28.7785128,25.5556968 29.7855383,26.5442774 C30.7918522,27.5325032 32.0483212,28.0264387 33.5531661,28.0264387 C34.6690785,28.0264387 35.7305474,27.8369548 36.7379288,27.4590516 C37.7442427,27.0807935 38.5395438,26.562729 39.1220529,25.9037935 C39.4864325,26.562729 40.0080931,27.0807935 40.6877464,27.4590516 C41.366688,27.8369548 42.2039781,28.0264387 43.1996168,28.0264387 L44.8375456,28.0264387 L45.2371533,24.2931806 L44.6553558,24.2931806 C44.1692792,24.2931806 43.8234033,24.2378258 43.6177281,24.1288903 Z M66.424188,16.4242774 C66.6668704,15.3267613 67.1283942,14.447471 67.8076916,13.7896 C68.4866332,13.1306645 69.3844161,12.8010194 70.501396,12.8010194 C71.6176642,12.8010194 72.4428558,13.1675677 72.9769708,13.8996 C73.5096624,14.6312774 73.7772536,15.4736645 73.7772536,16.4242774 L66.424188,16.4242774 Z M74.8138139,10.1297935 C73.6374088,9.42224516 72.1998175,9.06811613 70.501396,9.06811613 C68.6567245,9.06811613 67.0675456,9.48930968 65.732792,10.3306323 C64.3983942,11.1723097 63.3789142,12.3010516 62.6750639,13.7161484 C61.9708577,15.1312452 61.62,16.6932452 61.62,18.4010839 C61.62,20.1823742 61.9893613,21.7993742 62.7305748,23.2499548 C63.4700091,24.7016 64.5869891,25.8608581 66.0786679,26.7270194 C67.5710584,27.5935355 69.3726734,28.0264387 71.4842245,28.0264387 C72.697281,28.0264387 73.8195985,27.8979871 74.8504653,27.6421484 C75.8820438,27.3848903 76.7865876,27.0502774 77.563385,26.635471 L77.344188,22.7922129 C75.6696077,23.7932129 73.8498449,24.2935355 71.8848996,24.2935355 C70.452646,24.2935355 69.2278467,23.8971806 68.2083668,23.1041161 C67.1888869,22.3114065 66.5572719,21.1088581 66.3160128,19.4982452 L78.0722354,19.4982452 C78.2661679,18.5714065 78.3640237,17.7421484 78.3640237,17.0097613 C78.3640237,15.5222774 78.0658303,14.1795677 77.4722901,12.9837613 C76.8776825,11.7890194 75.9916423,10.8373419 74.8138139,10.1297935 Z M125.449051,24.164729 C125.169361,24.0792129 124.975429,23.8350839 124.866186,23.4323419 C124.757655,23.0303097 124.7025,22.3412129 124.7025,21.3650516 L124.7025,0.211341935 L120.189745,0.211341935 L120.189745,23.2315032 C120.189745,24.6476645 120.577254,25.8001806 121.354407,26.6901161 C122.130849,27.581471 123.295511,28.0264387 124.84875,28.0264387 L126.486679,28.0264387 L126.886642,24.2931806 C126.207345,24.2931806 125.727318,24.2509548 125.449051,24.164729 Z M93.4836405,6.0299871 C94.6002646,6.0299871 95.6371807,6.15879355 96.595812,6.41463226 C97.5540876,6.67153548 98.5554197,7.03134194 99.598385,7.49476129 L100.108659,3.03018065 C98.1664872,2.02882581 95.9706022,1.52885806 93.520292,1.52885806 C90.9724818,1.52885806 88.6979562,2.08418065 86.6960036,3.19340645 C84.6933394,4.30476129 83.127646,5.86569677 81.9999909,7.87834194 C80.8712682,9.89169677 80.3069069,12.2151806 80.3069069,14.8498581 C80.3069069,17.5104387 80.8531204,19.8456323 81.9448358,21.8593419 C83.0376186,23.8716323 84.5716423,25.4272452 86.5493978,26.5258258 C88.5275091,27.6229871 90.8027464,28.1729871 93.3751095,28.1729871 C95.7528285,28.1729871 97.9974635,27.6726645 100.108659,26.672729 L99.598385,22.2070839 C98.5066697,22.6953419 97.4818522,23.0615355 96.5232208,23.3046 C95.5642336,23.548729 94.5148631,23.6707935 93.3751095,23.6707935 C90.8027464,23.6707935 88.8299726,22.8660194 87.459635,21.2554065 C86.0882299,19.6447935 85.4035949,17.5104387 85.4035949,14.8498581 C85.4035949,12.1914065 86.1003285,10.0559871 87.4966423,8.44643871 C88.8915328,6.83582581 90.8870803,6.0299871 93.4836405,6.0299871 Z M111.708668,23.2322129 C111.271697,23.6459548 110.762491,23.9699226 110.179982,24.2023419 C109.598184,24.4336968 109.0751,24.5490194 108.614644,24.5490194 C107.765611,24.5490194 107.145739,24.3730194 106.757874,24.0188903 C106.370365,23.6644065 106.176432,23.1101484 106.176432,22.3529226 C106.176432,21.3526323 106.734033,20.5726968 107.851013,20.0113419 C108.966569,19.4506968 110.252573,19.1331161 111.708668,19.0593097 L111.708668,23.2322129 Z M116.786496,24.1288903 C116.579754,24.0188903 116.434571,23.7626968 116.350237,23.3596 C116.26448,22.9568581 116.222135,22.2926 116.222135,21.3657613 L116.222135,16.4249871 C116.222135,13.8626968 115.657774,11.9958903 114.530119,10.8249226 C113.401396,9.65324516 111.768805,9.06776129 109.633768,9.06776129 C107.425073,9.06776129 105.217445,9.60427742 103.00875,10.6780194 L103.409425,14.374729 C104.403996,13.8875355 105.284699,13.5330516 106.04833,13.3126968 C106.813385,13.0937613 107.595164,12.984471 108.39687,12.984471 C109.536624,12.984471 110.355411,13.2165355 110.853586,13.6788903 C111.349982,14.1433742 111.623622,14.9116 111.672728,15.9849871 C110.24083,16.0350194 108.747728,16.2596323 107.195557,16.6623742 C105.642318,17.065471 104.295821,17.7481806 103.155,18.7115677 C102.014179,19.6763742 101.443412,20.9509548 101.443412,22.536729 C101.443412,24.2193742 101.947281,25.5556968 102.954662,26.5442774 C103.960976,27.5325032 105.217445,28.0264387 106.72229,28.0264387 C107.838203,28.0264387 108.899316,27.8369548 109.907053,27.4590516 C110.913367,27.0807935 111.708668,26.562729 112.290821,25.9037935 C112.655201,26.562729 113.177217,27.0807935 113.856515,27.4590516 C114.535812,27.8369548 115.372746,28.0264387 116.368385,28.0264387 L118.006314,28.0264387 L118.406277,24.2931806 L117.82448,24.2931806 C117.338047,24.2931806 116.992527,24.2378258 116.786496,24.1288903 Z M12.4814234,13.7526968 C11.6928832,14.4850839 10.4979745,14.8505677 8.89705292,14.8505677 L4.92908759,14.8505677 L4.92908759,5.95724516 L8.78745438,5.95724516 C10.4374818,5.95724516 11.6626369,6.31669677 12.4639872,7.03737419 C13.2646259,7.75663226 13.6642336,8.87366452 13.6642336,10.3859871 C13.6642336,11.8983097 13.2703193,13.0213742 12.4814234,13.7526968 Z M9.33366788,2.0416 L0.270437956,2.0416 L0.270437956,27.6602452 L4.92908759,27.6602452 L4.92908759,18.7662129 L9.44291058,18.7662129 C12.3551004,18.7662129 14.5755383,18.0714387 16.1038686,16.6801161 C17.6325547,15.2898581 18.3972536,13.1675677 18.3972536,10.3125355 C18.3972536,4.7979871 15.376177,2.0416 9.33366788,2.0416 Z M25.046469,23.4323419 C24.9382938,23.0303097 24.8831387,22.3412129 24.8831387,21.3650516 L24.8831387,0.211341935 L20.3703832,0.211341935 L20.3703832,23.2315032 C20.3703832,24.6476645 20.7582482,25.8001806 21.5343339,26.6901161 C22.3100639,27.581471 23.4757938,28.0264387 25.0293887,28.0264387 L26.6669617,28.0264387 L27.0665693,24.2931806 C26.3876277,24.2931806 25.9076004,24.2509548 25.6293339,24.164729 C25.35,24.0792129 25.1560675,23.8350839 25.046469,23.4323419 Z" id="Fill-1" fill="#5B4E47" mask="url(#mask-2)"></path>
            </g>
            <polygon id="Fill-4" fill="#5B4E47" points="33.8130356 20.9177419 30.4649425 17.5503226 25.4582819 22.5844194 23.0275429 20.1413548 19.6794498 23.5087742 22.109833 25.9518387 24.9177619 28.7752903 25.4582819 29.3192581 27.9641031 26.798129"></polygon>
            <g id="Group-8" transform="translate(0.000000, 0.088710)">
                <mask id="mask-4" fill="white">
                    <use xlink:href="#path-3"></use>
                </mask>
                <g id="Clip-7"></g>
                <path d="M25.4577838,0.266129032 C11.3985684,0.266129032 -3.55839416e-05,11.726 -3.55839416e-05,25.8627742 C-3.55839416e-05,48.2605484 25.4577838,65.6451613 25.4577838,65.6451613 C25.4577838,65.6451613 50.9156031,48.2605484 50.9156031,25.8627742 C50.9156031,11.726 39.5173549,0.266129032 25.4577838,0.266129032 M25.4577838,41.4064839 C16.919417,41.4064839 9.99798449,34.4484516 9.99798449,25.8627742 C9.99798449,17.2781613 16.919417,10.3187097 25.4577838,10.3187097 C33.9961505,10.3187097 40.9179389,17.2781613 40.9179389,25.8627742 C40.9179389,34.4484516 33.9961505,41.4064839 25.4577838,41.4064839" id="Fill-6" fill="#F19089" mask="url(#mask-4)"></path>
            </g>
            <path d="M123.142286,46.9300806 C122.234184,46.9300806 121.406146,47.0901129 120.658527,47.4098226 C119.910553,47.7291774 119.304914,48.1819516 118.841967,48.7681452 C118.004677,47.5428871 116.731839,46.9300806 115.022743,46.9300806 C113.615754,46.9300806 112.306976,47.3562419 111.096055,48.2089194 L110.989659,47.1433387 L108.158245,47.1433387 L108.158245,60.4604355 L111.470042,60.4604355 L111.470042,50.7921452 C112.146849,50.0288871 113.010115,49.6467258 114.060909,49.6467258 C114.950863,49.6467258 115.600982,49.9398226 116.010909,50.5260161 C116.420124,51.1118548 116.625443,52.0355 116.625443,53.2958871 L116.625443,60.4604355 L119.937241,60.4604355 L119.937241,53.056371 C119.937241,51.9734032 120.159641,51.1342097 120.604796,50.5391452 C121.049595,49.9444355 121.708965,49.6467258 122.581484,49.6467258 C123.471794,49.6467258 124.112661,49.9398226 124.50444,50.5260161 C124.896219,51.1118548 125.091931,52.0355 125.091931,53.2958871 L125.091931,60.4604355 L128.404084,60.4604355 L128.404084,53.056371 C128.404084,51.1210806 127.972095,49.6162097 127.108473,48.5417581 C126.24485,47.4676613 124.922907,46.9300806 123.142286,46.9300806 Z M133.684385,52.2838871 C133.862305,51.4847903 134.200708,50.845371 134.699595,50.3659839 C135.19777,49.8865968 135.856429,49.6467258 136.675927,49.6467258 C137.494714,49.6467258 138.100352,49.9132097 138.492131,50.4458226 C138.883555,50.9787903 139.079622,51.5912419 139.079622,52.2838871 L133.684385,52.2838871 Z M142.445151,52.7100484 C142.445151,51.6270806 142.227022,50.6502097 141.790763,49.7801452 C141.354504,48.9104355 140.704385,48.2177903 139.841119,47.7025645 C138.977141,47.1876935 137.922077,46.9300806 136.675927,46.9300806 C135.322314,46.9300806 134.155872,47.2363065 133.176958,47.8491129 C132.197332,48.4615645 131.449714,49.2830161 130.933391,50.3127581 C130.416356,51.3428548 130.158728,52.4794032 130.158728,53.7220484 C130.158728,55.0182742 130.429878,56.1949194 130.973245,57.2509194 C131.516255,58.307629 132.335398,59.1514355 133.430672,59.7812742 C134.525589,60.4118226 135.847889,60.7269194 137.397214,60.7269194 C138.287524,60.7269194 139.11058,60.6335968 139.867807,60.4473065 C140.624321,60.2606613 141.287606,60.0168871 141.857661,59.7149194 L141.697533,56.9180806 C140.468464,57.6465645 139.132998,58.0102742 137.690781,58.0102742 C136.639987,58.0102742 135.741137,57.7217903 134.993162,57.1444677 C134.245188,56.5678548 133.781885,55.6928226 133.603965,54.5211452 L142.231648,54.5211452 C142.373984,53.8465968 142.445151,53.2426613 142.445151,52.7100484 Z M105.05746,57.3843387 C104.97704,57.0912419 104.937186,56.5898548 104.937186,55.8794677 L104.937186,40.4844355 L101.625033,40.4844355 L101.625033,57.2377903 C101.625033,58.2678871 101.909704,59.1067258 102.480115,59.7550161 C103.049458,60.4033065 103.90454,60.7269194 105.043938,60.7269194 L106.245964,60.7269194 L106.539887,58.0102742 C106.041,58.0102742 105.689075,57.9794032 105.484823,57.9169516 C105.279859,57.8548548 105.137524,57.6774355 105.05746,57.3843387 Z M95.6665018,56.8382419 C95.025635,57.5841129 94.1883449,57.9570484 93.1556989,57.9570484 C92.2298047,57.9570484 91.5572682,57.6596935 91.1391569,57.064629 C90.7206898,56.4699194 90.511812,55.5508871 90.511812,54.3078871 L90.511812,47.1433387 L87.1996588,47.1433387 L87.1996588,54.3078871 C87.1996588,56.3148548 87.6490839,57.8860806 88.5482901,59.0222742 C89.4474964,60.1588226 90.8857993,60.7269194 92.8621314,60.7269194 C93.3606624,60.7269194 93.8769854,60.6247258 94.4114562,60.4206935 C94.9455712,60.2166613 95.4170584,59.9636613 95.8266296,59.6616935 L95.8803613,60.4604355 L98.9786551,60.4604355 L98.9786551,47.1433387 L95.6665018,47.1433387 L95.6665018,56.8382419 Z M80.8134088,49.1939516 L72.266146,49.1939516 L72.266146,41.8161452 L68.8472409,41.8161452 L68.8472409,60.4604355 L72.266146,60.4604355 L72.266146,52.3903387 L80.8134088,52.3903387 L80.8134088,60.4604355 L84.231958,60.4604355 L84.231958,41.8161452 L80.8134088,41.8161452 L80.8134088,49.1939516 Z" id="Fill-9" fill="#F19089"></path>
        </g>
    </g>
</svg>