<?xml version="1.0" encoding="UTF-8" standalone="no"?>
<svg width="195px" height="67px" viewBox="0 0 195 67" version="1.1" xmlns="http://www.w3.org/2000/svg" xmlns:xlink="http://www.w3.org/1999/xlink">
    <!-- Generator: Sketch 50.2 (55047) - http://www.bohemiancoding.com/sketch -->
    <title>logo/site/moss-side-footer</title>
    <desc>Created with Sketch.</desc>
    <defs>
        <polygon id="path-1" points="0 0.387 50.9544 0.387 50.9544 65.9998 0 65.9998"></polygon>
    </defs>
    <g id="logo/site/moss-side-footer" stroke="none" stroke-width="1" fill="none" fill-rule="evenodd">
        <path d="M134.492,24.338 C134.735,23.237 135.197,22.354 135.876,21.694 C136.556,21.033 137.454,20.702 138.572,20.702 C139.689,20.702 140.515,21.07 141.049,21.805 C141.583,22.539 141.85,23.384 141.85,24.338 L134.492,24.338 Z M142.888,18.021 C141.711,17.311 140.272,16.956 138.572,16.956 C136.726,16.956 135.136,17.379 133.8,18.223 C132.465,19.067 131.445,20.2 130.74,21.62 C130.035,23.041 129.684,24.608 129.684,26.322 C129.684,28.109 130.054,29.733 130.795,31.189 C131.535,32.646 132.653,33.809 134.146,34.678 C135.64,35.547 137.443,35.982 139.555,35.982 C140.77,35.982 141.893,35.853 142.925,35.596 C143.957,35.338 144.862,35.002 145.639,34.586 L145.42,30.729 C143.744,31.734 141.923,32.235 139.957,32.235 C138.523,32.235 137.297,31.838 136.277,31.042 C135.257,30.246 134.625,29.04 134.384,27.423 L146.149,27.423 C146.343,26.493 146.44,25.661 146.44,24.926 C146.44,23.433 146.142,22.086 145.548,20.885 C144.953,19.687 144.066,18.732 142.888,18.021 Z M179.81,31.171 C179.373,31.586 178.864,31.911 178.281,32.144 C177.699,32.376 177.175,32.492 176.714,32.492 C175.865,32.492 175.244,32.316 174.856,31.96 C174.468,31.604 174.274,31.048 174.274,30.288 C174.274,29.284 174.832,28.502 175.95,27.938 C177.067,27.375 178.353,27.057 179.81,26.983 L179.81,31.171 Z M184.892,32.07 C184.685,31.96 184.54,31.703 184.456,31.298 C184.37,30.894 184.328,30.228 184.328,29.297 L184.328,24.339 C184.328,21.767 183.763,19.894 182.635,18.719 C181.505,17.543 179.871,16.955 177.735,16.955 C175.524,16.955 173.315,17.494 171.104,18.571 L171.505,22.281 C172.501,21.793 173.382,21.437 174.146,21.215 C174.911,20.996 175.694,20.886 176.496,20.886 C177.637,20.886 178.456,21.119 178.955,21.583 C179.451,22.049 179.726,22.82 179.775,23.898 C178.342,23.947 176.847,24.173 175.294,24.577 C173.74,24.982 172.392,25.667 171.251,26.634 C170.109,27.602 169.538,28.881 169.538,30.472 C169.538,32.161 170.042,33.503 171.05,34.494 C172.057,35.486 173.315,35.982 174.821,35.982 C175.937,35.982 176.999,35.792 178.008,35.413 C179.015,35.033 179.81,34.513 180.394,33.852 C180.758,34.513 181.281,35.033 181.96,35.413 C182.64,35.792 183.478,35.982 184.474,35.982 L186.113,35.982 L186.513,32.235 L185.931,32.235 C185.444,32.235 185.098,32.18 184.892,32.07 Z M161.572,13.907 C162.689,13.907 163.727,14.036 164.686,14.293 C165.646,14.551 166.647,14.912 167.691,15.377 L168.202,10.896 C166.258,9.891 164.061,9.389 161.609,9.389 C159.059,9.389 156.783,9.946 154.779,11.06 C152.775,12.175 151.208,13.742 150.079,15.761 C148.95,17.782 148.385,20.114 148.385,22.758 C148.385,25.428 148.931,27.772 150.024,29.793 C151.118,31.812 152.653,33.373 154.633,34.476 C156.612,35.577 158.888,36.129 161.463,36.129 C163.843,36.129 166.089,35.627 168.202,34.623 L167.691,30.142 C166.598,30.632 165.573,30.999 164.614,31.243 C163.654,31.488 162.604,31.61 161.463,31.61 C158.888,31.61 156.914,30.803 155.543,29.187 C154.171,27.57 153.486,25.428 153.486,22.758 C153.486,20.09 154.183,17.947 155.58,16.332 C156.976,14.715 158.973,13.907 161.572,13.907 Z M123.925,32.235 C122.274,32.235 120.95,31.69 119.955,30.601 C118.958,29.511 118.461,28.134 118.461,26.469 C118.461,24.73 118.947,23.334 119.918,22.281 C120.889,21.229 122.237,20.702 123.962,20.702 C125.37,20.702 126.73,21.046 128.042,21.731 L128.406,18.058 C127.021,17.274 125.393,16.883 123.525,16.883 C121.436,16.883 119.663,17.304 118.206,18.15 C116.749,18.995 115.657,20.146 114.928,21.602 C114.2,23.06 113.834,24.682 113.834,26.469 C113.834,28.232 114.2,29.836 114.928,31.28 C115.657,32.725 116.742,33.87 118.188,34.714 C119.633,35.559 121.363,35.982 123.378,35.982 C124.349,35.982 125.279,35.884 126.165,35.688 C127.052,35.492 127.823,35.223 128.479,34.88 L128.078,31.024 C126.693,31.831 125.309,32.235 123.925,32.235 Z M193.561,32.107 C193.282,32.021 193.088,31.776 192.978,31.371 C192.87,30.968 192.815,30.276 192.815,29.296 L192.815,8.067 L188.298,8.067 L188.298,31.17 C188.298,32.591 188.686,33.748 189.464,34.641 C190.241,35.535 191.407,35.982 192.961,35.982 L194.6,35.982 L195,32.235 C194.32,32.235 193.84,32.193 193.561,32.107 Z M80.508,21.657 C79.719,22.392 78.523,22.759 76.921,22.759 L72.95,22.759 L72.95,13.834 L76.811,13.834 C78.463,13.834 79.689,14.194 80.491,14.918 C81.292,15.64 81.692,16.76 81.692,18.278 C81.692,19.796 81.297,20.923 80.508,21.657 Z M77.358,9.904 L68.287,9.904 L68.287,35.615 L72.95,35.615 L72.95,26.689 L77.467,26.689 C80.381,26.689 82.604,25.991 84.133,24.595 C85.663,23.2 86.428,21.07 86.428,18.205 C86.428,12.671 83.405,9.904 77.358,9.904 Z M106.586,31.171 C106.149,31.586 105.639,31.911 105.056,32.144 C104.474,32.376 103.95,32.492 103.49,32.492 C102.64,32.492 102.021,32.316 101.632,31.96 C101.243,31.604 101.05,31.048 101.05,30.288 C101.05,29.284 101.608,28.502 102.725,27.938 C103.842,27.375 105.129,27.057 106.586,26.983 L106.586,31.171 Z M111.668,32.07 C111.461,31.96 111.316,31.703 111.231,31.298 C111.145,30.894 111.103,30.228 111.103,29.297 L111.103,24.339 C111.103,21.767 110.538,19.894 109.41,18.719 C108.28,17.543 106.646,16.955 104.51,16.955 C102.3,16.955 100.09,17.494 97.881,18.571 L98.281,22.281 C99.276,21.793 100.158,21.437 100.922,21.215 C101.687,20.996 102.47,20.886 103.272,20.886 C104.412,20.886 105.232,21.119 105.73,21.583 C106.227,22.049 106.501,22.82 106.55,23.898 C105.117,23.947 103.623,24.173 102.07,24.577 C100.515,24.982 99.168,25.667 98.026,26.634 C96.885,27.602 96.314,28.881 96.314,30.472 C96.314,32.161 96.817,33.503 97.825,34.494 C98.832,35.486 100.09,35.982 101.596,35.982 C102.712,35.982 103.775,35.792 104.783,35.413 C105.79,35.033 106.586,34.513 107.169,33.852 C107.534,34.513 108.056,35.033 108.736,35.413 C109.415,35.792 110.253,35.982 111.249,35.982 L112.888,35.982 L113.289,32.235 L112.706,32.235 C112.22,32.235 111.874,32.18 111.668,32.07 Z M93.083,31.371 C92.974,30.968 92.919,30.276 92.919,29.296 L92.919,8.067 L88.403,8.067 L88.403,31.17 C88.403,32.591 88.791,33.748 89.568,34.641 C90.345,35.535 91.511,35.982 93.065,35.982 L94.704,35.982 L95.104,32.235 C94.425,32.235 93.945,32.193 93.666,32.107 C93.386,32.021 93.192,31.776 93.083,31.371 Z" id="Fill-1" fill="#FFFCF0"></path>
        <polygon id="Fill-3" fill="#FFFCF0" points="33.8387 21.6368 30.4877 18.2578 25.4777 23.3088 23.0457 20.8578 19.6947 24.2368 22.1267 26.6888 24.9367 29.5228 25.4777 30.0688 27.9847 27.5378"></polygon>
        <g id="Group-7" transform="translate(0.000000, 0.613300)">
            <mask id="mask-2" fill="white">
                <use xlink:href="#path-1"></use>
            </mask>
            <g id="Clip-6"></g>
            <path d="M25.4774,0.3868 C11.4074,0.3868 -0.0006,11.8878 -0.0006,26.0748 C-0.0006,48.5538 25.4774,65.9998 25.4774,65.9998 C25.4774,65.9998 50.9544,48.5538 50.9544,26.0748 C50.9544,11.8878 39.5474,0.3868 25.4774,0.3868 M25.4774,41.6748 C16.9324,41.6748 10.0054,34.6918 10.0054,26.0748 C10.0054,17.4598 16.9324,10.4758 25.4774,10.4758 C34.0224,10.4758 40.9494,17.4598 40.9494,26.0748 C40.9494,34.6918 34.0224,41.6748 25.4774,41.6748" id="Fill-5" fill="#AFCF5A" mask="url(#mask-2)"></path>
        </g>
        <path d="M144.8577,52.6207 C143.8687,51.7387 142.2957,50.9587 140.1397,50.2817 C139.1777,49.9787 138.4517,49.7207 137.9617,49.5067 C137.4707,49.2927 137.0837,49.0257 136.7977,48.7047 C136.5127,48.3837 136.3707,47.9747 136.3707,47.4747 C136.3707,46.8337 136.6377,46.3437 137.1727,46.0047 C137.7077,45.6667 138.4827,45.4967 139.4987,45.4967 C140.4067,45.4967 141.3197,45.6177 142.2377,45.8577 C143.1557,46.0987 144.1667,46.4587 145.2717,46.9407 L145.6197,43.4387 C144.7637,43.0997 143.8237,42.8147 142.7987,42.5827 C141.7747,42.3517 140.7457,42.2357 139.7117,42.2357 C137.5207,42.2357 135.8367,42.7257 134.6597,43.7057 C133.4837,44.6857 132.8957,45.9777 132.8957,47.5817 C132.8957,48.5797 133.1137,49.4217 133.5507,50.1077 C133.9867,50.7937 134.5797,51.3557 135.3287,51.7917 C136.0767,52.2287 137.0217,52.6427 138.1617,53.0347 C139.3737,53.4627 140.2557,53.7967 140.8077,54.0377 C141.3597,54.2777 141.7837,54.5717 142.0777,54.9187 C142.3717,55.2667 142.5187,55.7077 142.5187,56.2427 C142.5187,56.9547 142.2517,57.4947 141.7167,57.8597 C141.1827,58.2247 140.4427,58.4077 139.4987,58.4077 C137.7157,58.4077 135.6487,57.8377 133.2967,56.6967 L132.8957,60.3317 C133.5727,60.6707 134.5127,60.9827 135.7157,61.2677 C136.9187,61.5527 138.0457,61.6957 139.0977,61.6957 C141.8947,61.6957 143.8017,61.1517 144.8167,60.0647 C145.8337,58.9777 146.3407,57.7037 146.3407,56.2427 C146.3407,54.7097 145.8467,53.5027 144.8577,52.6207 Z M148.3377,45.9247 L151.6517,45.9247 L151.6517,42.6107 L148.3377,42.6107 L148.3377,45.9247 Z M148.3377,61.3207 L151.6517,61.3207 L151.6517,47.9557 L148.3377,47.9557 L148.3377,61.3207 Z M172.0067,53.1147 C172.1847,52.3127 172.5237,51.6717 173.0227,51.1907 C173.5217,50.7087 174.1807,50.4687 175.0007,50.4687 C175.8197,50.4687 176.4257,50.7357 176.8177,51.2707 C177.2097,51.8057 177.4057,52.4197 177.4057,53.1147 L172.0067,53.1147 Z M180.7747,53.5427 C180.7747,52.4557 180.5557,51.4757 180.1197,50.6017 C179.6827,49.7297 179.0317,49.0347 178.1677,48.5167 C177.3037,48.0007 176.2477,47.7427 175.0007,47.7427 C173.6457,47.7427 172.4787,48.0497 171.4987,48.6637 C170.5187,49.2797 169.7707,50.1037 169.2537,51.1367 C168.7357,52.1707 168.4787,53.3107 168.4787,54.5577 C168.4787,55.8597 168.7497,57.0397 169.2937,58.0997 C169.8367,59.1607 170.6567,60.0077 171.7527,60.6397 C172.8487,61.2717 174.1717,61.5887 175.7217,61.5887 C176.6127,61.5887 177.4367,61.4947 178.1947,61.3077 C178.9517,61.1207 179.6157,60.8757 180.1857,60.5727 L180.0257,57.7667 C178.7957,58.4967 177.4597,58.8617 176.0157,58.8617 C174.9637,58.8617 174.0657,58.5727 173.3157,57.9937 C172.5677,57.4137 172.1047,56.5367 171.9257,55.3607 L180.5607,55.3607 C180.7027,54.6837 180.7747,54.0777 180.7747,53.5427 Z M162.6457,57.7397 C162.1197,58.4877 161.3317,58.8617 160.2797,58.8617 C159.2457,58.8617 158.4397,58.4787 157.8607,57.7127 C157.2817,56.9467 156.9927,55.9307 156.9927,54.6647 C156.9927,53.4007 157.2817,52.3847 157.8607,51.6187 C158.4397,50.8517 159.2457,50.4687 160.2797,50.4687 C161.3317,50.4687 162.1197,50.8427 162.6457,51.5917 C163.1707,52.3397 163.4347,53.3647 163.4347,54.6647 C163.4347,55.9667 163.1707,56.9907 162.6457,57.7397 Z M163.2737,48.8117 C162.2577,48.0987 161.0997,47.7427 159.7987,47.7427 C158.4977,47.7427 157.3797,48.0547 156.4437,48.6777 C155.5087,49.3017 154.7997,50.1397 154.3187,51.1907 C153.8377,52.2427 153.5977,53.4007 153.5977,54.6647 C153.5977,55.9307 153.8377,57.0887 154.3187,58.1407 C154.7997,59.1917 155.5087,60.0297 156.4437,60.6527 C157.3797,61.2767 158.4977,61.5887 159.7987,61.5887 C160.5647,61.5887 161.2287,61.4947 161.7907,61.3077 C162.3517,61.1207 162.8907,60.8397 163.4077,60.4657 L163.4617,61.3207 L166.5887,61.3207 L166.5887,41.2737 L163.2737,41.2737 L163.2737,48.8117 Z M121.2147,53.5697 C120.4307,53.2667 119.8697,53.0307 119.5307,52.8607 C119.1917,52.6917 118.9297,52.4997 118.7427,52.2867 C118.5557,52.0727 118.4617,51.7967 118.4617,51.4577 C118.4617,51.0297 118.6177,50.7007 118.9297,50.4687 C119.2417,50.2377 119.6827,50.1207 120.2527,50.1207 C120.9117,50.1207 121.5407,50.2457 122.1377,50.4957 C122.7337,50.7457 123.3717,51.1017 124.0487,51.5647 L124.3427,48.7307 C123.0947,48.0367 121.7137,47.6887 120.1997,47.6887 C118.6847,47.6887 117.4817,48.0497 116.5907,48.7717 C115.6997,49.4937 115.2537,50.4327 115.2537,51.5917 C115.2537,52.6427 115.5657,53.4757 116.1897,54.0907 C116.8137,54.7047 117.7847,55.2537 119.1037,55.7347 C120.0297,56.0917 120.6717,56.3987 121.0277,56.6567 C121.3847,56.9147 121.5627,57.2847 121.5627,57.7667 C121.5627,58.6577 120.8857,59.1027 119.5307,59.1027 C118.8367,59.1027 118.1637,58.9917 117.5127,58.7687 C116.8627,58.5457 116.1627,58.2117 115.4147,57.7667 L115.1207,60.5997 C115.8687,60.9377 116.5947,61.1877 117.2987,61.3477 C118.0037,61.5087 118.7827,61.5887 119.6387,61.5887 C121.3137,61.5887 122.6047,61.2407 123.5137,60.5457 C124.4227,59.8507 124.8777,58.8707 124.8777,57.6057 C124.8777,56.6077 124.5917,55.8107 124.0217,55.2137 C123.4517,54.6167 122.5157,54.0687 121.2147,53.5697 Z M98.6817,57.7127 C98.0667,58.4787 97.2157,58.8617 96.1287,58.8617 C95.0427,58.8617 94.1907,58.4787 93.5767,57.7127 C92.9617,56.9467 92.6547,55.9307 92.6547,54.6647 C92.6547,53.3827 92.9617,52.3527 93.5767,51.5787 C94.1907,50.8027 95.0427,50.4147 96.1287,50.4147 C97.2157,50.4147 98.0667,50.8027 98.6817,51.5787 C99.2967,52.3527 99.6047,53.3827 99.6047,54.6647 C99.6047,55.9307 99.2967,56.9467 98.6817,57.7127 Z M99.7917,48.6237 C98.7577,48.0007 97.5367,47.6887 96.1287,47.6887 C94.7217,47.6887 93.5007,48.0007 92.4677,48.6237 C91.4337,49.2477 90.6407,50.0947 90.0877,51.1637 C89.5357,52.2327 89.2597,53.4007 89.2597,54.6647 C89.2597,55.9307 89.5357,57.0887 90.0877,58.1407 C90.6407,59.1917 91.4337,60.0297 92.4677,60.6527 C93.5007,61.2767 94.7217,61.5887 96.1287,61.5887 C97.5367,61.5887 98.7577,61.2767 99.7917,60.6527 C100.8247,60.0297 101.6177,59.1917 102.1697,58.1407 C102.7227,57.0887 102.9997,55.9307 102.9997,54.6647 C102.9997,53.4007 102.7227,52.2327 102.1697,51.1637 C101.6177,50.0947 100.8247,49.2477 99.7917,48.6237 Z M82.5317,42.6097 L77.9877,51.1367 L73.4167,42.6097 L70.6107,42.6097 L68.0177,61.3207 L71.5727,61.3207 L73.1767,48.8117 L77.9877,57.3917 L82.7727,48.7847 L84.3767,61.3207 L87.9317,61.3207 L85.3387,42.6097 L82.5317,42.6097 Z M110.2127,53.5697 C109.4287,53.2667 108.8677,53.0307 108.5287,52.8607 C108.1907,52.6917 107.9277,52.4997 107.7407,52.2867 C107.5537,52.0727 107.4607,51.7967 107.4607,51.4577 C107.4607,51.0297 107.6157,50.7007 107.9277,50.4687 C108.2397,50.2377 108.6807,50.1207 109.2507,50.1207 C109.9107,50.1207 110.5387,50.2457 111.1357,50.4957 C111.7327,50.7457 112.3697,51.1017 113.0467,51.5647 L113.3407,48.7307 C112.0927,48.0367 110.7117,47.6887 109.1977,47.6887 C107.6827,47.6887 106.4797,48.0497 105.5887,48.7717 C104.6977,49.4937 104.2527,50.4327 104.2527,51.5917 C104.2527,52.6427 104.5647,53.4757 105.1877,54.0907 C105.8117,54.7047 106.7827,55.2537 108.1017,55.7347 C109.0277,56.0917 109.6697,56.3987 110.0257,56.6567 C110.3827,56.9147 110.5607,57.2847 110.5607,57.7667 C110.5607,58.6577 109.8837,59.1027 108.5287,59.1027 C107.8347,59.1027 107.1617,58.9917 106.5107,58.7687 C105.8607,58.5457 105.1617,58.2117 104.4127,57.7667 L104.1187,60.5997 C104.8677,60.9377 105.5927,61.1877 106.2967,61.3477 C107.0017,61.5087 107.7807,61.5887 108.6367,61.5887 C110.3117,61.5887 111.6037,61.2407 112.5117,60.5457 C113.4207,59.8507 113.8757,58.8707 113.8757,57.6057 C113.8757,56.6077 113.5897,55.8107 113.0197,55.2137 C112.4497,54.6167 111.5137,54.0687 110.2127,53.5697 Z" id="Fill-8" fill="#AFCF5A"></path>
    </g>
</svg>