<?xml version="1.0" encoding="UTF-8" standalone="no"?>
<svg width="195px" height="67px" viewBox="0 0 195 67" version="1.1" xmlns="http://www.w3.org/2000/svg" xmlns:xlink="http://www.w3.org/1999/xlink">
    <!-- Generator: Sketch 50.2 (55047) - http://www.bohemiancoding.com/sketch -->
    <title>logo/site/moston-footer</title>
    <desc>Created with Sketch.</desc>
    <defs>
        <polygon id="path-1" points="0 0.387 50.9544 0.387 50.9544 65.9998 0 65.9998"></polygon>
    </defs>
    <g id="logo/site/moston-footer" stroke="none" stroke-width="1" fill="none" fill-rule="evenodd">
        <path d="M134.492,23.7247 C134.734,22.6237 135.196,21.7407 135.876,21.0807 C136.555,20.4197 137.455,20.0887 138.572,20.0887 C139.689,20.0887 140.514,20.4567 141.05,21.1917 C141.583,21.9257 141.85,22.7707 141.85,23.7247 L134.492,23.7247 Z M142.888,17.4077 C141.711,16.6977 140.272,16.3427 138.572,16.3427 C136.726,16.3427 135.136,16.7657 133.801,17.6097 C132.465,18.4537 131.444,19.5867 130.74,21.0067 C130.035,22.4277 129.684,23.9947 129.684,25.7087 C129.684,27.4957 130.054,29.1197 130.795,30.5757 C131.536,32.0327 132.653,33.1957 134.146,34.0647 C135.639,34.9337 137.442,35.3687 139.555,35.3687 C140.769,35.3687 141.892,35.2397 142.925,34.9827 C143.957,34.7247 144.862,34.3887 145.639,33.9727 L145.421,30.1157 C143.744,31.1207 141.923,31.6217 139.957,31.6217 C138.523,31.6217 137.298,31.2247 136.277,30.4287 C135.258,29.6327 134.625,28.4267 134.384,26.8097 L146.149,26.8097 C146.343,25.8797 146.44,25.0477 146.44,24.3127 C146.44,22.8197 146.142,21.4727 145.549,20.2717 C144.953,19.0737 144.066,18.1187 142.888,17.4077 Z M123.925,31.6217 C122.273,31.6217 120.95,31.0767 119.955,29.9877 C118.959,28.8977 118.461,27.5207 118.461,25.8557 C118.461,24.1167 118.947,22.7207 119.918,21.6677 C120.889,20.6157 122.237,20.0887 123.962,20.0887 C125.37,20.0887 126.73,20.4327 128.042,21.1177 L128.406,17.4447 C127.02,16.6607 125.393,16.2697 123.524,16.2697 C121.435,16.2697 119.663,16.6907 118.206,17.5367 C116.749,18.3807 115.656,19.5327 114.928,20.9887 C114.199,22.4467 113.834,24.0677 113.834,25.8557 C113.834,27.6187 114.199,29.2227 114.928,30.6667 C115.656,32.1117 116.743,33.2567 118.187,34.1007 C119.633,34.9457 121.363,35.3687 123.379,35.3687 C124.349,35.3687 125.279,35.2707 126.166,35.0747 C127.053,34.8787 127.823,34.6097 128.479,34.2667 L128.078,30.4107 C126.693,31.2177 125.309,31.6217 123.925,31.6217 Z M161.572,13.2937 C162.689,13.2937 163.727,13.4227 164.686,13.6797 C165.645,13.9377 166.647,14.2987 167.691,14.7637 L168.202,10.2827 C166.259,9.2777 164.06,8.7757 161.608,8.7757 C159.058,8.7757 156.782,9.3327 154.779,10.4467 C152.774,11.5617 151.208,13.1287 150.08,15.1477 C148.95,17.1687 148.386,19.5007 148.386,22.1447 C148.386,24.8147 148.931,27.1587 150.024,29.1797 C151.118,31.1987 152.653,32.7597 154.633,33.8627 C156.612,34.9637 158.888,35.5157 161.464,35.5157 C163.843,35.5157 166.089,35.0137 168.202,34.0097 L167.691,29.5287 C166.598,30.0187 165.573,30.3857 164.614,30.6297 C163.654,30.8747 162.603,30.9967 161.464,30.9967 C158.888,30.9967 156.915,30.1897 155.543,28.5737 C154.171,26.9567 153.486,24.8147 153.486,22.1447 C153.486,19.4767 154.182,17.3337 155.58,15.7187 C156.976,14.1017 158.973,13.2937 161.572,13.2937 Z M193.561,31.4937 C193.282,31.4077 193.088,31.1617 192.978,30.7577 C192.87,30.3547 192.814,29.6627 192.814,28.6827 L192.814,7.4537 L188.299,7.4537 L188.299,30.5567 C188.299,31.9777 188.686,33.1347 189.464,34.0277 C190.241,34.9217 191.406,35.3687 192.961,35.3687 L194.6,35.3687 L195,31.6217 C194.32,31.6217 193.84,31.5797 193.561,31.4937 Z M179.81,30.5577 C179.374,30.9727 178.864,31.2977 178.281,31.5307 C177.699,31.7627 177.175,31.8787 176.715,31.8787 C175.864,31.8787 175.244,31.7027 174.856,31.3467 C174.469,30.9907 174.274,30.4347 174.274,29.6747 C174.274,28.6707 174.833,27.8887 175.95,27.3247 C177.066,26.7617 178.353,26.4437 179.81,26.3697 L179.81,30.5577 Z M184.892,31.4567 C184.685,31.3467 184.54,31.0897 184.456,30.6847 C184.37,30.2807 184.328,29.6147 184.328,28.6837 L184.328,23.7257 C184.328,21.1537 183.763,19.2807 182.635,18.1057 C181.505,16.9297 179.871,16.3417 177.734,16.3417 C175.524,16.3417 173.314,16.8807 171.104,17.9577 L171.506,21.6677 C172.501,21.1797 173.382,20.8237 174.146,20.6017 C174.912,20.3827 175.694,20.2727 176.497,20.2727 C177.637,20.2727 178.457,20.5057 178.955,20.9697 C179.452,21.4357 179.726,22.2067 179.774,23.2847 C178.342,23.3337 176.847,23.5597 175.294,23.9637 C173.74,24.3687 172.392,25.0537 171.251,26.0207 C170.109,26.9887 169.538,28.2677 169.538,29.8587 C169.538,31.5477 170.042,32.8897 171.05,33.8807 C172.057,34.8727 173.314,35.3687 174.82,35.3687 C175.937,35.3687 177,35.1787 178.008,34.7997 C179.014,34.4197 179.81,33.8997 180.393,33.2387 C180.758,33.8997 181.28,34.4197 181.96,34.7997 C182.639,35.1787 183.478,35.3687 184.474,35.3687 L186.113,35.3687 L186.513,31.6217 L185.931,31.6217 C185.444,31.6217 185.098,31.5667 184.892,31.4567 Z M80.508,21.0437 C79.719,21.7787 78.523,22.1457 76.921,22.1457 L72.95,22.1457 L72.95,13.2207 L76.811,13.2207 C78.463,13.2207 79.688,13.5807 80.491,14.3047 C81.292,15.0267 81.692,16.1467 81.692,17.6647 C81.692,19.1827 81.298,20.3097 80.508,21.0437 Z M77.358,9.2907 L68.287,9.2907 L68.287,35.0017 L72.95,35.0017 L72.95,26.0757 L77.468,26.0757 C80.382,26.0757 82.603,25.3777 84.134,23.9817 C85.663,22.5867 86.429,20.4567 86.429,17.5917 C86.429,12.0577 83.405,9.2907 77.358,9.2907 Z M93.083,30.7577 C92.974,30.3547 92.919,29.6627 92.919,28.6827 L92.919,7.4537 L88.403,7.4537 L88.403,30.5567 C88.403,31.9777 88.791,33.1347 89.568,34.0277 C90.345,34.9217 91.511,35.3687 93.065,35.3687 L94.705,35.3687 L95.104,31.6217 C94.425,31.6217 93.944,31.5797 93.666,31.4937 C93.387,31.4077 93.192,31.1617 93.083,30.7577 Z M106.586,30.5577 C106.149,30.9727 105.639,31.2977 105.056,31.5307 C104.474,31.7627 103.95,31.8787 103.49,31.8787 C102.639,31.8787 102.02,31.7027 101.632,31.3467 C101.244,30.9907 101.05,30.4347 101.05,29.6747 C101.05,28.6707 101.608,27.8887 102.725,27.3247 C103.842,26.7617 105.129,26.4437 106.586,26.3697 L106.586,30.5577 Z M111.668,31.4567 C111.461,31.3467 111.315,31.0897 111.231,30.6847 C111.145,30.2807 111.103,29.6147 111.103,28.6837 L111.103,23.7257 C111.103,21.1537 110.538,19.2807 109.41,18.1057 C108.28,16.9297 106.646,16.3417 104.51,16.3417 C102.3,16.3417 100.09,16.8807 97.881,17.9577 L98.281,21.6677 C99.276,21.1797 100.157,20.8237 100.922,20.6017 C101.687,20.3827 102.47,20.2727 103.272,20.2727 C104.412,20.2727 105.232,20.5057 105.73,20.9697 C106.227,21.4357 106.501,22.2067 106.55,23.2847 C105.117,23.3337 103.623,23.5597 102.069,23.9637 C100.515,24.3687 99.168,25.0537 98.026,26.0207 C96.885,26.9887 96.314,28.2677 96.314,29.8587 C96.314,31.5477 96.817,32.8897 97.825,33.8807 C98.833,34.8727 100.09,35.3687 101.596,35.3687 C102.713,35.3687 103.775,35.1787 104.783,34.7997 C105.79,34.4197 106.586,33.8997 107.169,33.2387 C107.533,33.8997 108.055,34.4197 108.735,34.7997 C109.415,35.1787 110.253,35.3687 111.25,35.3687 L112.888,35.3687 L113.289,31.6217 L112.707,31.6217 C112.22,31.6217 111.874,31.5667 111.668,31.4567 Z" id="Fill-1" fill="#FFFCF0"></path>
        <polygon id="Fill-3" fill="#FFFCF0" points="33.8387 21.0235 30.4877 17.6435 25.4777 22.6955 23.0447 20.2445 19.6937 23.6235 22.1267 26.0755 24.9367 28.9095 25.4777 29.4545 27.9847 26.9245"></polygon>
        <g id="Group-7">
            <mask id="mask-2" fill="white">
                <use xlink:href="#path-1"></use>
            </mask>
            <g id="Clip-6"></g>
            <path d="M25.4774,0.3868 C11.4074,0.3868 -0.0006,11.8878 -0.0006,26.0748 C-0.0006,48.5538 25.4774,65.9998 25.4774,65.9998 C25.4774,65.9998 50.9544,48.5538 50.9544,26.0748 C50.9544,11.8878 39.5474,0.3868 25.4774,0.3868 M25.4774,41.6748 C16.9324,41.6748 10.0054,34.6918 10.0054,26.0748 C10.0054,17.4598 16.9324,10.4758 25.4774,10.4758 C34.0224,10.4758 40.9494,17.4598 40.9494,26.0748 C40.9494,34.6918 34.0224,41.6748 25.4774,41.6748" id="Fill-5" fill="#74D4EC" mask="url(#mask-2)"></path>
        </g>
        <path d="M110.2137,52.9561 C109.4297,52.6531 108.8677,52.4171 108.5287,52.2481 C108.1907,52.0791 107.9287,51.8871 107.7407,51.6731 C107.5537,51.4591 107.4607,51.1831 107.4607,50.8441 C107.4607,50.4161 107.6157,50.0871 107.9287,49.8551 C108.2397,49.6241 108.6807,49.5081 109.2507,49.5081 C109.9097,49.5081 110.5387,49.6331 111.1357,49.8821 C111.7327,50.1321 112.3687,50.4881 113.0467,50.9511 L113.3407,48.1181 C112.0937,47.4231 110.7117,47.0751 109.1977,47.0751 C107.6837,47.0751 106.4807,47.4361 105.5887,48.1581 C104.6977,48.8791 104.2527,49.8201 104.2527,50.9781 C104.2527,52.0301 104.5647,52.8621 105.1887,53.4771 C105.8117,54.0921 106.7827,54.6401 108.1017,55.1211 C109.0277,55.4781 109.6697,55.7851 110.0267,56.0431 C110.3827,56.3021 110.5617,56.6711 110.5617,57.1531 C110.5617,58.0441 109.8837,58.4891 108.5287,58.4891 C107.8347,58.4891 107.1617,58.3781 106.5117,58.1551 C105.8607,57.9331 105.1607,57.5981 104.4127,57.1531 L104.1187,59.9861 C104.8667,60.3251 105.5937,60.5741 106.2977,60.7341 C107.0017,60.8951 107.7807,60.9751 108.6367,60.9751 C110.3117,60.9751 111.6037,60.6271 112.5127,59.9331 C113.4207,59.2381 113.8757,58.2581 113.8757,56.9921 C113.8757,55.9951 113.5897,55.1971 113.0207,54.6001 C112.4497,54.0031 111.5137,53.4551 110.2137,52.9561 Z M132.5657,57.0991 C131.9497,57.8661 131.0997,58.2481 130.0127,58.2481 C128.9247,58.2481 128.0737,57.8661 127.4597,57.0991 C126.8447,56.3331 126.5367,55.3171 126.5367,54.0521 C126.5367,52.7691 126.8447,51.7401 127.4597,50.9651 C128.0737,50.1891 128.9247,49.8021 130.0127,49.8021 C131.0997,49.8021 131.9497,50.1891 132.5657,50.9651 C133.1797,51.7401 133.4867,52.7691 133.4867,54.0521 C133.4867,55.3171 133.1797,56.3331 132.5657,57.0991 Z M133.6747,48.0111 C132.6407,47.3871 131.4197,47.0751 130.0127,47.0751 C128.6047,47.0751 127.3837,47.3871 126.3507,48.0111 C125.3167,48.6351 124.5237,49.4811 123.9717,50.5501 C123.4187,51.6201 123.1427,52.7871 123.1427,54.0521 C123.1427,55.3171 123.4187,56.4761 123.9717,57.5271 C124.5237,58.5791 125.3167,59.4161 126.3507,60.0391 C127.3837,60.6641 128.6047,60.9751 130.0127,60.9751 C131.4197,60.9751 132.6407,60.6641 133.6747,60.0391 C134.7077,59.4161 135.5007,58.5791 136.0537,57.5271 C136.6057,56.4761 136.8817,55.3171 136.8817,54.0521 C136.8817,52.7871 136.6057,51.6201 136.0537,50.5501 C135.5007,49.4811 134.7077,48.6351 133.6747,48.0111 Z M149.2547,48.7861 C148.3997,47.6811 147.1437,47.1291 145.4847,47.1291 C144.2207,47.1291 143.0267,47.5121 141.9037,48.2781 L141.8507,47.3431 L138.7497,47.3431 L138.7497,60.7071 L142.0647,60.7071 L142.0647,51.0051 C142.7237,50.2391 143.5617,49.8551 144.5767,49.8551 C145.5037,49.8551 146.1767,50.1541 146.5947,50.7511 C147.0137,51.3481 147.2237,52.2701 147.2237,53.5171 L147.2237,60.7071 L150.5377,60.7071 L150.5377,53.2501 C150.5377,51.3791 150.1097,49.8911 149.2547,48.7861 Z M119.6327,44.0551 L116.3177,44.4021 L116.3177,47.3431 L114.7147,47.3431 L114.4207,50.0691 L116.3177,50.0691 L116.3177,57.4741 C116.3177,58.4351 116.6207,59.2601 117.2277,59.9461 C117.8327,60.6321 118.7247,60.9751 119.9007,60.9751 L122.2787,60.9751 L122.5727,58.2481 L121.6647,58.2481 C120.9867,58.2481 120.5197,58.2081 120.2607,58.1281 C120.0027,58.0481 119.8337,57.8701 119.7527,57.5941 C119.6727,57.3171 119.6327,56.8231 119.6327,56.1101 L119.6327,50.0691 L122.5727,50.0691 L122.5727,47.3431 L119.6327,47.3431 L119.6327,44.0551 Z M82.5317,41.9971 L77.9877,50.5231 L73.4167,41.9971 L70.6097,41.9971 L68.0177,60.7071 L71.5727,60.7071 L73.1767,48.1981 L77.9877,56.7781 L82.7727,48.1711 L84.3767,60.7071 L87.9317,60.7071 L85.3387,41.9971 L82.5317,41.9971 Z M98.6827,57.0991 C98.0677,57.8661 97.2167,58.2481 96.1297,58.2481 C95.0427,58.2481 94.1917,57.8661 93.5767,57.0991 C92.9617,56.3331 92.6547,55.3171 92.6547,54.0521 C92.6547,52.7691 92.9617,51.7401 93.5767,50.9651 C94.1917,50.1891 95.0427,49.8021 96.1297,49.8021 C97.2167,49.8021 98.0677,50.1891 98.6827,50.9651 C99.2967,51.7401 99.6047,52.7691 99.6047,54.0521 C99.6047,55.3171 99.2967,56.3331 98.6827,57.0991 Z M99.7917,48.0111 C98.7577,47.3871 97.5367,47.0751 96.1297,47.0751 C94.7217,47.0751 93.5007,47.3871 92.4677,48.0111 C91.4337,48.6351 90.6407,49.4811 90.0887,50.5501 C89.5357,51.6201 89.2597,52.7871 89.2597,54.0521 C89.2597,55.3171 89.5357,56.4761 90.0887,57.5271 C90.6407,58.5791 91.4337,59.4161 92.4677,60.0391 C93.5007,60.6641 94.7217,60.9751 96.1297,60.9751 C97.5367,60.9751 98.7577,60.6641 99.7917,60.0391 C100.8247,59.4161 101.6177,58.5791 102.1707,57.5271 C102.7227,56.4761 102.9987,55.3171 102.9987,54.0521 C102.9987,52.7871 102.7227,51.6201 102.1707,50.5501 C101.6177,49.4811 100.8247,48.6351 99.7917,48.0111 Z" id="Fill-8" fill="#74D4EC"></path>
    </g>
</svg>