<?xml version="1.0" encoding="UTF-8" standalone="no"?>
<svg width="195px" height="67px" viewBox="0 0 195 67" version="1.1" xmlns="http://www.w3.org/2000/svg" xmlns:xlink="http://www.w3.org/1999/xlink">
    <!-- Generator: Sketch 50.2 (55047) - http://www.bohemiancoding.com/sketch -->
    <title>logo/site/rusholme-footer</title>
    <desc>Created with Sketch.</desc>
    <defs>
        <polygon id="path-1" points="0.0003 0.387 50.9543 0.387 50.9543 65.9998 0.0003 65.9998"></polygon>
    </defs>
    <g id="logo/site/rusholme-footer" stroke="none" stroke-width="1" fill="none" fill-rule="evenodd">
        <path d="M134.4919,23.7247 C134.7349,22.6237 135.1969,21.7407 135.8759,21.0807 C136.5559,20.4197 137.4549,20.0887 138.5729,20.0887 C139.6889,20.0887 140.5149,20.4557 141.0499,21.1917 C141.5829,21.9257 141.8499,22.7707 141.8499,23.7247 L134.4919,23.7247 Z M142.8879,17.4077 C141.7109,16.6977 140.2719,16.3427 138.5729,16.3427 C136.7259,16.3427 135.1359,16.7657 133.7999,17.6097 C132.4649,18.4537 131.4449,19.5867 130.7399,21.0067 C130.0349,22.4277 129.6839,23.9947 129.6839,25.7087 C129.6839,27.4957 130.0539,29.1197 130.7949,30.5757 C131.5349,32.0327 132.6529,33.1957 134.1459,34.0647 C135.6399,34.9337 137.4429,35.3687 139.5549,35.3687 C140.7699,35.3687 141.8929,35.2397 142.9249,34.9827 C143.9569,34.7247 144.8619,34.3887 145.6389,33.9727 L145.4199,30.1157 C143.7439,31.1207 141.9229,31.6217 139.9569,31.6217 C138.5239,31.6217 137.2979,31.2247 136.2769,30.4287 C135.2569,29.6327 134.6249,28.4267 134.3839,26.8097 L146.1489,26.8097 C146.3429,25.8797 146.4409,25.0477 146.4409,24.3127 C146.4409,22.8197 146.1419,21.4727 145.5479,20.2717 C144.9529,19.0737 144.0659,18.1187 142.8879,17.4077 Z M123.9249,31.6217 C122.2739,31.6217 120.9499,31.0767 119.9549,29.9877 C118.9589,28.8977 118.4609,27.5207 118.4609,25.8557 C118.4609,24.1167 118.9469,22.7207 119.9179,21.6677 C120.8889,20.6157 122.2369,20.0887 123.9619,20.0887 C125.3699,20.0887 126.7299,20.4327 128.0419,21.1177 L128.4059,17.4447 C127.0209,16.6607 125.3939,16.2697 123.5249,16.2697 C121.4359,16.2697 119.6629,16.6907 118.2059,17.5367 C116.7489,18.3807 115.6569,19.5327 114.9279,20.9887 C114.1999,22.4467 113.8339,24.0677 113.8339,25.8557 C113.8339,27.6187 114.1999,29.2227 114.9279,30.6667 C115.6569,32.1117 116.7429,33.2567 118.1879,34.1007 C119.6329,34.9457 121.3629,35.3687 123.3779,35.3687 C124.3499,35.3687 125.2789,35.2707 126.1649,35.0747 C127.0519,34.8787 127.8229,34.6097 128.4789,34.2667 L128.0779,30.4097 C126.6939,31.2177 125.3089,31.6217 123.9249,31.6217 Z M161.5719,13.2937 C162.6889,13.2937 163.7269,13.4227 164.6859,13.6797 C165.6459,13.9377 166.6469,14.2987 167.6909,14.7637 L168.2019,10.2827 C166.2579,9.2777 164.0609,8.7757 161.6089,8.7757 C159.0589,8.7757 156.7829,9.3327 154.7789,10.4467 C152.7749,11.5617 151.2079,13.1287 150.0789,15.1477 C148.9499,17.1687 148.3849,19.5007 148.3849,22.1447 C148.3849,24.8147 148.9309,27.1587 150.0239,29.1797 C151.1179,31.1987 152.6529,32.7597 154.6329,33.8627 C156.6119,34.9637 158.8889,35.5157 161.4629,35.5157 C163.8429,35.5157 166.0889,35.0137 168.2019,34.0097 L167.6909,29.5287 C166.5979,30.0187 165.5729,30.3857 164.6139,30.6297 C163.6539,30.8747 162.6039,30.9967 161.4629,30.9967 C158.8889,30.9967 156.9149,30.1897 155.5429,28.5737 C154.1709,26.9567 153.4859,24.8147 153.4859,22.1447 C153.4859,19.4767 154.1829,17.3337 155.5799,15.7187 C156.9759,14.1017 158.9729,13.2937 161.5719,13.2937 Z M193.5609,31.4937 C193.2819,31.4077 193.0879,31.1617 192.9779,30.7577 C192.8699,30.3547 192.8149,29.6627 192.8149,28.6827 L192.8149,7.4537 L188.2979,7.4537 L188.2979,30.5567 C188.2979,31.9777 188.6859,33.1347 189.4639,34.0277 C190.2409,34.9217 191.4069,35.3687 192.9609,35.3687 L194.5999,35.3687 L194.9999,31.6217 C194.3209,31.6217 193.8399,31.5797 193.5609,31.4937 Z M179.8099,30.5577 C179.3739,30.9727 178.8639,31.2977 178.2809,31.5307 C177.6989,31.7627 177.1749,31.8787 176.7149,31.8787 C175.8649,31.8787 175.2439,31.7027 174.8559,31.3467 C174.4679,30.9907 174.2739,30.4347 174.2739,29.6747 C174.2739,28.6707 174.8319,27.8887 175.9499,27.3247 C177.0669,26.7617 178.3529,26.4437 179.8099,26.3697 L179.8099,30.5577 Z M184.8929,31.4567 C184.6849,31.3467 184.5399,31.0897 184.4559,30.6847 C184.3699,30.2807 184.3279,29.6147 184.3279,28.6837 L184.3279,23.7257 C184.3279,21.1537 183.7629,19.2807 182.6349,18.1057 C181.5049,16.9297 179.8709,16.3417 177.7349,16.3417 C175.5239,16.3417 173.3149,16.8807 171.1039,17.9577 L171.5059,21.6677 C172.5009,21.1787 173.3819,20.8237 174.1459,20.6017 C174.9109,20.3827 175.6939,20.2727 176.4959,20.2727 C177.6369,20.2727 178.4559,20.5057 178.9549,20.9697 C179.4519,21.4357 179.7259,22.2067 179.7749,23.2847 C178.3419,23.3337 176.8479,23.5597 175.2939,23.9637 C173.7399,24.3687 172.3919,25.0537 171.2509,26.0207 C170.1089,26.9887 169.5379,28.2677 169.5379,29.8587 C169.5379,31.5477 170.0419,32.8897 171.0499,33.8807 C172.0569,34.8727 173.3149,35.3687 174.8209,35.3687 C175.9369,35.3687 176.9989,35.1787 178.0079,34.7997 C179.0149,34.4197 179.8099,33.8997 180.3939,33.2387 C180.7579,33.8997 181.2809,34.4197 181.9599,34.7997 C182.6399,35.1787 183.4779,35.3687 184.4739,35.3687 L186.1129,35.3687 L186.5129,31.6217 L185.9309,31.6217 C185.4449,31.6217 185.0979,31.5667 184.8929,31.4567 Z M80.5079,21.0437 C79.7189,21.7787 78.5229,22.1457 76.9209,22.1457 L72.9499,22.1457 L72.9499,13.2207 L76.8109,13.2207 C78.4629,13.2207 79.6889,13.5807 80.4909,14.3047 C81.2919,15.0267 81.6919,16.1467 81.6919,17.6647 C81.6919,19.1827 81.2969,20.3097 80.5079,21.0437 Z M77.3579,9.2907 L68.2869,9.2907 L68.2869,35.0017 L72.9499,35.0017 L72.9499,26.0757 L77.4679,26.0757 C80.3809,26.0757 82.6039,25.3777 84.1329,23.9817 C85.6629,22.5867 86.4289,20.4567 86.4289,17.5917 C86.4289,12.0577 83.4049,9.2907 77.3579,9.2907 Z M93.0829,30.7577 C92.9739,30.3547 92.9189,29.6627 92.9189,28.6827 L92.9189,7.4537 L88.4029,7.4537 L88.4029,30.5567 C88.4029,31.9777 88.7909,33.1347 89.5679,34.0277 C90.3449,34.9217 91.5109,35.3687 93.0649,35.3687 L94.7039,35.3687 L95.1039,31.6217 C94.4249,31.6217 93.9449,31.5797 93.6659,31.4937 C93.3859,31.4077 93.1919,31.1617 93.0829,30.7577 Z M106.5859,30.5577 C106.1489,30.9727 105.6389,31.2977 105.0559,31.5307 C104.4739,31.7627 103.9499,31.8787 103.4899,31.8787 C102.6399,31.8787 102.0209,31.7027 101.6319,31.3467 C101.2429,30.9907 101.0499,30.4347 101.0499,29.6747 C101.0499,28.6707 101.6079,27.8887 102.7249,27.3247 C103.8419,26.7617 105.1289,26.4437 106.5859,26.3697 L106.5859,30.5577 Z M111.6679,31.4567 C111.4609,31.3467 111.3159,31.0897 111.2309,30.6847 C111.1449,30.2807 111.1029,29.6147 111.1029,28.6837 L111.1029,23.7257 C111.1029,21.1537 110.5379,19.2807 109.4099,18.1057 C108.2799,16.9297 106.6469,16.3417 104.5099,16.3417 C102.2999,16.3417 100.0899,16.8807 97.8809,17.9577 L98.2809,21.6677 C99.2759,21.1787 100.1579,20.8237 100.9219,20.6017 C101.6869,20.3827 102.4699,20.2727 103.2719,20.2727 C104.4119,20.2727 105.2319,20.5057 105.7309,20.9697 C106.2269,21.4357 106.5009,22.2067 106.5499,23.2847 C105.1169,23.3337 103.6229,23.5597 102.0699,23.9637 C100.5149,24.3687 99.1679,25.0537 98.0259,26.0207 C96.8849,26.9887 96.3139,28.2677 96.3139,29.8587 C96.3139,31.5477 96.8169,32.8897 97.8249,33.8807 C98.8329,34.8727 100.0899,35.3687 101.5959,35.3687 C102.7129,35.3687 103.7749,35.1787 104.7829,34.7997 C105.7899,34.4197 106.5859,33.8997 107.1689,33.2387 C107.5339,33.8997 108.0559,34.4197 108.7359,34.7997 C109.4149,35.1787 110.2529,35.3687 111.2499,35.3687 L112.8879,35.3687 L113.2889,31.6217 L112.7059,31.6217 C112.2199,31.6217 111.8739,31.5667 111.6679,31.4567 Z" id="Fill-1" fill="#FFFCF0"></path>
        <polygon id="Fill-3" fill="#FFFCF0" points="33.8386 21.0235 30.4876 17.6435 25.4776 22.6955 23.0456 20.2445 19.6946 23.6235 22.1266 26.0755 24.9366 28.9095 25.4776 29.4545 27.9846 26.9245"></polygon>
        <g id="Group-7">
            <mask id="mask-2" fill="white">
                <use xlink:href="#path-1"></use>
            </mask>
            <g id="Clip-6"></g>
            <path d="M25.4773,0.3868 C11.4073,0.3868 0.0003,11.8878 0.0003,26.0748 C0.0003,48.5538 25.4773,65.9998 25.4773,65.9998 C25.4773,65.9998 50.9543,48.5538 50.9543,26.0748 C50.9543,11.8878 39.5473,0.3868 25.4773,0.3868 M25.4773,41.6748 C16.9323,41.6748 10.0053,34.6918 10.0053,26.0748 C10.0053,17.4598 16.9323,10.4758 25.4773,10.4758 C34.0223,10.4758 40.9493,17.4598 40.9493,26.0748 C40.9493,34.6918 34.0223,41.6748 25.4773,41.6748" id="Fill-5" fill="#FE9263" mask="url(#mask-2)"></path>
        </g>
        <path d="M142.3371,57.6207 C142.2561,57.3267 142.2161,56.8237 142.2161,56.1107 L142.2161,40.6607 L138.9021,40.6607 L138.9021,57.4737 C138.9021,58.5067 139.1871,59.3497 139.7571,59.9997 C140.3271,60.6497 141.1831,60.9747 142.3231,60.9747 L143.5261,60.9747 L143.8201,58.2487 C143.3211,58.2487 142.9691,58.2177 142.7651,58.1547 C142.5591,58.0927 142.4171,57.9147 142.3371,57.6207 Z M170.9851,52.5017 C171.1641,51.6997 171.5031,51.0587 172.0021,50.5777 C172.5001,50.0957 173.1591,49.8557 173.9801,49.8557 C174.7991,49.8557 175.4051,50.1227 175.7971,50.6577 C176.1891,51.1917 176.3851,51.8067 176.3851,52.5017 L170.9851,52.5017 Z M179.7531,52.9297 C179.7531,51.8427 179.5351,50.8627 179.0981,49.9887 C178.6611,49.1167 178.0111,48.4207 177.1471,47.9037 C176.2821,47.3877 175.2271,47.1287 173.9801,47.1287 C172.6251,47.1287 171.4581,47.4357 170.4781,48.0507 C169.4981,48.6657 168.7491,49.4907 168.2331,50.5237 C167.7151,51.5577 167.4571,52.6977 167.4571,53.9447 C167.4571,55.2457 167.7291,56.4267 168.2731,57.4867 C168.8161,58.5477 169.6361,59.3937 170.7321,60.0257 C171.8281,60.6587 173.1511,60.9747 174.7011,60.9747 C175.5921,60.9747 176.4161,60.8817 177.1741,60.6947 C177.9311,60.5077 178.5951,60.2627 179.1651,59.9597 L179.0041,57.1527 C177.7751,57.8837 176.4391,58.2487 174.9951,58.2487 C173.9431,58.2487 173.0441,57.9587 172.2951,57.3797 C171.5471,56.8007 171.0831,55.9227 170.9051,54.7467 L179.5391,54.7467 C179.6821,54.0697 179.7531,53.4637 179.7531,52.9297 Z M116.5641,47.1287 C115.9041,47.1287 115.2981,47.2227 114.7461,47.4097 C114.1931,47.5967 113.6501,47.8597 113.1161,48.1987 L113.1161,40.6607 L109.8011,40.6607 L109.8011,60.7077 L113.1161,60.7077 L113.1161,51.0047 C113.7931,50.2387 114.6571,49.8557 115.7091,49.8557 C116.6001,49.8557 117.2501,50.1497 117.6601,50.7377 C118.0691,51.3257 118.2751,52.2527 118.2751,53.5167 L118.2751,60.7077 L121.5891,60.7077 L121.5891,53.2767 C121.5891,51.3707 121.1751,49.8687 120.3461,48.7727 C119.5181,47.6767 118.2561,47.1287 116.5641,47.1287 Z M160.4361,47.1287 C159.5271,47.1287 158.6981,47.2887 157.9501,47.6097 C157.2011,47.9307 156.5951,48.3857 156.1321,48.9737 C155.2941,47.7437 154.0201,47.1287 152.3101,47.1287 C150.9011,47.1287 149.5921,47.5567 148.3801,48.4127 L148.2741,47.3427 L145.4401,47.3427 L145.4401,60.7077 L148.7541,60.7077 L148.7541,51.0047 C149.4321,50.2387 150.2961,49.8557 151.3471,49.8557 C152.2381,49.8557 152.8881,50.1497 153.2991,50.7377 C153.7091,51.3257 153.9141,52.2527 153.9141,53.5167 L153.9141,60.7077 L157.2281,60.7077 L157.2281,53.2767 C157.2281,52.1897 157.4511,51.3487 157.8961,50.7507 C158.3411,50.1537 159.0011,49.8557 159.8741,49.8557 C160.7651,49.8557 161.4061,50.1497 161.7991,50.7377 C162.1911,51.3257 162.3871,52.2527 162.3871,53.5167 L162.3871,60.7077 L165.7011,60.7077 L165.7011,53.2767 C165.7011,51.3347 165.2691,49.8247 164.4051,48.7457 C163.5401,47.6677 162.2171,47.1287 160.4361,47.1287 Z M132.7671,57.0997 C132.1521,57.8657 131.3011,58.2487 130.2151,58.2487 C129.1281,58.2487 128.2771,57.8657 127.6621,57.0997 C127.0471,56.3327 126.7401,55.3177 126.7401,54.0517 C126.7401,52.7687 127.0471,51.7397 127.6621,50.9647 C128.2771,50.1897 129.1281,49.8017 130.2151,49.8017 C131.3011,49.8017 132.1521,50.1897 132.7671,50.9647 C133.3821,51.7397 133.6901,52.7687 133.6901,54.0517 C133.6901,55.3177 133.3821,56.3327 132.7671,57.0997 Z M133.8771,48.0107 C132.8431,47.3877 131.6221,47.0757 130.2151,47.0757 C128.8071,47.0757 127.5861,47.3877 126.5531,48.0107 C125.5191,48.6347 124.7261,49.4807 124.1741,50.5507 C123.6211,51.6197 123.3451,52.7867 123.3451,54.0517 C123.3451,55.3177 123.6211,56.4757 124.1741,57.5267 C124.7261,58.5787 125.5191,59.4157 126.5531,60.0397 C127.5861,60.6637 128.8071,60.9747 130.2151,60.9747 C131.6221,60.9747 132.8431,60.6637 133.8771,60.0397 C134.9101,59.4157 135.7031,58.5787 136.2561,57.5267 C136.8081,56.4757 137.0851,55.3177 137.0851,54.0517 C137.0851,52.7867 136.8081,51.6197 136.2561,50.5507 C135.7031,49.4807 134.9101,48.6347 133.8771,48.0107 Z M74.8341,50.8977 L72.3211,50.8977 L72.3211,44.8567 L74.9671,44.8567 C76.2511,44.8567 77.1771,45.1107 77.7471,45.6187 C78.3171,46.1267 78.6031,46.8707 78.6031,47.8507 C78.6031,49.8817 77.3461,50.8977 74.8341,50.8977 Z M81.3561,50.8577 C81.9081,50.0287 82.1851,48.9647 82.1851,47.6637 C82.1851,45.7927 81.6101,44.3807 80.4611,43.4267 C79.3111,42.4737 77.7381,41.9967 75.7421,41.9967 L68.8991,41.9967 L68.8991,60.7077 L72.3211,60.7077 L72.3211,53.7577 L75.7961,53.7577 L79.4051,60.7077 L83.2271,60.7077 L79.0041,52.8497 C80.0191,52.3507 80.8031,51.6867 81.3561,50.8577 Z M92.7991,57.0727 C92.1581,57.8207 91.3191,58.1957 90.2861,58.1957 C89.3591,58.1957 88.6871,57.8967 88.2681,57.2997 C87.8491,56.7027 87.6401,55.7807 87.6401,54.5337 L87.6401,47.3427 L84.3261,47.3427 L84.3261,54.5337 C84.3261,56.5467 84.7751,58.1237 85.6751,59.2647 C86.5751,60.4047 88.0141,60.9747 89.9921,60.9747 C90.4911,60.9747 91.0081,60.8717 91.5431,60.6677 C92.0771,60.4627 92.5491,60.2087 92.9591,59.9057 L93.0131,60.7077 L96.1131,60.7077 L96.1131,47.3427 L92.7991,47.3427 L92.7991,57.0727 Z M104.2471,52.9557 C103.4621,52.6537 102.9011,52.4167 102.5631,52.2477 C102.2241,52.0787 101.9621,51.8867 101.7741,51.6727 C101.5871,51.4587 101.4941,51.1837 101.4941,50.8447 C101.4941,50.4167 101.6501,50.0867 101.9621,49.8557 C102.2741,49.6237 102.7141,49.5077 103.2851,49.5077 C103.9441,49.5077 104.5721,49.6327 105.1691,49.8817 C105.7661,50.1317 106.4031,50.4877 107.0811,50.9517 L107.3751,48.1177 C106.1271,47.4227 104.7461,47.0757 103.2321,47.0757 C101.7161,47.0757 100.5141,47.4357 99.6231,48.1577 C98.7321,48.8797 98.2861,49.8197 98.2861,50.9777 C98.2861,52.0297 98.5981,52.8627 99.2221,53.4767 C99.8451,54.0917 100.8161,54.6407 102.1351,55.1207 C103.0621,55.4777 103.7031,55.7857 104.0601,56.0437 C104.4161,56.3017 104.5951,56.6717 104.5951,57.1527 C104.5951,58.0437 103.9171,58.4897 102.5631,58.4897 C101.8681,58.4897 101.1951,58.3777 100.5451,58.1547 C99.8941,57.9327 99.1951,57.5987 98.4461,57.1527 L98.1531,59.9857 C98.9011,60.3247 99.6271,60.5747 100.3311,60.7347 C101.0351,60.8947 101.8151,60.9747 102.6701,60.9747 C104.3451,60.9747 105.6371,60.6277 106.5461,59.9327 C107.4551,59.2377 107.9091,58.2577 107.9091,56.9927 C107.9091,55.9947 107.6241,55.1977 107.0541,54.5997 C106.4831,54.0027 105.5471,53.4547 104.2471,52.9557 Z" id="Fill-8" fill="#FE9263"></path>
    </g>
</svg>