<svg xmlns="http://www.w3.org/2000/svg" width="176.34" height="504" viewBox="0 0 176.34 504">
  <defs>
    <style>
      .cls-1 {
        fill: #afcf5a;
      }
    </style>
  </defs>
  <title>PlaceCal</title>
  <g id="Layer_1" data-name="Layer 1">
    <g>
      <polygon class="cls-1" points="0 134.62 0 143.21 8.37 144.71 9.23 139.88 2.02 138.59 2.64 135.09 0 134.62"/>
      <path class="cls-1" d="M32.1,250.21A41.63,41.63,0,0,0,0,224.6v16.69a25.24,25.24,0,0,1,16.92,15h0a25.27,25.27,0,0,1-14,32.88h0a25.59,25.59,0,0,1-2.88,1v29.94a120.69,120.69,0,0,0,17.57,5.7S45.67,284,32.1,250.21Z"/>
      <path class="cls-1" d="M0,114.25v10.37a15.94,15.94,0,0,1,12.29,6.81,16,16,0,0,1-4,22.27A15.88,15.88,0,0,1,0,156.53V167.8a35.3,35.3,0,0,0,14.24-5.61,26.34,26.34,0,0,0,6.54-36.67h0A26.31,26.31,0,0,0,0,114.25Z"/>
      <polygon class="cls-1" points="0 251.71 0 260.27 3.09 253.03 0 251.71"/>
      <path class="cls-1" d="M152,265.46h0a17.15,17.15,0,0,0-23.71,5.09c-8.15,12.6-.07,31.7-.07,31.7s20.72-.47,28.87-13.07A17.15,17.15,0,0,0,152,265.46Zm-.57,20.05A10.42,10.42,0,0,1,137,288.6h0a10.41,10.41,0,1,1,14.4-3.09Z"/>
      <polygon class="cls-1" points="60.39 187.53 64.44 190.28 66.44 187.34 68.75 183.94 69.19 183.29 66.16 181.23 59.08 176.42 56.33 180.48 62.39 184.59 60.39 187.53"/>
      <polygon class="cls-1" points="143.88 277.96 143.4 275.7 140.28 276.37 140.76 278.63 141.33 281.25 141.43 281.75 143.77 281.25 149.22 280.08 148.55 276.96 143.88 277.96"/>
      <path class="cls-1" d="M39.92,188.89a26.33,26.33,0,0,0,30.82,20.92C93.37,205.48,106,176.25,106,176.25s-22.53-22.51-45.16-18.18a26.34,26.34,0,0,0-20.92,30.82Zm22.86-20.65A16,16,0,1,1,50.08,187,16,16,0,0,1,62.78,168.24Z"/>
    </g>
  </g>
</svg>
