<svg xmlns="http://www.w3.org/2000/svg" width="156.66" height="504" viewBox="0 0 156.66 504">
  <defs>
    <style>
      .cls-1 {
        fill: #afcf5a;
      }
    </style>
  </defs>
  <title>PlaceCal</title>
  <g id="Layer_1" data-name="Layer 1">
    <g>
      <path class="cls-1" d="M69.16,228.55c21.5,8.3,47.68-9.82,47.68-9.82s-7.19-31-28.69-39.32a26.33,26.33,0,0,0-34.06,15.07h0A26.35,26.35,0,0,0,69.16,228.55Zm-5.42-30.34a16,16,0,1,1,9.15,20.69A16,16,0,0,1,63.74,198.21Z"/>
      <polygon class="cls-1" points="92.38 473.31 89.91 478.36 87.05 484.19 86.5 485.31 91.7 487.87 103.85 493.83 107.26 486.87 96.86 481.77 99.34 476.72 92.38 473.31"/>
      <path class="cls-1" d="M131.08,470.07a41.64,41.64,0,0,0-52.87-25.93C45.73,455.25,32.06,499,30.59,504H76.83a25.22,25.22,0,0,1-9.08-12.28h0a25.28,25.28,0,0,1,15.74-32.1h0a25.28,25.28,0,0,1,23,44.38h21.4a41.5,41.5,0,0,0,3.14-33.92Z"/>
      <polygon class="cls-1" points="74.16 208.65 77.41 207.21 81.17 205.55 81.89 205.23 80.4 201.87 76.94 194.05 72.46 196.03 75.42 202.73 72.17 204.17 74.16 208.65"/>
      <polygon class="cls-1" points="139.43 318.93 133.16 323.49 136.47 328.04 140.29 333.29 141.03 334.3 145.72 330.89 156.66 322.93 152.1 316.67 142.74 323.48 139.43 318.93"/>
      <polygon class="cls-1" points="70.81 279.85 68.16 281.63 69.45 283.56 70.95 285.78 71.24 286.2 73.22 284.87 77.84 281.76 76.06 279.11 72.1 281.77 70.81 279.85"/>
      <path class="cls-1" d="M156.66,349.41a25.25,25.25,0,0,1-18.72,4.46h0a25.29,25.29,0,1,1,18.72-45.5V290a41.77,41.77,0,0,0-8.29-2.2h0a41.64,41.64,0,0,0-47.62,34.64h0c-5.67,36,31.05,70.41,31.05,70.41a128.55,128.55,0,0,0,24.86-16.37Z"/>
      <path class="cls-1" d="M75,267.16h0A17.14,17.14,0,0,0,54.84,280.7h0C52,295.43,66.56,310.15,66.56,310.15S85.62,302,88.5,287.28A17.14,17.14,0,0,0,75,267.16ZM81.89,286h0a10.42,10.42,0,0,1-12.22,8.22h0a10.41,10.41,0,0,1,4-20.44h0A10.41,10.41,0,0,1,81.89,286Z"/>
    </g>
  </g>
</svg>
