<svg xmlns="http://www.w3.org/2000/svg" width="275" height="480" viewBox="0 0 275 480">
  <defs>
    <style>
      .cls-1 {
        fill: #fffbef;
      }
    </style>
  </defs>
  <title>PlaceCal</title>
  <g id="Layer_1" data-name="Layer 1">
    <g>
      <polygon class="cls-1" points="192.6 37.45 194.03 37.98 196.47 31.36 202.15 15.94 193.32 12.69 188.45 25.89 182.04 23.52 178.79 32.36 185.2 34.72 192.6 37.45"/>
      <polygon class="cls-1" points="109.99 249.38 110.31 249.92 112.78 248.39 118.55 244.84 116.51 241.54 111.58 244.58 110.1 242.19 106.8 244.22 108.28 246.62 109.99 249.38"/>
      <path class="cls-1" d="M131.23,252.05A20.86,20.86,0,0,0,115.75,227h0a20.84,20.84,0,0,0-25.08,15.48c-4.2,17.75,12.81,36.32,12.81,36.32S127,269.79,131.23,252.05Zm-32.6-7.72a12.66,12.66,0,0,1,15.23-9.4h0a12.66,12.66,0,0,1,9.4,15.23h0a12.65,12.65,0,0,1-15.23,9.4h0A12.66,12.66,0,0,1,98.63,244.33Z"/>
      <polygon class="cls-1" points="20.87 187.74 27.39 185.06 42.6 178.82 39.02 170.11 26 175.46 23.4 169.15 14.7 172.72 17.3 179.04 20.3 186.34 20.87 187.74"/>
      <path class="cls-1" d="M145.29,53.13c18.55,40.2,78.89,50.22,78.89,50.22s31.55-52.4,13-92.6A51,51,0,0,0,230.5,0H152A50.6,50.6,0,0,0,145.29,53.13ZM178.37,4a30.73,30.73,0,0,1,25.74,55.81h0A30.73,30.73,0,0,1,178.37,4Z"/>
      <path class="cls-1" d="M11.6,210A30.58,30.58,0,0,1,0,201.48v51c16.22-4.59,56.62-19,70.13-51.35a50.59,50.59,0,0,0-27.2-66.18h0A50.48,50.48,0,0,0,0,136.77v25a30.73,30.73,0,0,1,51.79,31.71h0A30.72,30.72,0,0,1,11.6,210Z"/>
      <path class="cls-1" d="M61.51,437.27h0a50.61,50.61,0,0,0,56.45-44C123.41,349.35,77.43,309,77.43,309S23,336.89,17.53,380.83A50.6,50.6,0,0,0,61.51,437.27Zm-24.26-54A30.73,30.73,0,1,1,64,417.55h0A30.73,30.73,0,0,1,37.25,383.27Z"/>
      <polygon class="cls-1" points="177.65 409.08 173.85 409.89 175.07 415.56 172.32 416.15 173.13 419.94 175.88 419.35 179.06 418.67 179.67 418.54 179.07 415.7 177.65 409.08"/>
      <polygon class="cls-1" points="63.66 72.39 62.86 71.85 60.36 75.54 54.52 84.14 59.44 87.49 64.44 80.12 68.02 82.55 71.36 77.62 67.79 75.2 63.66 72.39"/>
      <path class="cls-1" d="M149.66,149.4c-12.2,25.21,7.14,58.72,7.14,58.72s38.28-5.62,50.48-30.83a32,32,0,0,0-14.87-42.76h0A32,32,0,0,0,149.66,149.4ZM196,171.81h0a19.43,19.43,0,0,1-26,9h0a19.43,19.43,0,0,1-9-26h0a19.43,19.43,0,0,1,26-9h0A19.42,19.42,0,0,1,196,171.81Z"/>
      <path class="cls-1" d="M188.69,399.54a20.84,20.84,0,0,0-28.82,6.19h0a20.84,20.84,0,0,0,6.19,28.82c15.31,9.9,38.51.08,38.51.08S204,409.45,188.69,399.54ZM188,423.92h0a12.65,12.65,0,0,1-17.5,3.75h0a12.65,12.65,0,0,1,13.74-21.25h0A12.66,12.66,0,0,1,188,423.92Z"/>
      <path class="cls-1" d="M95.09,70C89.83,42.47,54.3,27.13,54.3,27.13S27,54.49,32.21,82a32,32,0,0,0,37.46,25.43h0A32,32,0,0,0,95.09,70ZM67.31,95.08h0A19.44,19.44,0,0,1,60,56.9h0a19.44,19.44,0,0,1,7.31,38.18Z"/>
      <polygon class="cls-1" points="180.3 159.55 178.88 155.47 173.26 157.43 174.68 161.51 176.32 166.22 176.63 167.13 180.84 165.67 190.66 162.25 188.71 156.63 180.3 159.55"/>
      <polygon class="cls-1" points="66.92 393.66 71.12 399.05 78.55 393.27 74.35 387.88 69.5 381.65 68.56 380.45 63.01 384.78 50.04 394.89 55.82 402.31 66.92 393.66"/>
    </g>
  </g>
</svg>
