<svg xmlns="http://www.w3.org/2000/svg" width="144.07" height="358.37" viewBox="0 0 144.07 358.37">
  <defs>
    <style>
      .cls-1 {
        fill: #afcf5a;
      }
    </style>
  </defs>
  <title>PlaceCal</title>
  <g id="Layer_1" data-name="Layer 1">
    <g>
      <polygon class="cls-1" points="61.57 63.02 64.82 61.58 68.58 59.92 69.3 59.6 67.82 56.24 64.36 48.42 59.88 50.4 62.84 57.1 59.59 58.54 61.57 63.02"/>
      <polygon class="cls-1" points="79.8 327.68 77.32 332.73 74.46 338.56 73.91 339.68 79.11 342.24 91.26 348.19 94.67 341.24 84.27 336.14 86.75 331.09 79.8 327.68"/>
      <polygon class="cls-1" points="126.84 173.3 120.58 177.86 123.89 182.41 127.71 187.66 128.44 188.67 133.13 185.26 144.07 177.3 139.51 171.03 130.15 177.85 126.84 173.3"/>
      <path class="cls-1" d="M118.49,324.44a41.64,41.64,0,0,0-52.87-25.93C33.15,309.62,19.47,353.34,18,358.37H64.24a25.14,25.14,0,0,1-9.07-12.28h0A25.28,25.28,0,0,1,70.91,314h0a25.28,25.28,0,0,1,23,44.38h21.39a41.52,41.52,0,0,0,3.14-33.93Z"/>
      <path class="cls-1" d="M144.07,203.78a25.24,25.24,0,0,1-18.71,4.46h0a25.29,25.29,0,1,1,18.71-45.5V144.32a41.75,41.75,0,0,0-8.29-2.19h0a41.64,41.64,0,0,0-47.61,34.64h0c-5.68,36,31,70.41,31,70.41a128.21,128.21,0,0,0,24.86-16.37Z"/>
      <path class="cls-1" d="M62.37,121.53h0a17.15,17.15,0,0,0-20.12,13.54h0C39.37,149.8,54,164.52,54,164.52S73,156.37,75.91,141.65a17.14,17.14,0,0,0-13.54-20.12Zm6.94,18.82h0a10.41,10.41,0,0,1-12.21,8.23h0a10.41,10.41,0,1,1,4-20.44h0A10.42,10.42,0,0,1,69.31,140.35Z"/>
      <polygon class="cls-1" points="58.22 134.22 55.58 136 56.87 137.93 58.37 140.15 58.66 140.57 60.64 139.24 65.25 136.13 63.47 133.48 59.52 136.14 58.22 134.22"/>
      <path class="cls-1" d="M56.58,82.92c21.5,8.3,47.68-9.82,47.68-9.82s-7.2-31-28.69-39.32A26.34,26.34,0,0,0,41.5,48.85h0A26.35,26.35,0,0,0,56.58,82.92ZM51.15,52.58A16,16,0,1,1,60.3,73.27,16,16,0,0,1,51.15,52.58Z"/>
    </g>
  </g>
</svg>
