<svg xmlns="http://www.w3.org/2000/svg" width="170.78" height="213.52" viewBox="0 0 170.78 213.52">
  <defs>
    <style>
      .cls-1 {
        fill: #fffbef;
      }
    </style>
  </defs>
  <title>PlaceCal</title>
  <g id="Layer_1" data-name="Layer 1">
    <g>
      <path class="cls-1" d="M134.35,178h0a20.83,20.83,0,0,0-25.08,15.47c-1.64,6.94,0,14,2.52,20H144.7a27.55,27.55,0,0,0,5.12-10.42A20.84,20.84,0,0,0,134.35,178Zm7.51,23.2h0a12.66,12.66,0,0,1-15.24,9.4h0A12.66,12.66,0,0,1,132.45,186h0A12.66,12.66,0,0,1,141.86,201.22Z"/>
      <path class="cls-1" d="M83.46,159.48a32,32,0,0,0-53.39-35.33h0c-15.45,23.36-.76,59.15-.76,59.15S68,182.84,83.46,159.48Zm-42.9-28.39A19.43,19.43,0,0,1,73,152.54h0a19.43,19.43,0,1,1-32.41-21.45Z"/>
      <polygon class="cls-1" points="130.17 195.64 128.69 193.25 125.39 195.28 126.87 197.68 128.58 200.45 128.91 200.98 131.38 199.46 137.14 195.9 135.1 192.6 130.17 195.64"/>
      <polygon class="cls-1" points="165 94.69 152.04 104.8 157.82 112.22 168.92 103.57 170.78 105.95 170.78 90.64 170.56 90.36 165 94.69"/>
      <path class="cls-1" d="M170.78,147.55V127.68a31.29,31.29,0,0,1-4.82-.22,30.73,30.73,0,0,1-26.71-34.28h0a30.73,30.73,0,0,1,31.53-26.92V24c-15.59,9.92-47.17,33.82-51.25,66.73a50.57,50.57,0,0,0,51.25,56.82Z"/>
      <polygon class="cls-1" points="54.25 144.39 54.45 145.33 58.81 144.44 69 142.36 67.81 136.53 59.09 138.31 58.23 134.07 52.39 135.26 53.25 139.49 54.25 144.39"/>
    </g>
  </g>
</svg>
