<svg xmlns="http://www.w3.org/2000/svg" width="256.85" height="150.41" viewBox="0 0 256.85 150.41">
  <defs>
    <style>
      .cls-1 {
        fill: #fffbef;
      }
    </style>
  </defs>
  <title>PlaceCal</title>
  <g id="Layer_1" data-name="Layer 1">
    <g>
      <polygon class="cls-1" points="18.67 82.18 25.47 81.48 33.32 80.68 34.83 80.53 34.12 73.52 32.44 57.16 23.08 58.12 24.51 72.12 17.71 72.81 18.67 82.18"/>
      <path class="cls-1" d="M90.64,126s5.31-60.93-29-88.9A50.62,50.62,0,0,0,0,35.33v33A30.73,30.73,0,0,1,49.07,52.5h0A30.73,30.73,0,1,1,0,84.29v33C34.57,142.75,90.64,126,90.64,126Z"/>
      <polygon class="cls-1" points="212.92 98.05 209.13 98.86 210.34 104.53 207.59 105.12 208.41 108.91 211.16 108.32 214.34 107.64 214.95 107.51 214.34 104.67 212.92 98.05"/>
      <polygon class="cls-1" points="123.84 34.67 127.41 37.1 130.76 32.17 127.18 29.75 123.05 26.94 122.26 26.4 119.76 30.09 113.91 38.69 118.84 42.04 123.84 34.67"/>
      <path class="cls-1" d="M91.61,36.55A32,32,0,0,0,129.06,62h0a32,32,0,0,0,25.42-37.45h0c-1.86-9.75-7.54-18-14.08-24.52H100C94.09,10.14,89.08,23.32,91.61,36.55ZM119.4,11.44a19.45,19.45,0,0,1,22.74,15.44h0A19.44,19.44,0,1,1,104,34.19h0A19.44,19.44,0,0,1,119.4,11.44Z"/>
      <path class="cls-1" d="M224,88.52a20.84,20.84,0,0,0-28.81,6.18h0a20.84,20.84,0,0,0,6.18,28.82c15.31,9.9,38.52.09,38.52.09S239.28,98.42,224,88.52Zm-.69,24.37a12.65,12.65,0,1,1-3.75-17.5h0A12.65,12.65,0,0,1,223.27,112.89Z"/>
    </g>
  </g>
</svg>
