<svg xmlns="http://www.w3.org/2000/svg" width="180" height="414" viewBox="0 0 180 414">
  <defs>
    <style>
      .cls-1 {
        fill: #afcf5a;
      }
    </style>
  </defs>
  <title>PlaceCal</title>
  <g id="Layer_1" data-name="Layer 1">
    <g>
      <polygon class="cls-1" points="118.51 173.75 113.69 172.89 113.06 176.39 112.34 180.44 112.2 181.21 115.81 181.86 124.24 183.36 125.1 178.54 117.89 177.25 118.51 173.75"/>
      <path class="cls-1" d="M125.83,269.58a17.15,17.15,0,1,0,7.91-33.37c-14.61-3.46-29.89,10.54-29.89,10.54S111.23,266.12,125.83,269.58Zm-6.18-19.09A10.42,10.42,0,1,1,127.38,263,10.41,10.41,0,0,1,119.65,250.49Z"/>
      <polygon class="cls-1" points="149.56 354.41 148.98 348.82 141.28 349.61 141.85 355.2 142.51 361.66 142.64 362.9 148.4 362.32 161.86 360.94 161.07 353.24 149.56 354.41"/>
      <path class="cls-1" d="M136.65,164.17A26.34,26.34,0,0,0,100,157.63c-18.91,13.18-18.52,45-18.52,45s29.74,11.38,48.65-1.8A26.34,26.34,0,0,0,136.65,164.17Zm-12.46,28.18a16,16,0,1,1,4-22.27A16,16,0,0,1,124.19,192.35Z"/>
      <polygon class="cls-1" points="32.31 314.3 36.37 317.05 38.37 314.11 40.67 310.71 41.12 310.05 38.08 307.99 31 303.19 28.25 307.24 34.31 311.35 32.31 314.3"/>
      <polygon class="cls-1" points="131.77 259.15 134.48 257.47 131.98 253.41 133.95 252.2 132.27 249.48 130.3 250.7 128.03 252.1 127.59 252.37 128.84 254.41 131.77 259.15"/>
      <path class="cls-1" d="M180,382.81V334.49a41.65,41.65,0,0,0-66.19-2.13c-23,28.25-8.59,76.47-8.59,76.47s50.15,4.37,73.16-23.87C179,384.26,179.48,383.54,180,382.81Zm-14.3-8.18a25.29,25.29,0,1,1-3.63-35.58A25.28,25.28,0,0,1,165.7,374.63Z"/>
      <polygon class="cls-1" points="122.4 64.34 117.19 62.24 114.29 69.42 119.5 71.53 125.52 73.96 126.68 74.43 128.85 69.05 133.92 56.51 126.74 53.61 122.4 64.34"/>
      <path class="cls-1" d="M35.09,52.44a17.16,17.16,0,0,0-9.91,22.14c5.36,14,25.54,18.78,25.54,18.78s11.86-17,6.51-31A17.15,17.15,0,0,0,35.09,52.44Zm9.83,25.75a10.42,10.42,0,1,1,6-13.45A10.41,10.41,0,0,1,44.92,78.19Z"/>
      <polygon class="cls-1" points="40.4 66.35 38.29 65.4 36.98 68.32 39.1 69.26 41.54 70.35 42.01 70.56 42.99 68.38 45.26 63.3 42.35 61.99 40.4 66.35"/>
      <path class="cls-1" d="M42.66,336.57C65.3,332.24,77.92,303,77.92,303S55.4,280.5,32.77,284.83a26.34,26.34,0,1,0,9.89,51.74ZM34.71,295A16,16,0,1,1,22,313.71,16,16,0,0,1,34.71,295Z"/>
      <path class="cls-1" d="M162.87,53.12A41.64,41.64,0,0,0,86.21,85.65C100.45,119.19,149.83,129,149.83,129S177.1,86.65,162.87,53.12ZM134.42,92.66a25.29,25.29,0,1,1,13.4-33.15A25.28,25.28,0,0,1,134.42,92.66Z"/>
    </g>
  </g>
</svg>
