<svg xmlns="http://www.w3.org/2000/svg" width="233" height="516" viewBox="0 0 233 516">
  <defs>
    <style>
      .cls-1 {
        fill: #afcf5a;
      }
    </style>
  </defs>
  <title>PlaceCal</title>
  <g id="Layer_1" data-name="Layer 1">
    <g>
      <path class="cls-1" d="M211.76,216.66s-22.94-44.8-59.09-49.29A41.64,41.64,0,0,0,142.41,250C178.56,254.5,211.76,216.66,211.76,216.66Zm-39.13-4.86a25.29,25.29,0,1,1-22-28.2A25.29,25.29,0,0,1,172.63,211.8Z"/>
      <path class="cls-1" d="M221.89,395a17.15,17.15,0,0,0-23.71,5.09c-8.15,12.6-.07,31.69-.07,31.69s20.72-.46,28.87-13.07A17.13,17.13,0,0,0,221.89,395Zm-.56,20.06a10.41,10.41,0,1,1-3.09-14.4A10.42,10.42,0,0,1,221.33,415.09Z"/>
      <polygon class="cls-1" points="126.25 310.05 132.31 314.17 130.31 317.11 134.37 319.86 136.36 316.92 138.67 313.52 139.11 312.87 136.08 310.81 129 306 126.25 310.05"/>
      <polygon class="cls-1" points="7.72 165.97 5.78 171.24 3.53 177.34 3.1 178.51 8.54 180.52 21.23 185.2 23.91 177.93 13.04 173.92 14.99 168.65 7.72 165.97"/>
      <path class="cls-1" d="M25.51,214A41.64,41.64,0,0,0,0,135.37v16.88a25.29,25.29,0,1,1,0,47.92V218.8A56.75,56.75,0,0,0,25.51,214Z"/>
      <path class="cls-1" d="M130.76,287.65a26.34,26.34,0,1,0,9.9,51.74c22.64-4.33,35.26-33.56,35.26-33.56S153.4,283.32,130.76,287.65Zm20.66,22.86a16,16,0,1,1-18.71-12.7A16,16,0,0,1,151.42,310.51Z"/>
      <polygon class="cls-1" points="141.09 194.12 134.99 198.88 142.1 208.01 137.67 211.47 142.43 217.58 146.86 214.12 151.99 210.13 152.97 209.36 149.41 204.79 141.09 194.12"/>
      <polygon class="cls-1" points="213.81 407.54 213.32 405.27 210.2 405.94 210.69 408.21 211.25 410.82 211.36 411.33 213.69 410.82 219.14 409.66 218.47 406.54 213.81 407.54"/>
      <path class="cls-1" d="M74.92,70.3S57.09,80.88,56.16,95.85A17.15,17.15,0,0,0,90.4,98C91.32,83,74.92,70.3,74.92,70.3Zm8.76,27.25a10.41,10.41,0,1,1-9.76-11A10.42,10.42,0,0,1,83.68,97.55Z"/>
      <path class="cls-1" d="M64.16,301.76A26.34,26.34,0,0,0,34,258.55c-18.9,13.18-18.51,45-18.51,45S45.25,314.94,64.16,301.76ZM40,267a16,16,0,1,1-4,22.27A16,16,0,0,1,40,267Z"/>
      <polygon class="cls-1" points="123.53 31.99 120.04 32.7 116.02 33.52 115.24 33.68 115.97 37.27 117.68 45.66 122.48 44.68 121.02 37.5 124.5 36.79 123.53 31.99"/>
      <path class="cls-1" d="M140.09,50.13a26.33,26.33,0,0,0-7.42-36.5C113.45.91,84,13,84,13s.39,31.84,19.6,44.56A26.34,26.34,0,0,0,140.09,50.13Zm-30.79-1.2a16,16,0,1,1,22.17-4.51A16,16,0,0,1,109.3,48.93Z"/>
      <polygon class="cls-1" points="58.29 284.28 59.15 279.46 51.94 278.17 52.56 274.67 47.74 273.81 47.12 277.31 46.39 281.36 46.25 282.13 49.86 282.78 58.29 284.28"/>
      <polygon class="cls-1" points="56.17 388 53.13 395.13 58.3 397.33 64.28 399.88 65.42 400.38 67.7 395.04 73.02 382.6 65.89 379.56 61.34 390.21 56.17 388"/>
      <path class="cls-1" d="M47.87,356.65A41.64,41.64,0,0,0,24.74,410.8c13.58,33.81,62.75,44.55,62.75,44.55S115.6,413.59,102,379.78A41.64,41.64,0,0,0,47.87,356.65Zm39,29.22a25.29,25.29,0,1,1-32.89-14A25.29,25.29,0,0,1,86.85,385.87Z"/>
      <polygon class="cls-1" points="73.76 95.04 73.42 94.66 71.63 96.24 67.46 99.93 69.57 102.32 73.14 99.16 74.68 100.89 77.07 98.78 75.53 97.05 73.76 95.04"/>
    </g>
  </g>
</svg>
