<svg id="Layer_1" data-name="Layer 1" xmlns="http://www.w3.org/2000/svg" viewBox="0 0 100 100" fill="#5b4e46"><path d="M50,0a50,50,0,1,0,50,50A50,50,0,0,0,50,0ZM25.66,36.17A7.57,7.57,0,0,1,33,31.5H67A7.68,7.68,0,0,1,74.27,36,1.36,1.36,0,0,1,74,37.9a1.2,1.2,0,0,1-.41.2L51,49.85a1.89,1.89,0,0,1-1.87,0L26.29,38a1.19,1.19,0,0,1-.8-1.48A1.14,1.14,0,0,1,25.66,36.17Zm49.2,25.89a7.61,7.61,0,0,1-7.64,6.44H32.93a7.72,7.72,0,0,1-7.63-5.73,7.91,7.91,0,0,1-.28-2V44.44c0-1.41.88-1.93,2.15-1.28q10.65,5.54,21.28,11.1a3.07,3.07,0,0,0,3.15,0q10.57-5.55,21.19-11a2.53,2.53,0,0,1,.64-.26A1.2,1.2,0,0,1,75,44.27V58.4A22.37,22.37,0,0,1,74.86,62.06Z"/></svg>