        <svg id="Group_388" data-name="Group 388" xmlns="http://www.w3.org/2000/svg" xmlns:xlink="http://www.w3.org/1999/xlink" width="27.163" height="27.162" viewBox="0 0 27.163 27.162">
          <desc>Instagram</desc>
          <defs>
            <clipPath>
              <rect id="Rectangle_320" data-name="Rectangle 320" width="27.163" height="27.162"/>
            </clipPath>
          </defs>
          <g id="Group_388-2" data-name="Group 388" clip-path="url(#clip-path)"  fill="#5b4e46">
            <path id="Path_5020" data-name="Path 5020" d="M13.576,9.051a4.53,4.53,0,1,0,4.53,4.53,4.542,4.542,0,0,0-4.53-4.53m13.586,4.53c0-1.878.016-3.735-.09-5.607a8.069,8.069,0,0,0-2.191-5.692A8.069,8.069,0,0,0,19.188.091C17.311-.015,15.454,0,13.581,0S9.847-.015,7.974.091A8.069,8.069,0,0,0,2.282,2.282,8.069,8.069,0,0,0,.091,7.974C-.015,9.852,0,11.709,0,13.581s-.016,3.735.09,5.607a8.069,8.069,0,0,0,2.191,5.692,8.069,8.069,0,0,0,5.692,2.191c1.878.106,3.735.09,5.607.09s3.735.016,5.607-.09a8.061,8.061,0,0,0,5.692-2.191,8.069,8.069,0,0,0,2.191-5.692c.111-1.873.09-3.729.09-5.607M13.576,20.552a6.971,6.971,0,1,1,6.971-6.971,6.962,6.962,0,0,1-6.971,6.971m7.257-12.6a1.629,1.629,0,1,1,1.629-1.629,1.626,1.626,0,0,1-1.629,1.629" transform="translate(0 0)" />
          </g>
        </svg> 

