<!-- Shape: Group -->
<svg xmlns:xlink="http://www.w3.org/1999/xlink" fill="none" width="37.5" xmlns="http://www.w3.org/2000/svg" style="-webkit-print-color-adjust:exact" id="screenshot-f314f3b7-a03f-80c7-8004-0a970964f00a" version="1.1" viewBox="655 763 37.5 37" height="37">
  <g id="shape-f314f3b7-a03f-80c7-8004-0a970964f00a" rx="0" ry="0">
    <g id="shape-f314f3b7-a03f-80c7-8004-0a96f79bed8b" style="fill:#000000" xmlns:xlink="http://www.w3.org/1999/xlink" width="27.163" height="27.162" rx="0" ry="0">
      <g id="shape-f314f3b7-a03f-80c7-8004-0a96f79c84bf">
        <desc rx="0" ry="0" style="fill:#000000">Instagram</desc>
      </g>
      <g id="shape-f314f3b7-a03f-80c7-8004-0a96f79ce464">
        <defs rx="0" ry="0" style="fill:#000000">
        </defs>
      </g>
      <g id="shape-f314f3b7-a03f-80c7-8004-0a96f79d33d8" style="fill:#000000" clip-path="url(#clip-path)" rx="0" ry="0">
        <g id="shape-f314f3b7-a03f-80c7-8004-0a9716bca163">
          <g class="fills" id="fills-f314f3b7-a03f-80c7-8004-0a9716bca163">
            <path rx="0" ry="0" style="fill:#5b4e46" d="M673.750,763.000C684.098,763.000,692.500,771.290,692.500,781.500C692.500,791.710,684.098,800.000,673.750,800.000C663.402,800.000,655.000,791.710,655.000,781.500C655.000,771.290,663.402,763.000,673.750,763.000ZM673.576,777.051C671.074,777.051,669.046,779.079,669.046,781.581C669.046,784.083,671.074,786.111,673.576,786.111C676.078,786.111,678.106,784.083,678.106,781.581C678.099,779.082,676.075,777.058,673.576,777.051ZM687.162,781.581C687.162,779.703,687.178,777.846,687.072,775.974C687.114,773.863,686.328,771.820,684.881,770.282C683.343,768.835,681.299,768.048,679.188,768.091C677.311,767.985,675.454,768.000,673.581,768.000C671.708,768.000,669.847,767.985,667.974,768.091C665.863,768.049,663.820,768.835,662.282,770.282C660.835,771.820,660.049,773.863,660.091,775.974C659.985,777.852,660.000,779.709,660.000,781.581C660.000,783.453,659.984,785.316,660.090,787.188C660.048,789.299,660.834,791.342,662.281,792.880C663.819,794.327,665.862,795.113,667.973,795.071C669.851,795.177,671.708,795.161,673.580,795.161C675.452,795.161,677.315,795.177,679.187,795.071C681.298,795.114,683.342,794.328,684.879,792.880C686.326,791.342,687.112,789.299,687.070,787.188C687.181,785.315,687.160,783.459,687.162,781.581ZM673.576,788.552C669.726,788.552,666.605,785.431,666.605,781.581C666.605,777.731,669.726,774.610,673.576,774.610C677.426,774.610,680.547,777.731,680.547,781.581C680.549,783.431,679.816,785.205,678.508,786.513C677.200,787.821,675.426,788.554,673.576,788.552ZM680.833,775.952C679.933,775.952,679.204,775.223,679.204,774.323C679.204,773.423,679.933,772.694,680.833,772.694C681.733,772.694,682.462,773.423,682.462,774.323C682.463,774.755,682.291,775.170,681.986,775.476C681.680,775.781,681.265,775.953,680.833,775.952Z">
            </path>
          </g>
        </g>
      </g>
    </g>
  </g>
</svg>
