<svg id="Layer_1" data-name="Layer 1" xmlns="http://www.w3.org/2000/svg" viewBox="0 0 100 100" fill="#5b4e46"><path d="M49.7,0A49.85,49.85,0,0,0,0,49.36,48.94,48.94,0,0,0,14.36,84.59a49.13,49.13,0,0,0,35,14.8h.33A49.84,49.84,0,0,0,99.39,50C99.62,22.64,77.42.22,49.7,0ZM73.77,66.26l-2.1,2.1-.11.11C67.92,72.11,64.83,73,60,71.56a40.6,40.6,0,0,1-13.7-7.62C40.42,59.19,34.13,53,30,46.6,26,40,24.63,33,30.37,27.28l.11-.11,2.1-2.1a4.12,4.12,0,0,1,5.74,0l6.52,6.51a4.16,4.16,0,0,1,0,5.75L41,41.19l.11.11A58.38,58.38,0,0,0,57.54,57.76l.11.11L61.51,54a4.16,4.16,0,0,1,5.75,0l6.51,6.52A3.93,3.93,0,0,1,73.77,66.26Z"/></svg>