<?xml version="1.0" encoding="UTF-8" standalone="no"?>
<svg width="12px" height="22px" viewBox="0 0 12 22" version="1.1" xmlns="http://www.w3.org/2000/svg" xmlns:xlink="http://www.w3.org/1999/xlink">
    <!-- Generator: Sketch 47 (45396) - http://www.bohemiancoding.com/sketch -->
    <title>icon/question-mark</title>
    <desc>Created with Sketch.</desc>
    <defs></defs>
    <g id="Symbols" stroke="none" stroke-width="1" fill="none" fill-rule="evenodd">
        <g id="icon/question-mark" fill="#AFCF5A">
            <path d="M4.126,21.196 C3.813,21.012 3.565,20.764 3.381,20.451 C3.197,20.138 3.105,19.802 3.105,19.444 C3.105,19.067 3.197,18.721 3.381,18.408 C3.565,18.096 3.813,17.847 4.126,17.663 C4.438,17.48 4.779,17.387 5.147,17.387 C5.506,17.387 5.844,17.482 6.161,17.67 C6.479,17.859 6.732,18.11 6.92,18.423 C7.109,18.735 7.203,19.076 7.203,19.444 C7.203,19.802 7.109,20.138 6.92,20.451 C6.732,20.764 6.479,21.012 6.161,21.196 C5.844,21.38 5.506,21.472 5.147,21.472 C4.779,21.472 4.438,21.38 4.126,21.196 M5.133,12.986 C5.391,12.157 5.727,11.426 6.141,10.791 C6.444,10.304 6.826,9.734 7.286,9.08 C8.215,7.756 8.68,6.491 8.68,5.285 C8.68,4.66 8.585,4.094 8.397,3.588 C8.208,3.082 7.948,2.673 7.617,2.36 C6.946,1.744 6.168,1.436 5.285,1.436 C4.641,1.436 4.052,1.596 3.519,1.919 C2.985,2.24 2.594,2.682 2.346,3.243 C2.705,3.243 3.054,3.317 3.395,3.464 C3.809,3.639 4.098,3.915 4.264,4.292 C4.356,4.504 4.402,4.747 4.402,5.023 C4.402,5.621 4.216,6.112 3.843,6.493 C3.47,6.875 2.99,7.066 2.401,7.066 C1.941,7.066 1.527,6.962 1.159,6.755 C0.791,6.548 0.506,6.277 0.303,5.941 C0.101,5.605 0,5.254 0,4.885 C0,3.892 0.283,3.015 0.849,2.257 C1.414,1.498 2.171,0.93 3.119,0.552 C4.029,0.185 5.041,0 6.154,0 C7.111,0 8.031,0.24 8.914,0.718 C9.466,1.012 9.933,1.369 10.315,1.787 C10.697,2.206 11.012,2.738 11.26,3.381 C11.518,4.062 11.647,4.835 11.647,5.699 C11.647,6.564 11.485,7.388 11.164,8.17 C10.841,8.951 10.405,9.655 9.853,10.281 C9.383,10.805 8.85,11.362 8.252,11.95 C6.844,13.321 5.98,14.536 5.658,15.593 L4.747,15.593 C4.747,14.683 4.876,13.813 5.133,12.986" id="Fill-1-Copy"></path>
        </g>
    </g>
</svg>