<?xml version="1.0" encoding="UTF-8" standalone="no"?>
<svg width="217px" height="217px" viewBox="0 0 217 217" version="1.1" xmlns="http://www.w3.org/2000/svg" xmlns:xlink="http://www.w3.org/1999/xlink">
    <!-- Generator: Sketch 49.1 (51147) - http://www.bohemiancoding.com/sketch -->
    <title>icons/roundel</title>
    <desc>Created with Sketch.</desc>
    <defs></defs>
    <g id="icons/roundel" stroke="none" stroke-width="1" fill="none" fill-rule="evenodd">
        <path d="M204.414946,89.43445 C210.063004,83.6771904 212.048327,74.8909247 208.766904,66.9746927 C205.485481,59.0638312 197.873583,54.2625345 189.819506,54.1819758 C192.819869,46.7150821 191.294625,37.8482578 185.241984,31.7974065 C179.191133,25.7465553 170.33147,24.2159405 162.864576,27.2091427 C162.784018,19.1550658 157.988092,11.537796 150.077231,8.25637281 C142.16637,4.96778886 133.380105,6.95490273 127.617475,12.5904293 C124.455995,5.19335313 117.116205,0.00537474959 108.560875,4.17155487e-06 C100.005545,-0.00536640648 92.6585942,5.17545121 89.486373,12.5743176 C83.7344842,6.92625965 74.9553799,4.9337752 67.0337777,8.2098278 C59.1229167,11.4858804 54.3162496,19.0977797 54.2285302,27.1518565 C46.761637,24.146123 37.8948131,25.6659966 31.8385917,31.7168479 C25.7877407,37.7623286 24.2499653,46.6237823 27.2377967,54.0960466 C19.1837203,54.1640739 11.5664509,58.9600001 8.27965735,66.8654909 C4.99286378,74.781723 6.96744619,83.5679886 12.6029724,89.3252483 C5.19873593,92.4849384 0.00717745817,99.821148 1.66878617e-05,108.376479 L1.66878617e-05,108.381849 C-0.0107244676,116.93718 5.16472227,124.289502 12.5635882,127.456352 C6.91553061,133.208241 4.91767569,141.992717 8.18656734,149.908949 C11.4572492,157.825181 19.069148,162.633639 27.1232244,162.724938 C24.1174911,170.191832 25.631994,179.058656 31.6721037,185.114878 C37.7175841,191.17289 46.5772471,192.716036 54.0495109,189.726415 C54.1193285,197.787652 58.9045132,205.404922 66.813584,208.697086 C74.7190744,211.991041 83.5107102,210.021829 89.2733401,204.384512 C92.4294496,211.788749 99.7638686,216.989259 108.319199,217 L108.353213,217 C116.897802,217 124.232221,211.835294 127.404442,204.448959 C133.15096,210.102388 141.935435,212.105613 149.851667,208.836721 C157.775059,205.57141 162.587097,197.966671 162.680187,189.905434 C170.14708,192.921908 179.013904,191.407405 185.075496,185.369086 C191.138878,179.328975 192.682024,170.474682 189.699563,162.995257 C197.75364,162.932601 205.37628,158.149206 208.675605,150.243715 C211.974929,142.338224 210.005718,133.546588 204.373772,127.778587 C211.783379,124.635009 216.982098,117.300589 217,108.745258 L217,108.714825 L217,108.503582 C217,99.9410909 211.819183,92.6013009 204.414946,89.43445 M108.501799,192.205831 C62.2718654,192.205831 24.7959741,154.729938 24.7959741,108.500002 C24.7959741,62.2718565 62.2718654,24.7941728 108.501799,24.7941728 C154.731732,24.7941728 192.207623,62.2718565 192.207623,108.500002 C192.207623,154.729938 154.731732,192.205831 108.501799,192.205831" id="Fill-1-Copy-3" fill="#AFCF5A"></path>
    </g>
</svg>