<svg id="Layer_1" data-name="Layer 1" xmlns="http://www.w3.org/2000/svg" viewBox="0 0 100 100" fill="#5b4e46"><path d="M49.7,0a50,50,0,1,0,50,50A50,50,0,0,0,49.7,0ZM76,39.29c0,.56,0,1.12,0,1.69C76,58.19,62.94,78,39,78a36.9,36.9,0,0,1-20-5.85,26.47,26.47,0,0,0,3.1.18,26.1,26.1,0,0,0,16.18-5.58,13,13,0,0,1-12.17-9,13.21,13.21,0,0,0,2.45.23A12.91,12.91,0,0,0,32,57.52,13,13,0,0,1,21.58,44.75v-.16a13,13,0,0,0,5.9,1.63,13,13,0,0,1-5.8-10.84,12.87,12.87,0,0,1,1.77-6.55A37,37,0,0,0,50.29,42.44a13.26,13.26,0,0,1-.34-3,13,13,0,0,1,22.53-8.91,26.37,26.37,0,0,0,8.27-3.16A13.08,13.08,0,0,1,75,34.6a25.66,25.66,0,0,0,7.48-2.05A26.2,26.2,0,0,1,76,39.29Z"/></svg>