<svg id="Layer_1" data-name="Layer 1" xmlns="http://www.w3.org/2000/svg" viewBox="0 0 100 100" fill="#5b4e46"><path d="M67.35,32.2a25,25,0,0,0-6.3-4.45A28.65,28.65,0,0,1,64,33.64,31.14,31.14,0,0,0,67.35,32.2Z"/><path d="M37.7,48.28H48.37v-9a45.45,45.45,0,0,1-9.15-1.32A45.59,45.59,0,0,0,37.7,48.28Z"/><path d="M39,61.25a44.45,44.45,0,0,1,9.35-1.39V51.72H37.7A45.74,45.74,0,0,0,39,61.25Z"/><path d="M40.29,34.65a41.41,41.41,0,0,0,8.08,1.15V25.25c-.5,0-1,.08-1.48.15C44.25,27,41.94,30.31,40.29,34.65Z"/><path d="M32.5,67.49a25.05,25.05,0,0,0,7.77,5.3,29.57,29.57,0,0,1-3.59-7.23A28.69,28.69,0,0,0,32.5,67.49Z"/><path d="M40.24,27.23a24.87,24.87,0,0,0-7.15,4.71A27.62,27.62,0,0,0,37,33.64,29,29,0,0,1,40.24,27.23Z"/><path d="M35.91,36.91a31.87,31.87,0,0,1-5.21-2.38,24.71,24.71,0,0,0-5.36,13.75h8.92A48.22,48.22,0,0,1,35.91,36.91Z"/><path d="M34.26,51.72H25.34a24.71,24.71,0,0,0,4.88,13.13,30.77,30.77,0,0,1,5.48-2.58A49.31,49.31,0,0,1,34.26,51.72Z"/><path d="M47,74.61c.47.06.94.11,1.42.14V63.3A42,42,0,0,0,40,64.53C41.67,69.3,44.13,72.93,47,74.61Z"/><path d="M65.25,62.26a31,31,0,0,1,4.94,2.26,24.63,24.63,0,0,0,4.65-12.8H66.69A49.21,49.21,0,0,1,65.25,62.26Z"/><path d="M61,72.27a25.21,25.21,0,0,0,6.91-5,28.09,28.09,0,0,0-3.68-1.65A30.22,30.22,0,0,1,61,72.27Z"/><path d="M50.09.3A49.7,49.7,0,1,0,99.78,50,49.7,49.7,0,0,0,50.09.3Zm0,79.67a30,30,0,1,1,30-30A30,30,0,0,1,50.09,80Z"/><path d="M54.3,25.55q-1.23-.21-2.49-.3V35.83a41.81,41.81,0,0,0,8.85-1.19C59.06,30.44,56.84,27.2,54.3,25.55Z"/><path d="M65,36.9a49.36,49.36,0,0,1,1.65,11.38h8.15a24.73,24.73,0,0,0-5.13-13.45A32.5,32.5,0,0,1,65,36.9Z"/><path d="M51.81,74.75c.82-.06,1.64-.15,2.44-.29,2.71-1.74,5.07-5.3,6.69-9.92a41.12,41.12,0,0,0-9.13-1.27Z"/><path d="M61.72,37.91a45.21,45.21,0,0,1-9.91,1.36v9H63.25A45.66,45.66,0,0,0,61.72,37.91Z"/><path d="M63.25,51.72H51.81v8.11a45.6,45.6,0,0,1,10.13,1.39A46,46,0,0,0,63.25,51.72Z"/></svg>