<svg xmlns="http://www.w3.org/2000/svg" width="110.34" height="438" viewBox="0 0 110.34 438">
  <defs>
    <style>
      .cls-1 {
        fill: #afcf5a;
      }
    </style>
  </defs>
  <title>PlaceCal</title>
  <g id="Layer_1" data-name="Layer 1">
    <g>
      <polygon class="cls-1" points="36.25 364.26 37.11 359.43 29.9 358.15 30.52 354.65 25.7 353.79 25.08 357.29 24.35 361.33 24.21 362.11 27.82 362.75 36.25 364.26"/>
      <polygon class="cls-1" points="53.26 152.68 49.74 152.21 49.09 157.07 52.62 157.53 56.69 158.07 57.48 158.17 57.96 154.54 59.08 146.06 54.22 145.41 53.26 152.68"/>
      <polygon class="cls-1" points="12.63 61.24 17.06 57.79 22.19 53.79 23.18 53.03 19.61 48.45 11.3 37.78 5.19 42.54 12.3 51.68 7.87 55.13 12.63 61.24"/>
      <path class="cls-1" d="M39.35,134.52a26.35,26.35,0,0,0-4.89,36.93c14,18.29,45.81,16.47,45.81,16.47s10-30.22-4-48.51A26.34,26.34,0,0,0,39.35,134.52Zm25.75,33.6h0a16,16,0,1,1,3-22.42A16,16,0,0,1,65.1,168.12Z"/>
      <path class="cls-1" d="M12.61,93.67C48.77,98.16,82,60.32,82,60.32S59,15.52,22.87,11A41.44,41.44,0,0,0,0,14.69V34.34a25.28,25.28,0,1,1,0,36V90a41.68,41.68,0,0,0,12.61,3.65Z"/>
      <path class="cls-1" d="M61.83,290.7A17.15,17.15,0,0,0,33,272.07c-8.14,12.6-.07,31.7-.07,31.7S53.68,303.3,61.83,290.7ZM56.17,287a10.42,10.42,0,0,1-14.4,3.09h0A10.41,10.41,0,1,1,56.17,287Z"/>
      <polygon class="cls-1" points="48.65 279.49 48.16 277.23 45.05 277.9 45.53 280.16 46.09 282.78 46.2 283.28 48.53 282.78 53.98 281.61 53.31 278.49 48.65 279.49"/>
      <path class="cls-1" d="M42.12,381.74a26.33,26.33,0,0,0,6.55-36.67h0A26.34,26.34,0,0,0,12,338.52,37.17,37.17,0,0,0,0,353.35v32.18C9.82,388.07,28.7,391.1,42.12,381.74ZM17.91,347a16,16,0,0,1,18.3,26.24h0a16,16,0,0,1-22.27-4h0A16,16,0,0,1,17.91,347Z"/>
    </g>
  </g>
</svg>
