<svg xmlns="http://www.w3.org/2000/svg" width="127.66" height="467" viewBox="0 0 127.66 467">
  <defs>
    <style>
      .cls-1 {
        fill: #afcf5a;
      }
    </style>
  </defs>
  <title>PlaceCal</title>
  <g id="Layer_1" data-name="Layer 1">
    <g>
      <polygon class="cls-1" points="73.98 308.37 67.03 304.96 64.55 310.01 61.69 315.84 61.14 316.96 66.35 319.51 78.5 325.47 81.91 318.52 71.51 313.42 73.98 308.37"/>
      <polygon class="cls-1" points="51.59 25.69 47.1 27.67 50.07 34.37 46.82 35.81 48.8 40.29 52.05 38.85 55.81 37.19 56.53 36.87 55.05 33.52 51.59 25.69"/>
      <path class="cls-1" d="M105.72,301.71h0a41.65,41.65,0,0,0-52.87-25.93C18.38,287.57,5.09,336.12,5.09,336.12s40.23,30.25,74.7,18.46A41.64,41.64,0,0,0,105.72,301.71ZM74.5,339.11a25.29,25.29,0,0,1-32.1-15.75h0a25.28,25.28,0,0,1,15.75-32.1h0A25.28,25.28,0,0,1,74.5,339.11Z"/>
      <polygon class="cls-1" points="117.38 155.12 114.07 150.58 107.81 155.14 111.12 159.68 114.94 164.94 115.67 165.94 120.36 162.53 127.66 157.22 127.66 149.56 126.74 148.31 117.38 155.12"/>
      <path class="cls-1" d="M127.66,183.23a25.26,25.26,0,1,1,0-45.41v-17.4A41.54,41.54,0,0,0,75.4,154.05c-5.68,36,31.05,70.41,31.05,70.41A126.63,126.63,0,0,0,127.66,211Z"/>
      <path class="cls-1" d="M62.8,11.05A26.35,26.35,0,0,0,28.73,26.13h0A26.34,26.34,0,0,0,43.81,60.19c21.5,8.31,47.68-9.81,47.68-9.81S84.29,19.36,62.8,11.05Zm5.42,30.34A16,16,0,1,1,59.07,20.7,16,16,0,0,1,68.22,41.39Z"/>
      <path class="cls-1" d="M49.6,98.8a17.16,17.16,0,0,0-20.12,13.54c-2.87,14.73,11.72,29.45,11.72,29.45s19.07-8.14,21.95-22.87A17.16,17.16,0,0,0,49.6,98.8Zm6.94,18.83h0a10.41,10.41,0,0,1-12.22,8.22h0a10.41,10.41,0,0,1-8.23-12.21h0a10.42,10.42,0,1,1,20.45,4Z"/>
      <polygon class="cls-1" points="45.45 111.5 42.81 113.28 44.1 115.2 45.6 117.42 45.89 117.85 47.87 116.51 52.48 113.4 50.7 110.76 46.75 113.42 45.45 111.5"/>
    </g>
  </g>
</svg>
