<svg xmlns="http://www.w3.org/2000/svg" width="238" height="359" viewBox="0 0 238 359">
  <defs>
    <style>
      .cls-1 {
        fill: #fffbef;
      }
    </style>
  </defs>
  <title>PlaceCal</title>
  <g id="Layer_1" data-name="Layer 1">
    <g>
      <path class="cls-1" d="M0,127.7a16.07,16.07,0,0,1,0,12.91v15.52c.7-.47,1.38-1,2-1.51a26.44,26.44,0,0,0,3.75-37.19A32.15,32.15,0,0,0,0,112Z"/>
      <polygon class="cls-1" points="102.87 148.99 100.24 146.59 96.92 150.22 99.56 152.62 102.6 155.4 103.19 155.94 105.67 153.22 111.46 146.88 107.83 143.56 102.87 148.99"/>
      <path class="cls-1" d="M70.37,244.42h0C74.29,259,94,265.77,94,265.77s13.57-15.77,9.65-30.31a17.2,17.2,0,0,0-21.1-12.13h0A17.21,17.21,0,0,0,70.37,244.42Zm13.88-14.58h0A10.45,10.45,0,1,1,89.7,250h0a10.44,10.44,0,0,1-12.81-7.36h0A10.45,10.45,0,0,1,84.25,229.84Z"/>
      <polygon class="cls-1" points="109.69 353.83 108.55 353.33 106.21 358.66 106.06 359 120.71 359 120.83 358.71 115.67 356.45 109.69 353.83"/>
      <polygon class="cls-1" points="87.11 241.86 87.56 242.12 88.76 240.04 91.55 235.19 88.77 233.59 86.39 237.74 84.37 236.59 82.77 239.36 84.79 240.52 87.11 241.86"/>
      <path class="cls-1" d="M152.33,359a41.57,41.57,0,0,0-2.87-15.76h0C136.16,309.19,86.91,298,86.91,298s-21.12,30.77-18.6,61H85.17a25.39,25.39,0,0,1,16.14-24.19h0a25.38,25.38,0,0,1,32.87,14.4h0a25.31,25.31,0,0,1,1.74,9.79Z"/>
      <path class="cls-1" d="M129.44,151.26a26.43,26.43,0,0,0-27.6-25.2h0a26.44,26.44,0,0,0-25.2,27.6c1.05,23.1,28.27,39.84,28.27,39.84S130.49,174.37,129.44,151.26ZM103.76,168.5a16.05,16.05,0,1,1,15.31-16.76,16.05,16.05,0,0,1-15.31,16.76Z"/>
      <path class="cls-1" d="M203.29,320a17.21,17.21,0,0,0-18.5,15.82h0a17.22,17.22,0,0,0,15.82,18.5h0c15,1.17,28-15.08,28-15.08S218.3,321.16,203.29,320Zm9.08,18h0a10.45,10.45,0,1,1-9.6-11.23A10.46,10.46,0,0,1,212.37,338Z"/>
      <path class="cls-1" d="M39.2,222.46A41.8,41.8,0,0,0,0,184.94v16.45A25.38,25.38,0,0,1,22.87,224.1h0A25.37,25.37,0,0,1,.17,251.9h0l-.17,0v36.87c2.58,1.63,4.15,2.48,4.15,2.48S42.87,258.83,39.2,222.46Z"/>
      <polygon class="cls-1" points="199.01 331.24 196.58 333.32 199.69 336.95 197.93 338.46 200 340.9 201.77 339.39 203.81 337.64 204.2 337.31 202.65 335.49 199.01 331.24"/>
      <polygon class="cls-1" points="62.3 36.11 54.61 37.22 56.26 48.72 50.68 49.52 51.78 57.21 57.37 56.41 63.82 55.48 65.06 55.3 64.23 49.55 62.3 36.11"/>
      <path class="cls-1" d="M85.7,18.56A41.79,41.79,0,0,0,27.21,27h0a41.78,41.78,0,0,0,8.41,58.48h0c29.27,21.91,77,5.47,77,5.47S115,40.47,85.7,18.56ZM81,67.22h0a25.37,25.37,0,0,1-35.51,5.11h0A25.38,25.38,0,0,1,75.87,31.7h0A25.39,25.39,0,0,1,81,67.22Z"/>
      <polygon class="cls-1" points="10.44 217.1 4.42 212.19 0 217.6 0 229.89 1.85 227.62 10.44 217.1"/>
    </g>
  </g>
</svg>
