<svg xmlns="http://www.w3.org/2000/svg" width="148" height="376" viewBox="0 0 148 376">
  <defs>
    <style>
      .cls-1 {
        fill: #fffbef;
      }
    </style>
  </defs>
  <title>PlaceCal</title>
  <g id="Layer_1" data-name="Layer 1">
    <g>
      <path class="cls-1" d="M102.15,149.55a17.21,17.21,0,0,0-20.71,12.78h0C78,177,92,192.33,92,192.33s19.44-7.41,22.91-22.06a17.21,17.21,0,0,0-12.78-20.71Zm6.21,19.16h0A10.45,10.45,0,1,1,88,163.89h0a10.45,10.45,0,0,1,12.57-7.76h0A10.45,10.45,0,0,1,108.36,168.71Z"/>
      <polygon class="cls-1" points="97.49 162.12 94.76 163.8 95.98 165.78 97.39 168.06 97.67 168.5 99.7 167.25 104.46 164.31 102.78 161.59 98.71 164.1 97.49 162.12"/>
      <path class="cls-1" d="M139.38,18.18s-45,23-49.47,59.3a41.78,41.78,0,0,0,36.32,46.61h0A41.62,41.62,0,0,0,148,121V101.79a25.37,25.37,0,1,1-13.5-44.35h0a25.2,25.2,0,0,1,13.49,6V27A110.64,110.64,0,0,0,139.38,18.18Z"/>
      <polygon class="cls-1" points="132.06 77.17 127.47 80.74 116.76 89.09 121.54 95.22 130.71 88.08 134.17 92.53 140.3 87.75 136.84 83.3 132.83 78.16 132.06 77.17"/>
      <polygon class="cls-1" points="145.54 227.22 142.03 226.59 141.17 231.43 144.68 232.06 148 232.65 148 220.19 146.83 219.98 145.54 227.22"/>
      <path class="cls-1" d="M148,322.56v-31a50.07,50.07,0,0,0-3.11-8.93,41.79,41.79,0,0,0-55.44-20.44h0A41.77,41.77,0,0,0,69,317.66h0c15.31,33.2,65.14,41.47,65.14,41.47A128,128,0,0,0,148,322.56Zm-30.43.64A25.37,25.37,0,1,1,130,289.53h0A25.37,25.37,0,0,1,117.57,323.2Z"/>
      <path class="cls-1" d="M134.37,239.25h0a16,16,0,0,1,4-22.35h0A16,16,0,0,1,148,214V203.65a26.32,26.32,0,0,0-15.59,4.74h0a26.43,26.43,0,0,0-6.57,36.8h0c5.41,7.76,14,12.27,22.15,14.91v-14A16,16,0,0,1,134.37,239.25Z"/>
      <polygon class="cls-1" points="36.02 121.78 36.18 122.56 39.78 121.82 48.19 120.11 47.21 115.29 40.01 116.76 39.3 113.26 34.48 114.24 35.2 117.74 36.02 121.78"/>
      <polygon class="cls-1" points="104.64 295.17 99.35 293.22 96.66 300.51 101.95 302.46 108.07 304.71 109.25 305.15 111.26 299.69 115.96 286.96 108.66 284.27 104.64 295.17"/>
      <path class="cls-1" d="M60.13,134.24a26.43,26.43,0,0,0-7.45-36.63h0a26.43,26.43,0,0,0-36.63,7.46c-12.76,19.28-.63,48.84-.63,48.84S47.37,153.53,60.13,134.24ZM24.71,110.79A16,16,0,0,1,47,106.27h0a16.05,16.05,0,0,1,4.53,22.24h0A16.05,16.05,0,0,1,29.24,133h0A16.05,16.05,0,0,1,24.71,110.79Z"/>
    </g>
  </g>
</svg>
