<svg xmlns="http://www.w3.org/2000/svg" width="420.09" height="211.86" viewBox="0 0 420.09 211.86">
  <defs>
    <style>
      .cls-1 {
        fill: #afcf5a;
      }
    </style>
  </defs>
  <title>PlaceCal</title>
  <g id="Layer_1" data-name="Layer 1">
    <g>
      <path class="cls-1" d="M66.9,211.86c-.94-5.46-9.56-50.35-40.52-65.12A41.56,41.56,0,0,0,0,143.52v17a25.34,25.34,0,0,1,19.31,1.05h0a25.38,25.38,0,0,1,12,33.83h0A25.38,25.38,0,0,1,11,209.69a19.85,19.85,0,0,0,9,2.17Z"/>
      <polygon class="cls-1" points="60.09 120.22 62.13 119.1 64.48 117.81 64.93 117.56 63.78 115.46 61.08 110.56 58.28 112.11 60.59 116.3 58.55 117.42 60.09 120.22"/>
      <polygon class="cls-1" points="3.84 64.02 8.56 62.64 7.56 59.22 6.4 55.26 6.18 54.49 2.65 55.53 0 56.3 0 61.43 2.84 60.59 3.84 64.02"/>
      <path class="cls-1" d="M27.7,70.24C38.8,50,24.22,21.51,24.22,21.51A80.8,80.8,0,0,0,0,28.46V42.14A16.05,16.05,0,0,1,18.59,65.25h0A16,16,0,0,1,0,72.94V83.59A26.43,26.43,0,0,0,27.7,70.24Z"/>
      <polygon class="cls-1" points="235.27 204.36 238.79 203.83 242.87 203.21 243.65 203.09 243.1 199.45 241.81 190.96 236.95 191.7 238.06 198.97 234.53 199.5 235.27 204.36"/>
      <polygon class="cls-1" points="13.35 186.82 11.4 181.33 6.88 168.53 0 170.97 0 172.41 3.42 182.08 0 183.29 0 189.31 0.7 191.29 6.02 189.41 12.16 187.23 13.35 186.82"/>
      <path class="cls-1" d="M253.78,210.54a14.16,14.16,0,0,1-1.09,1.32H273c-1.61-10.39-5.76-24.25-16.45-32.12a26.42,26.42,0,0,0-36.95,5.62h0a26.4,26.4,0,0,0-2.82,26.5H229a16,16,0,0,1,21.35-23.76h0a16,16,0,0,1,3.41,22.44Z"/>
      <polygon class="cls-1" points="311.2 149.49 308.15 156.63 318.84 161.19 316.63 166.38 323.78 169.43 325.99 164.24 328.55 158.24 329.04 157.09 323.69 154.81 311.2 149.49"/>
      <path class="cls-1" d="M308.35,120.38a41.78,41.78,0,0,0-23.17,54.35h0a41.78,41.78,0,0,0,54.35,23.18c33.92-13.65,44.66-63,44.66-63S342.27,106.74,308.35,120.38Zm39.14,29.29a25.38,25.38,0,1,1-33-14.07h0A25.37,25.37,0,0,1,347.49,149.67Z"/>
      <path class="cls-1" d="M268.61,100.17c8.8-12.22,1.65-31.76,1.65-31.76s-20.8-.57-29.59,11.65a17.2,17.2,0,0,0,3.92,24h0A17.2,17.2,0,0,0,268.61,100.17ZM246.16,84h0a10.45,10.45,0,0,1,14.58-2.38h0A10.45,10.45,0,1,1,246.16,84Z"/>
      <path class="cls-1" d="M88.44,124.39s-6.43-19.79-20.89-24A17.21,17.21,0,0,0,58,133.46C72.42,137.66,88.44,124.39,88.44,124.39ZM52.72,114a10.45,10.45,0,1,1,7.12,13h0A10.45,10.45,0,0,1,52.72,114Z"/>
      <polygon class="cls-1" points="253.32 91.95 253.69 94.25 256.85 93.73 256.48 91.44 256.05 88.79 255.96 88.28 253.6 88.66 248.08 89.56 248.59 92.72 253.32 91.95"/>
      <polygon class="cls-1" points="171.82 124.7 171.5 119.07 163.74 119.51 164.06 125.14 164.43 131.65 164.5 132.9 170.3 132.57 183.86 131.8 183.42 124.04 171.82 124.7"/>
      <path class="cls-1" d="M137,101h0c-24.35,27.27-12.08,76.27-12.08,76.27s50.06,6.66,74.41-20.61a41.78,41.78,0,0,0-3.34-59h0A41.78,41.78,0,0,0,137,101Zm50.09,44.73h0a25.37,25.37,0,1,1-37.85-33.8h0a25.37,25.37,0,1,1,37.85,33.8Z"/>
    </g>
  </g>
</svg>
