<svg xmlns="http://www.w3.org/2000/svg" width="190.85" height="113.41" viewBox="0 0 190.85 113.41">
  <defs>
    <style>
      .cls-1 {
        fill: #fffbef;
      }
    </style>
  </defs>
  <title>PlaceCal</title>
  <g id="Layer_1" data-name="Layer 1">
    <g>
      <path class="cls-1" d="M60,91.05S63.87,46.81,39,26.51A36.73,36.73,0,0,0,0,21.79V39.18a22.32,22.32,0,0,1,29.84-1.49h0A22.31,22.31,0,0,1,1.66,72.28,19.77,19.77,0,0,1,0,70.79V88.36C25.1,101.49,60,91.05,60,91.05Z"/>
      <polygon class="cls-1" points="148.79 70.76 146.04 71.35 146.92 75.47 144.92 75.9 145.51 78.65 147.51 78.22 149.82 77.72 150.26 77.62 149.82 75.56 148.79 70.76"/>
      <polygon class="cls-1" points="7.76 59.24 12.69 58.74 18.39 58.15 19.5 58.04 18.98 52.95 17.76 41.08 10.96 41.77 12 51.94 7.07 52.44 7.76 59.24"/>
      <path class="cls-1" d="M60.72,26.11a23.24,23.24,0,1,0,45.65-8.73c-1.32-6.87-5.23-12.69-9.8-17.38h-30C62.38,7.3,58.91,16.69,60.72,26.11ZM80.89,7.89h0A14.1,14.1,0,0,1,97.4,19.09h0A14.11,14.11,0,0,1,86.2,35.61h0A14.12,14.12,0,0,1,69.68,24.4h0A14.1,14.1,0,0,1,80.89,7.89Z"/>
      <path class="cls-1" d="M156.81,63.84a15.12,15.12,0,0,0-20.92,4.49h0a15.12,15.12,0,0,0,4.49,20.92c11.11,7.19,28,.07,28,.07S167.93,71,156.81,63.84Zm-.5,17.7h0a9.19,9.19,0,1,1-2.73-12.71h0A9.2,9.2,0,0,1,156.31,81.54Z"/>
      <polygon class="cls-1" points="84.11 24.75 86.71 26.51 89.14 22.93 86.54 21.17 83.54 19.14 82.97 18.74 81.15 21.42 76.91 27.67 80.48 30.1 84.11 24.75"/>
    </g>
  </g>
</svg>
