<svg xmlns="http://www.w3.org/2000/svg" width="124.78" height="173.52" viewBox="0 0 124.78 173.52">
  <defs>
    <style>
      .cls-1 {
        fill: #fffbef;
      }
    </style>
  </defs>
  <title>PlaceCal</title>
  <g id="Layer_1" data-name="Layer 1">
    <g>
      <polygon class="cls-1" points="89.09 156.26 88.02 154.52 85.62 156 86.69 157.74 87.93 159.74 88.17 160.13 89.96 159.03 94.15 156.45 92.67 154.05 89.09 156.26"/>
      <path class="cls-1" d="M124.78,105.82a22.32,22.32,0,0,1-29.1-23.94h0a22.32,22.32,0,0,1,24.89-19.4,23.21,23.21,0,0,1,4.21,1V28c-1.8.93-39.55,21-43.41,52.09a36.72,36.72,0,0,0,31.93,41h0a36.65,36.65,0,0,0,11.48-.38Z"/>
      <polygon class="cls-1" points="33.97 119.05 34.11 119.74 37.28 119.09 44.68 117.58 43.82 113.35 37.48 114.64 36.86 111.56 32.62 112.43 33.25 115.5 33.97 119.05"/>
      <polygon class="cls-1" points="119.09 80.7 118.42 79.83 114.38 82.97 104.97 90.31 109.17 95.7 117.23 89.42 120.27 93.33 124.78 89.82 124.78 88 122.62 85.22 119.09 80.7"/>
      <path class="cls-1" d="M55.18,130a23.23,23.23,0,0,0-6.56-32.2h0a23.24,23.24,0,0,0-32.2,6.55c-11.22,17-.55,43-.55,43S44,147,55.18,130ZM24,109.4a14.12,14.12,0,0,1,19.56-4h0A14.11,14.11,0,0,1,28,129h0A14.12,14.12,0,0,1,24,109.4Z"/>
      <path class="cls-1" d="M92.11,143.47h0a15.14,15.14,0,0,0-18.21,11.24c-1.61,6.79,1.06,13.75,4,18.81H95.59c3.47-3,6.61-7,7.76-11.84A15.13,15.13,0,0,0,92.11,143.47Zm5.47,16.84h0a9.19,9.19,0,0,1-11.06,6.83h0a9.19,9.19,0,1,1,11.06-6.83Z"/>
    </g>
  </g>
</svg>
