<svg xmlns="http://www.w3.org/2000/svg" width="161" height="621" viewBox="0 0 161 621">
  <defs>
    <style>
      .cls-1 {
        fill: #afcf5a;
      }
    </style>
  </defs>
  <title>PlaceCal</title>
  <g id="Layer_1" data-name="Layer 1">
    <g>
      <polygon class="cls-1" points="125.67 262.15 120.46 260.04 117.56 267.22 122.77 269.33 128.79 271.76 129.95 272.23 132.12 266.86 137.19 254.31 130.01 251.41 125.67 262.15"/>
      <polygon class="cls-1" points="135.03 456.95 137.75 455.27 135.25 451.21 137.22 450 135.54 447.28 133.57 448.5 131.3 449.9 130.86 450.17 132.11 452.2 135.03 456.95"/>
      <path class="cls-1" d="M129.1,467.38a17.15,17.15,0,0,0,20.64-12.73h0A17.15,17.15,0,0,0,137,434h0c-14.6-3.46-29.89,10.54-29.89,10.54S114.49,463.92,129.1,467.38Zm-6.19-19.08a10.43,10.43,0,0,1,12.54-7.74h0a10.41,10.41,0,0,1,7.73,12.53h0a10.42,10.42,0,0,1-20.27-4.8Z"/>
      <polygon class="cls-1" points="121.78 371.55 116.95 370.69 116.33 374.19 115.61 378.24 115.47 379.01 119.08 379.66 127.5 381.16 128.36 376.34 121.15 375.05 121.78 371.55"/>
      <path class="cls-1" d="M103.25,355.43h0c-18.91,13.18-18.52,45-18.52,45s29.74,11.38,48.64-1.8A26.33,26.33,0,0,0,139.92,362h0A26.34,26.34,0,0,0,103.25,355.43Zm24.21,34.72a16,16,0,0,1-22.27-4h0a16,16,0,1,1,22.27,4Z"/>
      <path class="cls-1" d="M45.93,534.38c22.63-4.33,35.26-33.56,35.26-33.56S58.67,478.31,36,482.64a26.34,26.34,0,0,0,9.9,51.74ZM38,492.8a16,16,0,0,1,18.71,12.7h0A16,16,0,1,1,38,492.8Z"/>
      <path class="cls-1" d="M161,578.91a25.3,25.3,0,0,1-27.61-2.84h0a25.28,25.28,0,0,1-3.63-35.57h0A25.29,25.29,0,0,1,161,534V516.47a41.67,41.67,0,0,0-43.92,13.69h0c-23,28.25-8.59,76.47-8.59,76.47s28.6,2.49,52.51-8.45Z"/>
      <polygon class="cls-1" points="152.25 546.62 144.54 547.41 145.12 553 145.78 559.46 145.9 560.71 151.67 560.12 161 559.16 161 551.38 152.82 552.21 152.25 546.62"/>
      <polygon class="cls-1" points="35.58 512.1 39.63 514.85 41.63 511.91 43.94 508.51 44.39 507.85 41.35 505.79 34.27 500.99 31.52 505.04 37.58 509.15 35.58 512.1"/>
      <polygon class="cls-1" points="43.67 264.15 41.55 263.21 40.25 266.12 42.37 267.06 44.81 268.16 45.28 268.37 46.25 266.19 48.53 261.1 45.61 259.8 43.67 264.15"/>
      <path class="cls-1" d="M161,311.54V242a41.66,41.66,0,0,0-49.46-13.18h0a41.64,41.64,0,0,0-22.06,54.6c14.23,33.54,63.61,43.3,63.61,43.3A118.67,118.67,0,0,0,161,311.54Zm-23.31-21.08h0a25.28,25.28,0,0,1-33.16-13.4h0a25.29,25.29,0,0,1,13.4-33.15h0a25.28,25.28,0,0,1,33.16,13.4h0A25.29,25.29,0,0,1,137.69,290.46Z"/>
      <path class="cls-1" d="M38.36,250.24h0a17.15,17.15,0,0,0-9.9,22.14c5.36,14,25.53,18.78,25.53,18.78s11.87-17,6.52-31A17.15,17.15,0,0,0,38.36,250.24ZM48.19,276h0a10.42,10.42,0,0,1-13.45-6h0a10.42,10.42,0,0,1,19.46-7.43h0A10.43,10.43,0,0,1,48.19,276Z"/>
    </g>
  </g>
</svg>
