<svg xmlns="http://www.w3.org/2000/svg" width="194" height="492" viewBox="0 0 194 492">
  <defs>
    <style>
      .cls-1 {
        fill: #afcf5a;
      }
    </style>
  </defs>
  <title>PlaceCal</title>
  <g id="Layer_1" data-name="Layer 1">
    <g>
      <polygon class="cls-1" points="82.53 195.11 76.42 199.87 83.53 209.01 79.1 212.46 83.86 218.57 88.29 215.12 93.42 211.12 94.4 210.35 90.84 205.78 82.53 195.11"/>
      <polygon class="cls-1" points="14.57 100.15 16.11 101.89 18.5 99.77 16.97 98.04 15.19 96.04 14.85 95.65 13.06 97.23 8.89 100.92 11 103.31 14.57 100.15"/>
      <polygon class="cls-1" points="67.68 311.05 73.74 315.16 71.74 318.1 75.8 320.86 77.8 317.91 80.1 314.51 80.55 313.86 77.51 311.8 70.43 306.99 67.68 311.05"/>
      <path class="cls-1" d="M153.19,217.65s-22.94-44.8-59.09-49.29A41.64,41.64,0,0,0,83.84,251C120,255.49,153.19,217.65,153.19,217.65Zm-39.13-4.85a25.28,25.28,0,0,1-50.18-6.23h0a25.28,25.28,0,1,1,50.18,6.23Z"/>
      <path class="cls-1" d="M0,106.7A17.12,17.12,0,0,0,13.66,115h0A17.15,17.15,0,0,0,31.83,99C32.75,84,16.35,71.3,16.35,71.3S5.08,78,0,88.25Zm4.32-9.44h0a10.41,10.41,0,0,1,20.79,1.28h0a10.42,10.42,0,0,1-11,9.75h0A10.4,10.4,0,0,1,4.32,97.26Z"/>
      <polygon class="cls-1" points="0 280.35 0 283.71 0.58 280.45 0 280.35"/>
      <path class="cls-1" d="M43.45,380.78A41.64,41.64,0,0,0,0,354.93v16.53a25.3,25.3,0,0,1,28.28,15.4h0a25.29,25.29,0,0,1-14,32.89h0A25.22,25.22,0,0,1,0,421.1v24.31a128.15,128.15,0,0,0,28.92,10.93S57,414.59,43.45,380.78Z"/>
      <polygon class="cls-1" points="155.24 408.53 154.75 406.27 151.63 406.94 152.12 409.2 152.68 411.81 152.79 412.31 155.12 411.81 160.57 410.65 159.9 407.53 155.24 408.53"/>
      <path class="cls-1" d="M163.33,396h0a17.15,17.15,0,0,0-23.72,5.08c-8.15,12.6-.07,31.7-.07,31.7s20.73-.46,28.87-13.07A17.14,17.14,0,0,0,163.33,396Zm-.57,20.05a10.41,10.41,0,0,1-14.4,3.09h0a10.41,10.41,0,1,1,14.4-3.09Z"/>
      <polygon class="cls-1" points="6.86 401.37 9.13 396.04 14.45 383.6 7.32 380.55 2.78 391.2 0 390.02 0 398.44 5.71 400.88 6.86 401.37"/>
      <path class="cls-1" d="M3.65,272A16,16,0,0,1,0,294v11.83a31.25,31.25,0,0,0,5.59-3.09,26.35,26.35,0,0,0,6.55-36.67h0A26.18,26.18,0,0,0,0,256.57v11.7A15.79,15.79,0,0,1,3.65,272Z"/>
      <polygon class="cls-1" points="64.96 32.99 61.47 33.7 57.45 34.52 56.67 34.67 57.4 38.27 59.11 46.65 63.91 45.67 62.45 38.49 65.93 37.79 64.96 32.99"/>
      <path class="cls-1" d="M74.1,14.62h0C54.87,1.9,25.42,14,25.42,14S25.8,45.83,45,58.55a26.34,26.34,0,0,0,36.5-7.43h0A26.34,26.34,0,0,0,74.1,14.62ZM72.9,45.41a16,16,0,1,1-4.51-22.17A16,16,0,0,1,72.9,45.41Z"/>
      <path class="cls-1" d="M72.19,288.64a26.34,26.34,0,0,0-20.92,30.82h0a26.34,26.34,0,0,0,30.82,20.92c22.64-4.33,35.26-33.56,35.26-33.56S94.83,284.31,72.19,288.64ZM92.85,311.5h0A16,16,0,1,1,74.14,298.8,16,16,0,0,1,92.85,311.51Z"/>
    </g>
  </g>
</svg>
