<?xml version="1.0" encoding="UTF-8" standalone="no"?>
<svg width="20px" height="20px" viewBox="0 0 20 20" version="1.1" xmlns="http://www.w3.org/2000/svg" xmlns:xlink="http://www.w3.org/1999/xlink">
    <!-- Generator: Sketch 47.1 (45422) - http://www.bohemiancoding.com/sketch -->
    <title>forms/radio/on</title>
    <desc>Created with Sketch.</desc>
    <defs></defs>
    <g id="Symbols" stroke="none" stroke-width="1" fill="none" fill-rule="evenodd">
        <g id="forms/radio/on">
            <path d="M10,0 C4.477,0 0,4.477 0,10 C0,15.523 4.477,20 10,20 C15.523,20 20,15.523 20,10 C20,4.477 15.523,0 10,0 M10,2 C14.411,2 18,5.589 18,10 C18,14.411 14.411,18 10,18 C5.589,18 2,14.411 2,10 C2,5.589 5.589,2 10,2" id="Fill-1" fill="#AFCF5A"></path>
            <polygon id="Fill-3" fill="#5B4E46" points="14.6858 8.8657 12.5718 6.7337 9.4098 9.9217 7.8748 8.3737 5.7608 10.5067 7.2958 12.0537 9.0688 13.8417 9.4098 14.1857 10.9918 12.5897"></polygon>
        </g>
    </g>
</svg>