<?xml version="1.0" encoding="UTF-8" standalone="no"?>
<svg width="191px" height="150px" viewBox="0 0 191 150" version="1.1" xmlns="http://www.w3.org/2000/svg" xmlns:xlink="http://www.w3.org/1999/xlink">
    <!-- Generator: Sketch 49.2 (51160) - http://www.bohemiancoding.com/sketch -->
    <title>support/adding-events</title>
    <desc>Created with Sketch.</desc>
    <defs>
        <polygon id="path-1" points="0.142579412 0.582017647 38.5598735 0.582017647 38.5598735 39 0.142579412 39"></polygon>
    </defs>
    <g id="support/adding-events" stroke="none" stroke-width="1" fill="none" fill-rule="evenodd">
        <g id="Group-10">
            <rect id="Rectangle-4" fill="#F1E9DA" x="0" y="0" width="191" height="150" rx="20"></rect>
            <path d="M94.2169231,94.5 L73.4996154,94.5 C70.7373077,94.5 68.5,92.2615385 68.5,89.5003846 L68.5,69.4996154 C68.5,66.7384615 70.7373077,64.5 73.4996154,64.5 L108.500385,64.5 C111.260385,64.5 113.5,66.7384615 113.5,69.4996154 L113.5,73.9719231 C114.766923,73.7584615 116.060385,73.6211538 117.388462,73.6211538 C118.619615,73.6211538 119.819615,73.7457692 121,73.9292308 L121,59.5003846 C121,54 116.5,49.5 110.999615,49.5 L110.999615,46.9996154 C110.999615,44.2384615 108.76,42 106,42 L103.499615,42 C100.737308,42 98.5,44.2384615 98.5,46.9996154 L98.5,49.5 L83.5,49.5 L83.5,46.9996154 C83.5,44.2384615 81.2603846,42 78.5003846,42 L76,42 C73.2376923,42 71.0003846,44.2384615 71.0003846,46.9996154 L71.0003846,49.5 C65.4976923,49.5 61,54 61,59.5003846 L61,91.9996154 C61,97.5 65.4976923,102 71.0003846,102 L94.6646154,102 C94.2988462,100.362692 94.0923077,98.6653846 94.0923077,96.9184615 C94.0923077,96.1015385 94.1361538,95.295 94.2169231,94.5" id="Fill-1" fill="#5B4E47"></path>
            <g id="Group-5" transform="translate(98.000000, 77.000000)">
                <mask id="mask-2" fill="white">
                    <use xlink:href="#path-1"></use>
                </mask>
                <g id="Clip-4"></g>
                <path d="M30.8218147,23.6149588 L23.1743735,23.6149588 L23.1743735,31.2624 L15.5269324,31.2624 L15.5269324,23.6149588 L7.88063824,23.6149588 L7.88063824,15.9675176 L15.5269324,15.9675176 L15.5269324,8.32122353 L23.1743735,8.32122353 L23.1743735,15.9675176 L30.8218147,15.9675176 L30.8218147,23.6149588 Z M19.3512265,0.582017647 C8.74207941,0.582017647 0.142579412,9.18266471 0.142579412,19.7918118 C0.142579412,30.3998118 8.74207941,39.0004588 19.3512265,39.0004588 C29.9592265,39.0004588 38.5598735,30.3998118 38.5598735,19.7918118 C38.5598735,9.18266471 29.9592265,0.582017647 19.3512265,0.582017647 Z" id="Fill-3" fill="#F19089" mask="url(#mask-2)"></path>
            </g>
        </g>
    </g>
</svg>