<?xml version="1.0" encoding="UTF-8" standalone="no"?>
<svg width="191px" height="150px" viewBox="0 0 191 150" version="1.1" xmlns="http://www.w3.org/2000/svg" xmlns:xlink="http://www.w3.org/1999/xlink">
    <!-- Generator: Sketch 49.2 (51160) - http://www.bohemiancoding.com/sketch -->
    <title>support/getting-help</title>
    <desc>Created with Sketch.</desc>
    <defs></defs>
    <g id="support/getting-help" stroke="none" stroke-width="1" fill="none" fill-rule="evenodd">
        <g id="Group-11">
            <rect id="Rectangle-4-Copy-2" fill="#F1E9DA" x="0" y="0" width="191" height="150" rx="20"></rect>
            <path d="M119.809771,20.1830965 C106.940794,22.0782595 95.2920263,31.9624551 90.8218523,39.814438 C85.402935,49.2923295 95.5621065,59.987749 99.6257751,59.987749 C106.128476,59.7171103 110.056412,54.0309291 111.275928,52.135074 C112.088939,50.9168538 112.494752,47.3964743 110.597957,49.0216908 C108.024578,50.9168538 98.9491896,55.1134839 96.6465825,53.0826555 C94.8855209,51.4581312 100.981024,43.0641788 110.597957,35.8884465 C118.319482,30.2022654 132.948827,24.9216962 137.012496,29.7959613 C140.534619,34.1282568 123.872747,55.519788 110.734383,67.5697853 C103.147898,74.3392134 96.6465825,81.5149457 95.2920263,87.8780696 C95.1562937,92.481696 100.710251,94.376859 100.981024,89.3676207 C101.793342,84.3583823 113.85,75.1518217 121.57014,68.923671 C131.188458,61.3416346 143.514504,54.4365411 147.848946,44.9593418 C154.215914,31.4204856 132.678055,18.2879335 119.809771,20.1830965 M90.415347,104.260362 C86.7574912,106.968134 87.4354618,112.113038 91.2283577,112.655007 C94.6140557,113.602589 98.6777243,112.383676 101.116756,111.57176 C104.096642,110.488513 107.076527,105.749914 104.367414,103.447754 C101.522569,100.875648 93.6660049,101.416926 90.415347,104.260362" id="Fill-10" fill="#F19089"></path>
            <path d="M60.9498875,113.830906 C60.0208506,113.277444 59.0306836,113 57.9800971,113 C56.9032105,113 55.9052245,113.271738 54.990404,113.810936 C54.0741618,114.35156 53.3469968,115.081902 52.8089089,116.000535 C52.2693994,116.919881 52,117.933373 52,119.04101 C52,120.095869 52.2693994,121.082259 52.8089089,122.000892 C53.3469968,122.920238 54.0741618,123.649153 54.990404,124.189777 C55.9052245,124.730401 56.9032105,125 57.9800971,125 C59.0306836,125 60.0208506,124.730401 60.9498875,124.189777 C61.8796351,123.649153 62.6203057,122.920238 63.1718991,122.000892 C63.7234925,121.082259 64,120.095869 64,119.04101 C64,117.961189 63.7234925,116.959822 63.1718991,116.041902 C62.6203057,115.122556 61.8796351,114.386508 60.9498875,113.830906" id="Fill-11" fill="#5B4E47"></path>
            <path d="M72.2269402,69.0424873 C71.1455819,67.8614999 69.8227753,66.8558796 68.2578325,66.0249412 C65.7552999,64.6761221 63.1488963,64 60.437246,64 C57.2839722,64 54.4161716,64.5206209 51.8359077,65.5584375 C49.1503971,66.6229702 47.0069414,68.2259345 45.4041648,70.3666454 C43.8007004,72.5080413 43,74.9809905 43,77.784808 C43,78.8233096 43.286161,79.8159144 43.8598587,80.7633074 C44.4328685,81.7113855 45.2411356,82.4758761 46.2839722,83.0602046 C47.3261209,83.644533 48.4989682,83.9370397 49.8032018,83.9370397 C51.4699518,83.9370397 52.8333438,83.3979231 53.8885623,82.3203749 C54.9444688,81.2441967 55.4727659,79.8611262 55.4727659,78.1732185 C55.4727659,77.3950273 55.3413795,76.7072597 55.0813583,76.1106008 C54.6129073,75.0453831 53.7908824,74.2671919 52.6180351,73.7739721 C51.6536177,73.3595304 50.6630605,73.1512821 49.6463636,73.1512821 C50.3500719,71.5681836 51.4582578,70.3214336 52.9702333,69.4130871 C54.4815209,68.5040557 56.1503346,68.0505675 57.9739228,68.0505675 C60.4771434,68.0505675 62.6797574,68.9198674 64.5831405,70.6584671 C65.5207304,71.5421525 66.2567694,72.6964238 66.7919455,74.1240211 C67.3257457,75.5523034 67.5940216,77.1484174 67.5940216,78.9130482 C67.5940216,82.3148947 66.277406,85.8832028 63.6441748,89.6213978 C62.3399412,91.4648067 61.2592708,93.0746213 60.3994122,94.4494714 C59.2258771,96.2408183 58.2738415,98.3041211 57.5446814,100.64075 C56.8141455,102.976693 56.4495654,105.430462 56.4495654,108 L59.0305172,108 C59.9426552,105.015335 62.3929085,101.588828 66.381277,97.7204777 C68.0755425,96.059971 69.5868301,94.489203 70.9172034,93.0095437 C72.4807704,91.2449129 73.718279,89.2576482 74.6317929,87.0518597 C75.5432431,84.8460712 76,82.521773 76,80.0817051 C76,77.6416372 75.634732,75.4618798 74.904884,73.5396927 C74.2011757,71.7236848 73.3082984,70.2248447 72.2269402,69.0424873" id="Fill-12" fill="#5B4E47"></path>
            <path d="M138.752404,82.5423552 C136.736588,81.5141184 134.362146,81 131.630445,81 C129.077715,81 126.826914,81.2461495 124.878724,81.7377667 C122.930534,82.2300658 120.970732,82.9446494 119,83.8835633 L119.940623,91.7964864 C121.687983,90.9482593 123.311019,90.311407 124.811781,89.8859297 C126.31186,89.4611343 127.912354,89.2483956 129.615312,89.2483956 C131.451474,89.2483956 132.907151,89.6956923 133.982345,90.5896037 C135.056855,91.484197 135.594451,92.7354003 135.594451,94.3452591 C135.594451,95.9101155 135.202354,97.2622333 134.418843,98.4022942 C133.634649,99.5423552 132.212443,101.141304 130.152908,103.197096 C128.360465,104.985601 126.994956,106.695692 126.054332,108.32737 C125.113709,109.95973 124.643739,111.960292 124.643739,114.329055 L124.643739,115 L133.444065,115 L133.444065,113.926761 C133.444065,112.183258 133.881246,110.629994 134.754243,109.266284 C135.628606,107.902575 136.915559,106.371811 138.617834,104.67263 C140.767537,102.526833 142.368714,100.571274 143.421365,98.8045885 C144.473333,97.0392668 145,95.0605246 145,92.8697257 C145,90.5896037 144.462403,88.5556313 143.387893,86.7671266 C142.3127,84.9793037 140.767537,83.5712739 138.752404,82.5423552" id="Fill-13" fill="#5B4E47"></path>
            <polygon id="Fill-14" fill="#5B4E47" points="125 130 134 130 134 121 125 121"></polygon>
        </g>
    </g>
</svg>